<svg width="30" height="30" viewBox="0 0 30 30" fill="none" xmlns="http://www.w3.org/2000/svg">
<circle cx="15" cy="15" r="15" fill="#EA4335"/>
<g clip-path="url(#clip0_721_10498)">
<path d="M21.8632 15.1611C21.8632 14.6853 21.8246 14.2069 21.7423 13.7388H15.1396V16.4343H18.9207C18.7638 17.3037 18.2596 18.0728 17.5214 18.5615V20.3105H19.7772C21.1018 19.0913 21.8632 17.2909 21.8632 15.1611Z" fill="white"/>
<path d="M15.14 22.0004C17.0279 22.0004 18.6201 21.3806 19.7801 20.3106L17.5243 18.5615C16.8967 18.9885 16.0865 19.2303 15.1426 19.2303C13.3164 19.2303 11.7679 17.9982 11.2124 16.3418H8.88461V18.1448C10.0729 20.5086 12.4933 22.0004 15.14 22.0004V22.0004Z" fill="white"/>
<path d="M11.2095 16.3416C10.9162 15.4722 10.9162 14.5308 11.2095 13.6614V11.8584H8.88427C7.89144 13.8364 7.89144 16.1667 8.88427 18.1446L11.2095 16.3416V16.3416Z" fill="white"/>
<path d="M15.14 10.7706C16.138 10.7552 17.1025 11.1307 17.8253 11.8201L19.8238 9.82153C18.5583 8.63321 16.8787 7.97989 15.14 8.00047C12.4933 8.00047 10.0729 9.4923 8.88461 11.8586L11.2098 13.6617C11.7628 12.0027 13.3138 10.7706 15.14 10.7706V10.7706Z" fill="white"/>
</g>
<defs>
<clipPath id="clip0_721_10498">
<rect width="14" height="14" fill="white" transform="translate(8 8)"/>
</clipPath>
</defs>
</svg>
