<svg width="30" height="30" viewBox="0 0 30 30" fill="none" xmlns="http://www.w3.org/2000/svg">
<circle cx="15" cy="15" r="15" fill="#28A8EA"/>
<g clip-path="url(#clip0_721_10495)">
<path fill-rule="evenodd" clip-rule="evenodd" d="M8.89368 14.7354C12.3833 13.1831 14.7103 12.1597 15.8746 11.6652C19.199 10.2534 19.8897 10.0082 20.34 10.0001C20.439 9.99831 20.6604 10.0234 20.8038 10.1422C20.9249 10.2425 20.9583 10.3781 20.9742 10.4732C20.9901 10.5683 21.01 10.785 20.9942 10.9543C20.8141 12.887 20.0346 17.5769 19.638 19.7415C19.4702 20.6574 19.1398 20.9645 18.8199 20.9945C18.1248 21.0599 17.5969 20.5255 16.9236 20.0749C15.8701 19.3697 15.2749 18.9308 14.2522 18.2427C13.0703 17.4475 13.8365 17.0104 14.51 16.2961C14.6863 16.1092 17.7492 13.2647 17.8084 13.0067C17.8159 12.9744 17.8227 12.8541 17.7527 12.7906C17.6828 12.7271 17.5794 12.7488 17.5049 12.7661C17.3992 12.7906 15.7162 13.9264 12.4557 16.1736C11.9779 16.5085 11.5452 16.6717 11.1575 16.6632C10.7301 16.6538 9.90793 16.4164 9.29673 16.2136C8.54708 15.9648 7.95127 15.8332 8.00315 15.4107C8.03017 15.1906 8.32702 14.9655 8.89368 14.7354Z" fill="white"/>
</g>
<defs>
<clipPath id="clip0_721_10495">
<rect width="18" height="18" fill="white" transform="translate(6 6)"/>
</clipPath>
</defs>
</svg>
