<svg width="30" height="30" viewBox="0 0 30 30" fill="none" xmlns="http://www.w3.org/2000/svg">
<circle cx="15" cy="15" r="15" fill="#1DA1F2"/>
<path d="M12.0317 21.5003C18.0694 21.5003 21.3718 16.4981 21.3718 12.1602C21.3718 12.0181 21.3718 11.8767 21.3622 11.7359C22.0047 11.2712 22.5593 10.6958 23 10.0367C22.4009 10.3023 21.7654 10.4764 21.1146 10.5531C21.7999 10.1429 22.3128 9.49767 22.5578 8.73746C21.9134 9.11987 21.2084 9.38935 20.4733 9.53426C19.9783 9.00798 19.3237 8.65949 18.6108 8.54272C17.8978 8.42595 17.1663 8.54741 16.5293 8.8883C15.8923 9.22919 15.3855 9.77051 15.0872 10.4285C14.7888 11.0865 14.7157 11.8244 14.879 12.5282C13.5739 12.4627 12.2972 12.1235 11.1316 11.5327C9.9661 10.9418 8.93784 10.1124 8.1136 9.09842C7.69382 9.82109 7.56525 10.6766 7.75407 11.4907C7.94288 12.3048 8.43489 13.0164 9.12992 13.4805C8.60749 13.4652 8.09643 13.3243 7.64 13.0696V13.1112C7.64021 13.8691 7.90257 14.6036 8.38258 15.1901C8.86259 15.7766 9.53071 16.1791 10.2736 16.3291C9.79032 16.461 9.28325 16.4802 8.79136 16.3855C9.00121 17.0377 9.40962 17.608 9.95949 18.0168C10.5094 18.4255 11.1732 18.6522 11.8582 18.6651C11.1776 19.2001 10.3982 19.5957 9.56458 19.8291C8.73096 20.0626 7.85948 20.1294 7 20.0258C8.50122 20.9891 10.2479 21.5001 12.0317 21.4978" fill="white"/>
</svg>
