<svg width="14" height="18" viewBox="0 0 14 18" fill="none" xmlns="http://www.w3.org/2000/svg">
<path d="M8.66683 10.6665H5.3335C5.11248 10.6665 4.90052 10.7543 4.74424 10.9106C4.58796 11.0669 4.50016 11.2788 4.50016 11.4998C4.50016 11.7209 4.58796 11.9328 4.74424 12.0891C4.90052 12.2454 5.11248 12.3332 5.3335 12.3332H8.66683C8.88784 12.3332 9.0998 12.2454 9.25608 12.0891C9.41236 11.9328 9.50016 11.7209 9.50016 11.4998C9.50016 11.2788 9.41236 11.0669 9.25608 10.9106C9.0998 10.7543 8.88784 10.6665 8.66683 10.6665ZM13.6668 6.44984C13.6581 6.37328 13.6414 6.29786 13.6168 6.22484V6.14984C13.5768 6.06415 13.5233 5.98539 13.4585 5.9165L8.4585 0.916504C8.38961 0.851684 8.31085 0.798238 8.22516 0.75817H8.15016C8.06551 0.709622 7.97202 0.678457 7.87516 0.666504H2.8335C2.17045 0.666504 1.53457 0.929896 1.06573 1.39874C0.596888 1.86758 0.333496 2.50346 0.333496 3.1665V14.8332C0.333496 15.4962 0.596888 16.1321 1.06573 16.6009C1.53457 17.0698 2.17045 17.3332 2.8335 17.3332H11.1668C11.8299 17.3332 12.4658 17.0698 12.9346 16.6009C13.4034 16.1321 13.6668 15.4962 13.6668 14.8332V6.49984C13.6668 6.49984 13.6668 6.49984 13.6668 6.44984ZM8.66683 3.50817L10.8252 5.6665H9.50016C9.27915 5.6665 9.06719 5.57871 8.91091 5.42243C8.75463 5.26615 8.66683 5.05418 8.66683 4.83317V3.50817ZM12.0002 14.8332C12.0002 15.0542 11.9124 15.2661 11.7561 15.4224C11.5998 15.5787 11.3878 15.6665 11.1668 15.6665H2.8335C2.61248 15.6665 2.40052 15.5787 2.24424 15.4224C2.08796 15.2661 2.00016 15.0542 2.00016 14.8332V3.1665C2.00016 2.94549 2.08796 2.73353 2.24424 2.57725C2.40052 2.42097 2.61248 2.33317 2.8335 2.33317H7.00016V4.83317C7.00016 5.49621 7.26355 6.1321 7.7324 6.60094C8.20124 7.06978 8.83712 7.33317 9.50016 7.33317H12.0002V14.8332Z" fill="white"/>
</svg>
