<svg width="118" height="29" viewBox="0 0 118 29" fill="none" xmlns="http://www.w3.org/2000/svg">
<path d="M38.3697 15.5883C38.0249 17.3187 37.412 20.3067 37.0309 22.1873C37.0309 22.1873 51.8942 22.1859 53.3888 22.1868L54.7255 15.5883C52.6515 15.5883 38.3697 15.5883 38.3697 15.5883ZM39.1657 9.17871H56.6208C59.8483 9.17871 61.8597 12.1322 61.1154 15.7755L59.8613 21.8697C59.8169 22.0846 59.7645 22.2973 59.7041 22.5065L51.4425 28.467H35.2137C31.9862 28.467 29.9738 25.514 30.7191 21.8697L31.9732 15.7755C32.718 12.1322 35.9387 9.17871 39.1657 9.17871Z" fill="#004388"/>
<path d="M22.3961 22.1867L23.7335 15.588H7.36548C7.34873 15.6706 6.62869 19.2268 6.02878 22.1865C6.82127 22.1886 22.3961 22.1867 22.3961 22.1867ZM33.4841 0.0175781L28.9269 22.5019L20.6579 28.4657L4.234 28.4669C1.04706 28.4669 -0.939829 25.5139 -0.204453 21.8701L1.03431 15.775C1.76992 12.1317 4.94979 9.17862 8.13673 9.17862H25.07L26.9247 0.0178146L33.4841 0.0175781Z" fill="#004388"/>
<path d="M107.624 28.4666L110.234 15.5886L93.9059 15.5891C93.5075 17.6022 92.8623 20.7911 92.5793 22.188C91.9839 22.1878 106.67 22.1878 106.67 22.1878L106.607 22.4928L98.9844 28.467L90.6111 28.4666C87.3845 28.4666 85.4035 25.5145 86.1483 21.8709L87.3713 15.7765C88.1161 12.1332 91.3363 9.17969 94.5639 9.17969H112.437C115.556 9.17969 117.539 11.937 116.998 15.4095L114.354 28.4668L107.624 28.4666Z" fill="#004388"/>
<path d="M72.5292 0.0175781L69.4133 15.3989L69.6406 15.4001L78.2676 9.17886H87.9523L87.8905 9.48413L75.3801 18.5018L86.4629 28.1621L86.4016 28.4672L76.7534 28.4662L68.4736 21.248L68.2274 21.2487L66.7652 28.4662H60.2056L65.9701 0.0175781H72.5292Z" fill="#004388"/>
</svg>
