<svg width="68" height="68" viewBox="0 0 68 68" fill="none" xmlns="http://www.w3.org/2000/svg">
<path fill-rule="evenodd" clip-rule="evenodd" d="M33.6305 0.623047C52.2659 0.623047 67.5126 15.6023 67.5126 33.9385C67.3914 52.3948 52.2648 67.3764 33.6294 67.3764C14.8738 67.2574 -0.374023 52.396 -0.374023 33.9396C-0.374023 15.6023 14.875 0.623047 33.6305 0.623047Z" fill="#F91F2B"/>
<path fill-rule="evenodd" clip-rule="evenodd" d="M58.9457 22.3828H59.3061C59.3061 23.2407 58.8256 23.9751 58.1048 24.4647C57.2639 24.9555 56.1838 25.2014 55.2227 25.2014H54.0214C49.6989 24.9555 48.7367 29.6101 49.2183 33.0407C49.4534 35.2241 50.2841 37.3009 51.6199 39.0439C52.7011 40.2679 54.3818 41.0046 55.8234 39.7783C57.0247 38.798 57.384 36.4713 57.384 35.1237C57.384 32.7959 56.5442 29.1205 53.6621 29.1205C52.7011 29.1205 51.8601 29.6101 51.3807 30.3456C50.9021 31.2952 50.6547 32.3445 50.6588 33.4079H50.1783C49.819 30.5904 51.1393 28.2625 54.1415 28.1401C57.6243 28.1401 59.7855 30.9587 59.7855 34.5106C59.7855 38.0636 57.6243 41.3718 54.0225 41.3718C52.3407 41.4942 50.6588 40.6351 49.5787 39.2887C48.4975 37.9412 48.017 35.7346 48.017 32.9194C48.017 29.3653 48.4975 27.2833 49.5787 25.5675C50.6588 23.9751 52.3407 22.9948 54.2617 23.1172H55.9435C56.6643 23.2407 57.5041 23.1172 58.2249 22.9948C58.5853 22.9948 58.8256 22.75 58.9457 22.3828ZM34.3263 28.3849L38.65 38.0636L42.6133 29.2429L42.9737 28.5085H46.215V28.9981H45.8557C45.3752 28.9981 45.0148 29.4877 45.0148 29.9784V40.1467C45.0148 40.6363 45.3752 41.1259 45.8557 41.1259H46.215V41.4942H41.7723V41.1259H42.1316C42.6133 41.1259 42.9737 40.6363 42.9737 40.1467V30.7128L38.1683 41.4942H37.9281L33.2451 30.468V40.0243C33.2451 40.5139 33.6055 41.0035 34.0861 41.0035H34.4465V41.3718H31.2029V41.0035H31.4431C31.9248 41.0035 32.2852 40.5139 32.2852 40.0243V29.856C32.2852 29.3653 31.9248 28.8757 31.4431 28.8757H31.2029C30.8436 28.9339 30.5074 29.0907 30.2319 29.3286C29.9564 29.5665 29.7523 29.8762 29.6423 30.2232L25.0783 40.2691C24.8381 41.0035 24.1184 41.3718 23.3976 41.3718H22.3164L22.0761 40.0231C22.3164 40.2691 22.6768 40.5139 23.0361 40.6363C23.3976 40.8811 23.8781 40.7587 24.1184 40.2691V40.1467L24.7191 38.9215L20.6345 30.3456C20.1551 29.4877 19.7947 28.9969 19.1941 28.8757V28.3849H23.2763V28.8757H22.9159C22.5567 28.8757 22.4365 29.3653 22.6779 29.856L25.7991 36.4713L28.6812 30.1008C29.0416 29.4888 28.8013 28.9981 28.2018 28.8757V28.3849H34.3263ZM15.7113 29.2429V39.9019C15.7113 40.3915 15.3509 40.8811 14.8704 40.8811H14.51V41.2471H18.9527V40.8811H18.5934C18.1129 40.8811 17.7525 40.3915 17.7525 39.9019V29.7336C17.7525 29.2429 18.1129 28.7533 18.5934 28.7533H18.9527V28.2625H6.70361V28.7533H7.06401C7.54455 28.7533 7.90381 29.2429 7.90381 29.7336V39.9019C7.90381 40.3915 7.54455 40.8811 7.06401 40.8811H6.70361V41.2471H11.1463V40.8811H10.787C10.3065 40.8811 9.94608 40.3915 9.94608 39.9019V29.2429H15.7113Z" fill="white"/>
</svg>
