<svg width="64" height="64" viewBox="0 0 64 64" fill="none" xmlns="http://www.w3.org/2000/svg">
<path d="M10.8002 51.3H7.8002C7.2002 51.3 6.7002 50.8 6.7002 50.2V43.1C6.7002 42.5 7.2002 42 7.8002 42H10.8002C11.4002 42 11.9002 42.5 11.9002 43.1V50.2C12.0002 50.8 11.4002 51.3 10.8002 51.3Z" fill="#A3BAC9" stroke="#004071" stroke-width="1.4866" stroke-miterlimit="10" stroke-linecap="round"/>
<path d="M19.9003 51.2998H16.9003C16.3003 51.2998 15.8003 50.7998 15.8003 50.1998V39.8998C15.8003 39.2998 16.3003 38.7998 16.9003 38.7998H19.9003C20.5003 38.7998 21.0003 39.2998 21.0003 39.8998V50.1998C21.0003 50.7998 20.5003 51.2998 19.9003 51.2998Z" fill="#A3BAC9" stroke="#004071" stroke-width="1.4866" stroke-miterlimit="10" stroke-linecap="round"/>
<path d="M28.9003 51.3001H25.9003C25.3003 51.3001 24.8003 50.8001 24.8003 50.2001V35.7001C24.8003 35.1001 25.3003 34.6001 25.9003 34.6001H28.9003C29.5003 34.6001 30.0003 35.1001 30.0003 35.7001V50.2001C30.1003 50.8001 29.5003 51.3001 28.9003 51.3001Z" fill="#A3BAC9" stroke="#004071" stroke-width="1.4866" stroke-miterlimit="10" stroke-linecap="round"/>
<path d="M38.0003 51.2999H34.9003C34.3003 51.2999 33.8003 50.7999 33.8003 50.1999V26.9999C33.8003 26.3999 34.3003 25.8999 34.9003 25.8999H38.0003C38.6003 25.8999 39.1003 26.3999 39.1003 26.9999V50.1999C39.1003 50.7999 38.6003 51.2999 38.0003 51.2999Z" fill="#A3BAC9" stroke="#004071" stroke-width="1.4866" stroke-miterlimit="10" stroke-linecap="round"/>
<path d="M47.0999 51.3H43.9999C43.3999 51.3 42.8999 50.8 42.8999 50.2V16.6C42.8999 16 43.3999 15.5 43.9999 15.5H47.0999C47.6999 15.5 48.1999 16 48.1999 16.6V50.2C48.1999 50.8 47.6999 51.3 47.0999 51.3Z" fill="#A3BAC9" stroke="#004071" stroke-width="1.4866" stroke-miterlimit="10" stroke-linecap="round"/>
<path d="M5.6001 35.8999C6.3001 35.6999 6.9001 35.4999 7.6001 35.2999C7.6001 35.2999 8.4001 34.9999 9.3001 34.6999C12.3001 33.5999 14.7001 32.3999 14.7001 32.3999C16.2001 31.6999 19.4001 30.0999 23.2001 27.4999C23.2001 27.4999 25.5001 25.9999 27.6001 24.2999C35.1001 18.2999 43.1001 7.0999 44.0001 5.8999" fill="white"/>
<path d="M5.6001 35.9001C6.3001 35.7001 6.9001 35.5001 7.6001 35.3001C7.6001 35.3001 8.4001 35.0001 9.3001 34.7001C12.3001 33.6001 14.7001 32.4001 14.7001 32.4001C16.2001 31.7001 19.4001 30.1001 23.2001 27.5001C23.2001 27.5001 25.5001 26.0001 27.6001 24.3001C34.3001 19.0001 41.5001 9.4001 43.5001 6.6001" stroke="#004071" stroke-width="1.3" stroke-miterlimit="10" stroke-linecap="round"/>
<path d="M43.4001 11.9999C43.2001 11.9999 43.1001 11.7999 43.1001 11.6999L43.4001 6.6999L38.8001 8.4999C38.6001 8.5999 38.4001 8.4999 38.4001 8.2999C38.3001 8.0999 38.4001 7.8999 38.6001 7.8999L43.7001 5.8999C43.8001 5.8999 43.9001 5.8999 44.0001 5.8999C44.1001 5.8999 44.1001 6.0999 44.1001 6.1999L43.7001 11.6999C43.7001 11.7999 43.7001 11.7999 43.6001 11.8999C43.6001 11.8999 43.5001 11.9999 43.4001 11.9999Z" fill="#004071"/>
<path d="M6.5 58.0996H10.5H16.6H48.2" stroke="#004071" stroke-width="1.3407" stroke-miterlimit="10" stroke-linecap="round"/>
<path d="M57.7002 55.6005C57.7002 56.5005 55.2002 57.2005 52.2002 57.2005C49.2002 57.2005 46.7002 56.5005 46.7002 55.6005V53.6005C46.7002 53.5005 46.8002 53.5005 46.8002 53.5005C47.5002 53.6005 50.2002 54.0005 52.2002 54.0005C54.1002 54.0005 56.9002 53.6005 57.6002 53.5005C57.7002 53.5005 57.7002 53.5005 57.7002 53.6005V55.6005Z" fill="white" stroke="#004071" stroke-width="1.3" stroke-miterlimit="10" stroke-linecap="round"/>
<path d="M52.2002 55.0003C55.2378 55.0003 57.7002 54.284 57.7002 53.4003C57.7002 52.5166 55.2378 51.8003 52.2002 51.8003C49.1626 51.8003 46.7002 52.5166 46.7002 53.4003C46.7002 54.284 49.1626 55.0003 52.2002 55.0003Z" fill="white" stroke="#004071" stroke-width="1.3" stroke-miterlimit="10" stroke-linecap="round"/>
<path d="M57.7002 53.4003C57.7002 54.3003 55.2002 55.0003 52.2002 55.0003C49.2002 55.0003 46.7002 54.3003 46.7002 53.4003V51.4003C46.7002 51.3003 46.8002 51.3003 46.8002 51.3003C47.5002 51.4003 50.2002 51.8003 52.2002 51.8003C54.1002 51.8003 56.9002 51.4003 57.6002 51.3003C57.7002 51.3003 57.7002 51.3003 57.7002 51.4003V53.4003Z" fill="white" stroke="#004071" stroke-width="1.3" stroke-miterlimit="10" stroke-linecap="round"/>
<path d="M52.2002 52.9002C55.2378 52.9002 57.7002 52.1838 57.7002 51.3002C57.7002 50.4165 55.2378 49.7002 52.2002 49.7002C49.1626 49.7002 46.7002 50.4165 46.7002 51.3002C46.7002 52.1838 49.1626 52.9002 52.2002 52.9002Z" fill="white" stroke="#004071" stroke-width="1.3" stroke-miterlimit="10" stroke-linecap="round"/>
<path d="M57.7002 51.3002C57.7002 52.2002 55.2002 52.9002 52.2002 52.9002C49.2002 52.9002 46.7002 52.2002 46.7002 51.3002V49.3002C46.7002 49.2002 46.8002 49.2002 46.8002 49.2002C47.5002 49.3002 50.2002 49.7002 52.2002 49.7002C54.1002 49.7002 56.9002 49.3002 57.6002 49.2002C57.7002 49.2002 57.7002 49.2002 57.7002 49.3002V51.3002Z" fill="white" stroke="#004071" stroke-width="1.3" stroke-miterlimit="10" stroke-linecap="round"/>
<path d="M52.2002 50.7C55.2378 50.7 57.7002 49.9837 57.7002 49.1C57.7002 48.2163 55.2378 47.5 52.2002 47.5C49.1626 47.5 46.7002 48.2163 46.7002 49.1C46.7002 49.9837 49.1626 50.7 52.2002 50.7Z" fill="white" stroke="#004071" stroke-width="1.3" stroke-miterlimit="10" stroke-linecap="round"/>
<path d="M57.7002 49.1005C57.7002 50.0005 55.2002 50.7005 52.2002 50.7005C49.2002 50.7005 46.7002 50.0005 46.7002 49.1005V47.1005C46.7002 47.0005 46.8002 47.0005 46.8002 47.0005C47.5002 47.1005 50.2002 47.5005 52.2002 47.5005C54.1002 47.5005 56.9002 47.1005 57.6002 47.0005C57.7002 47.0005 57.7002 47.0005 57.7002 47.1005V49.1005Z" fill="white" stroke="#004071" stroke-width="1.3" stroke-miterlimit="10" stroke-linecap="round"/>
<path d="M52.2002 48.5003C55.2378 48.5003 57.7002 47.784 57.7002 46.9003C57.7002 46.0166 55.2378 45.3003 52.2002 45.3003C49.1626 45.3003 46.7002 46.0166 46.7002 46.9003C46.7002 47.784 49.1626 48.5003 52.2002 48.5003Z" fill="white" stroke="#004071" stroke-width="1.3" stroke-miterlimit="10" stroke-linecap="round"/>
<path d="M57.7002 46.9003C57.7002 47.8003 55.2002 48.5003 52.2002 48.5003C49.2002 48.5003 46.7002 47.8003 46.7002 46.9003V44.9003C46.7002 44.8003 46.8002 44.8003 46.8002 44.8003C47.5002 44.9003 50.2002 45.3003 52.2002 45.3003C54.1002 45.3003 56.9002 44.9003 57.6002 44.8003C57.7002 44.8003 57.7002 44.8003 57.7002 44.9003V46.9003Z" fill="white" stroke="#004071" stroke-width="1.3" stroke-miterlimit="10" stroke-linecap="round"/>
<path d="M52.2002 46.3001C55.2378 46.3001 57.7002 45.5838 57.7002 44.7001C57.7002 43.8164 55.2378 43.1001 52.2002 43.1001C49.1626 43.1001 46.7002 43.8164 46.7002 44.7001C46.7002 45.5838 49.1626 46.3001 52.2002 46.3001Z" fill="white" stroke="#004071" stroke-width="1.3" stroke-miterlimit="10" stroke-linecap="round"/>
<path d="M57.7002 44.7001C57.7002 45.6001 55.2002 46.3001 52.2002 46.3001C49.2002 46.3001 46.7002 45.6001 46.7002 44.7001V42.7001C46.7002 42.6001 46.8002 42.6001 46.8002 42.6001C47.5002 42.7001 50.2002 43.1001 52.2002 43.1001C54.1002 43.1001 56.9002 42.7001 57.6002 42.6001C57.7002 42.6001 57.7002 42.6001 57.7002 42.7001V44.7001Z" fill="white" stroke="#004071" stroke-width="1.3" stroke-miterlimit="10" stroke-linecap="round"/>
<path d="M52.2002 44.2C55.2378 44.2 57.7002 43.4837 57.7002 42.6C57.7002 41.7163 55.2378 41 52.2002 41C49.1626 41 46.7002 41.7163 46.7002 42.6C46.7002 43.4837 49.1626 44.2 52.2002 44.2Z" fill="white" stroke="#004071" stroke-width="1.3" stroke-miterlimit="10" stroke-linecap="round"/>
<path d="M57.7002 42.6005C57.7002 43.5005 55.2002 44.2005 52.2002 44.2005C49.2002 44.2005 46.7002 43.5005 46.7002 42.6005V40.6005C46.7002 40.5005 46.8002 40.5005 46.8002 40.5005C47.5002 40.6005 50.2002 41.0005 52.2002 41.0005C54.1002 41.0005 56.9002 40.6005 57.6002 40.5005C57.7002 40.5005 57.7002 40.5005 57.7002 40.6005V42.6005Z" fill="white" stroke="#004071" stroke-width="1.3" stroke-miterlimit="10" stroke-linecap="round"/>
<path d="M52.2002 42.0003C55.2378 42.0003 57.7002 41.284 57.7002 40.4003C57.7002 39.5166 55.2378 38.8003 52.2002 38.8003C49.1626 38.8003 46.7002 39.5166 46.7002 40.4003C46.7002 41.284 49.1626 42.0003 52.2002 42.0003Z" fill="white" stroke="#004071" stroke-width="1.3" stroke-miterlimit="10" stroke-linecap="round"/>
<path d="M57.7002 40.4003C57.7002 41.3003 55.2002 42.0003 52.2002 42.0003C49.2002 42.0003 46.7002 41.3003 46.7002 40.4003V38.4003C46.7002 38.3003 46.8002 38.3003 46.8002 38.3003C47.5002 38.4003 50.2002 38.8003 52.2002 38.8003C54.1002 38.8003 56.9002 38.4003 57.6002 38.3003C57.7002 38.3003 57.7002 38.3003 57.7002 38.4003V40.4003Z" fill="white" stroke="#004071" stroke-width="1.3" stroke-miterlimit="10" stroke-linecap="round"/>
<path d="M52.2002 39.8001C55.2378 39.8001 57.7002 39.0838 57.7002 38.2001C57.7002 37.3164 55.2378 36.6001 52.2002 36.6001C49.1626 36.6001 46.7002 37.3164 46.7002 38.2001C46.7002 39.0838 49.1626 39.8001 52.2002 39.8001Z" fill="white" stroke="#004071" stroke-width="1.3" stroke-miterlimit="10" stroke-linecap="round"/>
<path d="M56.9003 23.0997C58.7003 24.1997 59.0003 27.1997 57.4003 29.7997C55.8003 32.3997 53.1003 33.5997 51.3003 32.4997L49.4003 31.3997C49.3003 31.3997 49.3003 31.2997 49.3003 31.1997C49.3003 30.5997 49.5003 27.8997 50.8003 25.7997C52.1003 23.6997 54.7003 22.3997 55.2003 22.1997C55.3003 22.1997 55.3003 22.1997 55.4003 22.1997L56.9003 23.0997Z" fill="white" stroke="#004071" stroke-width="1.3" stroke-miterlimit="10" stroke-linecap="round"/>
<path d="M55.7769 28.7794C57.308 26.22 57.0507 23.2487 55.2022 22.1429C53.3538 21.0371 50.614 22.2155 49.0829 24.7749C47.5518 27.3343 47.809 30.3056 49.6575 31.4114C51.506 32.5173 54.2457 31.3389 55.7769 28.7794Z" fill="white" stroke="#004071" stroke-width="1.3" stroke-miterlimit="10" stroke-linecap="round"/>
<path d="M54.0003 25.5998C53.9003 25.9998 53.7003 26.1998 53.3003 26.0998C53.1003 25.9998 53.0003 25.8998 53.0003 25.6998C53.0003 25.5998 53.1003 25.5998 53.1003 25.4998C53.1003 25.2998 53.1003 25.0998 53.0003 24.9998C52.9003 24.8998 52.8003 24.7998 52.6003 24.6998C52.3003 24.5998 52.1003 24.6998 51.8003 24.7998C51.5003 24.8998 51.4003 25.0998 51.3003 25.2998C51.3003 25.3998 51.3003 25.5998 51.4003 25.6998C51.5003 25.7998 51.6003 25.8998 51.9003 26.0998C52.4003 26.4998 52.8003 26.8998 53.0003 27.1998C53.2003 27.5998 53.3003 27.9998 53.2003 28.3998C53.1003 28.7998 52.9003 29.0998 52.5003 29.2998C52.1003 29.4998 51.7003 29.5998 51.2003 29.4998C51.1003 29.7998 50.9003 30.0998 50.8003 30.3998C50.7003 30.5998 50.5003 30.5998 50.3003 30.5998C50.0003 30.4998 49.9003 30.3998 50.0003 30.0998C50.0003 29.9998 50.1003 29.6998 50.3003 29.2998C49.6003 28.8998 49.3003 28.4998 49.5003 27.8998C49.6003 27.6998 49.7003 27.4998 49.8003 27.3998C50.0003 27.2998 50.2003 27.2998 50.4003 27.2998C50.5003 27.2998 50.6003 27.3998 50.7003 27.4998C50.8003 27.5998 50.8003 27.6998 50.7003 27.7998C50.7003 27.8998 50.6003 27.8998 50.5003 27.8998C50.4003 27.8998 50.3003 27.9998 50.3003 27.9998C50.3003 28.0998 50.3003 28.1998 50.5003 28.3998C50.7003 28.4998 50.8003 28.5998 51.1003 28.6998C51.4003 28.7998 51.7003 28.7998 51.9003 28.5998C52.1003 28.3998 52.3003 28.2998 52.4003 28.0998C52.5003 27.6998 52.2003 27.2998 51.6003 26.6998C51.1003 26.2998 50.8003 25.9998 50.7003 25.8998C50.5003 25.5998 50.4003 25.2998 50.5003 24.9998C50.6003 24.6998 50.8003 24.3998 51.1003 24.1998C51.4003 23.9998 51.8003 23.7998 52.3003 23.7998C52.4003 23.3998 52.5003 23.0998 52.6003 22.9998C52.7003 22.7998 52.9003 22.7998 53.1003 22.7998C53.2003 22.7998 53.3003 22.8998 53.4003 22.9998C53.5003 23.0998 53.5003 23.1998 53.5003 23.2998C53.5003 23.3998 53.5003 23.3998 53.4003 23.5998C53.3003 23.7998 53.3003 23.8998 53.2003 23.8998C53.5003 24.0998 53.8003 24.2998 53.9003 24.4998C54.1003 24.9998 54.1003 25.2998 54.0003 25.5998Z" fill="#004071"/>
</svg>
