<svg width="64" height="64" viewBox="0 0 64 64" fill="none" xmlns="http://www.w3.org/2000/svg">
<g clip-path="url(#clip0_26_4689)">
<path d="M54 32.7H51.7C51.3 29.9 50.3 27.5 48.7 25.4L50.4 23.7C50.7 23.4 50.7 22.9 50.4 22.6L48.3 20.5C48 20.2 47.5 20.2 47.2 20.5L45.6 22.2C43.5 20.6 41 19.5 38.2 19.1V16.7C38.2 16.3 37.8 16 37.3 16H34.4C34 16 33.7 16.3 33.7 16.7V19.1C30.9 19.5 28.5 20.5 26.4 22.1L24.8 20.5C24.5 20.2 24 20.2 23.7 20.5L21.6 22.6C21.3 22.9 21.3 23.4 21.6 23.7L23.2 25.4C21.6 27.5 20.5 30 20.1 32.8H17.7C17.3 32.8 17 33.1 17 33.5V36.4C17 36.8 17.3 37.3 17.7 37.3H20.1C20.5 40.1 21.6 42.5 23.2 44.6L21.6 46.2C21.3 46.5 21.3 47 21.6 47.3L23.7 49.4C24 49.7 24.5 49.7 24.8 49.4L26.5 47.8C28.6 49.4 31 50.4 33.8 50.8V53C33.8 53.4 34.1 53.7 34.5 53.7H37.4C37.8 53.7 38.3 53.4 38.3 53V50.7C41.1 50.3 43.5 49.2 45.7 47.6L47.4 49.3C47.7 49.6 48.2 49.6 48.5 49.3L50.6 47.2C50.9 46.9 50.9 46.4 50.6 46.1L48.9 44.4C50.5 42.3 51.5 39.7 51.9 37.1H54C54.4 37.1 54.7 36.7 54.7 36.2V33.3C54.7 33 54.5 32.7 54 32.7ZM40.7 43.8C40.2 44.1 39.6 44.3 39 44.5C38 44.8 36.9 45 35.8 45C30.2 45 25.6 40.4 25.6 34.8C25.6 29.2 30.2 24.6 35.8 24.6C41.4 24.6 46 29.2 46 34.8C46 36.7 45.5 38.6 44.5 40.1C44.3 40.5 44 40.8 43.8 41.1M42.7 42.4C42.4 42.6 42.5 42.6 42.2 42.8L42.7 42.4Z" fill="#C4DCEB"/>
<path d="M40.2999 44.0999C39.7999 44.3999 39.5999 44.3999 38.9999 44.5999C37.9999 44.8999 36.8999 45.0999 35.7999 45.0999C30.1999 45.0999 25.5999 40.4999 25.5999 34.8999C25.5999 29.2999 30.1999 24.6999 35.7999 24.6999C41.3999 24.6999 45.9999 29.2999 45.9999 34.8999C45.9999 36.7999 45.4999 38.6999 44.4999 40.1999C44.2999 40.5999 44.2999 40.5999 43.9999 40.8999M42.6999 42.3999C42.3999 42.5999 42.4999 42.5999 42.1999 42.7999M53.9999 32.4999H51.6999C51.2999 29.4999 50.2999 27.3999 48.6999 25.2999L50.3999 23.5999C50.6999 23.2999 50.6999 22.7999 50.3999 22.4999L48.2999 20.3999C47.9999 20.0999 47.4999 20.0999 47.1999 20.3999L45.6999 22.0999C43.5999 20.4999 41.4999 19.3999 38.4999 18.9999V16.5999C38.4999 16.1999 37.7999 15.3999 37.3999 15.3999H34.4999C34.0999 15.3999 33.5999 16.1999 33.5999 16.5999V18.9999C30.5999 19.3999 28.4999 20.3999 26.3999 21.9999L24.7999 20.3999C24.4999 20.0999 23.9999 20.0999 23.6999 20.3999L21.5999 22.4999C21.2999 22.7999 21.2999 23.2999 21.5999 23.5999L23.1999 25.1999C21.5999 27.2999 20.4999 29.4999 20.0999 32.4999H17.6999C17.2999 32.4999 16.3999 32.9999 16.3999 33.3999V36.2999C16.3999 36.6999 17.1999 37.4999 17.6999 37.4999H20.0999C20.4999 40.4999 21.5999 42.5999 23.1999 44.6999L21.5999 46.1999C21.2999 46.4999 21.2999 46.9999 21.5999 47.2999L23.6999 49.3999C23.9999 49.6999 24.4999 49.6999 24.7999 49.3999L26.3999 47.7999C28.4999 49.3999 30.5999 50.3999 33.5999 50.7999V52.9999C33.5999 53.3999 34.0999 54.4999 34.4999 54.4999H37.3999C37.7999 54.4999 38.4999 53.3999 38.4999 52.9999V50.6999C41.4999 50.2999 43.5999 49.1999 45.6999 47.5999L47.2999 49.2999C47.5999 49.5999 48.0999 49.5999 48.3999 49.2999L50.4999 47.1999C50.7999 46.8999 50.7999 46.3999 50.4999 46.0999L48.7999 44.5999C50.3999 42.4999 51.3999 39.4999 51.7999 37.4999H53.9999C54.3999 37.4999 55.3999 36.7999 55.3999 36.2999V33.3999C55.4999 32.9999 54.4999 32.4999 53.9999 32.4999Z" stroke="#004071" stroke-width="1.3" stroke-miterlimit="10" stroke-linecap="round"/>
<path d="M48.2998 16.5C50.2328 16.5 51.7998 14.933 51.7998 13C51.7998 11.067 50.2328 9.5 48.2998 9.5C46.3668 9.5 44.7998 11.067 44.7998 13C44.7998 14.933 46.3668 16.5 48.2998 16.5Z" stroke="#004071" stroke-width="1.3" stroke-miterlimit="10" stroke-linecap="round"/>
<path d="M46.3998 16.2002L43.7998 20.5002" stroke="#004071" stroke-width="1.3" stroke-miterlimit="10" stroke-linecap="round"/>
<path d="M59.5 49.3999C61.433 49.3999 63 47.8329 63 45.8999C63 43.9669 61.433 42.3999 59.5 42.3999C57.567 42.3999 56 43.9669 56 45.8999C56 47.8329 57.567 49.3999 59.5 49.3999Z" stroke="#004071" stroke-width="1.3" stroke-miterlimit="10" stroke-linecap="round"/>
<path d="M55.9997 44.1999L50.6997 41.8999" stroke="#004071" stroke-width="1.3" stroke-miterlimit="10" stroke-linecap="round"/>
<path d="M3.7999 30.0998C5.40153 30.0998 6.6999 28.8014 6.6999 27.1998C6.6999 25.5982 5.40153 24.2998 3.7999 24.2998C2.19828 24.2998 0.899902 25.5982 0.899902 27.1998C0.899902 28.8014 2.19828 30.0998 3.7999 30.0998Z" stroke="#004071" stroke-width="1.3" stroke-miterlimit="10" stroke-linecap="round"/>
<path d="M6.69971 28.2998L19.8997 32.0998" stroke="#004071" stroke-width="1.3" stroke-miterlimit="10" stroke-linecap="round"/>
<path d="M30.9151 30.9927H32.3581L35.1538 38.2074H33.7108L33.1697 36.7645H30.2839L29.7428 38.2074H28.2998L30.9151 30.9927ZM31.6366 32.8865L30.6446 35.3215H32.5385L31.6366 32.8865Z" fill="#004071"/>
<path d="M36.146 30.9927H37.5889C38.4006 30.9927 38.9417 31.0829 39.3024 31.173C39.6632 31.3534 39.9337 31.5338 40.1141 31.8945C40.2945 32.2553 40.3846 32.616 40.3846 33.0669C40.3846 33.608 40.2945 33.9687 40.0239 34.3295C39.7534 34.6902 39.3926 34.8706 38.9417 35.051C38.6711 35.1411 38.2202 35.1411 37.4988 35.1411V38.2074H36.146V30.9927ZM37.4988 33.7884H37.9497C38.3104 33.7884 38.4908 33.7884 38.6711 33.6982C38.7613 33.608 38.9417 33.608 38.9417 33.4276C39.0319 33.3375 39.0319 33.1571 39.0319 32.9767C39.0319 32.7062 38.9417 32.5258 38.6711 32.3454C38.4908 32.2553 38.2202 32.1651 37.7693 32.1651H37.4086V33.7884H37.4988Z" fill="#004071"/>
<path d="M41.647 30.9927H42.9997V38.2074H41.647V30.9927Z" fill="#004071"/>
<path d="M12.6997 47.2998C14.6327 47.2998 16.1997 45.7328 16.1997 43.7998C16.1997 41.8668 14.6327 40.2998 12.6997 40.2998C10.7667 40.2998 9.19971 41.8668 9.19971 43.7998C9.19971 45.7328 10.7667 47.2998 12.6997 47.2998Z" stroke="#004071" stroke-width="1.3" stroke-miterlimit="10" stroke-linecap="round"/>
<path d="M15.6997 41.7002L19.7997 38.7002" stroke="#004071" stroke-width="1.3" stroke-miterlimit="10" stroke-linecap="round"/>
</g>
<defs>
<clipPath id="clip0_26_4689">
<rect width="64" height="64" fill="white"/>
</clipPath>
</defs>
</svg>
