<svg width="64" height="64" viewBox="0 0 64 64" fill="none" xmlns="http://www.w3.org/2000/svg">
<path d="M60 41.2999C59.5 43.3999 58.7 45.3999 57.7 47.2999C52.9 56.4999 43.2 62.8999 32 62.8999C16 62.8999 3 49.8999 3 33.8999C3 17.8999 16 4.8999 32 4.8999V33.8999" fill="#C4DCEB"/>
<path d="M3.1001 33.7998H29.0001" stroke="#004071" stroke-width="1.3" stroke-miterlimit="10" stroke-linecap="round"/>
<path d="M32.1001 30.2998V1.2998" stroke="#004071" stroke-width="1.3" stroke-miterlimit="10" stroke-linecap="round"/>
<path d="M32.1 36.9998C33.8121 36.9998 35.2 35.6119 35.2 33.8998C35.2 32.1877 33.8121 30.7998 32.1 30.7998C30.3879 30.7998 29 32.1877 29 33.8998C29 35.6119 30.3879 36.9998 32.1 36.9998Z" fill="#004071" stroke="#004071" stroke-width="1.3" stroke-miterlimit="10" stroke-linecap="round"/>
<path d="M23.4002 41.2999C21.7002 39.2999 20.7002 36.6999 20.7002 33.8999C20.7002 27.5999 25.8002 22.3999 32.2002 22.3999" stroke="#004071" stroke-width="1.3" stroke-miterlimit="10" stroke-linecap="round"/>
<path d="M31.9999 54.2997C20.5999 54.2997 11.3999 45.0997 11.3999 33.6997C11.3999 22.2997 20.6999 13.1997 31.9999 13.1997" stroke="#004071" stroke-width="1.3" stroke-miterlimit="10" stroke-linecap="round"/>
<path d="M61.1001 33.8999C61.1001 49.8999 48.1001 62.8999 32.1001 62.8999C16.1001 62.8999 3.1001 49.8999 3.1001 33.8999C3.1001 17.8999 16.1001 4.8999 32.1001 4.8999" stroke="#004071" stroke-width="1.3" stroke-miterlimit="10" stroke-linecap="round"/>
<path d="M43.5002 33.8999L43.6002 34.4999H43.8002C45.0002 34.2999 45.7002 34.5999 45.9002 35.5999C46.0002 35.8999 46.0002 36.0999 45.9002 36.2999C45.8002 36.4999 45.7002 36.6999 45.6002 36.8999C45.4002 37.0999 45.3002 37.1999 45.1002 37.2999C44.9002 37.3999 44.6002 37.4999 44.2002 37.4999L44.5002 38.7999L43.5002 38.9999L43.2002 37.6999C42.8002 37.7999 42.4002 37.7999 42.1002 37.7999C41.8002 37.7999 41.6002 37.6999 41.3002 37.4999C41.1002 37.2999 40.9002 36.9999 40.9002 36.6999C40.8002 36.3999 40.8002 36.0999 40.9002 35.7999C41.0002 35.4999 41.2002 35.2999 41.4002 35.1999C41.6002 34.9999 42.0002 34.8999 42.5002 34.7999L42.4002 34.1999L43.5002 33.8999ZM42.9002 35.5999H42.7002C42.4002 35.6999 42.2002 35.7999 42.1002 35.8999C42.0002 35.9999 42.0002 36.1999 42.0002 36.3999C42.0002 36.5999 42.2002 36.7999 42.3002 36.8999C42.5002 36.9999 42.7002 36.9999 42.9002 36.8999L43.2002 36.7999L42.9002 35.5999ZM43.8002 35.3999L44.1002 36.6999L44.4002 36.5999C44.7002 36.4999 44.9002 36.3999 45.0002 36.2999C45.1002 36.1999 45.1002 35.9999 45.1002 35.7999C45.1002 35.5999 45.0002 35.4999 44.8002 35.3999C44.7002 35.2999 44.4002 35.2999 44.1002 35.3999H43.8002Z" fill="#004071"/>
<path d="M48.6003 32.7001C49.3003 32.6001 50.0003 32.7001 50.6003 33.1001C51.2003 33.5001 51.6003 34.1001 51.7003 34.8001C51.8003 35.5001 51.7003 36.2001 51.3003 36.8001C50.9003 37.4001 50.3003 37.8001 49.6003 37.9001C48.9003 38.1001 48.2003 37.9001 47.6003 37.5001C47.0003 37.1001 46.6003 36.5001 46.5003 35.8001C46.4003 35.3001 46.4003 34.9001 46.6003 34.4001C46.7003 34.0001 47.0003 33.6001 47.4003 33.3001C47.7003 33.0001 48.1003 32.8001 48.6003 32.7001ZM48.8003 33.7001C48.3003 33.8001 48.0003 34.0001 47.7003 34.4001C47.5003 34.8001 47.4003 35.2001 47.5003 35.7001C47.6003 36.2001 47.9003 36.6001 48.4003 36.9001C48.8003 37.1001 49.1003 37.1001 49.5003 37.1001C50.0003 37.0001 50.3003 36.8001 50.6003 36.4001C50.9003 36.0001 50.9003 35.6001 50.8003 35.1001C50.7003 34.6001 50.5003 34.3001 50.1003 34.0001C49.7003 33.7001 49.2003 33.6001 48.8003 33.7001Z" fill="#004071"/>
<path d="M52.1001 32.2L55.7001 31.5L56.7001 36.4L55.7001 36.6L54.9001 32.6L53.2001 32.9L54.0001 36.9L53.0001 37.1L52.1001 32.2Z" fill="#004071"/>
<path d="M37.9999 16.1997L40.7999 16.5997L40.6999 17.4997L39.7999 17.3997L39.1999 21.4997L38.1999 21.3997L38.7999 17.2997L37.8999 17.1997L37.9999 16.1997Z" fill="#004071"/>
<path d="M43.8999 16.8999C44.5999 16.9999 45.1999 17.2999 45.5999 17.8999C45.9999 18.4999 46.1999 19.1999 46.0999 19.8999C45.9999 20.5999 45.6999 21.1999 45.0999 21.5999C44.4999 21.9999 43.8999 22.1999 43.0999 22.0999C42.2999 21.9999 41.6999 21.5999 41.2999 20.9999C40.8999 20.3999 40.6999 19.7999 40.7999 18.9999C40.8999 18.4999 40.9999 18.0999 41.2999 17.6999C41.5999 17.2999 41.9999 17.0999 42.3999 16.8999C42.8999 16.8999 43.3999 16.8999 43.8999 16.8999ZM43.6999 17.8999C43.1999 17.7999 42.7999 17.8999 42.3999 18.1999C41.9999 18.4999 41.7999 18.8999 41.6999 19.3999C41.5999 19.9999 41.7999 20.3999 42.0999 20.7999C42.3999 21.0999 42.6999 21.2999 43.0999 21.2999C43.5999 21.3999 43.9999 21.2999 44.2999 20.9999C44.6999 20.6999 44.8999 20.2999 44.9999 19.8999C45.0999 19.3999 44.9999 18.9999 44.6999 18.5999C44.5999 18.1999 44.1999 17.8999 43.6999 17.8999Z" fill="#004071"/>
<path d="M46.6997 22.5996L47.3997 17.5996L48.1997 17.6996C48.6997 17.7996 48.9997 17.7996 49.1997 17.8996C49.4997 17.9996 49.6997 18.1996 49.8997 18.3996C49.9997 18.5996 50.0997 18.8996 50.0997 19.1996C50.0997 19.3996 49.9997 19.5996 49.8997 19.6996C49.7997 19.7996 49.5997 19.9996 49.3997 20.0996C49.6997 20.2996 49.8997 20.4996 49.9997 20.6996C50.0997 20.8996 50.0997 21.1996 50.0997 21.4996C50.0997 21.7996 49.8997 21.9996 49.7997 22.1996C49.5997 22.3996 49.3997 22.5996 49.1997 22.5996C48.9997 22.5996 48.5997 22.6996 48.1997 22.5996H46.6997ZM48.1997 18.5996L47.9997 19.6996H48.1997C48.3997 19.6996 48.5997 19.6996 48.6997 19.5996C48.7997 19.4996 48.8997 19.3996 48.8997 19.1996C48.8997 18.9996 48.8997 18.8996 48.7997 18.7996C48.6997 18.6996 48.4997 18.5996 48.2997 18.5996H48.1997ZM47.9997 20.4996L47.7997 21.7996H47.9997C48.3997 21.8996 48.6997 21.7996 48.7997 21.7996C48.9997 21.6996 48.9997 21.5996 49.0997 21.3996C49.0997 21.1996 49.0997 20.9996 48.8997 20.8996C48.7997 20.7996 48.4997 20.5996 48.0997 20.5996L47.9997 20.4996Z" fill="#004071"/>
</svg>
