<svg width="64" height="64" viewBox="0 0 64 64" fill="none" xmlns="http://www.w3.org/2000/svg">
<path d="M39.0998 46.1003H24.8998C24.4998 46.1003 24.2998 45.3003 24.4998 44.6003L27.0998 34.3003H36.8998L39.4998 44.6003C39.6998 45.3003 39.4998 46.1003 39.0998 46.1003Z" fill="white" stroke="#004071" stroke-width="1.3" stroke-miterlimit="10" stroke-linecap="round"/>
<path d="M60.9 37.8002H3.1C2.2 37.8002 1.5 37.1002 1.5 36.2002V14.8002C1.5 13.9002 2.2 13.2002 3.1 13.2002H60.8C61.7 13.2002 62.4 13.9002 62.4 14.8002V36.2002C62.4 37.1002 61.7 37.8002 60.9 37.8002Z" fill="#A3BAC9" stroke="#004071" stroke-width="1.3" stroke-miterlimit="10" stroke-linecap="round"/>
<path d="M60.7001 35.3001H3.3001C2.4001 35.3001 1.6001 34.5001 1.6001 33.6001V7.8001C1.6001 6.9001 2.4001 6.1001 3.3001 6.1001H60.8001C61.7001 6.1001 62.5001 6.9001 62.5001 7.8001V33.6001C62.4001 34.6001 61.7001 35.3001 60.7001 35.3001Z" fill="white" stroke="#004071" stroke-width="1.3" stroke-miterlimit="10" stroke-linecap="round"/>
<path d="M44.9001 48.1001H19.7001C19.4001 48.1001 19.1001 47.8001 19.1001 47.5001V46.7001C19.1001 46.4001 19.4001 46.1001 19.7001 46.1001H45.0001C45.3001 46.1001 45.6001 46.4001 45.6001 46.7001V47.5001C45.5001 47.9001 45.3001 48.1001 44.9001 48.1001Z" fill="white" stroke="#004071" stroke-width="1.3" stroke-miterlimit="10" stroke-linecap="round"/>
<path d="M8.3998 19.8999H5.7998V32.2999H8.3998V19.8999Z" fill="#A3BAC9"/>
<path d="M10.8998 13.3999H8.2998V32.2999H10.8998V13.3999Z" fill="#004071"/>
<path d="M15.7001 21.1001H13.1001V32.2001H15.7001V21.1001Z" fill="#A3BAC9"/>
<path d="M18.3002 15.3003H15.7002V32.3003H18.3002V15.3003Z" fill="#004071"/>
<path d="M23.7001 17.8003H21.1001V32.2003H23.7001V17.8003Z" fill="#A3BAC9"/>
<path d="M26.3002 10.3003H23.7002V32.3003H26.3002V10.3003Z" fill="#004071"/>
<path d="M30.8998 22.8003H28.2998V32.3003H30.8998V22.8003Z" fill="#A3BAC9"/>
<path d="M33.3998 17.8003H30.7998V32.2003H33.3998V17.8003Z" fill="#004071"/>
<path d="M56.2001 21.8999H53.6001V31.3999H56.2001V21.8999Z" fill="#A3BAC9"/>
<path d="M58.8002 16.8999H56.2002V31.2999H58.8002V16.8999Z" fill="#004071"/>
<path d="M43.8998 22.8003H38.2998V33.7003H43.8998V22.8003Z" fill="#A3BAC9"/>
<path d="M49.6 16.8999H44V33.6999H49.6V16.8999Z" fill="#004071"/>
<path d="M46.6001 38.8005L54.2001 56.2005C54.8001 57.7005 56.5001 58.3005 58.0001 57.7005C59.5001 57.1005 60.1001 55.4005 59.5001 53.9005L54.1001 41.6005L53.1001 39.5005L52.7001 38.5005L52.1001 37.0005" fill="#A3BAC9"/>
<path d="M46.6001 38.8003L54.2001 56.2003C54.8001 57.7003 56.5001 58.3003 58.0001 57.7003C59.5001 57.1003 60.1001 55.4003 59.5001 53.9003L54.1001 41.6003" stroke="#004071" stroke-width="1.3" stroke-miterlimit="10" stroke-linecap="round"/>
<path d="M53.1002 39.5005L52.7002 38.5005" stroke="#004071" stroke-width="1.3" stroke-miterlimit="10" stroke-linecap="round"/>
<path d="M50.1 13.7003C43.4 10.6003 35.5 13.6003 32.4 20.3003C29.3 27.0003 32.3 34.9003 39 38.0003C45.7 41.1003 53.6 38.1003 56.7 31.4003C59.7 24.7003 56.8 16.8003 50.1 13.7003ZM40.4 34.7003C35.5 32.4003 33.3 26.6003 35.6 21.7003C37.9 16.8003 43.7 14.6003 48.6 16.9003C53.5 19.2003 55.7 25.0003 53.4 29.9003C51.2 34.8003 45.4 37.0003 40.4 34.7003Z" fill="#A3BAC9" stroke="#004071" stroke-width="1.3" stroke-miterlimit="10" stroke-linecap="round"/>
</svg>
