<svg width="24" height="20" viewBox="0 0 24 20" fill="none" xmlns="http://www.w3.org/2000/svg">
<path fill-rule="evenodd" clip-rule="evenodd" d="M23.6957 3.38543C23.9392 3.10454 23.6404 2.70031 23.2843 2.80696C22.9011 2.92174 22.6281 2.34356 22.8826 2.03489C23.0089 1.88171 23.1263 1.72096 23.2341 1.55343C23.4822 1.16779 23.0446 0.783432 22.6232 0.964354C22.1562 1.16488 21.6711 1.33141 21.1713 1.46114C20.8105 1.55479 20.4376 1.42271 20.1521 1.18299C19.2734 0.444995 18.1376 0 16.9018 0C14.1138 0 11.8532 2.26059 11.8532 5.04859C11.8532 5.6302 11.4053 6.17057 10.8287 6.09495C8.0312 5.72816 5.48798 4.55642 3.43792 2.8197C2.4563 1.98812 0.894814 2.17574 0.894814 3.46225C0.894814 4.63441 1.29353 5.71434 1.96381 6.57191C2.24937 6.93726 1.9997 7.51844 1.56442 7.35855C1.33773 7.27527 1.11862 7.1763 0.908391 7.06305C0.883437 7.04961 0.852979 7.06757 0.852979 7.09591C0.852979 9.06923 1.98563 10.7779 3.63477 11.6093C3.93408 11.7602 3.90809 12.2249 3.5729 12.2249C3.14187 12.2249 2.79203 12.6334 2.99898 13.0115C3.22294 13.4207 3.50203 13.7955 3.82623 14.126C4.74531 15.0629 5.12796 17.0519 3.8659 17.4122C2.97722 17.6658 2.03883 17.8017 1.0687 17.8017C0.774959 17.8017 0.646905 18.2016 0.90656 18.339C2.90604 19.3966 5.18321 19.9991 7.60275 19.9991C16.8887 19.9991 21.9668 12.3061 21.9668 5.63506C21.9668 5.5825 21.9666 5.52999 21.9661 5.47755C21.9631 5.16844 22.1051 4.87522 22.3466 4.68221C22.8348 4.29196 23.2867 3.85733 23.6957 3.38543Z" fill="white"/>
</svg>
