<svg width="103" height="103" viewBox="0 0 103 103" fill="none" xmlns="http://www.w3.org/2000/svg">
<rect width="103" height="103" rx="9" fill="#C4D9F8"/>
<path d="M61.6742 64.7266C63.3599 64.7266 64.7265 63.3601 64.7265 61.6743C64.7265 59.9886 63.3599 58.6221 61.6742 58.6221C59.9885 58.6221 58.6219 59.9886 58.6219 61.6743C58.6219 63.3601 59.9885 64.7266 61.6742 64.7266Z" fill="#FCEFC1"/>
<path d="M82.4161 58.2066L79.1204 56.8246L77.4403 52.7678L78.7935 49.4601C78.8694 49.2745 78.8887 49.0707 78.8492 48.8741C78.8096 48.6775 78.7128 48.497 78.571 48.3553L74.9931 44.7774C74.8511 44.636 74.6706 44.5395 74.4742 44.4999C74.2777 44.4603 74.0739 44.4794 73.8882 44.5549L70.5806 45.9081L66.5239 44.228L65.1418 40.9323C65.0644 40.7474 64.934 40.5896 64.7672 40.4785C64.6003 40.3675 64.4043 40.3083 64.2039 40.3083H59.1446C58.9441 40.3083 58.7482 40.3675 58.5813 40.4785C58.4144 40.5896 58.2841 40.7474 58.2066 40.9323L56.8246 44.228L52.7678 45.9081L49.4597 44.5549C49.274 44.4798 49.0704 44.4609 48.8741 44.5005C48.6778 44.5401 48.4974 44.6364 48.3553 44.7775L44.7775 48.3553C44.6357 48.4971 44.5389 48.6776 44.4993 48.8741C44.4597 49.0707 44.4791 49.2746 44.5549 49.4602L45.9082 52.7678L44.228 56.8246L40.9323 58.2066C40.7474 58.284 40.5895 58.4143 40.4784 58.5812C40.3674 58.7481 40.3082 58.9441 40.3084 59.1446V64.2038C40.3082 64.4043 40.3674 64.6003 40.4784 64.7672C40.5895 64.9341 40.7474 65.0644 40.9323 65.1418L44.228 66.5238L45.9082 70.5806L44.5549 73.8882C44.4791 74.0738 44.4597 74.2777 44.4993 74.4743C44.5389 74.6709 44.6357 74.8513 44.7775 74.9931L48.3553 78.571C48.4969 78.7129 48.6773 78.8098 48.8738 78.8494C49.0704 78.889 49.2742 78.8695 49.4597 78.7935L52.7678 77.4403L56.8246 79.1204L58.2066 82.4161C58.2841 82.601 58.4144 82.7588 58.5813 82.8699C58.7482 82.9809 58.9441 83.0401 59.1446 83.04H64.2039C64.4043 83.0401 64.6003 82.9809 64.7672 82.8698C64.934 82.7588 65.0644 82.601 65.1418 82.4161L66.5239 79.1204L70.5806 77.4402L73.8883 78.7935C74.0739 78.8694 74.2778 78.8888 74.4743 78.8492C74.6709 78.8096 74.8514 78.7128 74.9931 78.5709L78.571 74.9931C78.7128 74.8513 78.8096 74.6708 78.8492 74.4743C78.8888 74.2777 78.8694 74.0738 78.7936 73.8882L77.4403 70.5806L79.1204 66.5238L82.4161 65.1417C82.601 65.0643 82.7589 64.934 82.8699 64.7671C82.9809 64.6002 83.0401 64.4043 83.0401 64.2038V59.1446C83.0401 58.9441 82.9809 58.7481 82.8699 58.5813C82.7589 58.4144 82.601 58.284 82.4161 58.2066ZM61.6385 74.9007C59.001 74.8925 56.4261 74.0964 54.2444 72.6144C52.0627 71.1324 50.3736 69.0322 49.3941 66.5833C48.4145 64.1345 48.1892 61.4488 48.7469 58.871C49.3047 56.2932 50.6201 53.9409 52.5244 52.116H51.6878C51.418 52.116 51.1592 52.0088 50.9684 51.818C50.7776 51.6272 50.6704 51.3684 50.6704 51.0986C50.6704 50.8287 50.7776 50.57 50.9684 50.3792C51.1592 50.1883 51.418 50.0812 51.6878 50.0812H55.5518C55.7752 50.0819 55.9922 50.1561 56.1693 50.2924C56.3464 50.4286 56.4738 50.6193 56.5318 50.835C56.5899 51.0507 56.5754 51.2796 56.4906 51.4863C56.4058 51.693 56.2554 51.8661 56.0626 51.9789C53.9349 53.2131 52.2728 55.1134 51.3327 57.3864C50.3927 59.6594 50.2271 62.1786 50.8616 64.555C51.496 66.9315 52.8951 69.033 54.8429 70.5351C56.7907 72.0372 59.1788 72.8562 61.6385 72.8658C61.9083 72.8658 62.1671 72.973 62.3579 73.1638C62.5487 73.3546 62.6559 73.6134 62.6559 73.8832C62.6559 74.1531 62.5487 74.4119 62.3579 74.6027C62.1671 74.7935 61.9083 74.9007 61.6385 74.9007ZM61.6742 66.7613C60.6681 66.7613 59.6845 66.4629 58.848 65.904C58.0114 65.345 57.3594 64.5505 56.9744 63.6209C56.5893 62.6914 56.4886 61.6685 56.6849 60.6817C56.8812 59.6949 57.3657 58.7885 58.0771 58.0771C58.7885 57.3656 59.695 56.8811 60.6818 56.6848C61.6686 56.4885 62.6914 56.5893 63.621 56.9743C64.5505 57.3594 65.345 58.0114 65.904 58.8479C66.463 59.6845 66.7613 60.6681 66.7613 61.6742C66.7597 63.0229 66.2233 64.3159 65.2696 65.2696C64.3159 66.2232 63.0229 66.7597 61.6742 66.7613ZM70.8241 71.2324H71.6607C71.9305 71.2324 72.1893 71.3396 72.3801 71.5304C72.5709 71.7212 72.6781 71.98 72.6781 72.2498C72.6781 72.5196 72.5709 72.7784 72.3801 72.9692C72.1893 73.16 71.9305 73.2672 71.6607 73.2672H67.7966C67.5732 73.2665 67.3563 73.1922 67.1792 73.056C67.0021 72.9198 66.8747 72.7291 66.8166 72.5134C66.7586 72.2977 66.773 72.0688 66.8578 71.8621C66.9426 71.6554 67.093 71.4823 67.2859 71.3695C69.4135 70.1353 71.0757 68.235 72.0157 65.962C72.9557 63.689 73.1213 61.1698 72.4869 58.7933C71.8525 56.4169 70.4534 54.3153 68.5056 52.8133C66.5578 51.3112 64.1697 50.4921 61.71 50.4826C61.4402 50.4826 61.1814 50.3754 60.9906 50.1846C60.7998 49.9938 60.6926 49.735 60.6926 49.4651C60.6926 49.1953 60.7998 48.9365 60.9906 48.7457C61.1814 48.5549 61.4402 48.4477 61.71 48.4477C64.3475 48.4558 66.9223 49.252 69.104 50.734C71.2858 52.216 72.9748 54.3162 73.9544 56.7651C74.9339 59.2139 75.1593 61.8996 74.6015 64.4774C74.0437 67.0552 72.7283 69.4075 70.8241 71.2324Z" fill="#FCEFC1"/>
<path d="M70.831 29.1168C70.8332 27.1822 70.2219 25.2967 69.085 23.7314C67.9481 22.1661 66.3442 21.0016 64.5038 20.4053C62.6634 19.809 60.6813 19.8116 58.8425 20.4128C57.0036 21.0139 55.4028 22.1827 54.27 23.751C48.5855 21.4081 42.2052 21.408 36.5207 23.7509C35.7453 22.6774 34.7461 21.785 33.592 21.1356C32.438 20.4861 31.1567 20.0949 29.8367 19.9892C28.5166 19.8834 27.1894 20.0656 25.9467 20.523C24.7039 20.9805 23.5754 21.7023 22.639 22.6387C21.7026 23.5751 20.9807 24.7036 20.5232 25.9463C20.0656 27.189 19.8834 28.5162 19.9891 29.8363C20.0948 31.1563 20.4859 32.4376 21.1354 33.5917C21.7848 34.7457 22.6771 35.745 23.7506 36.5205C21.4076 42.2051 21.4078 48.5856 23.7511 54.2702C22.6775 55.0455 21.7851 56.0448 21.1356 57.1988C20.4861 58.3529 20.095 59.6342 19.9892 60.9543C19.8834 62.2743 20.0656 63.6016 20.5231 64.8443C20.9805 66.0871 21.7024 67.2157 22.6388 68.1521C23.5752 69.0885 24.7038 69.8104 25.9465 70.2679C27.1892 70.7254 28.5165 70.9076 29.8366 70.8018C31.1566 70.6961 32.4379 70.305 33.592 69.6555C34.7461 69.006 35.7453 68.1136 36.5207 67.0401C42.2052 69.3834 48.5857 69.3834 54.2702 67.0402C55.0456 68.1137 56.0448 69.006 57.1989 69.6555C58.353 70.3049 59.6343 70.6961 60.9544 70.8018C62.2744 70.9075 63.6017 70.7253 64.8444 70.2679C66.0871 69.8104 67.2157 69.0885 68.1521 68.1521C69.0885 67.2156 69.8104 66.0871 70.2679 64.8443C70.7254 63.6016 70.9075 62.2743 70.8018 60.9543C70.696 59.6343 70.3049 58.3529 69.6554 57.1988C69.006 56.0448 68.1136 55.0455 67.0401 54.2701C69.3829 48.5856 69.383 42.2053 67.0404 36.5207C68.2127 35.6743 69.1676 34.5619 69.8266 33.2748C70.4855 31.9877 70.8297 30.5627 70.831 29.1168ZM61.6742 21.9948C63.1183 21.9927 64.5287 22.4303 65.718 23.2493C66.9074 24.0683 67.8192 25.2299 68.3322 26.5798C68.8452 27.9296 68.9352 29.4036 68.5901 30.8058C68.2451 32.208 67.4813 33.472 66.4004 34.4295C65.9654 33.8875 65.4408 33.424 64.8493 33.0591C65.6732 32.4009 66.2722 31.5031 66.5635 30.4896C66.8548 29.4762 66.8239 28.3973 66.4753 27.4022C66.1266 26.407 65.4773 25.5448 64.6172 24.9348C63.7571 24.3248 62.7287 23.9971 61.6742 23.9971C60.6198 23.9971 59.5914 24.3248 58.7312 24.9348C57.8711 25.5448 57.2219 26.407 56.8732 27.4022C56.5245 28.3973 56.4937 29.4762 56.785 30.4896C57.0762 31.5031 57.6752 32.4009 58.4991 33.0591C57.9076 33.424 57.383 33.8875 56.948 34.4295C55.8671 33.472 55.1034 32.208 54.7583 30.8058C54.4132 29.4036 54.5032 27.9296 55.0162 26.5798C55.5293 25.2299 56.4411 24.0683 57.6304 23.2493C58.8197 22.4303 60.2302 21.9927 61.6742 21.9948ZM61.6742 34.2039C62.2448 34.204 62.8089 34.3245 63.3298 34.5575C63.8506 34.7904 64.3165 35.1306 64.697 35.5558C63.7527 36.0054 62.7201 36.2387 61.6743 36.2387C60.6285 36.2387 59.5958 36.0054 58.6516 35.5559C59.032 35.1307 59.4979 34.7905 60.0187 34.5575C60.5395 34.3246 61.1037 34.2041 61.6742 34.2039ZM58.622 29.1168C58.622 28.5131 58.801 27.923 59.1364 27.421C59.4717 26.9191 59.9484 26.5279 60.5062 26.2968C61.0639 26.0658 61.6776 26.0054 62.2697 26.1231C62.8618 26.2409 63.4056 26.5316 63.8325 26.9585C64.2594 27.3854 64.5501 27.9292 64.6678 28.5213C64.7856 29.1134 64.7252 29.7271 64.4941 30.2848C64.2631 30.8425 63.8719 31.3192 63.37 31.6546C62.868 31.99 62.2779 32.169 61.6742 32.169C60.865 32.1681 60.0891 31.8463 59.5169 31.2741C58.9447 30.7018 58.6228 29.926 58.622 29.1168ZM21.9948 29.1168C21.9923 27.9269 22.288 26.7554 22.8548 25.7093C23.4216 24.6631 24.2415 23.7757 25.2395 23.1279C26.2376 22.4802 27.3821 22.0928 28.5684 22.0012C29.7547 21.9096 30.945 22.1166 32.0307 22.6035C33.1164 23.0903 34.0628 23.8414 34.7835 24.7881C35.5042 25.7348 35.9762 26.847 36.1565 28.0231C36.3367 29.1992 36.2194 30.4017 35.8153 31.5208C35.4112 32.6399 34.7332 33.64 33.8431 34.4296C33.4081 33.8875 32.8834 33.4239 32.2919 33.059C33.1158 32.4009 33.7147 31.503 34.006 30.4896C34.2973 29.4762 34.2664 28.3973 33.9178 27.4021C33.5691 26.407 32.9198 25.5448 32.0597 24.9348C31.1996 24.3248 30.1712 23.9971 29.1167 23.9971C28.0623 23.9971 27.0339 24.3248 26.1738 24.9348C25.3137 25.5448 24.6644 26.407 24.3157 27.4021C23.967 28.3973 23.9362 29.4762 24.2275 30.4896C24.5187 31.503 25.1177 32.4009 25.9416 33.059C25.35 33.4239 24.8254 33.8875 24.3904 34.4296C23.6379 33.764 23.0352 32.9462 22.6222 32.0303C22.2093 31.1145 21.9954 30.1214 21.9948 29.1168ZM29.1167 34.2039C29.6873 34.2039 30.2515 34.3244 30.7723 34.5574C31.2931 34.7904 31.7589 35.1307 32.1393 35.556C31.195 36.0055 30.1625 36.2387 29.1167 36.2387C28.071 36.2387 27.0384 36.0055 26.0942 35.556C26.4745 35.1307 26.9403 34.7904 27.4612 34.5574C27.982 34.3244 28.5462 34.2039 29.1167 34.2039ZM26.0645 29.1168C26.0645 28.5131 26.2435 27.923 26.5789 27.421C26.9143 26.9191 27.391 26.5279 27.9487 26.2968C28.5064 26.0658 29.1201 26.0054 29.7122 26.1231C30.3043 26.2409 30.8482 26.5316 31.275 26.9585C31.7019 27.3854 31.9926 27.9292 32.1104 28.5213C32.2281 29.1134 32.1677 29.7271 31.9367 30.2848C31.7056 30.8425 31.3144 31.3192 30.8125 31.6546C30.3105 31.99 29.7204 32.169 29.1167 32.169C28.3075 32.1681 27.5317 31.8463 26.9594 31.2741C26.3872 30.7018 26.0654 29.926 26.0645 29.1168ZM21.9948 61.6742C21.9923 60.4844 22.288 59.3129 22.8548 58.2668C23.4216 57.2206 24.2415 56.3331 25.2395 55.6854C26.2376 55.0376 27.3821 54.6503 28.5684 54.5587C29.7547 54.467 30.945 54.6741 32.0307 55.1609C33.1164 55.6478 34.0628 56.3988 34.7835 57.3455C35.5042 58.2923 35.9762 59.4045 36.1565 60.5806C36.3367 61.7567 36.2194 62.9592 35.8153 64.0783C35.4112 65.1974 34.7332 66.1974 33.8431 66.9871C33.4081 66.445 32.8834 65.9814 32.2919 65.6165C33.1158 64.9584 33.7147 64.0605 34.006 63.0471C34.2973 62.0336 34.2664 60.9547 33.9178 59.9596C33.5691 58.9645 32.9198 58.1023 32.0597 57.4923C31.1996 56.8823 30.1712 56.5546 29.1167 56.5546C28.0623 56.5546 27.0339 56.8823 26.1738 57.4923C25.3137 58.1023 24.6644 58.9645 24.3157 59.9596C23.967 60.9547 23.9362 62.0336 24.2275 63.0471C24.5187 64.0605 25.1177 64.9584 25.9416 65.6165C25.35 65.9814 24.8254 66.445 24.3904 66.9871C23.6379 66.3214 23.0352 65.5037 22.6222 64.5878C22.2093 63.672 21.9954 62.6789 21.9948 61.6742ZM26.0645 61.6742C26.0645 61.0705 26.2435 60.4804 26.5789 59.9785C26.9143 59.4765 27.391 59.0853 27.9487 58.8543C28.5064 58.6233 29.1201 58.5628 29.7122 58.6806C30.3043 58.7984 30.8482 59.0891 31.275 59.516C31.7019 59.9428 31.9926 60.4867 32.1104 61.0788C32.2281 61.6708 32.1677 62.2845 31.9367 62.8423C31.7056 63.4 31.3144 63.8767 30.8125 64.2121C30.3105 64.5475 29.7204 64.7265 29.1167 64.7265C28.3075 64.7256 27.5317 64.4037 26.9594 63.8315C26.3872 63.2593 26.0654 62.4835 26.0645 61.6742ZM26.0942 68.1135C26.4745 67.6881 26.9403 67.3478 27.4611 67.1147C27.982 66.8817 28.5462 66.7613 29.1167 66.7613C29.6873 66.7613 30.2515 66.8817 30.7723 67.1147C31.2932 67.3478 31.759 67.6881 32.1393 68.1135C31.195 68.5629 30.1625 68.7961 29.1167 68.7961C28.071 68.7961 27.0384 68.5629 26.0942 68.1135ZM58.6515 68.1133C59.0319 67.688 59.4977 67.3477 60.0186 67.1147C60.5394 66.8817 61.1036 66.7613 61.6742 66.7613C62.2448 66.7613 62.809 66.8817 63.3298 67.1147C63.8507 67.3476 64.3166 67.6879 64.6969 68.1132C63.7527 68.5628 62.72 68.7961 61.6742 68.7961C60.6284 68.7961 59.5958 68.5629 58.6515 68.1133ZM58.622 61.6742C58.622 61.0705 58.801 60.4804 59.1364 59.9785C59.4717 59.4765 59.9484 59.0853 60.5062 58.8543C61.0639 58.6233 61.6776 58.5628 62.2697 58.6806C62.8618 58.7984 63.4056 59.0891 63.8325 59.516C64.2594 59.9428 64.5501 60.4867 64.6678 61.0788C64.7856 61.6708 64.7252 62.2845 64.4941 62.8423C64.2631 63.4 63.8719 63.8767 63.37 64.2121C62.868 64.5475 62.2779 64.7265 61.6742 64.7265C60.865 64.7256 60.0891 64.4037 59.5169 63.8315C58.9447 63.2593 58.6228 62.4835 58.622 61.6742ZM68.7962 61.6742C68.7955 62.6789 68.5816 63.672 68.1686 64.5878C67.7556 65.5037 67.1529 66.3214 66.4004 66.987C65.9654 66.445 65.4408 65.9815 64.8493 65.6165C65.6732 64.9584 66.2722 64.0605 66.5635 63.0471C66.8548 62.0337 66.8239 60.9548 66.4753 59.9596C66.1266 58.9645 65.4773 58.1023 64.6172 57.4923C63.7571 56.8823 62.7287 56.5546 61.6742 56.5546C60.6198 56.5546 59.5914 56.8823 58.7312 57.4923C57.8711 58.1023 57.2219 58.9645 56.8732 59.9596C56.5245 60.9548 56.4937 62.0337 56.785 63.0471C57.0762 64.0605 57.6752 64.9584 58.4991 65.6165C57.9076 65.9815 57.383 66.445 56.948 66.987C56.0603 66.1972 55.3844 65.1977 54.9821 64.0797C54.5797 62.9617 54.4636 61.7608 54.6445 60.5864C54.8253 59.412 55.2973 58.3016 56.0173 57.3565C56.7374 56.4113 57.6826 55.6614 58.7668 55.1753C59.851 54.6891 61.0396 54.4821 62.2244 54.5732C63.4091 54.6643 64.5521 55.0505 65.5493 55.6966C66.5464 56.3428 67.366 57.2283 67.9331 58.2724C68.5002 59.3165 68.7969 60.486 68.7962 61.6742ZM61.6742 52.5174C60.1606 52.5169 58.6704 52.8918 57.3372 53.6085C56.004 54.3251 54.8693 55.3612 54.0347 56.624C53.2001 57.8867 52.6916 59.3367 52.5549 60.8442C52.4181 62.3516 52.6573 63.8694 53.251 65.2618C48.2021 67.2472 42.5887 67.2472 37.5399 65.2618C38.2564 63.5815 38.4538 61.7253 38.1067 59.9319C37.7596 58.1384 36.8839 56.4899 35.5922 55.1983C34.3005 53.9067 32.6519 53.0311 30.8585 52.6841C29.065 52.3371 27.2088 52.5347 25.5286 53.2513C23.5282 48.2051 23.5281 42.5858 25.5284 37.5395C27.2086 38.2562 29.0648 38.4538 30.8583 38.1069C32.6517 37.76 34.3004 36.8844 35.5921 35.5928C36.8839 34.3012 37.7596 32.6527 38.1068 30.8593C38.4539 29.0659 38.2565 27.2096 37.54 25.5293C42.589 23.5451 48.2019 23.5451 53.2509 25.5294C52.5344 27.2097 52.3371 29.066 52.6842 30.8595C53.0314 32.6529 53.9072 34.3014 55.199 35.593C56.4908 36.8846 58.1395 37.7601 59.933 38.107C61.7265 38.4539 63.5828 38.2562 65.263 37.5394C67.2627 42.5859 67.2626 48.205 65.2627 53.2513C64.1286 52.7661 62.9077 52.5165 61.6742 52.5174Z" fill="#25313B"/>
<path d="M45.3955 34.2039C43.182 34.2039 41.0182 34.8602 39.1778 36.09C37.3373 37.3197 35.9028 39.0676 35.0558 41.1126C34.2087 43.1576 33.9871 45.4079 34.4189 47.5789C34.8507 49.7498 35.9166 51.744 37.4818 53.3092C39.047 54.8743 41.0412 55.9402 43.2121 56.3721C45.3831 56.8039 47.6333 56.5823 49.6783 55.7352C51.7234 54.8881 53.4712 53.4537 54.701 51.6132C55.9307 49.7728 56.5871 47.609 56.5871 45.3955C56.5838 42.4283 55.4036 39.5836 53.3055 37.4855C51.2074 35.3874 48.3627 34.2072 45.3955 34.2039ZM53.4969 41.141H50.6413C50.3871 39.732 49.9191 38.3702 49.2533 37.1027C51.0698 37.9508 52.5598 39.3688 53.4969 41.141ZM45.3955 54.5523C44.1994 54.5523 42.9067 52.616 42.2416 49.65H48.5494C47.8843 52.616 46.5916 54.5523 45.3955 54.5523ZM41.9101 47.6151C41.7477 46.1398 41.7477 44.6512 41.9101 43.1758H48.8809C49.0433 44.6512 49.0433 46.1398 48.8809 47.6151H41.9101ZM36.2387 45.3955C36.2416 44.6468 36.3368 43.9013 36.5221 43.1758H39.8572C39.7903 43.89 39.7535 44.6306 39.7535 45.3955C39.7535 46.1604 39.7903 46.901 39.8572 47.6151H36.5221C36.3368 46.8897 36.2416 46.1442 36.2387 45.3955ZM45.3955 36.2387C46.5916 36.2387 47.8843 38.1749 48.5494 41.141H42.2416C42.9067 38.1749 44.1994 36.2387 45.3955 36.2387ZM50.9338 43.1758H54.2689C54.6468 44.6315 54.6468 46.1595 54.2689 47.6151H50.9338C51.0007 46.901 51.0375 46.1604 51.0375 45.3955C51.0375 44.6306 51.0007 43.89 50.9338 43.1758ZM41.5377 37.1027C40.8719 38.3702 40.4038 39.732 40.1497 41.141H37.2941C38.2312 39.3688 39.7212 37.9508 41.5377 37.1027ZM37.294 49.65H40.1497C40.4039 51.0589 40.8719 52.4207 41.5376 53.6882C39.7212 52.8401 38.2311 51.4222 37.294 49.65ZM49.2533 53.6882C49.919 52.4207 50.387 51.0589 50.6412 49.65H53.4969C52.5598 51.4222 51.0697 52.8401 49.2533 53.6882Z" fill="#25313B"/>
</svg>
