<svg width="103" height="103" viewBox="0 0 103 103" fill="none" xmlns="http://www.w3.org/2000/svg">
<rect width="103" height="103" rx="9" fill="#C4D9F8"/>
<path d="M72.8658 47.4305C74.5516 47.4305 75.9181 46.0639 75.9181 44.3782C75.9181 42.6925 74.5516 41.3259 72.8658 41.3259C71.1801 41.3259 69.8136 42.6925 69.8136 44.3782C69.8136 46.0639 71.1801 47.4305 72.8658 47.4305Z" fill="#FCEFC1"/>
<path d="M46.4129 47.4305C48.0986 47.4305 49.4652 46.0639 49.4652 44.3782C49.4652 42.6925 48.0986 41.3259 46.4129 41.3259C44.7272 41.3259 43.3606 42.6925 43.3606 44.3782C43.3606 46.0639 44.7272 47.4305 46.4129 47.4305Z" fill="#FCEFC1"/>
<path d="M42.8682 48.0153C42.142 47.3098 41.6429 46.4038 41.4347 45.413C41.2264 44.4223 41.3185 43.3919 41.6992 42.4538C42.0799 41.5157 42.7318 40.7126 43.5715 40.1471C44.4112 39.5816 45.4006 39.2795 46.413 39.2795C47.4254 39.2795 48.4147 39.5816 49.2545 40.1471C50.0942 40.7126 50.7461 41.5157 51.1268 42.4538C51.5075 43.3919 51.5996 44.4223 51.3913 45.413C51.1831 46.4038 50.6839 47.3098 49.9578 48.0153C51.8087 48.6385 53.4646 49.7344 54.7616 51.1946C55.8372 49.6526 56.4617 47.8412 56.5649 45.9639C58.5563 45.2724 60.7226 45.2724 62.714 45.9639C62.8172 47.8412 63.4417 49.6526 64.5174 51.1946C65.8143 49.7344 67.4702 48.6385 69.3211 48.0153C68.595 47.3098 68.0959 46.4038 67.8876 45.413C67.6794 44.4223 67.7715 43.3919 68.1521 42.4538C68.5328 41.5157 69.1847 40.7126 70.0244 40.1471C70.8642 39.5816 71.8535 39.2795 72.8659 39.2795C73.8783 39.2795 74.8677 39.5816 75.7074 40.1471C76.5472 40.7126 77.1991 41.5157 77.5797 42.4538C77.9604 43.3919 78.0525 44.4223 77.8443 45.413C77.636 46.4038 77.1369 47.3098 76.4108 48.0153C78.2616 48.6385 79.9176 49.7344 81.2145 51.1946C82.0392 50.01 82.6022 48.6634 82.866 47.2444C83.1298 45.8253 83.0883 44.3664 82.7444 42.9646C82.4005 41.5628 81.7621 40.2503 80.8715 39.1144C79.9809 37.9786 78.8586 37.0454 77.5793 36.377C76.3001 35.7086 74.8931 35.3203 73.4521 35.238C72.0111 35.1556 70.569 35.3811 69.222 35.8994C67.8748 36.4176 66.6536 37.2169 65.6394 38.2438C64.6252 39.2708 63.8413 40.502 63.3399 41.8555C60.9235 41.1494 58.3555 41.1494 55.9391 41.8555C55.4382 40.5013 54.6546 39.2693 53.6404 38.2416C52.6262 37.2139 51.4047 36.414 50.0573 35.8952C48.7098 35.3764 47.2673 35.1506 45.8258 35.2328C44.3842 35.315 42.9767 35.7034 41.697 36.372C40.4173 37.0406 39.2947 37.9742 38.4039 39.1106C37.5131 40.2469 36.8746 41.56 36.531 42.9624C36.1873 44.3648 36.1463 45.8243 36.4107 47.2437C36.6751 48.6632 37.2388 50.01 38.0644 51.1946C39.3613 49.7344 41.0173 48.6385 42.8682 48.0153Z" fill="#FCEFC1"/>
<path d="M46.4129 76.9355C45.0748 76.9356 43.753 77.2296 42.5409 77.7967C41.3289 78.3637 40.2562 79.1901 39.3986 80.2173C41.2845 82.0285 43.798 83.0401 46.4129 83.0401C49.0278 83.0401 51.5412 82.0285 53.4272 80.2173C52.5696 79.1901 51.4969 78.3637 50.2848 77.7967C49.0728 77.2296 47.751 76.9356 46.4129 76.9355Z" fill="#FCEFC1"/>
<path d="M46.4129 74.9009C48.0986 74.9009 49.4652 73.5344 49.4652 71.8486C49.4652 70.1629 48.0986 68.7964 46.4129 68.7964C44.7272 68.7964 43.3606 70.1629 43.3606 71.8486C43.3606 73.5344 44.7272 74.9009 46.4129 74.9009Z" fill="#FCEFC1"/>
<path d="M72.8658 76.9355C71.5277 76.9356 70.2059 77.2296 68.9939 77.7967C67.7819 78.3637 66.7091 79.1901 65.8516 80.2173C67.7375 82.0285 70.251 83.0401 72.8658 83.0401C75.4807 83.0401 77.9942 82.0285 79.8801 80.2173C79.0225 79.1901 77.9498 78.3637 76.7378 77.7967C75.5258 77.2296 74.204 76.9356 72.8658 76.9355Z" fill="#FCEFC1"/>
<path d="M72.8658 74.9009C74.5516 74.9009 75.9181 73.5344 75.9181 71.8486C75.9181 70.1629 74.5516 68.7964 72.8658 68.7964C71.1801 68.7964 69.8136 70.1629 69.8136 71.8486C69.8136 73.5344 71.1801 74.9009 72.8658 74.9009Z" fill="#FCEFC1"/>
<path d="M76.7107 63.4516C77.6886 60.6544 77.6887 57.6082 76.711 54.8109C77.8863 54.3255 78.961 53.6257 79.8801 52.747C79.0226 51.7198 77.9499 50.8934 76.7379 50.3263C75.5258 49.7593 74.204 49.4653 72.8659 49.4653C71.5277 49.4653 70.2059 49.7593 68.9938 50.3263C67.7818 50.8934 66.7091 51.7198 65.8516 52.747C67.6785 54.4965 70.0938 55.4992 72.6226 55.5579C73.5677 57.8462 73.5677 60.4158 72.6225 62.7041C70.0694 62.768 67.6337 63.7899 65.7993 65.5668C63.9648 67.3436 62.8658 69.7455 62.7206 72.2952C60.7252 72.9899 58.5536 72.9899 56.5582 72.2952C56.4129 69.7455 55.3139 67.3436 53.4794 65.5668C51.645 63.7899 49.2094 62.7681 46.6563 62.7041C45.7111 60.4158 45.711 57.8463 46.6561 55.5579C49.1849 55.4992 51.6002 54.4965 53.4272 52.7471C52.5696 51.7198 51.4969 50.8934 50.2849 50.3264C49.0729 49.7593 47.751 49.4654 46.4129 49.4654C45.0748 49.4654 43.7529 49.7593 42.5409 50.3264C41.3288 50.8934 40.2561 51.7198 39.3986 52.7471C40.3178 53.6257 41.3925 54.3255 42.5678 54.8109C41.5901 57.6082 41.5902 60.6545 42.5681 63.4517C41.1563 64.0256 39.8918 64.91 38.8683 66.0392C37.8449 67.1684 37.0889 68.5136 36.6563 69.9749C36.2237 71.4362 36.1256 72.9762 36.3694 74.4805C36.6131 75.9849 37.1924 77.4151 38.0643 78.665C39.3612 77.2049 41.0172 76.1089 42.8681 75.4857C42.1419 74.7803 41.6428 73.8742 41.4346 72.8835C41.2263 71.8927 41.3184 70.8624 41.6991 69.9243C42.0798 68.9862 42.7317 68.183 43.5714 67.6175C44.4111 67.052 45.4005 66.7499 46.4129 66.7499C47.4253 66.7499 48.4147 67.052 49.2544 67.6175C50.0941 68.183 50.746 68.9862 51.1267 69.9243C51.5074 70.8624 51.5995 71.8927 51.3912 72.8835C51.183 73.8742 50.6839 74.7803 49.9577 75.4857C51.8086 76.1089 53.4646 77.2049 54.7615 78.665C55.2473 77.9644 55.6436 77.2057 55.9409 76.4066C58.3561 77.1121 60.9227 77.1121 63.3379 76.4066C63.6352 77.2057 64.0314 77.9644 64.5173 78.665C65.8142 77.2049 67.4701 76.1089 69.321 75.4857C68.5949 74.7803 68.0958 73.8742 67.8875 72.8834C67.6793 71.8927 67.7714 70.8624 68.152 69.9243C68.5327 68.9862 69.1846 68.183 70.0244 67.6175C70.8641 67.052 71.8535 66.7499 72.8658 66.7499C73.8782 66.7499 74.8676 67.052 75.7073 67.6175C76.5471 68.183 77.199 68.9862 77.5796 69.9243C77.9603 70.8624 78.0524 71.8927 77.8442 72.8834C77.6359 73.8742 77.1368 74.7803 76.4107 75.4857C78.2616 76.1089 79.9175 77.2049 81.2144 78.665C82.0863 77.4151 82.6656 75.9849 82.9094 74.4805C83.1531 72.9761 83.0551 71.4362 82.6225 69.9749C82.1899 68.5136 81.4338 67.1684 80.4104 66.0391C79.387 64.9099 78.1225 64.0255 76.7107 63.4516Z" fill="#FCEFC1"/>
<path d="M70.831 42.3433V38.2736C70.8292 36.6552 70.1855 35.1035 69.0411 33.959C67.8966 32.8146 66.345 32.1709 64.7265 32.1691H64.614C65.4019 31.4001 66.0005 30.4588 66.3629 29.4192C66.7253 28.3796 66.8416 27.2701 66.7026 26.178C66.5636 25.0859 66.1731 24.0409 65.5618 23.1252C64.9505 22.2096 64.1351 21.4482 63.1798 20.9011C62.2244 20.354 61.1551 20.0359 60.0561 19.9721C58.957 19.9082 57.8581 20.1001 56.8457 20.5329C55.8334 20.9657 54.9353 21.6274 54.222 22.466C53.5088 23.3047 52.9998 24.2974 52.7352 25.366C47.9957 23.632 42.7953 23.632 38.0558 25.366C37.7914 24.297 37.2826 23.3039 36.5693 22.4649C35.8561 21.6259 34.9579 20.9638 33.9453 20.5308C32.9328 20.0978 31.8337 19.9057 30.7343 19.9695C29.6349 20.0333 28.5654 20.3514 27.6098 20.8987C26.6542 21.4459 25.8386 22.2075 25.2273 23.1234C24.6159 24.0393 24.2254 25.0846 24.0865 26.177C23.9476 27.2695 24.0642 28.3792 24.4269 29.419C24.7896 30.4587 25.3887 31.4001 26.1769 32.1691H26.0645C24.446 32.1709 22.8943 32.8146 21.7499 33.959C20.6054 35.1035 19.9617 36.6552 19.96 38.2736V42.3433C19.9599 42.4769 19.9862 42.6093 20.0373 42.7327C20.0884 42.8562 20.1634 42.9683 20.2579 43.0628C20.3524 43.1573 20.4645 43.2322 20.588 43.2834C20.7114 43.3345 20.8438 43.3608 20.9774 43.3607H24.1462C24.0713 44.0365 24.0323 44.7157 24.0296 45.3956C24.0331 47.3712 24.3105 49.3368 24.854 51.2363C24.1364 52.5917 23.8774 54.1432 24.1159 55.6582C24.3544 57.1732 25.0776 58.5701 26.1769 59.6395H26.0645C24.446 59.6413 22.8943 60.285 21.7499 61.4294C20.6054 62.5738 19.9617 64.1255 19.96 65.744V69.8137C19.9599 69.9473 19.9862 70.0796 20.0373 70.2031C20.0884 70.3265 20.1634 70.4387 20.2579 70.5332C20.3524 70.6277 20.4645 70.7026 20.588 70.7537C20.7114 70.8049 20.8438 70.8311 20.9774 70.8311H41.3258C41.4594 70.8311 41.5917 70.8049 41.7152 70.7537C41.8386 70.7026 41.9508 70.6277 42.0453 70.5332C42.1398 70.4387 42.2147 70.3265 42.2658 70.2031C42.317 70.0796 42.3432 69.9473 42.3432 69.8137V66.5173C44.3651 66.842 46.4258 66.842 48.4477 66.5173V69.8137C48.4477 69.9473 48.474 70.0796 48.5251 70.2031C48.5762 70.3265 48.6512 70.4387 48.7457 70.5332C48.8401 70.6277 48.9523 70.7026 49.0758 70.7537C49.1992 70.8049 49.3315 70.8311 49.4652 70.8311H69.8136C69.9472 70.8311 70.0795 70.8049 70.203 70.7537C70.3264 70.7026 70.4386 70.6277 70.5331 70.5332C70.6276 70.4387 70.7025 70.3265 70.7536 70.2031C70.8047 70.0796 70.831 69.9473 70.831 69.8137V65.744C70.8292 64.1255 70.1855 62.5738 69.0411 61.4294C67.8966 60.285 66.345 59.6413 64.7265 59.6395H64.614C65.7134 58.5701 66.4365 57.1732 66.675 55.6582C66.9135 54.1432 66.6546 52.5917 65.937 51.2363C66.4804 49.3368 66.7578 47.3712 66.7613 45.3956C66.7586 44.7157 66.7197 44.0365 66.6448 43.3607H69.8136C69.9472 43.3608 70.0795 43.3345 70.203 43.2834C70.3264 43.2322 70.4386 43.1573 70.5331 43.0628C70.6276 42.9683 70.7025 42.8562 70.7536 42.7327C70.8047 42.6093 70.831 42.4769 70.831 42.3433ZM59.6394 21.9949C60.6455 21.9949 61.629 22.2933 62.4656 22.8522C63.3022 23.4112 63.9542 24.2057 64.3392 25.1353C64.7243 26.0648 64.825 27.0877 64.6287 28.0745C64.4324 29.0613 63.9479 29.9677 63.2365 30.6791C62.5251 31.3906 61.6186 31.8751 60.6318 32.0714C59.645 32.2677 58.6222 32.1669 57.6926 31.7819C56.7631 31.3968 55.9686 30.7448 55.4096 29.9083C54.8506 29.0717 54.5523 28.0881 54.5523 27.082C54.5538 25.7333 55.0903 24.4403 56.044 23.4866C56.9977 22.533 58.2907 21.9965 59.6394 21.9949ZM26.0645 27.082C26.0645 26.0759 26.3628 25.0923 26.9218 24.2558C27.4808 23.4192 28.2753 22.7672 29.2048 22.3821C30.1344 21.9971 31.1572 21.8964 32.144 22.0926C33.1308 22.2889 34.0373 22.7734 34.7487 23.4849C35.4602 24.1963 35.9447 25.1028 36.1409 26.0896C36.3372 27.0764 36.2365 28.0992 35.8515 29.0288C35.4664 29.9583 34.8144 30.7528 33.9778 31.3118C33.1413 31.8708 32.1577 32.1691 31.1516 32.1691C29.8029 32.1675 28.5099 31.6311 27.5562 30.6774C26.6025 29.7237 26.0661 28.4307 26.0645 27.082ZM21.9948 41.3259V38.2736C21.9959 37.1946 22.4251 36.1602 23.188 35.3972C23.951 34.6342 24.9855 34.2051 26.0645 34.204H36.2387C37.3177 34.2051 38.3522 34.6342 39.1151 35.3972C39.8781 36.1602 40.3072 37.1946 40.3084 38.2736V41.3259H21.9948ZM26.0645 54.5524C26.0645 53.5462 26.3628 52.5627 26.9218 51.7261C27.4808 50.8896 28.2753 50.2375 29.2048 49.8525C30.1344 49.4675 31.1572 49.3667 32.144 49.563C33.1308 49.7593 34.0373 50.2438 34.7487 50.9552C35.4602 51.6667 35.9447 52.5731 36.1409 53.5599C36.3372 54.5467 36.2365 55.5696 35.8515 56.4991C35.4664 57.4287 34.8144 58.2232 33.9778 58.7822C33.1413 59.3411 32.1577 59.6395 31.1516 59.6395C29.8029 59.6379 28.5099 59.1014 27.5562 58.1478C26.6025 57.1941 26.0661 55.9011 26.0645 54.5524ZM40.3084 68.7963H21.9948V65.744C21.9959 64.665 22.4251 63.6305 23.188 62.8676C23.951 62.1046 24.9855 61.6755 26.0645 61.6743H36.2387C37.3159 61.6811 38.3471 62.1121 39.1089 62.8738C39.8706 63.6356 40.3016 64.6668 40.3084 65.744V68.7963ZM64.7265 61.6743C65.8055 61.6755 66.8399 62.1046 67.6029 62.8676C68.3659 63.6305 68.795 64.665 68.7962 65.744V68.7963H50.4826V65.744C50.4893 64.6667 50.9203 63.6355 51.682 62.8738C52.4438 62.112 53.475 61.6811 54.5523 61.6743H64.7265ZM59.6394 59.6395C58.6332 59.6395 57.6497 59.3411 56.8131 58.7822C55.9766 58.2232 55.3245 57.4287 54.9395 56.4991C54.5545 55.5696 54.4537 54.5467 54.65 53.5599C54.8463 52.5731 55.3308 51.6667 56.0422 50.9552C56.7537 50.2438 57.6601 49.7593 58.6469 49.563C59.6337 49.3667 60.6566 49.4675 61.5861 49.8525C62.5157 50.2375 63.3102 50.8896 63.8691 51.7261C64.4281 52.5627 64.7265 53.5462 64.7265 54.5524C64.7249 55.9011 64.1884 57.1941 63.2347 58.1478C62.2811 59.1014 60.9881 59.6379 59.6394 59.6395ZM64.3351 49.2117C62.9433 47.9843 61.1269 47.3494 59.2736 47.4425C57.4202 47.5355 55.6766 48.3492 54.4148 49.7098C53.153 51.0705 52.4728 52.8704 52.5195 54.7255C52.5662 56.5806 53.336 58.344 54.6647 59.6395C54.563 59.6778 49.659 59.5594 48.5916 64.4393C46.4752 64.7892 44.3157 64.7892 42.1994 64.4393C41.9006 63.0802 41.147 61.8638 40.0632 60.9911C38.9794 60.1183 37.6302 59.6415 36.2387 59.6395H36.1262C37.4563 58.3443 38.2273 56.5805 38.2746 54.7247C38.3219 52.8688 37.6417 51.068 36.3794 49.7068C35.1171 48.3456 33.3726 47.5319 31.5184 47.4394C29.6643 47.3469 27.8474 47.9829 26.4559 49.2117C26.1993 47.9558 26.0682 46.6775 26.0645 45.3956C26.067 44.7154 26.1092 44.036 26.1908 43.3607H41.3258C41.4594 43.3608 41.5917 43.3345 41.7152 43.2834C41.8386 43.2322 41.9508 43.1573 42.0453 43.0628C42.1398 42.9683 42.2147 42.8562 42.2658 42.7327C42.317 42.6093 42.3432 42.4769 42.3432 42.3433V38.2736C42.3414 36.6552 41.6977 35.1035 40.5533 33.959C39.4088 32.8146 37.8572 32.1709 36.2387 32.1691H36.1262C37.4016 30.9235 38.1613 29.2434 38.2542 27.4631C42.8402 25.6383 47.9508 25.6383 52.5368 27.4631C52.6297 29.2434 53.3894 30.9235 54.6647 32.1691H54.5523C52.9338 32.1709 51.3821 32.8146 50.2377 33.959C49.0932 35.1035 48.4495 36.6552 48.4477 38.2736V42.3433C48.4477 42.4769 48.474 42.6093 48.5251 42.7327C48.5762 42.8562 48.6512 42.9683 48.7457 43.0628C48.8401 43.1573 48.9523 43.2322 49.0758 43.2834C49.1992 43.3345 49.3315 43.3608 49.4652 43.3607H64.6002C64.6818 44.036 64.724 44.7154 64.7265 45.3956C64.7227 46.6775 64.5916 47.9558 64.3351 49.2117ZM68.7962 41.3259H50.4826V38.2736C50.4837 37.1946 50.9129 36.1602 51.6758 35.3972C52.4388 34.6342 53.4733 34.2051 54.5523 34.204H64.7265C65.8055 34.2051 66.8399 34.6342 67.6029 35.3972C68.3659 36.1602 68.795 37.1946 68.7962 38.2736V41.3259Z" fill="#25313B"/>
</svg>
