<svg width="60" height="60" viewBox="0 0 60 60" fill="none" xmlns="http://www.w3.org/2000/svg">
<g opacity="0.5" clip-path="url(#clip0_721_6801)">
<path fill-rule="evenodd" clip-rule="evenodd" d="M56.8664 12.0852C57.7973 13.0221 58.4658 14.1871 58.805 15.4635C60.0596 20.1749 60.0596 29.9999 60.0596 29.9999C60.0596 29.9999 60.0596 39.8249 58.805 44.5363C58.4658 45.8127 57.7973 46.9777 56.8664 47.9146C55.9354 48.8515 54.7747 49.5275 53.5005 49.8749C48.8096 51.1362 30.0596 51.1362 30.0596 51.1362C30.0596 51.1362 11.3096 51.1362 6.61866 49.8749C5.3444 49.5275 4.18372 48.8515 3.25279 47.9146C2.32186 46.9777 1.65333 45.8127 1.31412 44.5363C0.0595703 39.8249 0.0595703 29.9999 0.0595703 29.9999C0.0595703 29.9999 0.0595703 20.1749 1.31412 15.4635C1.65333 14.1871 2.32186 13.0221 3.25279 12.0852C4.18372 11.1483 5.3444 10.4723 6.61866 10.1249C11.3096 8.86353 30.0596 8.86353 30.0596 8.86353C30.0596 8.86353 48.8096 8.86353 53.5005 10.1249C54.7747 10.4723 55.9354 11.1483 56.8664 12.0852ZM23.9232 21.0785V38.9217L39.6051 30.0001L23.9232 21.0785Z" fill="white"/>
</g>
<defs>
<clipPath id="clip0_721_6801">
<rect width="60" height="60" fill="white"/>
</clipPath>
</defs>
</svg>
