<svg width="30" height="30" viewBox="0 0 30 30" fill="none" xmlns="http://www.w3.org/2000/svg">
<circle cx="15" cy="15" r="15" fill="#1877F2"/>
<g clip-path="url(#clip0_721_10492)">
<path d="M24 13C24 7.47715 19.5229 3 14 3C8.47715 3 4 7.47715 4 13C4 17.9912 7.65684 22.1283 12.4375 22.8785V15.8906H9.89844V13H12.4375V10.7969C12.4375 8.29063 13.9305 6.90625 16.2146 6.90625C17.3084 6.90625 18.4531 7.10156 18.4531 7.10156V9.5625H17.1922C15.95 9.5625 15.5625 10.3334 15.5625 11.125V13H18.3359L17.8926 15.8906H15.5625V22.8785C20.3432 22.1283 24 17.9912 24 13Z" fill="#1877F2"/>
<path d="M17.8926 15.8906L18.3359 13H15.5625V11.125C15.5625 10.3342 15.95 9.5625 17.1922 9.5625H18.4531V7.10156C18.4531 7.10156 17.3088 6.90625 16.2146 6.90625C13.9305 6.90625 12.4375 8.29063 12.4375 10.7969V13H9.89844V15.8906H12.4375V22.8785C13.4729 23.0405 14.5271 23.0405 15.5625 22.8785V15.8906H17.8926Z" fill="white"/>
</g>
<defs>
<clipPath id="clip0_721_10492">
<rect width="20" height="20" fill="white" transform="translate(4 3)"/>
</clipPath>
</defs>
</svg>
