<svg width="192" height="189" viewBox="0 0 192 189" fill="none" xmlns="http://www.w3.org/2000/svg">
<path d="M192 101C192 150.706 139.706 188.5 90 188.5C40.2944 188.5 0.5 150.706 0.5 101C0.5 51.2944 40.2944 0 90 0C139.706 0 192 51.2944 192 101Z" fill="#69A8FB"/>
<circle cx="95" cy="101" r="78" fill="white"/>
<path d="M128.938 86.3125H83.375C82.368 86.3125 81.4023 86.7125 80.6902 87.4246C79.9782 88.1366 79.5781 89.1024 79.5781 90.1094V125.547C79.5781 126.554 79.9782 127.52 80.6902 128.232C81.4023 128.944 82.368 129.344 83.375 129.344H95.5073L105.261 139.098C105.499 139.335 105.821 139.468 106.156 139.468C106.492 139.468 106.814 139.335 107.051 139.098L116.805 129.344H128.938C129.944 129.344 130.91 128.944 131.622 128.232C132.334 127.52 132.734 126.554 132.734 125.547V90.1094C132.734 89.1024 132.334 88.1366 131.622 87.4246C130.91 86.7125 129.944 86.3125 128.938 86.3125ZM90.9688 110.359C90.4681 110.359 89.9787 110.211 89.5625 109.933C89.1462 109.655 88.8218 109.259 88.6302 108.797C88.4386 108.334 88.3885 107.825 88.4861 107.334C88.5838 106.843 88.8249 106.392 89.1789 106.038C89.5329 105.684 89.9839 105.443 90.4749 105.346C90.9659 105.248 91.4749 105.298 91.9374 105.49C92.3999 105.681 92.7953 106.006 93.0734 106.422C93.3515 106.838 93.5 107.327 93.5 107.828C93.5 108.499 93.2333 109.143 92.7586 109.618C92.2839 110.093 91.6401 110.359 90.9688 110.359ZM101.094 110.359C100.593 110.359 100.104 110.211 99.6875 109.933C99.2712 109.655 98.9468 109.259 98.7552 108.797C98.5636 108.334 98.5135 107.825 98.6111 107.334C98.7088 106.843 98.9499 106.392 99.3039 106.038C99.6579 105.684 100.109 105.443 100.6 105.346C101.091 105.248 101.6 105.298 102.062 105.49C102.525 105.681 102.92 106.006 103.198 106.422C103.477 106.838 103.625 107.327 103.625 107.828C103.625 108.499 103.358 109.143 102.884 109.618C102.409 110.093 101.765 110.359 101.094 110.359ZM111.219 110.359C110.718 110.359 110.229 110.211 109.812 109.933C109.396 109.655 109.072 109.259 108.88 108.797C108.689 108.334 108.638 107.825 108.736 107.334C108.834 106.843 109.075 106.392 109.429 106.038C109.783 105.684 110.234 105.443 110.725 105.346C111.216 105.248 111.725 105.298 112.187 105.49C112.65 105.681 113.045 106.006 113.323 106.422C113.602 106.838 113.75 107.327 113.75 107.828C113.75 108.499 113.483 109.143 113.009 109.618C112.534 110.093 111.89 110.359 111.219 110.359ZM121.344 110.359C120.843 110.359 120.354 110.211 119.937 109.933C119.521 109.655 119.197 109.259 119.005 108.797C118.814 108.334 118.763 107.825 118.861 107.334C118.959 106.843 119.2 106.392 119.554 106.038C119.908 105.684 120.359 105.443 120.85 105.346C121.341 105.248 121.85 105.298 122.312 105.49C122.775 105.681 123.17 106.006 123.448 106.422C123.727 106.838 123.875 107.327 123.875 107.828C123.875 108.499 123.608 109.143 123.134 109.618C122.659 110.093 122.015 110.359 121.344 110.359Z" fill="#FCEFC1"/>
<path d="M97.4032 107.728C100.708 105.209 103.095 101.674 104.197 97.6676C105.299 93.6607 105.055 89.4029 103.503 85.548C101.951 81.6931 99.176 78.4543 95.605 76.3289C92.0341 74.2034 87.8642 73.3089 83.7357 73.7827C79.9707 74.213 76.4209 75.761 73.5438 78.2273C70.6666 80.6935 68.594 83.9649 67.5931 87.6198C66.5922 91.2747 66.7088 95.1456 67.928 98.7336C69.1471 102.322 71.4129 105.462 74.4333 107.751C74.98 108.165 75.3878 108.736 75.6028 109.387C75.0403 109.616 74.5414 109.978 74.1486 110.441C73.7558 110.905 73.4807 111.456 73.3466 112.048C73.2125 112.641 73.2235 113.257 73.3785 113.844C73.5336 114.432 73.8281 114.973 74.2372 115.422C73.7423 115.964 73.4161 116.639 73.2985 117.364C73.1809 118.089 73.277 118.832 73.575 119.504C73.873 120.175 74.36 120.745 74.9765 121.144C75.5931 121.542 76.3125 121.753 77.0468 121.75H77.1734C77.4672 123.178 78.2444 124.462 79.374 125.384C80.5037 126.306 81.9167 126.811 83.375 126.812H88.4375C89.8957 126.811 91.3088 126.306 92.4384 125.384C93.5681 124.462 94.3453 123.178 94.639 121.75H94.7656C95.4999 121.753 96.2193 121.542 96.8359 121.144C97.4525 120.745 97.9395 120.175 98.2375 119.504C98.5355 118.832 98.6316 118.089 98.514 117.364C98.3964 116.639 98.0702 115.964 97.5753 115.422C97.9852 114.973 98.2806 114.432 98.4363 113.844C98.5919 113.256 98.6034 112.64 98.4695 112.047C98.3356 111.454 98.0605 110.902 97.6675 110.438C97.2744 109.975 96.7752 109.613 96.2122 109.383C96.4337 108.724 96.8488 108.148 97.4032 107.728ZM69.5695 90.656C70.0214 86.9902 71.6907 83.5821 74.31 80.978C76.9293 78.3738 80.347 76.7243 84.0154 76.2937C87.5959 75.8771 91.2141 76.6486 94.3133 78.4895C97.4124 80.3304 99.8208 83.1387 101.168 86.4823C102.515 89.8259 102.726 93.5194 101.768 96.9946C100.81 100.47 98.7374 103.534 95.868 105.716C94.755 106.547 93.9682 107.742 93.6442 109.094H87.1718V100.701L94.4606 92.1975C94.5761 92.0725 94.6652 91.9255 94.7226 91.7652C94.7799 91.605 94.8044 91.4348 94.7945 91.2648C94.7845 91.0949 94.7404 90.9287 94.6648 90.7762C94.5891 90.6238 94.4835 90.4881 94.3542 90.3774C94.2249 90.2667 94.0746 90.1832 93.9123 90.1319C93.75 90.0806 93.579 90.0626 93.4096 90.0789C93.2402 90.0952 93.0758 90.1455 92.9263 90.2269C92.7767 90.3082 92.6451 90.4189 92.5394 90.5522L85.9062 98.2903L79.2731 90.5522C79.0509 90.3117 78.7442 90.1667 78.4173 90.1476C78.0905 90.1285 77.7689 90.2368 77.5202 90.4498C77.2716 90.6628 77.1151 90.9638 77.0837 91.2897C77.0523 91.6156 77.1484 91.941 77.3519 92.1975L84.6406 100.701V109.094H78.1695C77.8532 107.748 77.072 106.557 75.9635 105.731C73.6676 104.001 71.8678 101.697 70.7454 99.0507C69.6229 96.4043 69.2174 93.5089 69.5695 90.656ZM96.0312 112.891C96.0312 113.226 95.8979 113.548 95.6605 113.785C95.4232 114.023 95.1013 114.156 94.7656 114.156H77.0468C76.7112 114.156 76.3893 114.023 76.1519 113.785C75.9146 113.548 75.7812 113.226 75.7812 112.891C75.7812 112.555 75.9146 112.233 76.1519 111.996C76.3893 111.758 76.7112 111.625 77.0468 111.625H94.7656C95.1013 111.625 95.4232 111.758 95.6605 111.996C95.8979 112.233 96.0312 112.555 96.0312 112.891ZM88.4375 124.281H83.375C82.5899 124.28 81.8244 124.036 81.1834 123.583C80.5424 123.13 80.0572 122.49 79.7945 121.75H92.0179C91.7552 122.49 91.2701 123.13 90.629 123.583C89.988 124.036 89.2225 124.28 88.4375 124.281ZM94.7656 119.219H77.0468C76.7112 119.219 76.3893 119.085 76.1519 118.848C75.9146 118.611 75.7812 118.289 75.7812 117.953C75.7812 117.617 75.9146 117.295 76.1519 117.058C76.3893 116.821 76.7112 116.687 77.0468 116.687H94.7656C95.1013 116.687 95.4232 116.821 95.6605 117.058C95.8979 117.295 96.0312 117.617 96.0312 117.953C96.0312 118.289 95.8979 118.611 95.6605 118.848C95.4232 119.085 95.1013 119.219 94.7656 119.219Z" fill="#25313B"/>
<path d="M85.9062 69.8594C86.2419 69.8594 86.5638 69.726 86.8012 69.4887C87.0385 69.2513 87.1719 68.9294 87.1719 68.5938V64.7969C87.1719 64.4612 87.0385 64.1393 86.8012 63.9019C86.5638 63.6646 86.2419 63.5312 85.9062 63.5312C85.5706 63.5312 85.2487 63.6646 85.0113 63.9019C84.774 64.1393 84.6406 64.4612 84.6406 64.7969V68.5938C84.6406 68.9294 84.774 69.2513 85.0113 69.4887C85.2487 69.726 85.5706 69.8594 85.9062 69.8594Z" fill="#25313B"/>
<path d="M66.2169 77.2721C66.4556 77.5027 66.7753 77.6302 67.1072 77.6274C67.439 77.6245 67.7564 77.4914 67.9911 77.2567C68.2257 77.0221 68.3589 76.7046 68.3617 76.3728C68.3646 76.0409 68.2371 75.7212 68.0065 75.4825L65.3221 72.7981C65.0834 72.5676 64.7637 72.44 64.4319 72.4429C64.1 72.4458 63.7826 72.5789 63.5479 72.8136C63.3133 73.0482 63.1802 73.3657 63.1773 73.6975C63.1744 74.0293 63.302 74.349 63.5325 74.5877L66.2169 77.2721Z" fill="#25313B"/>
<path d="M105.596 113.072C105.357 112.841 105.037 112.713 104.705 112.716C104.373 112.719 104.056 112.852 103.821 113.087C103.587 113.322 103.454 113.639 103.451 113.971C103.448 114.303 103.575 114.622 103.806 114.861L106.49 117.546C106.607 117.666 106.747 117.763 106.901 117.829C107.056 117.896 107.222 117.93 107.39 117.932C107.558 117.933 107.724 117.901 107.88 117.838C108.035 117.774 108.177 117.68 108.296 117.561C108.414 117.442 108.508 117.301 108.572 117.146C108.636 116.99 108.668 116.823 108.666 116.655C108.665 116.487 108.63 116.321 108.564 116.167C108.497 116.012 108.401 115.873 108.28 115.756L105.596 113.072Z" fill="#25313B"/>
<path d="M59.3281 93.9062H55.5312C55.1956 93.9062 54.8737 94.0396 54.6363 94.2769C54.399 94.5143 54.2656 94.8362 54.2656 95.1719C54.2656 95.5075 54.399 95.8295 54.6363 96.0668C54.8737 96.3042 55.1956 96.4375 55.5312 96.4375H59.3281C59.6638 96.4375 59.9857 96.3042 60.2231 96.0668C60.4604 95.8295 60.5938 95.5075 60.5938 95.1719C60.5938 94.8362 60.4604 94.5143 60.2231 94.2769C59.9857 94.0396 59.6638 93.9062 59.3281 93.9062Z" fill="#25313B"/>
<path d="M116.281 93.9062H112.484C112.149 93.9062 111.827 94.0396 111.589 94.2769C111.352 94.5143 111.219 94.8362 111.219 95.1719C111.219 95.5075 111.352 95.8295 111.589 96.0668C111.827 96.3042 112.149 96.4375 112.484 96.4375H116.281C116.617 96.4375 116.939 96.3042 117.176 96.0668C117.414 95.8295 117.547 95.5075 117.547 95.1719C117.547 94.8362 117.414 94.5143 117.176 94.2769C116.939 94.0396 116.617 93.9062 116.281 93.9062Z" fill="#25313B"/>
<path d="M66.217 113.072L63.5326 115.756C63.4117 115.873 63.3153 116.012 63.2489 116.167C63.1826 116.321 63.1477 116.487 63.1462 116.655C63.1448 116.823 63.1768 116.99 63.2404 117.146C63.3041 117.301 63.398 117.442 63.5169 117.561C63.6357 117.68 63.777 117.774 63.9326 117.838C64.0881 117.901 64.2548 117.933 64.4228 117.932C64.5909 117.93 64.7569 117.896 64.9113 117.829C65.0657 117.763 65.2054 117.666 65.3222 117.546L68.0065 114.861C68.2371 114.622 68.3647 114.303 68.3618 113.971C68.3589 113.639 68.2258 113.322 67.9911 113.087C67.7565 112.852 67.439 112.719 67.1072 112.716C66.7753 112.713 66.4556 112.841 66.217 113.072Z" fill="#25313B"/>
<path d="M106.49 72.7982L103.806 75.4826C103.575 75.7213 103.448 76.041 103.451 76.3729C103.454 76.7047 103.587 77.0222 103.821 77.2568C104.056 77.4915 104.373 77.6246 104.705 77.6275C105.037 77.6303 105.357 77.5028 105.596 77.2722L108.28 74.5878C108.401 74.4711 108.497 74.3314 108.564 74.177C108.63 74.0226 108.665 73.8565 108.666 73.6885C108.668 73.5204 108.636 73.3538 108.572 73.1982C108.508 73.0427 108.414 72.9014 108.296 72.7826C108.177 72.6637 108.035 72.5697 107.88 72.5061C107.724 72.4425 107.558 72.4105 107.39 72.4119C107.222 72.4134 107.056 72.4483 106.901 72.5146C106.747 72.5809 106.607 72.6774 106.49 72.7982Z" fill="#25313B"/>
</svg>
