<svg width="192" height="189" viewBox="0 0 192 189" fill="none" xmlns="http://www.w3.org/2000/svg">
<path d="M192 101C192 150.706 139.706 188.5 90 188.5C40.2944 188.5 0.5 150.706 0.5 101C0.5 51.2944 40.2944 0 90 0C139.706 0 192 51.2944 192 101Z" fill="#69A8FB"/>
<circle cx="95" cy="101" r="78" fill="white"/>
<path d="M128.938 117.953H122.609V126.811C122.609 127.147 122.476 127.469 122.239 127.706C122.001 127.944 121.679 128.077 121.344 128.077C121.008 128.077 120.686 127.944 120.449 127.706C120.211 127.469 120.078 127.147 120.078 126.811V117.953H112.484V130.609C112.484 130.945 112.351 131.267 112.114 131.504C111.876 131.742 111.554 131.875 111.219 131.875C110.883 131.875 110.561 131.742 110.324 131.504C110.086 131.267 109.953 130.945 109.953 130.609V117.953H102.359V126.811C102.359 127.147 102.226 127.469 101.989 127.706C101.751 127.944 101.429 128.077 101.094 128.077C100.758 128.077 100.436 127.944 100.199 127.706C99.9615 127.469 99.8281 127.147 99.8281 126.811V117.953H92.2344V130.609C92.2344 130.945 92.101 131.267 91.8637 131.504C91.6263 131.742 91.3044 131.875 90.9688 131.875C90.6331 131.875 90.3112 131.742 90.0738 131.504C89.8365 131.267 89.7031 130.945 89.7031 130.609V117.953H82.1094V126.811C82.1094 127.147 81.976 127.469 81.7387 127.706C81.5013 127.944 81.1794 128.077 80.8438 128.077C80.5081 128.077 80.1862 127.944 79.9488 127.706C79.7115 127.469 79.5781 127.147 79.5781 126.811V117.953H73.25C72.2433 117.954 71.2782 118.355 70.5664 119.066C69.8546 119.778 69.4542 120.743 69.4531 121.75V136.938C69.4542 137.944 69.8546 138.909 70.5664 139.621C71.2782 140.333 72.2433 140.733 73.25 140.734H128.938C129.944 140.733 130.909 140.333 131.621 139.621C132.333 138.909 132.733 137.944 132.734 136.938V121.75C132.733 120.743 132.333 119.778 131.621 119.066C130.909 118.355 129.944 117.954 128.938 117.953Z" fill="#FCEFC1"/>
<path d="M123.875 95.1719H81.8086C83.2428 97.6769 84.0007 100.512 84.0078 103.398C83.9932 106.791 82.9533 110.1 81.0245 112.891H123.875C126.225 112.891 128.478 111.957 130.14 110.296C131.801 108.634 132.734 106.381 132.734 104.031C132.734 101.682 131.801 99.4282 130.14 97.7667C128.478 96.1053 126.225 95.1719 123.875 95.1719ZM109.953 107.828H90.9687C90.6331 107.828 90.3112 107.695 90.0738 107.457C89.8365 107.22 89.7031 106.898 89.7031 106.562C89.7031 106.227 89.8365 105.905 90.0738 105.668C90.3112 105.43 90.6331 105.297 90.9687 105.297H109.953C110.289 105.297 110.611 105.43 110.848 105.668C111.085 105.905 111.219 106.227 111.219 106.562C111.219 106.898 111.085 107.22 110.848 107.457C110.611 107.695 110.289 107.828 109.953 107.828ZM109.953 102.766H90.9687C90.6331 102.766 90.3112 102.632 90.0738 102.395C89.8365 102.158 89.7031 101.836 89.7031 101.5C89.7031 101.164 89.8365 100.842 90.0738 100.605C90.3112 100.368 90.6331 100.234 90.9687 100.234H109.953C110.289 100.234 110.611 100.368 110.848 100.605C111.085 100.842 111.219 101.164 111.219 101.5C111.219 101.836 111.085 102.158 110.848 102.395C110.611 102.632 110.289 102.766 109.953 102.766ZM120.078 110.359H117.547V97.7031H120.078V110.359Z" fill="#FCEFC1"/>
<path d="M81.4766 103.398C81.469 100.775 80.7311 98.2063 79.3457 95.979L69.9594 103.019C69.8024 103.137 69.6751 103.29 69.5874 103.465C69.4996 103.641 69.454 103.835 69.454 104.031C69.454 104.228 69.4996 104.421 69.5874 104.597C69.6751 104.773 69.8024 104.926 69.9594 105.044L78.7887 111.666C80.5244 109.257 81.4642 106.367 81.4766 103.398Z" fill="#FCEFC1"/>
<path d="M85.9062 117.953H75.7812C75.4456 117.953 75.1237 118.086 74.8863 118.324C74.649 118.561 74.5156 118.883 74.5156 119.219C74.5156 119.554 74.649 119.876 74.8863 120.114C75.1237 120.351 75.4456 120.484 75.7812 120.484H85.9062C86.2419 120.484 86.5638 120.351 86.8012 120.114C87.0385 119.876 87.1719 119.554 87.1719 119.219C87.1719 118.883 87.0385 118.561 86.8012 118.324C86.5638 118.086 86.2419 117.953 85.9062 117.953Z" fill="#25313B"/>
<path d="M85.9062 123.016H75.7812C75.4456 123.016 75.1237 123.149 74.8863 123.386C74.649 123.624 74.5156 123.946 74.5156 124.281C74.5156 124.617 74.649 124.939 74.8863 125.176C75.1237 125.414 75.4456 125.547 75.7812 125.547H85.9062C86.2419 125.547 86.5638 125.414 86.8012 125.176C87.0385 124.939 87.1719 124.617 87.1719 124.281C87.1719 123.946 87.0385 123.624 86.8012 123.386C86.5638 123.149 86.2419 123.016 85.9062 123.016Z" fill="#25313B"/>
<path d="M101.094 87.578H86.4674L89.6228 79.1636C89.7337 78.867 89.7296 78.5397 89.6114 78.246C89.4931 77.9523 89.2692 77.7135 88.9838 77.5766C85.9195 76.1113 83.4493 73.6407 81.9845 70.5761C81.8688 70.376 81.7025 70.2098 81.5023 70.0943C81.302 69.9788 81.0749 69.918 80.8437 69.918C80.6126 69.918 80.3855 69.9788 80.1852 70.0943C79.985 70.2098 79.8187 70.376 79.7029 70.5761C78.238 73.6406 75.7679 76.1111 72.7037 77.5766C72.4182 77.7135 72.1944 77.9523 72.0761 78.246C71.9579 78.5397 71.9538 78.867 72.0647 79.1636L75.2201 87.578H60.5963C60.2606 87.5781 59.9388 87.7115 59.7014 87.9488C59.4641 88.1861 59.3307 88.508 59.3306 88.8436C59.3205 92.5023 60.2489 96.1023 62.0272 99.2997C63.8055 102.497 66.3742 105.185 69.4878 107.106C70.7009 107.824 71.6934 108.861 72.3569 110.104C73.0204 111.347 73.3294 112.749 73.25 114.156C73.2499 114.322 73.2826 114.487 73.3461 114.641C73.4097 114.794 73.5029 114.934 73.6205 115.051C73.738 115.169 73.8776 115.262 74.0312 115.326C74.1848 115.389 74.3494 115.422 74.5156 115.422H87.1719C87.3381 115.422 87.5027 115.389 87.6563 115.326C87.8099 115.262 87.9495 115.169 88.067 115.051C88.1846 114.934 88.2778 114.794 88.3413 114.641C88.4049 114.487 88.4376 114.322 88.4375 114.156C88.3392 112.761 88.6323 111.367 89.2837 110.13C89.935 108.892 90.9189 107.862 92.1244 107.153C95.26 105.238 97.849 102.547 99.6418 99.34C101.435 96.1328 102.371 92.5178 102.359 88.8436C102.359 88.6774 102.327 88.5128 102.263 88.3592C102.2 88.2056 102.106 88.066 101.989 87.9485C101.871 87.8309 101.732 87.7377 101.578 87.6742C101.425 87.6106 101.26 87.5779 101.094 87.578ZM74.8283 79.323C76.6384 78.3085 78.248 76.972 79.5781 75.3794V81.2499C79.5781 81.5855 79.7115 81.9075 79.9488 82.1448C80.1862 82.3822 80.5081 82.5155 80.8437 82.5155C81.1794 82.5155 81.5013 82.3822 81.7387 82.1448C81.976 81.9075 82.1094 81.5855 82.1094 81.2499V75.3794C83.4395 76.972 85.0491 78.3085 86.8592 79.3231L83.7631 87.578H77.9244L74.8283 79.323ZM90.7957 104.999C89.415 105.832 88.2532 106.982 87.4072 108.355C86.5613 109.728 86.0555 111.283 85.9322 112.891H75.754C75.6188 111.273 75.1015 109.71 74.2446 108.331C73.3878 106.952 72.2158 105.796 70.8251 104.958C68.2601 103.376 66.1116 101.202 64.5594 98.6182C63.0073 96.0347 62.0967 93.117 61.9039 90.1093H99.7873C99.594 93.1307 98.676 96.0611 97.1109 98.6528C95.5459 101.244 93.3797 103.421 90.7957 104.999Z" fill="#25313B"/>
<path d="M103.625 62.2656C102.842 62.268 102.08 62.5126 101.442 62.9659C100.803 63.4191 100.321 64.0587 100.061 64.7969H61.6261C61.3276 63.9524 60.7401 63.2407 59.9676 62.7875C59.195 62.3343 58.2871 62.1689 57.4044 62.3203C56.5216 62.4718 55.7208 62.9304 55.1435 63.6152C54.5662 64.3 54.2495 65.1668 54.2495 66.0625C54.2495 66.9582 54.5662 67.825 55.1435 68.5098C55.7208 69.1946 56.5216 69.6532 57.4044 69.8047C58.2871 69.9562 59.195 69.7907 59.9676 69.3375C60.7401 68.8843 61.3276 68.1726 61.6261 67.3281H71.4127C68.7033 68.8833 66.4196 71.0831 64.7643 73.7324C63.109 76.3818 62.1332 79.3987 61.9235 82.5156H60.5937C60.2581 82.5156 59.9362 82.649 59.6988 82.8863C59.4615 83.1237 59.3281 83.4456 59.3281 83.7813C59.3281 84.1169 59.4615 84.4388 59.6988 84.6762C59.9362 84.9135 60.2581 85.0469 60.5937 85.0469H65.6562C65.9919 85.0469 66.3138 84.9135 66.5512 84.6762C66.7885 84.4388 66.9219 84.1169 66.9219 83.7813C66.9219 83.4456 66.7885 83.1237 66.5512 82.8863C66.3138 82.649 65.9919 82.5156 65.6562 82.5156H64.4547C64.7696 78.3846 66.6328 74.5248 69.6717 71.7087C72.7105 68.8927 76.7007 67.3281 80.8437 67.3281C84.9868 67.3281 88.977 68.8927 92.0158 71.7087C95.0546 74.5248 96.9179 78.3846 97.2327 82.5156H96.0312C95.6956 82.5156 95.3737 82.649 95.1363 82.8863C94.899 83.1237 94.7656 83.4456 94.7656 83.7813C94.7656 84.1169 94.899 84.4388 95.1363 84.6762C95.3737 84.9135 95.6956 85.0469 96.0312 85.0469H101.094C101.429 85.0469 101.751 84.9135 101.989 84.6762C102.226 84.4388 102.359 84.1169 102.359 83.7813C102.359 83.4456 102.226 83.1237 101.989 82.8863C101.751 82.649 101.429 82.5156 101.094 82.5156H99.764C99.5543 79.3987 98.5785 76.3818 96.9231 73.7324C95.2678 71.0831 92.9842 68.8833 90.2748 67.3281H100.061C100.295 67.9826 100.703 68.5603 101.243 68.9982C101.782 69.4362 102.431 69.7174 103.12 69.8113C103.808 69.9051 104.509 69.808 105.146 69.5304C105.783 69.2529 106.331 68.8056 106.731 68.2375C107.131 67.6694 107.367 67.0023 107.413 66.3091C107.46 65.6159 107.315 64.9233 106.994 64.3069C106.674 63.6906 106.19 63.1742 105.596 62.8142C105.001 62.4542 104.32 62.2644 103.625 62.2656ZM58.0625 67.3281C57.8122 67.3281 57.5675 67.2539 57.3593 67.1148C57.1512 66.9758 56.989 66.7781 56.8932 66.5468C56.7974 66.3156 56.7723 66.0611 56.8212 65.8156C56.87 65.5701 56.9906 65.3446 57.1676 65.1676C57.3446 64.9906 57.5701 64.87 57.8156 64.8212C58.0611 64.7724 58.3156 64.7974 58.5468 64.8932C58.7781 64.989 58.9757 65.1512 59.1148 65.3594C59.2539 65.5675 59.3281 65.8122 59.3281 66.0625C59.3279 66.3981 59.1945 66.7199 58.9572 66.9572C58.7199 67.1945 58.3981 67.3279 58.0625 67.3281ZM103.625 67.3281C103.375 67.3281 103.13 67.2539 102.922 67.1148C102.714 66.9758 102.551 66.7781 102.456 66.5468C102.36 66.3156 102.335 66.0611 102.384 65.8156C102.433 65.5701 102.553 65.3446 102.73 65.1676C102.907 64.9906 103.133 64.87 103.378 64.8212C103.624 64.7724 103.878 64.7974 104.109 64.8932C104.341 64.989 104.538 65.1512 104.677 65.3594C104.816 65.5675 104.891 65.8122 104.891 66.0625C104.89 66.3981 104.757 66.7199 104.52 66.9572C104.282 67.1945 103.961 67.3279 103.625 67.3281Z" fill="#25313B"/>
</svg>
