<svg width="192" height="189" viewBox="0 0 192 189" fill="none" xmlns="http://www.w3.org/2000/svg">
<path d="M192 101C192 150.706 139.706 188.5 90 188.5C40.2944 188.5 0.5 150.706 0.5 101C0.5 51.2944 40.2944 0 90 0C139.706 0 192 51.2944 192 101Z" fill="#69A8FB"/>
<circle cx="95" cy="101" r="78" fill="white"/>
<path d="M87.1719 95.1719H125.141V120.484H87.1719V95.1719Z" fill="#FCEFC1"/>
<path d="M128.938 87.5781H83.375C82.3683 87.5792 81.4032 87.9796 80.6914 88.6914C79.9796 89.4032 79.5792 90.3683 79.5781 91.375V126.812C79.5792 127.819 79.9796 128.784 80.6914 129.496C81.4032 130.208 82.3683 130.608 83.375 130.609H128.938C129.944 130.608 130.909 130.208 131.621 129.496C132.333 128.784 132.733 127.819 132.734 126.812V91.375C132.733 90.3683 132.333 89.4032 131.621 88.6914C130.909 87.9796 129.944 87.5792 128.938 87.5781ZM127.672 121.75C127.672 122.086 127.539 122.408 127.301 122.645C127.064 122.882 126.742 123.016 126.406 123.016H85.9062C85.5706 123.016 85.2487 122.882 85.0113 122.645C84.774 122.408 84.6406 122.086 84.6406 121.75V93.9062C84.6406 93.5706 84.774 93.2487 85.0113 93.0113C85.2487 92.774 85.5706 92.6406 85.9062 92.6406H126.406C126.742 92.6406 127.064 92.774 127.301 93.0113C127.539 93.2487 127.672 93.5706 127.672 93.9062V121.75Z" fill="#FCEFC1"/>
<path d="M117.547 138.203C116.458 138.203 115.406 137.805 114.589 137.084C113.772 136.363 113.247 135.369 113.112 134.288L112.969 133.141H99.3438L99.2004 134.288C99.0653 135.369 98.54 136.363 97.7234 137.084C96.9068 137.805 95.8549 138.203 94.7656 138.203C94.43 138.203 94.108 138.336 93.8707 138.574C93.6333 138.811 93.5 139.133 93.5 139.469C93.5 139.804 93.6333 140.126 93.8707 140.364C94.108 140.601 94.43 140.734 94.7656 140.734H117.547C117.883 140.734 118.204 140.601 118.442 140.364C118.679 140.126 118.812 139.804 118.812 139.469C118.812 139.133 118.679 138.811 118.442 138.574C118.204 138.336 117.883 138.203 117.547 138.203Z" fill="#FCEFC1"/>
<path d="M103.625 62.2656H58.0625C57.0558 62.2667 56.0907 62.6671 55.3789 63.3789C54.6671 64.0907 54.2667 65.0558 54.2656 66.0625V111.625C54.2667 112.632 54.6671 113.597 55.3789 114.309C56.0907 115.02 57.0558 115.421 58.0625 115.422H103.625C104.632 115.421 105.597 115.02 106.309 114.309C107.02 113.597 107.421 112.632 107.422 111.625V66.0625C107.421 65.0558 107.02 64.0907 106.309 63.3789C105.597 62.6671 104.632 62.2667 103.625 62.2656ZM58.0625 64.7969H103.625C103.961 64.7973 104.282 64.9308 104.519 65.168C104.757 65.4053 104.89 65.727 104.891 66.0625V72.3906H56.7969V66.0625C56.7973 65.727 56.9308 65.4053 57.168 65.168C57.4053 64.9308 57.727 64.7973 58.0625 64.7969ZM103.625 112.891H58.0625C57.727 112.89 57.4053 112.757 57.168 112.519C56.9308 112.282 56.7973 111.961 56.7969 111.625V74.9219H104.891V111.625C104.89 111.961 104.757 112.282 104.519 112.519C104.282 112.757 103.961 112.89 103.625 112.891Z" fill="#25313B"/>
<path d="M60.5938 69.8594H61.8594C62.195 69.8594 62.517 69.726 62.7543 69.4887C62.9917 69.2513 63.125 68.9294 63.125 68.5938C63.125 68.2581 62.9917 67.9362 62.7543 67.6988C62.517 67.4615 62.195 67.3281 61.8594 67.3281H60.5938C60.2581 67.3281 59.9362 67.4615 59.6988 67.6988C59.4615 67.9362 59.3281 68.2581 59.3281 68.5938C59.3281 68.9294 59.4615 69.2513 59.6988 69.4887C59.9362 69.726 60.2581 69.8594 60.5938 69.8594Z" fill="#25313B"/>
<path d="M68.1875 69.8594H69.4531C69.7888 69.8594 70.1107 69.726 70.3481 69.4887C70.5854 69.2513 70.7188 68.9294 70.7188 68.5938C70.7188 68.2581 70.5854 67.9362 70.3481 67.6988C70.1107 67.4615 69.7888 67.3281 69.4531 67.3281H68.1875C67.8518 67.3281 67.5299 67.4615 67.2926 67.6988C67.0552 67.9362 66.9219 68.2581 66.9219 68.5938C66.9219 68.9294 67.0552 69.2513 67.2926 69.4887C67.5299 69.726 67.8518 69.8594 68.1875 69.8594Z" fill="#25313B"/>
<path d="M75.7812 69.8594H77.0469C77.3825 69.8594 77.7045 69.726 77.9418 69.4887C78.1792 69.2513 78.3125 68.9294 78.3125 68.5938C78.3125 68.2581 78.1792 67.9362 77.9418 67.6988C77.7045 67.4615 77.3825 67.3281 77.0469 67.3281H75.7812C75.4456 67.3281 75.1237 67.4615 74.8863 67.6988C74.649 67.9362 74.5156 68.2581 74.5156 68.5938C74.5156 68.9294 74.649 69.2513 74.8863 69.4887C75.1237 69.726 75.4456 69.8594 75.7812 69.8594Z" fill="#25313B"/>
<path d="M63.125 95.1719H75.7812C76.7879 95.1708 77.753 94.7704 78.4648 94.0586C79.1766 93.3468 79.577 92.3817 79.5781 91.375V81.25C79.577 80.2433 79.1766 79.2782 78.4648 78.5664C77.753 77.8546 76.7879 77.4542 75.7812 77.4531H63.125C62.1183 77.4542 61.1532 77.8546 60.4414 78.5664C59.7296 79.2782 59.3292 80.2433 59.3281 81.25V91.375C59.3292 92.3817 59.7296 93.3468 60.4414 94.0586C61.1532 94.7704 62.1183 95.1708 63.125 95.1719ZM61.8594 81.25C61.8598 80.9145 61.9933 80.5928 62.2305 80.3555C62.4678 80.1183 62.7895 79.9848 63.125 79.9844H75.7812C76.1168 79.9848 76.4384 80.1183 76.6757 80.3555C76.913 80.5928 77.0464 80.9145 77.0469 81.25V91.375C77.0464 91.7105 76.913 92.0322 76.6757 92.2695C76.4384 92.5067 76.1168 92.6402 75.7812 92.6406H63.125C62.7895 92.6402 62.4678 92.5067 62.2305 92.2695C61.9933 92.0322 61.8598 91.7105 61.8594 91.375V81.25Z" fill="#25313B"/>
<path d="M98.5625 77.4531H85.9062C84.8996 77.4542 83.9345 77.8546 83.2227 78.5664C82.5109 79.2782 82.1105 80.2433 82.1094 81.25V91.375C82.1105 92.3817 82.5109 93.3468 83.2227 94.0586C83.9345 94.7704 84.8996 95.1708 85.9062 95.1719H98.5625C99.5692 95.1708 100.534 94.7704 101.246 94.0586C101.958 93.3468 102.358 92.3817 102.359 91.375V81.25C102.358 80.2433 101.958 79.2782 101.246 78.5664C100.534 77.8546 99.5692 77.4542 98.5625 77.4531ZM99.8281 91.375C99.8277 91.7105 99.6942 92.0322 99.457 92.2695C99.2197 92.5067 98.898 92.6402 98.5625 92.6406H85.9062C85.5707 92.6402 85.2491 92.5067 85.0118 92.2695C84.7745 92.0322 84.6411 91.7105 84.6406 91.375V81.25C84.6411 80.9145 84.7745 80.5928 85.0118 80.3555C85.2491 80.1183 85.5707 79.9848 85.9062 79.9844H98.5625C98.898 79.9848 99.2197 80.1183 99.457 80.3555C99.6942 80.5928 99.8277 80.9145 99.8281 81.25V91.375Z" fill="#25313B"/>
<path d="M101.094 97.7031H60.5938C60.2581 97.7031 59.9362 97.8365 59.6988 98.0738C59.4615 98.3112 59.3281 98.6331 59.3281 98.9688C59.3281 99.3044 59.4615 99.6263 59.6988 99.8637C59.9362 100.101 60.2581 100.234 60.5938 100.234H101.094C101.429 100.234 101.751 100.101 101.989 99.8637C102.226 99.6263 102.359 99.3044 102.359 98.9688C102.359 98.6331 102.226 98.3112 101.989 98.0738C101.751 97.8365 101.429 97.7031 101.094 97.7031Z" fill="#25313B"/>
<path d="M101.094 102.766H60.5938C60.2581 102.766 59.9362 102.899 59.6988 103.136C59.4615 103.374 59.3281 103.696 59.3281 104.031C59.3281 104.367 59.4615 104.689 59.6988 104.926C59.9362 105.164 60.2581 105.297 60.5938 105.297H101.094C101.429 105.297 101.751 105.164 101.989 104.926C102.226 104.689 102.359 104.367 102.359 104.031C102.359 103.696 102.226 103.374 101.989 103.136C101.751 102.899 101.429 102.766 101.094 102.766Z" fill="#25313B"/>
<path d="M80.8438 107.828H60.5938C60.2581 107.828 59.9362 107.961 59.6988 108.199C59.4615 108.436 59.3281 108.758 59.3281 109.094C59.3281 109.429 59.4615 109.751 59.6988 109.989C59.9362 110.226 60.2581 110.359 60.5938 110.359H80.8438C81.1794 110.359 81.5013 110.226 81.7387 109.989C81.976 109.751 82.1094 109.429 82.1094 109.094C82.1094 108.758 81.976 108.436 81.7387 108.199C81.5013 107.961 81.1794 107.828 80.8438 107.828Z" fill="#25313B"/>
</svg>
