<svg width="608" height="438" viewBox="0 0 608 438" fill="none" xmlns="http://www.w3.org/2000/svg">
<path d="M515 127C335.5 -29.5 160.667 9.50039 82.9999 79.5004C309 167 136.5 367.5 264 394C296.5 180.5 518.5 189 515 127Z" stroke="#A088B8" stroke-dasharray="10 10"/>
<path d="M487.157 73.7979C353.5 157 114.486 52.0098 57.5835 139.726C255 152.5 183.8 404.066 313.815 396.664C394 245 506.585 132.779 487.157 73.7979Z" stroke="#A088B8" stroke-dasharray="10 10"/>
<path d="M192 117C192 166.706 139.706 204.5 90 204.5C40.2944 204.5 0.5 166.706 0.5 117C0.5 67.2944 40.2944 16 90 16C139.706 16 192 67.2944 192 117Z" fill="#69A8FB"/>
<circle cx="95" cy="117" r="78" fill="white"/>
<path d="M128.938 102.312H83.375C82.368 102.312 81.4023 102.713 80.6902 103.425C79.9782 104.137 79.5781 105.102 79.5781 106.109V141.547C79.5781 142.554 79.9782 143.52 80.6902 144.232C81.4023 144.944 82.368 145.344 83.375 145.344H95.5073L105.261 155.098C105.499 155.335 105.821 155.468 106.156 155.468C106.492 155.468 106.814 155.335 107.051 155.098L116.805 145.344H128.938C129.944 145.344 130.91 144.944 131.622 144.232C132.334 143.52 132.734 142.554 132.734 141.547V106.109C132.734 105.102 132.334 104.137 131.622 103.425C130.91 102.713 129.944 102.312 128.938 102.312ZM90.9688 126.359C90.4681 126.359 89.9787 126.211 89.5625 125.933C89.1462 125.655 88.8218 125.259 88.6302 124.797C88.4386 124.334 88.3885 123.825 88.4861 123.334C88.5838 122.843 88.8249 122.392 89.1789 122.038C89.5329 121.684 89.9839 121.443 90.4749 121.346C90.9659 121.248 91.4749 121.298 91.9374 121.49C92.3999 121.681 92.7953 122.006 93.0734 122.422C93.3515 122.838 93.5 123.327 93.5 123.828C93.5 124.499 93.2333 125.143 92.7586 125.618C92.2839 126.093 91.6401 126.359 90.9688 126.359ZM101.094 126.359C100.593 126.359 100.104 126.211 99.6875 125.933C99.2712 125.655 98.9468 125.259 98.7552 124.797C98.5636 124.334 98.5135 123.825 98.6111 123.334C98.7088 122.843 98.9499 122.392 99.3039 122.038C99.6579 121.684 100.109 121.443 100.6 121.346C101.091 121.248 101.6 121.298 102.062 121.49C102.525 121.681 102.92 122.006 103.198 122.422C103.477 122.838 103.625 123.327 103.625 123.828C103.625 124.499 103.358 125.143 102.884 125.618C102.409 126.093 101.765 126.359 101.094 126.359ZM111.219 126.359C110.718 126.359 110.229 126.211 109.812 125.933C109.396 125.655 109.072 125.259 108.88 124.797C108.689 124.334 108.638 123.825 108.736 123.334C108.834 122.843 109.075 122.392 109.429 122.038C109.783 121.684 110.234 121.443 110.725 121.346C111.216 121.248 111.725 121.298 112.187 121.49C112.65 121.681 113.045 122.006 113.323 122.422C113.602 122.838 113.75 123.327 113.75 123.828C113.75 124.499 113.483 125.143 113.009 125.618C112.534 126.093 111.89 126.359 111.219 126.359ZM121.344 126.359C120.843 126.359 120.354 126.211 119.937 125.933C119.521 125.655 119.197 125.259 119.005 124.797C118.814 124.334 118.763 123.825 118.861 123.334C118.959 122.843 119.2 122.392 119.554 122.038C119.908 121.684 120.359 121.443 120.85 121.346C121.341 121.248 121.85 121.298 122.312 121.49C122.775 121.681 123.17 122.006 123.448 122.422C123.727 122.838 123.875 123.327 123.875 123.828C123.875 124.499 123.608 125.143 123.134 125.618C122.659 126.093 122.015 126.359 121.344 126.359Z" fill="#FCEFC1"/>
<path d="M97.4032 123.728C100.708 121.209 103.095 117.674 104.197 113.668C105.299 109.661 105.055 105.403 103.503 101.548C101.951 97.6931 99.176 94.4543 95.605 92.3289C92.0341 90.2034 87.8642 89.3089 83.7357 89.7827C79.9707 90.213 76.4209 91.761 73.5438 94.2273C70.6666 96.6935 68.594 99.9649 67.5931 103.62C66.5922 107.275 66.7088 111.146 67.928 114.734C69.1471 118.322 71.4129 121.462 74.4333 123.751C74.98 124.165 75.3878 124.736 75.6028 125.387C75.0403 125.616 74.5414 125.978 74.1486 126.441C73.7558 126.905 73.4807 127.456 73.3466 128.048C73.2125 128.641 73.2235 129.257 73.3785 129.844C73.5336 130.432 73.8281 130.973 74.2372 131.422C73.7423 131.964 73.4161 132.639 73.2985 133.364C73.1809 134.089 73.277 134.832 73.575 135.504C73.873 136.175 74.36 136.745 74.9765 137.144C75.5931 137.542 76.3125 137.753 77.0468 137.75H77.1734C77.4672 139.178 78.2444 140.462 79.374 141.384C80.5037 142.306 81.9167 142.811 83.375 142.812H88.4375C89.8957 142.811 91.3088 142.306 92.4384 141.384C93.5681 140.462 94.3453 139.178 94.639 137.75H94.7656C95.4999 137.753 96.2193 137.542 96.8359 137.144C97.4525 136.745 97.9395 136.175 98.2375 135.504C98.5355 134.832 98.6316 134.089 98.514 133.364C98.3964 132.639 98.0702 131.964 97.5753 131.422C97.9852 130.973 98.2806 130.432 98.4363 129.844C98.5919 129.256 98.6034 128.64 98.4695 128.047C98.3356 127.454 98.0605 126.902 97.6675 126.438C97.2744 125.975 96.7752 125.613 96.2122 125.383C96.4337 124.724 96.8488 124.148 97.4032 123.728ZM69.5695 106.656C70.0214 102.99 71.6907 99.5821 74.31 96.978C76.9293 94.3738 80.347 92.7243 84.0154 92.2937C87.5959 91.8771 91.2141 92.6486 94.3133 94.4895C97.4124 96.3304 99.8208 99.1387 101.168 102.482C102.515 105.826 102.726 109.519 101.768 112.995C100.81 116.47 98.7374 119.534 95.868 121.716C94.755 122.547 93.9682 123.742 93.6442 125.094H87.1718V116.701L94.4606 108.198C94.5761 108.073 94.6652 107.925 94.7226 107.765C94.7799 107.605 94.8044 107.435 94.7945 107.265C94.7845 107.095 94.7404 106.929 94.6648 106.776C94.5891 106.624 94.4835 106.488 94.3542 106.377C94.2249 106.267 94.0746 106.183 93.9123 106.132C93.75 106.081 93.579 106.063 93.4096 106.079C93.2402 106.095 93.0758 106.146 92.9263 106.227C92.7767 106.308 92.6451 106.419 92.5394 106.552L85.9062 114.29L79.2731 106.552C79.0509 106.312 78.7442 106.167 78.4173 106.148C78.0905 106.129 77.7689 106.237 77.5202 106.45C77.2716 106.663 77.1151 106.964 77.0837 107.29C77.0523 107.616 77.1484 107.941 77.3519 108.198L84.6406 116.701V125.094H78.1695C77.8532 123.748 77.072 122.557 75.9635 121.731C73.6676 120.001 71.8678 117.697 70.7454 115.051C69.6229 112.404 69.2174 109.509 69.5695 106.656ZM96.0312 128.891C96.0312 129.226 95.8979 129.548 95.6605 129.785C95.4232 130.023 95.1013 130.156 94.7656 130.156H77.0468C76.7112 130.156 76.3893 130.023 76.1519 129.785C75.9146 129.548 75.7812 129.226 75.7812 128.891C75.7812 128.555 75.9146 128.233 76.1519 127.996C76.3893 127.758 76.7112 127.625 77.0468 127.625H94.7656C95.1013 127.625 95.4232 127.758 95.6605 127.996C95.8979 128.233 96.0312 128.555 96.0312 128.891ZM88.4375 140.281H83.375C82.5899 140.28 81.8244 140.036 81.1834 139.583C80.5424 139.13 80.0572 138.49 79.7945 137.75H92.0179C91.7552 138.49 91.2701 139.13 90.629 139.583C89.988 140.036 89.2225 140.28 88.4375 140.281ZM94.7656 135.219H77.0468C76.7112 135.219 76.3893 135.085 76.1519 134.848C75.9146 134.611 75.7812 134.289 75.7812 133.953C75.7812 133.617 75.9146 133.295 76.1519 133.058C76.3893 132.821 76.7112 132.687 77.0468 132.687H94.7656C95.1013 132.687 95.4232 132.821 95.6605 133.058C95.8979 133.295 96.0312 133.617 96.0312 133.953C96.0312 134.289 95.8979 134.611 95.6605 134.848C95.4232 135.085 95.1013 135.219 94.7656 135.219Z" fill="#25313B"/>
<path d="M85.9062 85.8594C86.2419 85.8594 86.5638 85.726 86.8012 85.4887C87.0385 85.2513 87.1719 84.9294 87.1719 84.5938V80.7969C87.1719 80.4612 87.0385 80.1393 86.8012 79.9019C86.5638 79.6646 86.2419 79.5312 85.9062 79.5312C85.5706 79.5312 85.2487 79.6646 85.0113 79.9019C84.774 80.1393 84.6406 80.4612 84.6406 80.7969V84.5938C84.6406 84.9294 84.774 85.2513 85.0113 85.4887C85.2487 85.726 85.5706 85.8594 85.9062 85.8594Z" fill="#25313B"/>
<path d="M66.2169 93.2721C66.4556 93.5027 66.7753 93.6302 67.1072 93.6274C67.439 93.6245 67.7564 93.4914 67.9911 93.2567C68.2257 93.0221 68.3589 92.7046 68.3617 92.3728C68.3646 92.0409 68.2371 91.7212 68.0065 91.4825L65.3221 88.7981C65.0834 88.5676 64.7637 88.44 64.4319 88.4429C64.1 88.4458 63.7826 88.5789 63.5479 88.8136C63.3133 89.0482 63.1802 89.3657 63.1773 89.6975C63.1744 90.0293 63.302 90.349 63.5325 90.5877L66.2169 93.2721Z" fill="#25313B"/>
<path d="M105.596 129.072C105.357 128.841 105.037 128.713 104.705 128.716C104.373 128.719 104.056 128.852 103.821 129.087C103.587 129.322 103.454 129.639 103.451 129.971C103.448 130.303 103.575 130.622 103.806 130.861L106.49 133.546C106.607 133.666 106.747 133.763 106.901 133.829C107.056 133.896 107.222 133.93 107.39 133.932C107.558 133.933 107.724 133.901 107.88 133.838C108.035 133.774 108.177 133.68 108.296 133.561C108.414 133.442 108.508 133.301 108.572 133.146C108.636 132.99 108.668 132.823 108.666 132.655C108.665 132.487 108.63 132.321 108.564 132.167C108.497 132.012 108.401 131.873 108.28 131.756L105.596 129.072Z" fill="#25313B"/>
<path d="M59.3281 109.906H55.5312C55.1956 109.906 54.8737 110.04 54.6363 110.277C54.399 110.514 54.2656 110.836 54.2656 111.172C54.2656 111.508 54.399 111.829 54.6363 112.067C54.8737 112.304 55.1956 112.438 55.5312 112.438H59.3281C59.6638 112.438 59.9857 112.304 60.2231 112.067C60.4604 111.829 60.5938 111.508 60.5938 111.172C60.5938 110.836 60.4604 110.514 60.2231 110.277C59.9857 110.04 59.6638 109.906 59.3281 109.906Z" fill="#25313B"/>
<path d="M116.281 109.906H112.484C112.149 109.906 111.827 110.04 111.589 110.277C111.352 110.514 111.219 110.836 111.219 111.172C111.219 111.508 111.352 111.829 111.589 112.067C111.827 112.304 112.149 112.438 112.484 112.438H116.281C116.617 112.438 116.939 112.304 117.176 112.067C117.414 111.829 117.547 111.508 117.547 111.172C117.547 110.836 117.414 110.514 117.176 110.277C116.939 110.04 116.617 109.906 116.281 109.906Z" fill="#25313B"/>
<path d="M66.217 129.072L63.5326 131.756C63.4117 131.873 63.3153 132.012 63.2489 132.167C63.1826 132.321 63.1477 132.487 63.1462 132.655C63.1448 132.823 63.1768 132.99 63.2404 133.146C63.3041 133.301 63.398 133.442 63.5169 133.561C63.6357 133.68 63.777 133.774 63.9326 133.838C64.0881 133.901 64.2548 133.933 64.4228 133.932C64.5909 133.93 64.7569 133.896 64.9113 133.829C65.0657 133.763 65.2054 133.666 65.3222 133.546L68.0065 130.861C68.2371 130.622 68.3647 130.303 68.3618 129.971C68.3589 129.639 68.2258 129.322 67.9911 129.087C67.7565 128.852 67.439 128.719 67.1072 128.716C66.7753 128.713 66.4556 128.841 66.217 129.072Z" fill="#25313B"/>
<path d="M106.49 88.7982L103.806 91.4826C103.575 91.7213 103.448 92.041 103.451 92.3729C103.454 92.7047 103.587 93.0222 103.821 93.2568C104.056 93.4915 104.373 93.6246 104.705 93.6275C105.037 93.6303 105.357 93.5028 105.596 93.2722L108.28 90.5878C108.401 90.4711 108.497 90.3314 108.564 90.177C108.63 90.0226 108.665 89.8565 108.666 89.6885C108.668 89.5204 108.636 89.3538 108.572 89.1982C108.508 89.0427 108.414 88.9014 108.296 88.7826C108.177 88.6637 108.035 88.5697 107.88 88.5061C107.724 88.4425 107.558 88.4105 107.39 88.4119C107.222 88.4134 107.056 88.4483 106.901 88.5146C106.747 88.5809 106.607 88.6774 106.49 88.7982Z" fill="#25313B"/>
<path d="M608 156C608 205.706 555.706 243.5 506 243.5C456.294 243.5 416.5 205.706 416.5 156C416.5 106.294 456.294 55 506 55C555.706 55 608 106.294 608 156Z" fill="#69A8FB"/>
<circle cx="511" cy="156" r="78" fill="white"/>
<path d="M544.938 172.953H538.609V181.811C538.609 182.147 538.476 182.469 538.239 182.706C538.001 182.944 537.679 183.077 537.344 183.077C537.008 183.077 536.686 182.944 536.449 182.706C536.211 182.469 536.078 182.147 536.078 181.811V172.953H528.484V185.609C528.484 185.945 528.351 186.267 528.114 186.504C527.876 186.742 527.554 186.875 527.219 186.875C526.883 186.875 526.561 186.742 526.324 186.504C526.086 186.267 525.953 185.945 525.953 185.609V172.953H518.359V181.811C518.359 182.147 518.226 182.469 517.989 182.706C517.751 182.944 517.429 183.077 517.094 183.077C516.758 183.077 516.436 182.944 516.199 182.706C515.961 182.469 515.828 182.147 515.828 181.811V172.953H508.234V185.609C508.234 185.945 508.101 186.267 507.864 186.504C507.626 186.742 507.304 186.875 506.969 186.875C506.633 186.875 506.311 186.742 506.074 186.504C505.836 186.267 505.703 185.945 505.703 185.609V172.953H498.109V181.811C498.109 182.147 497.976 182.469 497.739 182.706C497.501 182.944 497.179 183.077 496.844 183.077C496.508 183.077 496.186 182.944 495.949 182.706C495.711 182.469 495.578 182.147 495.578 181.811V172.953H489.25C488.243 172.954 487.278 173.355 486.566 174.066C485.855 174.778 485.454 175.743 485.453 176.75V191.938C485.454 192.944 485.855 193.909 486.566 194.621C487.278 195.333 488.243 195.733 489.25 195.734H544.938C545.944 195.733 546.909 195.333 547.621 194.621C548.333 193.909 548.733 192.944 548.734 191.938V176.75C548.733 175.743 548.333 174.778 547.621 174.066C546.909 173.355 545.944 172.954 544.938 172.953Z" fill="#FCEFC1"/>
<path d="M539.875 150.172H497.809C499.243 152.677 500.001 155.512 500.008 158.398C499.993 161.791 498.953 165.1 497.025 167.891H539.875C542.225 167.891 544.478 166.957 546.14 165.296C547.801 163.634 548.734 161.381 548.734 159.031C548.734 156.682 547.801 154.428 546.14 152.767C544.478 151.105 542.225 150.172 539.875 150.172ZM525.953 162.828H506.969C506.633 162.828 506.311 162.695 506.074 162.457C505.836 162.22 505.703 161.898 505.703 161.562C505.703 161.227 505.836 160.905 506.074 160.668C506.311 160.43 506.633 160.297 506.969 160.297H525.953C526.289 160.297 526.611 160.43 526.848 160.668C527.085 160.905 527.219 161.227 527.219 161.562C527.219 161.898 527.085 162.22 526.848 162.457C526.611 162.695 526.289 162.828 525.953 162.828ZM525.953 157.766H506.969C506.633 157.766 506.311 157.632 506.074 157.395C505.836 157.158 505.703 156.836 505.703 156.5C505.703 156.164 505.836 155.842 506.074 155.605C506.311 155.368 506.633 155.234 506.969 155.234H525.953C526.289 155.234 526.611 155.368 526.848 155.605C527.085 155.842 527.219 156.164 527.219 156.5C527.219 156.836 527.085 157.158 526.848 157.395C526.611 157.632 526.289 157.766 525.953 157.766ZM536.078 165.359H533.547V152.703H536.078V165.359Z" fill="#FCEFC1"/>
<path d="M497.477 158.398C497.469 155.775 496.731 153.206 495.346 150.979L485.959 158.019C485.802 158.137 485.675 158.29 485.587 158.465C485.5 158.641 485.454 158.835 485.454 159.031C485.454 159.228 485.5 159.421 485.587 159.597C485.675 159.773 485.802 159.926 485.959 160.044L494.789 166.666C496.524 164.257 497.464 161.367 497.477 158.398Z" fill="#FCEFC1"/>
<path d="M501.906 172.953H491.781C491.446 172.953 491.124 173.086 490.886 173.324C490.649 173.561 490.516 173.883 490.516 174.219C490.516 174.554 490.649 174.876 490.886 175.114C491.124 175.351 491.446 175.484 491.781 175.484H501.906C502.242 175.484 502.564 175.351 502.801 175.114C503.039 174.876 503.172 174.554 503.172 174.219C503.172 173.883 503.039 173.561 502.801 173.324C502.564 173.086 502.242 172.953 501.906 172.953Z" fill="#25313B"/>
<path d="M501.906 178.016H491.781C491.446 178.016 491.124 178.149 490.886 178.386C490.649 178.624 490.516 178.946 490.516 179.281C490.516 179.617 490.649 179.939 490.886 180.176C491.124 180.414 491.446 180.547 491.781 180.547H501.906C502.242 180.547 502.564 180.414 502.801 180.176C503.039 179.939 503.172 179.617 503.172 179.281C503.172 178.946 503.039 178.624 502.801 178.386C502.564 178.149 502.242 178.016 501.906 178.016Z" fill="#25313B"/>
<path d="M517.094 142.578H502.467L505.623 134.164C505.734 133.867 505.73 133.54 505.611 133.246C505.493 132.952 505.269 132.714 504.984 132.577C501.919 131.111 499.449 128.641 497.985 125.576C497.869 125.376 497.702 125.21 497.502 125.094C497.302 124.979 497.075 124.918 496.844 124.918C496.613 124.918 496.385 124.979 496.185 125.094C495.985 125.21 495.819 125.376 495.703 125.576C494.238 128.641 491.768 131.111 488.704 132.577C488.418 132.714 488.194 132.952 488.076 133.246C487.958 133.54 487.954 133.867 488.065 134.164L491.22 142.578H476.596C476.261 142.578 475.939 142.711 475.701 142.949C475.464 143.186 475.331 143.508 475.331 143.844C475.32 147.502 476.249 151.102 478.027 154.3C479.806 157.497 482.374 160.185 485.488 162.106C486.701 162.824 487.693 163.861 488.357 165.104C489.02 166.347 489.329 167.749 489.25 169.156C489.25 169.322 489.283 169.487 489.346 169.641C489.41 169.794 489.503 169.934 489.62 170.051C489.738 170.169 489.878 170.262 490.031 170.326C490.185 170.389 490.349 170.422 490.516 170.422H503.172C503.338 170.422 503.503 170.389 503.656 170.326C503.81 170.262 503.949 170.169 504.067 170.051C504.185 169.934 504.278 169.794 504.341 169.641C504.405 169.487 504.438 169.322 504.437 169.156C504.339 167.761 504.632 166.367 505.284 165.13C505.935 163.892 506.919 162.862 508.124 162.153C511.26 160.238 513.849 157.547 515.642 154.34C517.435 151.133 518.371 147.518 518.359 143.844C518.359 143.677 518.327 143.513 518.263 143.359C518.2 143.206 518.106 143.066 517.989 142.948C517.871 142.831 517.732 142.738 517.578 142.674C517.425 142.611 517.26 142.578 517.094 142.578ZM490.828 134.323C492.638 133.308 494.248 131.972 495.578 130.379V136.25C495.578 136.586 495.711 136.907 495.949 137.145C496.186 137.382 496.508 137.516 496.844 137.516C497.179 137.516 497.501 137.382 497.739 137.145C497.976 136.907 498.109 136.586 498.109 136.25V130.379C499.439 131.972 501.049 133.308 502.859 134.323L499.763 142.578H493.924L490.828 134.323ZM506.796 159.999C505.415 160.832 504.253 161.982 503.407 163.355C502.561 164.728 502.056 166.283 501.932 167.891H491.754C491.619 166.273 491.102 164.71 490.245 163.331C489.388 161.952 488.216 160.796 486.825 159.958C484.26 158.376 482.112 156.202 480.559 153.618C479.007 151.035 478.097 148.117 477.904 145.109H515.787C515.594 148.131 514.676 151.061 513.111 153.653C511.546 156.244 509.38 158.421 506.796 159.999Z" fill="#25313B"/>
<path d="M519.625 117.266C518.842 117.268 518.08 117.513 517.442 117.966C516.803 118.419 516.321 119.059 516.061 119.797H477.626C477.328 118.952 476.74 118.241 475.968 117.788C475.195 117.334 474.287 117.169 473.404 117.32C472.522 117.472 471.721 117.93 471.143 118.615C470.566 119.3 470.25 120.167 470.25 121.063C470.25 121.958 470.566 122.825 471.143 123.51C471.721 124.195 472.522 124.653 473.404 124.805C474.287 124.956 475.195 124.791 475.968 124.337C476.74 123.884 477.328 123.173 477.626 122.328H487.413C484.703 123.883 482.42 126.083 480.764 128.732C479.109 131.382 478.133 134.399 477.923 137.516H476.594C476.258 137.516 475.936 137.649 475.699 137.886C475.461 138.124 475.328 138.446 475.328 138.781C475.328 139.117 475.461 139.439 475.699 139.676C475.936 139.914 476.258 140.047 476.594 140.047H481.656C481.992 140.047 482.314 139.914 482.551 139.676C482.789 139.439 482.922 139.117 482.922 138.781C482.922 138.446 482.789 138.124 482.551 137.886C482.314 137.649 481.992 137.516 481.656 137.516H480.455C480.77 133.385 482.633 129.525 485.672 126.709C488.711 123.893 492.701 122.328 496.844 122.328C500.987 122.328 504.977 123.893 508.016 126.709C511.055 129.525 512.918 133.385 513.233 137.516H512.031C511.696 137.516 511.374 137.649 511.136 137.886C510.899 138.124 510.766 138.446 510.766 138.781C510.766 139.117 510.899 139.439 511.136 139.676C511.374 139.914 511.696 140.047 512.031 140.047H517.094C517.429 140.047 517.751 139.914 517.989 139.676C518.226 139.439 518.359 139.117 518.359 138.781C518.359 138.446 518.226 138.124 517.989 137.886C517.751 137.649 517.429 137.516 517.094 137.516H515.764C515.554 134.399 514.578 131.382 512.923 128.732C511.268 126.083 508.984 123.883 506.275 122.328H516.061C516.295 122.983 516.703 123.56 517.243 123.998C517.782 124.436 518.431 124.717 519.12 124.811C519.808 124.905 520.509 124.808 521.146 124.53C521.783 124.253 522.331 123.806 522.731 123.237C523.131 122.669 523.367 122.002 523.413 121.309C523.46 120.616 523.315 119.923 522.994 119.307C522.674 118.691 522.19 118.174 521.596 117.814C521.001 117.454 520.32 117.264 519.625 117.266ZM474.062 122.328C473.812 122.328 473.567 122.254 473.359 122.115C473.151 121.976 472.989 121.778 472.893 121.547C472.797 121.316 472.772 121.061 472.821 120.816C472.87 120.57 472.991 120.345 473.168 120.168C473.345 119.991 473.57 119.87 473.816 119.821C474.061 119.772 474.316 119.797 474.547 119.893C474.778 119.989 474.976 120.151 475.115 120.359C475.254 120.567 475.328 120.812 475.328 121.063C475.328 121.398 475.194 121.72 474.957 121.957C474.72 122.194 474.398 122.328 474.062 122.328ZM519.625 122.328C519.375 122.328 519.13 122.254 518.922 122.115C518.714 121.976 518.551 121.778 518.456 121.547C518.36 121.316 518.335 121.061 518.384 120.816C518.433 120.57 518.553 120.345 518.73 120.168C518.907 119.991 519.133 119.87 519.378 119.821C519.624 119.772 519.878 119.797 520.109 119.893C520.341 119.989 520.538 120.151 520.677 120.359C520.816 120.567 520.891 120.812 520.891 121.063C520.89 121.398 520.757 121.72 520.52 121.957C520.282 122.194 519.961 122.328 519.625 122.328Z" fill="#25313B"/>
<path d="M370 350C370 399.706 317.706 437.5 268 437.5C218.294 437.5 178.5 399.706 178.5 350C178.5 300.294 218.294 249 268 249C317.706 249 370 300.294 370 350Z" fill="#69A8FB"/>
<circle cx="273" cy="350" r="78" fill="white"/>
<path d="M265.172 344.172H303.141V369.484H265.172V344.172Z" fill="#FCEFC1"/>
<path d="M306.938 336.578H261.375C260.368 336.579 259.403 336.98 258.691 337.691C257.98 338.403 257.579 339.368 257.578 340.375V375.812C257.579 376.819 257.98 377.784 258.691 378.496C259.403 379.208 260.368 379.608 261.375 379.609H306.938C307.944 379.608 308.909 379.208 309.621 378.496C310.333 377.784 310.733 376.819 310.734 375.812V340.375C310.733 339.368 310.333 338.403 309.621 337.691C308.909 336.98 307.944 336.579 306.938 336.578ZM305.672 370.75C305.672 371.086 305.539 371.408 305.301 371.645C305.064 371.882 304.742 372.016 304.406 372.016H263.906C263.571 372.016 263.249 371.882 263.011 371.645C262.774 371.408 262.641 371.086 262.641 370.75V342.906C262.641 342.571 262.774 342.249 263.011 342.011C263.249 341.774 263.571 341.641 263.906 341.641H304.406C304.742 341.641 305.064 341.774 305.301 342.011C305.539 342.249 305.672 342.571 305.672 342.906V370.75Z" fill="#FCEFC1"/>
<path d="M295.547 387.203C294.458 387.203 293.406 386.805 292.589 386.084C291.772 385.363 291.247 384.369 291.112 383.288L290.969 382.141H277.344L277.2 383.288C277.065 384.369 276.54 385.363 275.723 386.084C274.907 386.805 273.855 387.203 272.766 387.203C272.43 387.203 272.108 387.336 271.871 387.574C271.633 387.811 271.5 388.133 271.5 388.469C271.5 388.804 271.633 389.126 271.871 389.364C272.108 389.601 272.43 389.734 272.766 389.734H295.547C295.883 389.734 296.204 389.601 296.442 389.364C296.679 389.126 296.812 388.804 296.812 388.469C296.812 388.133 296.679 387.811 296.442 387.574C296.204 387.336 295.883 387.203 295.547 387.203Z" fill="#FCEFC1"/>
<path d="M281.625 311.266H236.062C235.056 311.267 234.091 311.667 233.379 312.379C232.667 313.091 232.267 314.056 232.266 315.062V360.625C232.267 361.632 232.667 362.597 233.379 363.309C234.091 364.02 235.056 364.421 236.062 364.422H281.625C282.632 364.421 283.597 364.02 284.309 363.309C285.02 362.597 285.421 361.632 285.422 360.625V315.062C285.421 314.056 285.02 313.091 284.309 312.379C283.597 311.667 282.632 311.267 281.625 311.266ZM236.062 313.797H281.625C281.961 313.797 282.282 313.931 282.519 314.168C282.757 314.405 282.89 314.727 282.891 315.062V321.391H234.797V315.062C234.797 314.727 234.931 314.405 235.168 314.168C235.405 313.931 235.727 313.797 236.062 313.797ZM281.625 361.891H236.062C235.727 361.89 235.405 361.757 235.168 361.519C234.931 361.282 234.797 360.961 234.797 360.625V323.922H282.891V360.625C282.89 360.961 282.757 361.282 282.519 361.519C282.282 361.757 281.961 361.89 281.625 361.891Z" fill="#25313B"/>
<path d="M238.594 318.859H239.859C240.195 318.859 240.517 318.726 240.754 318.489C240.992 318.251 241.125 317.929 241.125 317.594C241.125 317.258 240.992 316.936 240.754 316.699C240.517 316.461 240.195 316.328 239.859 316.328H238.594C238.258 316.328 237.936 316.461 237.699 316.699C237.461 316.936 237.328 317.258 237.328 317.594C237.328 317.929 237.461 318.251 237.699 318.489C237.936 318.726 238.258 318.859 238.594 318.859Z" fill="#25313B"/>
<path d="M246.188 318.859H247.453C247.789 318.859 248.111 318.726 248.348 318.489C248.585 318.251 248.719 317.929 248.719 317.594C248.719 317.258 248.585 316.936 248.348 316.699C248.111 316.461 247.789 316.328 247.453 316.328H246.188C245.852 316.328 245.53 316.461 245.293 316.699C245.055 316.936 244.922 317.258 244.922 317.594C244.922 317.929 245.055 318.251 245.293 318.489C245.53 318.726 245.852 318.859 246.188 318.859Z" fill="#25313B"/>
<path d="M253.781 318.859H255.047C255.383 318.859 255.704 318.726 255.942 318.489C256.179 318.251 256.312 317.929 256.312 317.594C256.312 317.258 256.179 316.936 255.942 316.699C255.704 316.461 255.383 316.328 255.047 316.328H253.781C253.446 316.328 253.124 316.461 252.886 316.699C252.649 316.936 252.516 317.258 252.516 317.594C252.516 317.929 252.649 318.251 252.886 318.489C253.124 318.726 253.446 318.859 253.781 318.859Z" fill="#25313B"/>
<path d="M241.125 344.172H253.781C254.788 344.171 255.753 343.77 256.465 343.059C257.177 342.347 257.577 341.382 257.578 340.375V330.25C257.577 329.243 257.177 328.278 256.465 327.566C255.753 326.855 254.788 326.454 253.781 326.453H241.125C240.118 326.454 239.153 326.855 238.441 327.566C237.73 328.278 237.329 329.243 237.328 330.25V340.375C237.329 341.382 237.73 342.347 238.441 343.059C239.153 343.77 240.118 344.171 241.125 344.172ZM239.859 330.25C239.86 329.914 239.993 329.593 240.231 329.356C240.468 329.118 240.789 328.985 241.125 328.984H253.781C254.117 328.985 254.438 329.118 254.676 329.356C254.913 329.593 255.046 329.914 255.047 330.25V340.375C255.046 340.711 254.913 341.032 254.676 341.269C254.438 341.507 254.117 341.64 253.781 341.641H241.125C240.789 341.64 240.468 341.507 240.231 341.269C239.993 341.032 239.86 340.711 239.859 340.375V330.25Z" fill="#25313B"/>
<path d="M276.562 326.453H263.906C262.9 326.454 261.934 326.855 261.223 327.566C260.511 328.278 260.11 329.243 260.109 330.25V340.375C260.11 341.382 260.511 342.347 261.223 343.059C261.934 343.77 262.9 344.171 263.906 344.172H276.562C277.569 344.171 278.534 343.77 279.246 343.059C279.958 342.347 280.358 341.382 280.359 340.375V330.25C280.358 329.243 279.958 328.278 279.246 327.566C278.534 326.855 277.569 326.454 276.562 326.453ZM277.828 340.375C277.828 340.711 277.694 341.032 277.457 341.269C277.22 341.507 276.898 341.64 276.562 341.641H263.906C263.571 341.64 263.249 341.507 263.012 341.269C262.775 341.032 262.641 340.711 262.641 340.375V330.25C262.641 329.914 262.775 329.593 263.012 329.356C263.249 329.118 263.571 328.985 263.906 328.984H276.562C276.898 328.985 277.22 329.118 277.457 329.356C277.694 329.593 277.828 329.914 277.828 330.25V340.375Z" fill="#25313B"/>
<path d="M279.094 346.703H238.594C238.258 346.703 237.936 346.836 237.699 347.074C237.461 347.311 237.328 347.633 237.328 347.969C237.328 348.304 237.461 348.626 237.699 348.864C237.936 349.101 238.258 349.234 238.594 349.234H279.094C279.429 349.234 279.751 349.101 279.989 348.864C280.226 348.626 280.359 348.304 280.359 347.969C280.359 347.633 280.226 347.311 279.989 347.074C279.751 346.836 279.429 346.703 279.094 346.703Z" fill="#25313B"/>
<path d="M279.094 351.766H238.594C238.258 351.766 237.936 351.899 237.699 352.136C237.461 352.374 237.328 352.696 237.328 353.031C237.328 353.367 237.461 353.689 237.699 353.926C237.936 354.164 238.258 354.297 238.594 354.297H279.094C279.429 354.297 279.751 354.164 279.989 353.926C280.226 353.689 280.359 353.367 280.359 353.031C280.359 352.696 280.226 352.374 279.989 352.136C279.751 351.899 279.429 351.766 279.094 351.766Z" fill="#25313B"/>
<path d="M258.844 356.828H238.594C238.258 356.828 237.936 356.961 237.699 357.199C237.461 357.436 237.328 357.758 237.328 358.094C237.328 358.429 237.461 358.751 237.699 358.989C237.936 359.226 238.258 359.359 238.594 359.359H258.844C259.179 359.359 259.501 359.226 259.739 358.989C259.976 358.751 260.109 358.429 260.109 358.094C260.109 357.758 259.976 357.436 259.739 357.199C259.501 356.961 259.179 356.828 258.844 356.828Z" fill="#25313B"/>
<circle cx="305" cy="15" r="15" fill="#FFC806"/>
<circle cx="248" cy="196" r="15" fill="#FFC806"/>
<circle cx="383" cy="268" r="8" fill="#FFC806"/>
<circle cx="138" cy="356" r="12" fill="#FFC806"/>
</svg>

