<svg width="94" height="101" viewBox="0 0 94 101" fill="none" xmlns="http://www.w3.org/2000/svg">
<path fill-rule="evenodd" clip-rule="evenodd" d="M14.9258 23.0008C29.0533 12.4688 53.709 5.93648 67.9999 15.9129C82.8566 26.2843 88.9459 46.0882 82.9265 63.3127C77.1931 79.7186 58.4284 100.093 41.0589 99.8915C24.9427 99.7043 14.7274 84.438 5.3489 69.5426C-4.02961 54.6473 1.18411 33.2451 14.9258 23.0008Z" fill="#69A8FB"/>
<path fill-rule="evenodd" clip-rule="evenodd" d="M14.7513 11.6394C28.8788 1.10746 56.7737 -1.97997 71.0646 7.99647C85.9213 18.3679 94.4867 36.7327 88.4672 53.9572C82.7338 70.3631 64.3845 77.0159 47.015 76.8141C30.8988 76.6269 20.2681 75.0825 10.8896 60.1871C1.51109 45.2918 1.00962 21.8837 14.7513 11.6394Z" fill="#A3C4F0" fill-opacity="0.3"/>
<circle cx="46.9999" cy="55" r="35" fill="white"/>
<g clip-path="url(#clip0_376_1605)">
<mask id="mask0_376_1605" style="mask-type:luminance" maskUnits="userSpaceOnUse" x="30" y="38" width="34" height="34">
<path d="M29.9999 38H63.9833V72H29.9999V38Z" fill="white"/>
</mask>
<g mask="url(#mask0_376_1605)">
<path d="M30.6637 48.3146H41.0774H60.8982" stroke="#69A8FB" stroke-width="2" stroke-miterlimit="10" stroke-linecap="round" stroke-linejoin="round"/>
<path d="M36.2063 45.4888C37.0756 45.4888 37.7848 44.7814 37.7848 43.9122C37.7848 43.043 37.0756 42.3357 36.2063 42.3357C35.339 42.3357 34.6297 43.043 34.6297 43.9122C34.6297 44.7814 35.339 45.4888 36.2063 45.4888Z" stroke="#69A8FB" stroke-width="2" stroke-miterlimit="10" stroke-linecap="round" stroke-linejoin="round"/>
<path d="M49.9088 42.3356H55.8466C56.7139 42.3356 57.4232 43.0449 57.4232 43.9122C57.4232 44.7795 56.7139 45.4887 55.8466 45.4887H49.9088C49.0415 45.4887 48.3322 44.7795 48.3322 43.9122C48.3322 43.0449 49.0415 42.3356 49.9088 42.3356Z" stroke="#69A8FB" stroke-width="2" stroke-miterlimit="10" stroke-linecap="round" stroke-linejoin="round"/>
<path d="M42.0275 45.4888C42.8967 45.4888 43.606 44.7814 43.606 43.9122C43.606 43.043 42.8967 42.3357 42.0275 42.3357C41.1602 42.3357 40.4508 43.043 40.4508 43.9122C40.4508 44.7814 41.1602 45.4888 42.0275 45.4888Z" stroke="#69A8FB" stroke-width="2" stroke-miterlimit="10" stroke-linecap="round" stroke-linejoin="round"/>
<path d="M40.7801 53.4224L39.4518 58.9838" stroke="#69A8FB" stroke-width="2" stroke-miterlimit="10" stroke-linecap="round" stroke-linejoin="round"/>
<path d="M43.8394 58.4814L45.7189 56.3705C45.8016 56.2784 45.8016 56.1279 45.7189 56.0357L43.8394 53.9248" stroke="#69A8FB" stroke-width="2" stroke-miterlimit="10" stroke-linecap="round" stroke-linejoin="round"/>
<path d="M36.3927 58.4814L34.5131 56.3705C34.4303 56.2784 34.4303 56.1279 34.5131 56.0357L36.3927 53.9248" stroke="#69A8FB" stroke-width="2" stroke-miterlimit="10" stroke-linecap="round" stroke-linejoin="round"/>
<path d="M56.8494 56.3573C57.5756 56.5192 58.2548 56.8051 58.8663 57.1889L59.41 56.6471C59.7318 56.3235 60.2604 56.3235 60.5841 56.6471L61.4401 57.5031C61.7637 57.8267 61.7637 58.3554 61.4401 58.6771L60.8982 59.2208C61.2802 59.8266 61.5624 60.5002 61.7261 61.2188H62.488C62.9453 61.2188 63.3196 61.5932 63.3196 62.0485V63.262C63.3196 63.7172 62.9453 64.0916 62.488 64.0916H61.7223C61.5586 64.8065 61.2764 65.4763 60.8982 66.0784L61.4401 66.6202C61.7637 66.9438 61.7637 67.4724 61.4401 67.7942L60.5841 68.6521C60.2604 68.9757 59.7318 68.9757 59.41 68.6521L58.8663 68.1102C58.2624 68.4902 57.5907 68.7725 56.872 68.9361V69.7075C56.872 70.1647 56.4976 70.5391 56.0423 70.5391H54.8288C54.3734 70.5391 53.9991 70.1647 53.9991 69.7075V68.9343C53.2841 68.7725 52.6124 68.4884 52.0084 68.1102L51.4666 68.6521C51.143 68.9757 50.6144 68.9757 50.2926 68.6521L49.4347 67.7942C49.1129 67.4724 49.1129 66.9438 49.4347 66.6202L49.9784 66.0784C49.5984 65.4763 49.3162 64.8065 49.1525 64.0916H48.383C47.9258 64.0916 47.5532 63.7172 47.5532 63.262V62.0485C47.5532 61.5932 47.9258 61.2188 48.383 61.2188H49.1506C49.3124 60.5077 49.5909 59.8417 49.9652 59.2415L49.4197 58.694C49.0961 58.3723 49.0961 57.8437 49.4197 57.5201L50.2757 56.664C50.5993 56.3404 51.128 56.3404 51.4497 56.664L51.9896 57.2021C52.5918 56.8202 53.2615 56.536 53.9765 56.3686V55.603C53.9765 55.1458 54.349 54.7714 54.8062 54.7714H56.0178C56.475 54.7714 56.8494 55.1458 56.8494 55.603V56.3573Z" stroke="#69A8FB" stroke-width="2" stroke-miterlimit="10" stroke-linecap="round" stroke-linejoin="round"/>
<path d="M55.4364 59.234C57.3254 59.234 58.8569 60.7654 58.8569 62.6562C58.8569 64.5451 57.3254 66.0765 55.4364 66.0765C53.5456 66.0765 52.0141 64.5451 52.0141 62.6562C52.0141 60.7654 53.5456 59.234 55.4364 59.234Z" stroke="#69A8FB" stroke-width="2" stroke-miterlimit="10" stroke-linecap="round" stroke-linejoin="round"/>
<path d="M37.0643 64.0916H33.1358C31.7776 64.0916 30.6637 62.7616 30.6637 61.1379V42.4146C30.6637 40.7892 31.7756 39.4609 33.1358 39.4609H35.9994H58.4261C59.7863 39.4609 60.8982 40.7911 60.8982 42.4146V56.9613M48.383 64.0916H42.9965" stroke="#69A8FB" stroke-width="2" stroke-miterlimit="10" stroke-linecap="round" stroke-linejoin="round"/>
<path d="M40.037 64.0916H40.0501" stroke="#69A8FB" stroke-width="2" stroke-miterlimit="10" stroke-linecap="round" stroke-linejoin="round"/>
</g>
</g>
<defs>
<clipPath id="clip0_376_1605">
<rect width="34" height="34" fill="white" transform="translate(29.9999 38)"/>
</clipPath>
</defs>
</svg>
