<svg width="87" height="87" viewBox="0 0 87 87" fill="none" xmlns="http://www.w3.org/2000/svg">
<rect width="87" height="87" rx="9" fill="#C4D9F8"/>
<path d="M68.7887 49.7389H64.9468C64.6079 48.0773 63.9513 46.4967 63.0131 45.0841L65.7337 42.3635C65.894 42.2032 66.0211 42.0129 66.1079 41.8035C66.1946 41.594 66.2393 41.3696 66.2393 41.1429C66.2393 40.9162 66.1946 40.6917 66.1079 40.4823C66.0211 40.2729 65.894 40.0826 65.7337 39.9223L64.4259 38.6145C64.1022 38.2908 63.6631 38.1089 63.2053 38.1089C62.7475 38.1089 62.3084 38.2908 61.9847 38.6145L59.2642 41.3351C57.8514 40.3969 56.2709 39.7403 54.6093 39.4013V35.5595C54.6093 35.3328 54.5646 35.1083 54.4779 34.8989C54.3911 34.6895 54.264 34.4992 54.1037 34.3389C53.9434 34.1786 53.7531 34.0514 53.5437 33.9647C53.3342 33.878 53.1098 33.8333 52.8831 33.8333H51.0336C50.8069 33.8333 50.5825 33.878 50.373 33.9647C50.1636 34.0514 49.9733 34.1786 49.813 34.3389C49.6527 34.4992 49.5256 34.6895 49.4388 34.8989C49.3521 35.1083 49.3074 35.3328 49.3074 35.5595V39.4013C47.6458 39.7403 46.0652 40.3969 44.6525 41.3351L41.932 38.6145C41.6082 38.2908 41.1692 38.1089 40.7114 38.1089C40.2536 38.1089 39.8145 38.2908 39.4908 38.6145L38.183 39.9223C38.0227 40.0826 37.8956 40.2729 37.8088 40.4823C37.7221 40.6917 37.6774 40.9162 37.6774 41.1429C37.6774 41.3696 37.7221 41.594 37.8088 41.8035C37.8956 42.0129 38.0227 42.2032 38.183 42.3635L40.9036 45.0841C39.9654 46.4967 39.3088 48.0773 38.9699 49.7389H35.128C34.6702 49.7389 34.2311 49.9208 33.9074 50.2445C33.5837 50.5682 33.4018 51.0073 33.4018 51.4651V53.3146C33.4018 53.7724 33.5837 54.2115 33.9074 54.5352C34.2311 54.8589 34.6702 55.0408 35.128 55.0408H38.9699C39.3088 56.7024 39.9654 58.2829 40.9036 59.6956L38.183 62.4162C38.0227 62.5765 37.8956 62.7668 37.8088 62.9762C37.7221 63.1857 37.6774 63.4101 37.6774 63.6368C37.6774 63.8635 37.7221 64.088 37.8088 64.2974C37.8956 64.5068 38.0227 64.6971 38.183 64.8574L39.4908 66.1652C39.6511 66.3255 39.8414 66.4526 40.0508 66.5394C40.2602 66.6261 40.4847 66.6708 40.7114 66.6708C40.9381 66.6708 41.1625 66.6261 41.372 66.5394C41.5814 66.4526 41.7717 66.3255 41.932 66.1652L44.6525 63.4446C46.0652 64.3828 47.6458 65.0394 49.3074 65.3783V69.2202C49.3074 69.678 49.4893 70.1171 49.813 70.4408C50.1367 70.7645 50.5758 70.9464 51.0336 70.9464H52.8831C53.3409 70.9464 53.7799 70.7645 54.1037 70.4408C54.4274 70.1171 54.6093 69.678 54.6093 69.2202V65.3783C56.2709 65.0394 57.8515 64.3828 59.2642 63.4446L61.9847 66.1652C62.145 66.3255 62.3353 66.4526 62.5447 66.5394C62.7542 66.6261 62.9786 66.6708 63.2053 66.6708C63.432 66.6708 63.6565 66.6261 63.8659 66.5394C64.0753 66.4526 64.2656 66.3255 64.4259 66.1652L65.7337 64.8574C65.894 64.6971 66.0211 64.5068 66.1079 64.2974C66.1946 64.088 66.2393 63.8635 66.2393 63.6368C66.2393 63.4101 66.1946 63.1857 66.1079 62.9762C66.0211 62.7668 65.894 62.5765 65.7337 62.4162L63.0131 59.6956C63.9513 58.2829 64.6079 56.7024 64.9468 55.0408H68.7887C69.2465 55.0408 69.6856 54.8589 70.0093 54.5352C70.333 54.2115 70.5149 53.7724 70.5149 53.3146V51.4651C70.5149 51.0073 70.333 50.5682 70.0093 50.2445C69.6856 49.9208 69.2465 49.7389 68.7887 49.7389ZM51.9583 57.9126C50.866 57.9126 49.7983 57.5887 48.8901 56.9819C47.9818 56.375 47.274 55.5125 46.856 54.5033C46.438 53.4942 46.3286 52.3837 46.5417 51.3124C46.7548 50.2411 47.2808 49.257 48.0532 48.4847C48.8255 47.7123 49.8096 47.1863 50.8809 46.9732C51.9522 46.7601 53.0627 46.8695 54.0718 47.2875C55.081 47.7055 55.9435 48.4134 56.5504 49.3216C57.1572 50.2298 57.4811 51.2976 57.4811 52.3899C57.4811 53.8546 56.8992 55.2593 55.8635 56.295C54.8278 57.3308 53.4231 57.9126 51.9583 57.9126Z" fill="#FCEFC1"/>
<path d="M31.7809 43.2361L28.2054 47.5271L27.1207 45.8995C26.9931 45.7106 26.7959 45.5798 26.5722 45.5358C26.3485 45.4917 26.1164 45.538 25.9267 45.6645C25.737 45.791 25.605 45.9874 25.5596 46.2108C25.5142 46.4342 25.5591 46.6665 25.6844 46.857L27.4106 49.4463C27.4852 49.558 27.5847 49.6508 27.7014 49.7173C27.8181 49.7838 27.9487 49.8222 28.0828 49.8294C28.2169 49.8366 28.3508 49.8124 28.4739 49.7588C28.5971 49.7052 28.706 49.6236 28.7921 49.5205L33.1076 44.3419C33.1804 44.2548 33.2354 44.1542 33.2693 44.0459C33.3032 43.9375 33.3155 43.8236 33.3053 43.7105C33.2951 43.5974 33.2628 43.4875 33.2101 43.3869C33.1573 43.2863 33.0853 43.1972 32.9981 43.1245C32.9109 43.0518 32.8102 42.997 32.7018 42.9633C32.5934 42.9295 32.4794 42.9175 32.3664 42.9279C32.2533 42.9382 32.1434 42.9708 32.0429 43.0237C31.9425 43.0766 31.8534 43.1487 31.7809 43.2361Z" fill="#25313B"/>
<path d="M54.0217 47.2413C54.0217 47.128 53.9994 47.0157 53.9561 46.911C53.9127 46.8062 53.8492 46.711 53.769 46.6309C53.6888 46.5507 53.5937 46.4872 53.4889 46.4438C53.3842 46.4004 53.2719 46.3782 53.1586 46.3782H34.1705C33.9416 46.3782 33.722 46.4692 33.5602 46.631C33.3983 46.7929 33.3074 47.0124 33.3074 47.2413C33.3074 47.4702 33.3983 47.6898 33.5602 47.8516C33.722 48.0135 33.9416 48.1044 34.1705 48.1044H53.1586C53.2719 48.1045 53.3842 48.0822 53.4889 48.0389C53.5937 47.9955 53.6888 47.9319 53.769 47.8518C53.8492 47.7716 53.9127 47.6764 53.9561 47.5717C53.9994 47.467 54.0217 47.3547 54.0217 47.2413Z" fill="#25313B"/>
<path d="M58.4315 52.4199H57.5684C57.4557 28.7192 57.4766 33.123 57.474 32.5687C57.4733 31.8822 57.2002 31.2241 56.7148 30.7386C56.2294 30.2532 55.5712 29.9802 54.8847 29.9794H48.1935C48.6663 28.768 48.8851 27.4723 48.8364 26.1727C48.7876 24.8732 48.4723 23.5975 47.91 22.4249C47.3478 21.2523 46.5505 20.2077 45.5678 19.356C44.585 18.5043 43.4377 17.8637 42.1971 17.4738C42.0678 17.4333 41.9308 17.4238 41.7972 17.446C41.6635 17.4683 41.537 17.5216 41.4278 17.6018C41.3186 17.6819 41.2298 17.7867 41.1685 17.9075C41.1073 18.0283 41.0753 18.1618 41.0752 18.2973V23.7911C41.0884 24.251 40.9277 24.6989 40.6253 25.0456C40.3228 25.3922 39.9008 25.6121 39.4434 25.6614C38.986 25.6121 38.564 25.3922 38.2615 25.0456C37.9591 24.6989 37.7984 24.251 37.8116 23.7911V18.2973C37.8115 18.1618 37.7795 18.0283 37.7183 17.9075C37.657 17.7866 37.5682 17.6819 37.459 17.6018C37.3498 17.5216 37.2233 17.4683 37.0897 17.446C36.956 17.4238 36.819 17.4333 36.6898 17.4738C35.4491 17.8637 34.3018 18.5043 33.3191 19.356C32.3363 20.2077 31.5391 21.2523 30.9768 22.4249C30.4145 23.5975 30.0992 24.8732 30.0504 26.1727C30.0017 27.4723 30.2205 28.768 30.6933 29.9794H24.0021C23.3156 29.9802 22.6574 30.2532 22.172 30.7386C21.6866 31.2241 21.4136 31.8822 21.4128 32.5687C21.4124 32.6566 21.3126 52.5066 21.3184 52.4199H20.4553C19.7688 52.4207 19.1107 52.6937 18.6252 53.1791C18.1398 53.6645 17.8668 54.3227 17.866 55.0092V57.5985C17.8668 58.285 18.1398 58.9431 18.6252 59.4286C19.1107 59.914 19.7688 60.187 20.4553 60.1878H58.4315C59.118 60.187 59.7762 59.914 60.2616 59.4286C60.747 58.9431 61.02 58.285 61.0208 57.5985V55.0092C61.02 54.3227 60.747 53.6645 60.2616 53.1791C59.7762 52.6937 59.118 52.4207 58.4315 52.4199ZM36.0854 19.57V23.7911C36.0634 24.71 36.4029 25.6009 37.0309 26.2721C37.6588 26.9433 38.5251 27.3413 39.4434 27.3805C40.3617 27.3413 41.228 26.9433 41.856 26.2721C42.4839 25.6009 42.8234 24.71 42.8014 23.7911V19.57C44.0273 20.1772 45.071 21.0977 45.8265 22.2383C46.582 23.3788 47.0225 24.6989 47.1034 26.0645C47.1842 27.4302 46.9026 28.793 46.287 30.0148C45.6713 31.2365 44.7436 32.2738 43.5979 33.0214C43.3549 33.1774 43.1548 33.3916 43.0156 33.6447C42.8765 33.8977 42.8029 34.1815 42.8014 34.4703V39.4735C42.8012 39.7024 42.7103 39.9218 42.5484 40.0836C42.3866 40.2455 42.1672 40.3364 41.9383 40.3366H36.9485C36.7197 40.3364 36.5002 40.2455 36.3384 40.0836C36.1766 39.9218 36.0856 39.7024 36.0854 39.4735V34.4703C36.0839 34.1815 36.0103 33.8977 35.8712 33.6447C35.7321 33.3916 35.5319 33.1774 35.2889 33.0214C34.1432 32.2738 33.2155 31.2365 32.5999 30.0148C31.9843 28.793 31.7026 27.4302 31.7835 26.0646C31.8643 24.6989 32.3048 23.3788 33.0603 22.2383C33.8159 21.0977 34.8595 20.1772 36.0854 19.57ZM23.139 32.5687C23.1392 32.3399 23.2301 32.1204 23.392 31.9586C23.5538 31.7968 23.7732 31.7058 24.0021 31.7056H31.6013C32.3154 32.8045 33.2489 33.744 34.3432 34.4652L34.3592 39.4735C34.36 40.16 34.633 40.8181 35.1185 41.3036C35.6039 41.789 36.262 42.062 36.9485 42.0628H41.9383C42.6248 42.062 43.2829 41.789 43.7684 41.3036C44.2538 40.8181 44.5268 40.16 44.5276 39.4735L44.5436 34.4652C45.6379 33.744 46.5714 32.8045 47.2855 31.7056H54.8847C55.1136 31.7058 55.333 31.7968 55.4949 31.9586C55.6567 32.1204 55.7477 32.3399 55.7478 32.5687C55.7485 32.7108 55.7386 30.6362 55.8422 52.4199H42.7837C42.5955 52.433 42.4156 52.5017 42.2666 52.6175C42.1177 52.7332 42.0067 52.8907 41.9476 53.0698C41.8042 53.6249 41.4804 54.1166 41.0271 54.4676C40.5738 54.8187 40.0167 55.0092 39.4434 55.0092C38.8701 55.0092 38.313 54.8187 37.8597 54.4676C37.4064 54.1166 37.0827 53.6249 36.9393 53.0698C36.8802 52.8907 36.7691 52.7332 36.6202 52.6175C36.4713 52.5017 36.2913 52.433 36.1031 52.4199H23.0446C23.1573 28.7192 23.1364 33.123 23.139 32.5687ZM59.2946 57.5985C59.2944 57.8273 59.2035 58.0468 59.0416 58.2086C58.8798 58.3704 58.6604 58.4614 58.4315 58.4616H20.4553C20.2265 58.4614 20.007 58.3704 19.8452 58.2086C19.6834 58.0468 19.5924 57.8273 19.5922 57.5985V55.0092C19.5924 54.7803 19.6834 54.5609 19.8452 54.3991C20.007 54.2372 20.2265 54.1463 20.4553 54.1461H35.4887C35.8245 54.9157 36.3775 55.5706 37.0799 56.0305C37.7824 56.4904 38.6038 56.7354 39.4434 56.7354C40.2831 56.7354 41.1045 56.4904 41.8069 56.0305C42.5094 55.5706 43.0624 54.9157 43.3982 54.1461H58.4315C58.6604 54.1463 58.8798 54.2372 59.0416 54.3991C59.2035 54.5609 59.2944 54.7803 59.2946 55.0092V57.5985Z" fill="#25313B"/>
</svg>
