<svg width="98" height="86" viewBox="0 0 98 86" fill="none" xmlns="http://www.w3.org/2000/svg">
<path fill-rule="evenodd" clip-rule="evenodd" d="M10.7514 10.6394C24.8789 0.107456 52.7738 -2.97997 67.0647 6.99647C81.9214 17.3679 90.4867 35.7327 84.4673 52.9572C78.7339 69.3631 60.3846 76.0159 43.015 75.8141C26.8989 75.6269 16.2682 74.0825 6.88966 59.1871C-2.48885 44.2918 -2.99032 20.8837 10.7514 10.6394Z" fill="#69A8FB"/>
<path fill-rule="evenodd" clip-rule="evenodd" d="M21.7514 20.6394C35.8789 10.1075 63.7738 7.02003 78.0647 16.9965C92.9214 27.3679 101.487 45.7327 95.4673 62.9572C89.7339 79.3631 71.3846 86.0159 54.015 85.8141C37.8989 85.6269 27.2682 84.0825 17.8897 69.1871C8.51115 54.2918 8.00968 30.8837 21.7514 20.6394Z" fill="#3C87EB" fill-opacity="0.2"/>
<circle cx="45" cy="45" r="35" fill="white"/>
<g clip-path="url(#clip0_0_1)">
<mask id="mask0_0_1" style="mask-type:luminance" maskUnits="userSpaceOnUse" x="28" y="27" width="34" height="34">
<path d="M28 27H62V61H28V27Z" fill="white"/>
</mask>
<g mask="url(#mask0_0_1)">
<path d="M42.7788 58.6689V56.2563C42.7788 55.705 42.327 55.2533 41.7755 55.2533H34.1368C33.5853 55.2533 33.1334 55.705 33.1334 56.2563V58.6689C33.1334 59.2202 33.5853 59.6719 34.1368 59.6719H41.7755C42.3289 59.6719 42.7788 59.2202 42.7788 58.6689Z" stroke="#69A8FB" stroke-width="2" stroke-miterlimit="10" stroke-linecap="round" stroke-linejoin="round"/>
<path d="M28.6703 45.5619C28.5894 47.773 29.299 48.4016 30.5997 49.5815C31.7179 50.5939 34.2892 52.4513 34.2892 54.4893V55.2533M32.9245 41.9977L32.4671 36.0926C32.3993 35.225 31.7574 34.5118 30.8896 34.5099C30.0199 34.5081 29.3648 35.2194 29.3065 36.0869L29.0693 39.6134" stroke="#69A8FB" stroke-width="2" stroke-miterlimit="10" stroke-linecap="round" stroke-linejoin="round"/>
<path d="M41.623 55.2533V53.3414C41.5985 52.3008 41.5703 51.3091 41.3012 50.2985C40.7609 48.2755 39.6766 46.8698 36.8944 46.1189C36.4916 46.0098 36.3862 45.9948 36.1321 45.5807L34.4022 42.7731C33.9316 42.0053 32.9189 41.7644 32.1528 42.2367C31.3866 42.7091 31.1456 43.7215 31.6163 44.4873L34.4191 49.0376" stroke="#69A8FB" stroke-width="2" stroke-miterlimit="10" stroke-linecap="round" stroke-linejoin="round"/>
<path d="M47.2212 58.6689V56.2563C47.2212 55.705 47.673 55.2533 48.2245 55.2533H55.8632C56.4147 55.2533 56.8666 55.705 56.8666 56.2563V58.6689C56.8666 59.2202 56.4147 59.6719 55.8632 59.6719H48.2245C47.673 59.6719 47.2212 59.2202 47.2212 58.6689Z" stroke="#69A8FB" stroke-width="2" stroke-miterlimit="10" stroke-linecap="round" stroke-linejoin="round"/>
<path d="M48.377 55.2533V53.3414C48.4015 52.3008 48.4297 51.3091 48.6988 50.2985C49.2391 48.2755 50.3234 46.8698 53.1055 46.1189C53.5084 46.0098 53.6137 45.9948 53.8679 45.5807L55.5978 42.7731C56.0684 42.0053 57.0811 41.7644 57.8472 42.2367C58.6153 42.7091 58.8562 43.7215 58.3837 44.4873L55.5808 49.0376" stroke="#69A8FB" stroke-width="2" stroke-miterlimit="10" stroke-linecap="round" stroke-linejoin="round"/>
<path d="M57.0755 41.9977L57.5329 36.0925C57.6007 35.225 58.2426 34.5118 59.1104 34.51C59.98 34.508 60.6351 35.2194 60.6934 36.0869L61.3297 45.5619C61.4106 47.7731 60.701 48.4016 59.4002 49.5815C58.2821 50.5939 55.7108 52.4513 55.7108 54.4893V55.2533" stroke="#69A8FB" stroke-width="2" stroke-miterlimit="10" stroke-linecap="round" stroke-linejoin="round"/>
<path d="M45 31.1885C43.0762 31.1885 41.5176 32.7486 41.5176 34.6699C41.5176 36.5931 43.0762 38.1532 45 38.1532C46.9238 38.1532 48.4824 36.5931 48.4824 34.6699C48.4824 32.7486 46.9238 31.1885 45 31.1885Z" stroke="#69A8FB" stroke-width="2" stroke-miterlimit="10" stroke-linecap="round" stroke-linejoin="round"/>
<path d="M48.4278 35.2909H48.4824C50.4062 35.2909 51.9648 33.7327 51.9648 31.8095C51.9648 29.8863 50.4062 28.3281 48.4824 28.3281C46.7713 28.3281 45.3482 29.5626 45.0546 31.1904" stroke="#69A8FB" stroke-width="2" stroke-miterlimit="10" stroke-linecap="round" stroke-linejoin="round"/>
<path d="M44.9454 31.1904C44.6536 29.5626 43.2287 28.3281 41.5176 28.3281C39.5938 28.3281 38.0352 29.8863 38.0352 31.8095C38.0352 33.7328 39.5938 35.2909 41.5176 35.2909H41.5722" stroke="#69A8FB" stroke-width="2" stroke-miterlimit="10" stroke-linecap="round" stroke-linejoin="round"/>
<path d="M42.8164 37.3835C40.9698 38.2209 39.6785 40.0821 39.6785 42.233V43.283H50.3215V42.233C50.3215 40.0821 49.0302 38.2209 47.1836 37.3835" stroke="#69A8FB" stroke-width="2" stroke-miterlimit="10" stroke-linecap="round" stroke-linejoin="round"/>
<path d="M50.0034 40.4208H53.8058V39.3707C53.8058 37.2217 52.5126 35.3586 50.666 34.5212" stroke="#69A8FB" stroke-width="2" stroke-miterlimit="10" stroke-linecap="round" stroke-linejoin="round"/>
<path d="M39.334 34.5212C37.4874 35.3586 36.1961 37.2217 36.1961 39.3707V40.4207H39.9966" stroke="#69A8FB" stroke-width="2" stroke-miterlimit="10" stroke-linecap="round" stroke-linejoin="round"/>
<path d="M28.8698 42.5905V42.5867" stroke="#69A8FB" stroke-width="2" stroke-miterlimit="10" stroke-linecap="round" stroke-linejoin="round"/>
</g>
</g>
<defs>
<clipPath id="clip0_0_1">
<rect width="34" height="34" fill="white" transform="translate(28 27)"/>
</clipPath>
</defs>
</svg>
