<svg width="98" height="86" viewBox="0 0 98 86" fill="none" xmlns="http://www.w3.org/2000/svg">
<path fill-rule="evenodd" clip-rule="evenodd" d="M10.7514 10.6394C24.8789 0.107472 52.7738 -2.97995 67.0647 6.99649C81.9214 17.3679 90.4867 35.7327 84.4673 52.9573C78.7339 69.3631 60.3846 76.0159 43.015 75.8141C26.8989 75.627 16.2682 74.0825 6.88966 59.1871C-2.48885 44.2918 -2.99032 20.8838 10.7514 10.6394Z" fill="#69A8FB"/>
<path fill-rule="evenodd" clip-rule="evenodd" d="M21.7514 20.6394C35.8789 10.1075 63.7738 7.02005 78.0647 16.9965C92.9214 27.3679 101.487 45.7327 95.4673 62.9573C89.7339 79.3631 71.3846 86.0159 54.015 85.8141C37.8989 85.627 27.2682 84.0825 17.8897 69.1871C8.51115 54.2918 8.00968 30.8838 21.7514 20.6394Z" fill="#3C87EB" fill-opacity="0.2"/>
<circle cx="45" cy="45" r="35" fill="white"/>
<g clip-path="url(#clip0_0_1)">
<mask id="mask0_0_1" style="mask-type:luminance" maskUnits="userSpaceOnUse" x="28" y="27" width="34" height="34">
<path d="M28 27H62V61H28V27Z" fill="white"/>
</mask>
<g mask="url(#mask0_0_1)">
<path d="M35.7197 38.0235C36.0863 38.0235 36.3838 38.321 36.3838 38.6875C36.3838 39.0541 36.0863 39.3516 35.7197 39.3516C35.3532 39.3516 35.0557 39.0541 35.0557 38.6875C35.0557 38.321 35.3532 38.0235 35.7197 38.0235Z" fill="#69A8FB"/>
<path d="M33.0635 57.6797H31.3369C29.87 57.6797 28.6807 56.4904 28.6807 55.0235V30.3203C28.6807 28.8534 29.87 27.6641 31.3369 27.6641H58.6963C60.1632 27.6641 61.3525 28.8534 61.3525 30.3203V55.0235C61.3525 56.4904 60.1632 57.6797 58.6963 57.6797H56.9697H50.3291H39.7041H33.0635Z" stroke="#69A8FB" stroke-width="2" stroke-miterlimit="10" stroke-linecap="round" stroke-linejoin="round"/>
<path d="M56.9697 38.6875V46.6563" stroke="#69A8FB" stroke-width="2" stroke-miterlimit="10" stroke-linecap="round" stroke-linejoin="round"/>
<path d="M56.9697 49.3125V53.2969H33.0635V32.0469H56.9697V36.0313" stroke="#69A8FB" stroke-width="2" stroke-miterlimit="10" stroke-linecap="round" stroke-linejoin="round"/>
<path d="M35.7197 46.6563V41.3438" stroke="#69A8FB" stroke-width="2" stroke-miterlimit="10" stroke-linecap="round" stroke-linejoin="round"/>
<path d="M50.9932 42.6719C50.9932 44.3227 50.3245 45.8169 49.2427 46.898C48.1616 47.9797 46.6675 48.6485 45.0166 48.6485C43.3657 48.6485 41.8716 47.9797 40.7905 46.898C39.7087 45.8169 39.04 44.3227 39.04 42.6719C39.04 41.021 39.7087 39.5269 40.7905 38.4458C41.8716 37.364 43.3657 36.6953 45.0166 36.6953C46.6675 36.6953 48.1616 37.364 49.2427 38.4458C50.3245 39.5269 50.9932 41.021 50.9932 42.6719Z" stroke="#69A8FB" stroke-width="2" stroke-miterlimit="10" stroke-linecap="round" stroke-linejoin="round"/>
<path d="M45.0166 44.6641C43.9182 44.6641 43.0244 43.7702 43.0244 42.6719C43.0244 41.5735 43.9182 40.6797 45.0166 40.6797C46.115 40.6797 47.0088 41.5735 47.0088 42.6719C47.0088 43.7702 46.115 44.6641 45.0166 44.6641Z" stroke="#69A8FB" stroke-width="2" stroke-miterlimit="10" stroke-linecap="round" stroke-linejoin="round"/>
<path d="M45.0166 36.6953V38.0235" stroke="#69A8FB" stroke-width="2" stroke-miterlimit="10" stroke-linecap="round" stroke-linejoin="round"/>
<path d="M45.0166 47.3203V48.6485" stroke="#69A8FB" stroke-width="2" stroke-miterlimit="10" stroke-linecap="round" stroke-linejoin="round"/>
<path d="M49.665 42.6719H50.9932" stroke="#69A8FB" stroke-width="2" stroke-miterlimit="10" stroke-linecap="round" stroke-linejoin="round"/>
<path d="M39.04 42.6719H40.3682" stroke="#69A8FB" stroke-width="2" stroke-miterlimit="10" stroke-linecap="round" stroke-linejoin="round"/>
<path d="M40.7905 38.4458L41.7295 39.3848" stroke="#69A8FB" stroke-width="2" stroke-miterlimit="10" stroke-linecap="round" stroke-linejoin="round"/>
<path d="M48.3037 45.959L49.2427 46.898" stroke="#69A8FB" stroke-width="2" stroke-miterlimit="10" stroke-linecap="round" stroke-linejoin="round"/>
<path d="M48.3037 39.3848L49.2427 38.4458" stroke="#69A8FB" stroke-width="2" stroke-miterlimit="10" stroke-linecap="round" stroke-linejoin="round"/>
<path d="M40.7905 46.898L41.7295 45.959" stroke="#69A8FB" stroke-width="2" stroke-miterlimit="10" stroke-linecap="round" stroke-linejoin="round"/>
<path d="M39.7041 57.6797V60.336H33.0635V57.6797" stroke="#69A8FB" stroke-width="2" stroke-miterlimit="10" stroke-linecap="round" stroke-linejoin="round"/>
<path d="M56.9697 57.6797V60.336H50.3291V57.6797" stroke="#69A8FB" stroke-width="2" stroke-miterlimit="10" stroke-linecap="round" stroke-linejoin="round"/>
<path d="M56.9697 38.6875H54.3135V36.0313H56.9697V38.6875Z" stroke="#69A8FB" stroke-width="2" stroke-miterlimit="10" stroke-linecap="round" stroke-linejoin="round"/>
<path d="M56.9697 49.3125H54.3135V46.6563H56.9697V49.3125Z" stroke="#69A8FB" stroke-width="2" stroke-miterlimit="10" stroke-linecap="round" stroke-linejoin="round"/>
</g>
</g>
<defs>
<clipPath id="clip0_0_1">
<rect width="34" height="34" fill="white" transform="translate(28 27)"/>
</clipPath>
</defs>
</svg>
