<svg width="98" height="86" viewBox="0 0 98 86" fill="none" xmlns="http://www.w3.org/2000/svg">
<path fill-rule="evenodd" clip-rule="evenodd" d="M10.7514 10.6394C24.8789 0.107472 52.7738 -2.97995 67.0647 6.99649C81.9214 17.3679 90.4867 35.7327 84.4673 52.9573C78.7339 69.3631 60.3846 76.0159 43.015 75.8141C26.8989 75.627 16.2682 74.0825 6.88966 59.1871C-2.48885 44.2918 -2.99032 20.8838 10.7514 10.6394Z" fill="#69A8FB"/>
<path fill-rule="evenodd" clip-rule="evenodd" d="M21.7514 20.6394C35.8789 10.1075 63.7738 7.02005 78.0647 16.9965C92.9214 27.3679 101.487 45.7327 95.4673 62.9573C89.7339 79.3631 71.3846 86.0159 54.015 85.8141C37.8989 85.627 27.2682 84.0825 17.8897 69.1871C8.51115 54.2918 8.00968 30.8838 21.7514 20.6394Z" fill="#3C87EB" fill-opacity="0.2"/>
<circle cx="45" cy="45" r="35" fill="white"/>
<mask id="mask0_0_1" style="mask-type:luminance" maskUnits="userSpaceOnUse" x="28" y="27" width="34" height="34">
<path d="M28 27H62V61H28V27Z" fill="white"/>
</mask>
<g mask="url(#mask0_0_1)">
<path d="M53.3672 54.9584V56.2852C53.3672 57.019 52.7755 57.6133 52.0417 57.6133H37.9696C37.2364 57.6133 36.6328 57.019 36.6328 56.2852V54.9584" stroke="#69A8FB" stroke-width="2" stroke-miterlimit="10" stroke-linecap="round" stroke-linejoin="round"/>
<path d="M35.8167 42.3465L32.9898 37.9929C32.5721 37.3548 31.8177 36.9596 31.0713 37.1177C30.4338 37.2538 29.7425 37.0739 29.2471 36.5785C28.4695 35.8008 28.4695 34.5398 29.2471 33.7622L32.0634 30.9459C32.8417 30.1683 34.1021 30.1683 34.8797 30.9459C35.3983 31.4639 35.5717 32.1976 35.3983 32.859C35.2084 33.5862 35.5995 34.3465 36.1833 34.82L45.4323 42.3465" stroke="#69A8FB" stroke-width="2" stroke-miterlimit="10" stroke-linecap="round" stroke-linejoin="round"/>
<path d="M52.2071 42.3465C52.2078 42.3445 52.209 42.3419 52.2097 42.3399C52.7722 41.0556 53.5976 39.9134 54.6176 38.9804C56.388 37.3601 58.7467 36.3719 61.336 36.3719C61.336 38.6112 60.5975 40.6771 59.3497 42.3399C59.3484 42.3419 59.3464 42.3445 59.345 42.3465" stroke="#69A8FB" stroke-width="2" stroke-miterlimit="10" stroke-linecap="round" stroke-linejoin="round"/>
<path d="M50.0927 42.3465C50.0901 42.3445 50.0881 42.3419 50.0854 42.3399C48.4352 40.8803 47.3907 38.748 47.3907 36.3719V34.3804C50.5867 34.3804 53.3486 36.263 54.6176 38.9804" stroke="#69A8FB" stroke-width="2" stroke-miterlimit="10" stroke-linecap="round" stroke-linejoin="round"/>
<path d="M45.6641 54.957C45.6641 55.3238 45.3667 55.6211 45 55.6211C44.6333 55.6211 44.3359 55.3238 44.3359 54.957C44.3359 54.5903 44.6333 54.293 45 54.293C45.3667 54.293 45.6641 54.5903 45.6641 54.957Z" fill="#69A8FB"/>
<path d="M42.0117 54.957H36.6414C36.6395 54.9557 36.6381 54.9544 36.6361 54.9537C33.1073 52.5996 31.1257 50.1233 30.7379 44.9961H29.9922C29.2584 44.9961 28.6641 44.4018 28.6641 43.668C28.6641 42.9342 29.2584 42.3399 29.9922 42.3399H60.0078C60.7416 42.3399 61.3359 42.9342 61.3359 43.668C61.3359 44.4018 60.7416 44.9961 60.0078 44.9961H59.3371C59.2189 47.6663 58.3862 51.6128 53.3698 54.957H47.9883" stroke="#69A8FB" stroke-width="2" stroke-miterlimit="10" stroke-linecap="round" stroke-linejoin="round"/>
</g>
</svg>
