<svg width="98" height="86" viewBox="0 0 98 86" fill="none" xmlns="http://www.w3.org/2000/svg">
<path fill-rule="evenodd" clip-rule="evenodd" d="M10.7514 10.6394C24.8789 0.107472 52.7738 -2.97995 67.0647 6.99649C81.9214 17.3679 90.4867 35.7327 84.4673 52.9573C78.7339 69.3631 60.3846 76.0159 43.015 75.8141C26.8989 75.627 16.2682 74.0825 6.88966 59.1871C-2.48885 44.2918 -2.99032 20.8838 10.7514 10.6394Z" fill="#69A8FB"/>
<path fill-rule="evenodd" clip-rule="evenodd" d="M21.7514 20.6394C35.8789 10.1075 63.7738 7.02005 78.0647 16.9965C92.9214 27.3679 101.487 45.7327 95.4673 62.9573C89.7339 79.3631 71.3846 86.0159 54.015 85.8141C37.8989 85.627 27.2682 84.0825 17.8897 69.1871C8.51115 54.2918 8.00968 30.8838 21.7514 20.6394Z" fill="#3C87EB" fill-opacity="0.2"/>
<circle cx="45" cy="45" r="35" fill="white"/>
<g clip-path="url(#clip0_0_1)">
<mask id="mask0_0_1" style="mask-type:luminance" maskUnits="userSpaceOnUse" x="28" y="27" width="34" height="34">
<path d="M28 27H62V61H28V27Z" fill="white"/>
</mask>
<g mask="url(#mask0_0_1)">
<path d="M29.9921 60.336H60.0078C60.7383 60.336 61.3359 59.7383 61.3359 59.0078V57.0156H48.9843C48.9843 57.3809 48.6855 57.6797 48.3203 57.6797H41.6796C41.3144 57.6797 41.0156 57.3809 41.0156 57.0156H28.664V59.0078C28.664 59.7383 29.2616 60.336 29.9921 60.336Z" stroke="#69A8FB" stroke-width="2" stroke-miterlimit="22.926" stroke-linecap="round" stroke-linejoin="round"/>
<path d="M60.0078 56.9098V35.1016C60.0078 34.3712 59.4101 33.7736 58.6797 33.7736H49.9457M32.6484 33.7736H31.3203C30.5898 33.7736 29.9922 34.3712 29.9922 35.1016V56.9098M40.0542 33.7736H38.625" stroke="#69A8FB" stroke-width="2" stroke-miterlimit="22.926" stroke-linecap="round" stroke-linejoin="round"/>
<path d="M59.6939 54.3593H30.3061" stroke="#69A8FB" stroke-width="2" stroke-miterlimit="22.926" stroke-linecap="round" stroke-linejoin="round"/>
<path d="M54.6951 54.4383V56.9366" stroke="#69A8FB" stroke-width="2" stroke-miterlimit="22.926" stroke-linecap="round" stroke-linejoin="round"/>
<path d="M45 31.4376C48.5364 31.4376 51.4032 34.3044 51.4032 37.8408C51.4032 40.2108 50.1154 42.2796 48.2015 43.3866V47.4458C48.2015 48.3263 47.4812 49.0466 46.6008 49.0466H43.3991C42.5187 49.0466 41.7983 48.3263 41.7983 47.4458V43.3866C39.8845 42.2795 38.5967 40.2108 38.5967 37.8408C38.5967 34.3044 41.4635 31.4376 45 31.4376Z" stroke="#69A8FB" stroke-width="2" stroke-miterlimit="22.926" stroke-linecap="round" stroke-linejoin="round"/>
<path d="M41.7983 45.8449H48.2016" stroke="#69A8FB" stroke-width="2" stroke-miterlimit="22.926" stroke-linecap="round" stroke-linejoin="round"/>
<path d="M45 27.664V28.9218" stroke="#69A8FB" stroke-width="2" stroke-miterlimit="22.926" stroke-linecap="round" stroke-linejoin="round"/>
<path d="M39.9116 29.0275L40.5405 30.1168" stroke="#69A8FB" stroke-width="2" stroke-miterlimit="22.926" stroke-linecap="round" stroke-linejoin="round"/>
<path d="M50.0884 29.0275L49.4594 30.1168" stroke="#69A8FB" stroke-width="2" stroke-miterlimit="22.926" stroke-linecap="round" stroke-linejoin="round"/>
<path d="M52.0387 51.703H57.3514" stroke="#69A8FB" stroke-width="2" stroke-miterlimit="22.926" stroke-linecap="round" stroke-linejoin="round"/>
<path d="M52.0387 49.0467H57.3514" stroke="#69A8FB" stroke-width="2" stroke-miterlimit="22.926" stroke-linecap="round" stroke-linejoin="round"/>
<path d="M54.6951 46.3905H57.3514" stroke="#69A8FB" stroke-width="2" stroke-miterlimit="22.926" stroke-linecap="round" stroke-linejoin="round"/>
<path d="M37.9612 49.0466H32.6485" stroke="#69A8FB" stroke-width="2" stroke-miterlimit="22.926" stroke-linecap="round" stroke-linejoin="round"/>
<path d="M37.9612 46.3904H32.6485" stroke="#69A8FB" stroke-width="2" stroke-miterlimit="22.926" stroke-linecap="round" stroke-linejoin="round"/>
<path d="M35.3048 43.7341H32.6485" stroke="#69A8FB" stroke-width="2" stroke-miterlimit="22.926" stroke-linecap="round" stroke-linejoin="round"/>
<path d="M51.2469 36.4298H59.3437M30.6563 36.4298H38.753" stroke="#69A8FB" stroke-width="2" stroke-miterlimit="22.926" stroke-linecap="round" stroke-linejoin="round"/>
<path d="M35.6365 33.7736H35.637" stroke="#69A8FB" stroke-width="2" stroke-miterlimit="2.613" stroke-linecap="round" stroke-linejoin="round"/>
</g>
</g>
<defs>
<clipPath id="clip0_0_1">
<rect width="34" height="34" fill="white" transform="translate(28 27)"/>
</clipPath>
</defs>
</svg>
