<svg width="87" height="87" viewBox="0 0 87 87" fill="none" xmlns="http://www.w3.org/2000/svg">
<rect width="87" height="87" rx="9" fill="#C4D9F8"/>
<path d="M55.6605 49.8047C55.6603 48.9627 55.4113 48.1396 54.9446 47.4388L48.9977 53.3857C49.6446 53.8151 50.3958 54.0609 51.1713 54.097C51.9468 54.133 52.7176 53.9579 53.4015 53.5904C54.0853 53.2228 54.6566 52.6766 55.0544 52.0099C55.4523 51.3432 55.6617 50.5811 55.6605 49.8047Z" fill="#FCEFC1"/>
<path d="M51.3636 45.5078C50.5872 45.5066 49.825 45.716 49.1583 46.1139C48.4917 46.5117 47.9454 47.083 47.5779 47.7668C47.2103 48.4507 47.0352 49.2215 47.0713 49.997C47.1073 50.7725 47.3531 51.5237 47.7825 52.1706L53.7294 46.2237C53.0286 45.757 52.2055 45.508 51.3636 45.5078Z" fill="#FCEFC1"/>
<path d="M65.9609 51.5234V48.0859L68.9954 43.49C69.0832 43.3568 69.1323 43.2017 69.137 43.0422C69.1417 42.8827 69.1019 42.725 69.022 42.5868L66.4439 38.1181C66.3665 37.9776 66.2503 37.8624 66.1092 37.7862C65.9681 37.71 65.808 37.676 65.6481 37.6884L60.1481 38.0184L57.1661 36.2996L54.7031 31.3745C54.6318 31.2318 54.5221 31.1118 54.3864 31.0278C54.2508 30.9439 54.0944 30.8994 53.9348 30.8993H48.7786C48.6181 30.8984 48.4607 30.9425 48.324 31.0265C48.1873 31.1105 48.0768 31.231 48.0051 31.3745L45.5422 36.2996L42.561 38.0184L37.061 37.6884C36.9012 37.6766 36.7413 37.7108 36.6003 37.7869C36.4593 37.8631 36.343 37.978 36.2652 38.1181L33.6871 42.5868C33.6073 42.7251 33.5677 42.8828 33.5725 43.0423C33.5774 43.2018 33.6266 43.3569 33.7146 43.49L36.7482 48.0859V51.5234L33.7146 56.1194C33.6266 56.2525 33.5774 56.4076 33.5725 56.5671C33.5677 56.7266 33.6073 56.8843 33.6871 57.0226L36.2652 61.4913C36.3429 61.6315 36.4592 61.7465 36.6002 61.8226C36.7413 61.8988 36.9012 61.9329 37.061 61.921L42.561 61.591L45.5422 63.3098L48.0051 68.2349C48.0768 68.3784 48.1873 68.4989 48.324 68.5829C48.4607 68.6669 48.6181 68.711 48.7786 68.7101H53.9348C54.0944 68.71 54.2508 68.6655 54.3864 68.5816C54.5221 68.4976 54.6318 68.3776 54.7031 68.2349L57.1661 63.3098L60.1481 61.591L65.6481 61.921C65.808 61.9334 65.9681 61.8994 66.1092 61.8232C66.2503 61.747 66.3665 61.6318 66.4439 61.4913L69.022 57.0226C69.1019 56.8844 69.1417 56.7267 69.137 56.5672C69.1323 56.4077 69.0832 56.2526 68.9954 56.1194L65.9609 51.5234ZM42.7664 49.8047C42.7664 50.0326 42.6758 50.2512 42.5147 50.4124C42.3535 50.5735 42.1349 50.6641 41.907 50.6641C41.6791 50.6641 41.4605 50.5735 41.2993 50.4124C41.1382 50.2512 41.0476 50.0326 41.0476 49.8047C41.0499 47.3993 41.8916 45.07 43.4275 43.2188C44.9634 41.3675 47.0972 40.1103 49.4609 39.6641L48.1719 38.375C48.0153 38.2129 47.9287 37.9958 47.9306 37.7705C47.9326 37.5452 48.023 37.3297 48.1823 37.1703C48.3417 37.011 48.5572 36.9206 48.7825 36.9186C49.0079 36.9167 49.2249 37.0033 49.387 37.1599L51.9651 39.738C52.0853 39.8582 52.1671 40.0113 52.2002 40.178C52.2334 40.3446 52.2164 40.5174 52.1513 40.6744C52.0863 40.8314 51.9762 40.9656 51.8349 41.06C51.6936 41.1545 51.5275 41.2049 51.3576 41.2049C49.0791 41.209 46.8954 42.1168 45.2854 43.729C43.6754 45.3412 42.7707 47.5263 42.7698 49.8047H42.7664ZM45.3445 49.8047C45.3445 48.6149 45.6973 47.4519 46.3583 46.4626C47.0193 45.4733 47.9588 44.7023 49.0581 44.247C50.1573 43.7917 51.3668 43.6725 52.5337 43.9047C53.7006 44.1368 54.7725 44.7097 55.6138 45.551C56.4551 46.3923 57.0281 47.4642 57.2602 48.6311C57.4923 49.798 57.3732 51.0076 56.9178 52.1068C56.4625 53.206 55.6915 54.1455 54.7022 54.8065C53.713 55.4675 52.5499 55.8203 51.3601 55.8203C49.7658 55.8176 48.2377 55.1828 47.1107 54.0552C45.9837 52.9275 45.3498 51.399 45.3479 49.8047H45.3445ZM53.2594 59.9453L54.5484 61.2344C54.705 61.3965 54.7916 61.6136 54.7896 61.8389C54.7877 62.0642 54.6973 62.2797 54.5379 62.4391C54.3786 62.5984 54.1631 62.6888 53.9377 62.6907C53.7124 62.6927 53.4953 62.6061 53.3333 62.4495L50.7551 59.8714C50.635 59.7512 50.5532 59.5981 50.52 59.4314C50.4869 59.2648 50.5039 59.092 50.5689 58.935C50.634 58.778 50.7441 58.6438 50.8854 58.5494C51.0267 58.4549 51.1928 58.4045 51.3627 58.4045C53.6411 58.402 55.8256 57.4957 57.4366 55.8847C59.0477 54.2736 59.954 52.0892 59.9565 49.8107C59.9565 49.5828 60.047 49.3642 60.2082 49.203C60.3693 49.0419 60.5879 48.9513 60.8158 48.9513C61.0438 48.9513 61.2623 49.0419 61.4235 49.203C61.5847 49.3642 61.6752 49.5828 61.6752 49.8107C61.6716 52.215 60.8294 54.5427 59.2938 56.3927C57.7582 58.2427 55.6253 59.4991 53.2628 59.9453H53.2594Z" fill="#FCEFC1"/>
<path d="M16.2891 44.4929C16.0235 44.8917 15.8751 45.357 15.8606 45.836C15.8462 46.315 15.9663 46.7884 16.2074 47.2025L17.7234 49.8287C17.9612 50.2448 18.311 50.5857 18.7331 50.8127C19.1552 51.0397 19.6325 51.1436 20.1107 51.1126L24.5468 50.8462L29.7615 53.8541L31.7492 57.8295C31.9616 58.2593 32.2902 58.621 32.6978 58.8734C33.1053 59.1259 33.5755 59.2591 34.0549 59.2578H37.0859C37.565 59.2594 38.0349 59.1267 38.4424 58.8749C38.8499 58.6231 39.1788 58.2621 39.3916 57.833L41.3828 53.8575L46.5975 50.8497L51.0336 51.1161C51.5119 51.1467 51.9892 51.0427 52.4113 50.8157C52.8335 50.5888 53.1835 50.248 53.4218 49.8322L54.9369 47.2068C55.1781 46.7927 55.2983 46.3193 55.2838 45.8403C55.2694 45.3613 55.1209 44.896 54.8552 44.4972L52.4052 40.7812V34.7656L54.8535 31.0566C55.1191 30.6577 55.2675 30.1924 55.282 29.7134C55.2964 29.2345 55.1762 28.7611 54.9352 28.3469L53.4192 25.7207C53.1809 25.3051 52.8309 24.9646 52.409 24.7377C51.987 24.5107 51.51 24.4065 51.0319 24.4368L46.5958 24.7032L41.3828 21.6894L39.3934 17.7139C39.1804 17.2845 38.8513 16.9234 38.4434 16.6715C38.0356 16.4197 37.5653 16.2872 37.0859 16.2891H34.0549C33.5759 16.2875 33.106 16.4201 32.6984 16.672C32.2909 16.9238 31.9621 17.2847 31.7492 17.7139L29.7615 21.6894L24.5468 24.6972L20.1107 24.4308C19.6323 24.3997 19.1549 24.5036 18.7327 24.7306C18.3105 24.9576 17.9605 25.2985 17.7225 25.7147L16.2074 28.3435C15.9662 28.7576 15.846 29.231 15.8605 29.71C15.8749 30.189 16.0234 30.6543 16.2891 31.0531L18.7374 34.7656V40.7812L16.2891 44.4929ZM20.3144 34.0317L17.7225 30.1061C17.634 29.9732 17.5846 29.8183 17.5799 29.6587C17.5752 29.4992 17.6154 29.3416 17.6959 29.2037L19.2109 26.5783C19.2906 26.4397 19.4074 26.326 19.5481 26.2501C19.6888 26.1742 19.848 26.1391 20.0076 26.1487L24.7015 26.4305C24.8697 26.442 25.0374 26.4025 25.1827 26.3171L30.8443 23.0515C30.9903 22.9673 31.1084 22.8421 31.1838 22.6914L33.2866 18.4856C33.358 18.3429 33.4676 18.2228 33.6033 18.1389C33.739 18.055 33.8954 18.0105 34.0549 18.0104H37.0859C37.2455 18.0105 37.4019 18.055 37.5376 18.1389C37.6733 18.2228 37.7829 18.3429 37.8542 18.4856L39.9571 22.6914C40.0323 22.842 40.15 22.9672 40.2957 23.0515L45.9581 26.3171C46.1033 26.4029 46.2712 26.4424 46.4394 26.4305L51.1333 26.1487C51.2928 26.1392 51.4517 26.1745 51.5923 26.2504C51.7328 26.3263 51.8495 26.4398 51.9291 26.5783L53.445 29.2046C53.5249 29.3428 53.5647 29.5005 53.56 29.66C53.5553 29.8195 53.5062 29.9746 53.4184 30.1078L50.8265 34.0326C50.7337 34.1727 50.6844 34.3372 50.6847 34.5052V41.0391C50.6844 41.2071 50.7337 41.3715 50.8265 41.5117L53.4184 45.4373C53.5066 45.5702 53.5559 45.7252 53.5606 45.8847C53.5653 46.0442 53.5253 46.2018 53.445 46.3397L51.9299 48.9651C51.8493 49.1028 51.7323 49.2158 51.5918 49.2916C51.4513 49.3674 51.2927 49.4031 51.1333 49.3948L46.4411 49.1172C46.273 49.107 46.1057 49.1465 45.9598 49.2306L40.2974 52.4962C40.1517 52.5805 40.034 52.7057 39.9588 52.8563L37.8594 57.0638C37.7881 57.2065 37.6784 57.3266 37.5427 57.4105C37.407 57.4945 37.2506 57.539 37.0911 57.5391H34.0549C33.8954 57.539 33.739 57.4945 33.6033 57.4105C33.4676 57.3266 33.358 57.2065 33.2866 57.0638L31.1838 52.858C31.1084 52.7073 30.9903 52.5821 30.8443 52.498L25.1827 49.2323C25.0521 49.1569 24.9039 49.1172 24.753 49.1172H24.7015L20.0076 49.3991C19.8482 49.4078 19.6895 49.3723 19.5491 49.2964C19.4087 49.2206 19.2919 49.1074 19.2118 48.9694L17.6959 46.3431C17.6154 46.2051 17.5753 46.0474 17.58 45.8877C17.5847 45.7281 17.6341 45.5729 17.7225 45.4399L20.3144 41.5151C20.4068 41.3748 20.4561 41.2105 20.4562 41.0425V34.5078C20.4568 34.3386 20.4075 34.173 20.3144 34.0317Z" fill="#25313B"/>
<path d="M44.1646 37.7734C44.1646 36.0737 43.6606 34.4122 42.7163 32.999C41.772 31.5857 40.4299 30.4843 38.8596 29.8338C37.2892 29.1834 35.5613 29.0132 33.8943 29.3448C32.2273 29.6764 30.696 30.4949 29.4942 31.6967C28.2923 32.8986 27.4738 34.4298 27.1422 36.0969C26.8107 37.7639 26.9808 39.4918 27.6313 41.0621C28.2817 42.6324 29.3832 43.9746 30.7964 44.9189C32.2097 45.8631 33.8712 46.3672 35.5709 46.3672C37.8493 46.3647 40.0337 45.4584 41.6448 43.8473C43.2559 42.2362 44.1621 40.0518 44.1646 37.7734ZM30.1473 33.5625L39.7801 43.1961C38.4596 44.2252 36.8085 44.7362 35.1375 44.6329C33.4666 44.5296 31.891 43.8192 30.7072 42.6354C29.5235 41.4515 28.8132 39.8759 28.7101 38.2049C28.607 36.5339 29.1181 34.8829 30.1473 33.5625ZM42.4459 37.7734C42.4461 39.2997 41.9354 40.782 40.9952 41.9843L31.3625 32.349C32.377 31.5571 33.5938 31.0664 34.8739 30.9329C36.154 30.7995 37.4458 31.0287 38.6018 31.5943C39.7579 32.16 40.7316 33.0393 41.4118 34.1319C42.0919 35.2245 42.4512 36.4864 42.4484 37.7734H42.4459Z" fill="#25313B"/>
<path d="M35.5709 26.6016C32.6089 26.605 29.7693 27.7831 27.6749 29.8775C25.5805 31.9719 24.4024 34.8115 24.399 37.7734C24.399 38.0014 24.3084 38.2199 24.1473 38.3811C23.9861 38.5423 23.7675 38.6328 23.5396 38.6328C23.3117 38.6328 23.0931 38.5423 22.9319 38.3811C22.7708 38.2199 22.6802 38.0014 22.6802 37.7734C22.6842 34.6901 23.7915 31.71 25.8019 29.3721C27.8122 27.0343 30.5928 25.493 33.6407 25.0272L32.8148 24.2013C32.7351 24.1215 32.6718 24.0267 32.6286 23.9224C32.5855 23.8181 32.5633 23.7063 32.5633 23.5934C32.5633 23.4806 32.5856 23.3688 32.6289 23.2645C32.6721 23.1603 32.7354 23.0655 32.8153 22.9857C32.8951 22.9059 32.9899 22.8427 33.0942 22.7995C33.1985 22.7563 33.3103 22.7342 33.4232 22.7342C33.536 22.7342 33.6478 22.7565 33.7521 22.7997C33.8563 22.843 33.9511 22.9063 34.0309 22.9862L36.1793 25.1346C36.2995 25.2548 36.3813 25.408 36.4145 25.5748C36.4476 25.7415 36.4305 25.9144 36.3653 26.0714C36.3002 26.2285 36.19 26.3627 36.0485 26.457C35.9071 26.5514 35.7409 26.6017 35.5709 26.6016Z" fill="#25313B"/>
<path d="M37.5019 50.5197L38.3277 51.3455C38.4889 51.5068 38.5794 51.7255 38.5793 51.9534C38.5792 52.1814 38.4886 52.4 38.3273 52.5611C38.1661 52.7223 37.9474 52.8128 37.7194 52.8127C37.4915 52.8126 37.2729 52.722 37.1117 52.5607L34.9633 50.4123C34.8431 50.2921 34.7613 50.139 34.7282 49.9723C34.695 49.8056 34.712 49.6328 34.7771 49.4758C34.8421 49.3188 34.9522 49.1846 35.0935 49.0902C35.2348 48.9958 35.4009 48.9453 35.5709 48.9453C38.5328 48.9421 41.3726 47.7641 43.467 45.6696C45.5615 43.5752 46.7395 40.7354 46.7427 37.7734C46.7427 37.5455 46.8333 37.3269 46.9944 37.1658C47.1556 37.0046 47.3742 36.9141 47.6021 36.9141C47.83 36.9141 48.0486 37.0046 48.2098 37.1658C48.3709 37.3269 48.4615 37.5455 48.4615 37.7734C48.4577 40.8567 47.3506 43.8368 45.3404 46.1747C43.3302 48.5125 40.5497 50.0538 37.5019 50.5197Z" fill="#25313B"/>
</svg>
