<svg width="26" height="24" viewBox="0 0 26 24" fill="none" xmlns="http://www.w3.org/2000/svg">
<path d="M24.1654 2.3999L25.1632 2.33375C25.1366 1.93261 24.8724 1.58639 24.4925 1.4549C24.1126 1.32341 23.6909 1.43222 23.422 1.7311L24.1654 2.3999ZM23.5679 7.13415C23.5679 6.58186 23.1202 6.13415 22.5679 6.13415C22.0156 6.13415 21.5679 6.58186 21.5679 7.13415H23.5679ZM12.9827 7.26566H11.9827V7.26566L12.9827 7.26566ZM12.9827 8.7999L13.9827 8.7999V8.7999L12.9827 8.7999ZM1.8 19.9999V18.9999C1.35947 18.9999 0.970825 19.2882 0.843014 19.7098C0.715204 20.1314 0.878336 20.5869 1.24471 20.8316L1.8 19.9999ZM3.39753 2.3999L4.33404 2.04925C4.1945 1.67658 3.84729 1.42211 3.44989 1.40127C3.0525 1.38044 2.68057 1.5972 2.50283 1.95324L3.39753 2.3999ZM9.78766 16.7999L10.4953 17.5065C10.74 17.2614 10.8405 16.9071 10.7609 16.57C10.6812 16.2329 10.4329 15.961 10.1043 15.8514L9.78766 16.7999ZM21.3457 3.95731L20.6039 4.628L20.9643 5.02648L21.4954 4.94604L21.3457 3.95731ZM23.1676 2.46606C23.2495 3.70049 23.1714 4.42402 22.9831 4.95472C22.8023 5.46453 22.4856 5.89381 21.876 6.47788L23.2598 7.92193C23.9703 7.24102 24.5376 6.55499 24.868 5.62338C25.1911 4.71267 25.2517 3.66869 25.1632 2.33375L23.1676 2.46606ZM23.5679 8.29989V7.13415H21.5679V8.29989H23.5679ZM11.9827 7.26566L11.9827 8.7999L13.9827 8.7999L13.9827 7.26566L11.9827 7.26566ZM11.9827 8.7999L11.9827 9.5999L13.9827 9.5999L13.9827 8.7999L11.9827 8.7999ZM17.841 1.3999C14.6041 1.3999 11.9827 4.02755 11.9827 7.26566H13.9827C13.9827 5.1292 15.7116 3.3999 17.841 3.3999V1.3999ZM21.5679 8.29989C21.5679 15.0945 16.0687 20.5999 9.28841 20.5999V22.5999C17.1762 22.5999 23.5679 16.1961 23.5679 8.29989H21.5679ZM2.46103 2.75055C3.34808 5.11969 6.67063 9.7999 12.9827 9.7999V7.7999C7.79259 7.7999 5.04452 3.94678 4.33404 2.04925L2.46103 2.75055ZM2.50283 1.95324C0.808761 5.34662 0.536133 8.66379 1.78307 11.5021C3.02653 14.3325 5.69365 16.4874 9.47099 17.7484L10.1043 15.8514C6.69277 14.7124 4.5673 12.8673 3.61416 10.6977C2.66449 8.53601 2.79124 5.85319 4.29224 2.84656L2.50283 1.95324ZM9.08 16.0933C8.14203 17.0328 5.29368 18.9999 1.8 18.9999V20.9999C5.97447 20.9999 9.30327 18.7004 10.4953 17.5065L9.08 16.0933ZM22.0874 3.28663C21.0411 2.12947 19.5256 1.3999 17.841 1.3999V3.3999C18.9363 3.3999 19.9204 3.87208 20.6039 4.628L22.0874 3.28663ZM21.4954 4.94604C22.7598 4.75454 23.9885 4.09182 24.9089 3.06871L23.422 1.7311C22.7992 2.42342 21.9847 2.84913 21.1959 2.96859L21.4954 4.94604ZM1.24471 20.8316C3.92701 22.6225 6.74001 22.5999 9.28841 22.5999V20.5999C6.67392 20.5999 4.46559 20.5773 2.3553 19.1682L1.24471 20.8316Z" fill="white"/>
</svg>
