<svg width="178" height="70" viewBox="0 0 178 70" fill="none" xmlns="http://www.w3.org/2000/svg">
<g clip-path="url(#clip0_5_58)">
<path d="M34.9348 69.7147C28.0253 69.7147 21.271 67.6703 15.5261 63.8402C9.78107 60.01 5.30339 54.566 2.65927 48.1967C0.0151366 41.8273 -0.676688 34.8187 0.671277 28.057C2.01924 21.2954 5.34645 15.0844 10.2322 10.2095C15.1179 5.33461 21.3427 2.01477 28.1193 0.66979C34.896 -0.675188 41.9202 0.015103 48.3037 2.65337C54.6872 5.29164 60.1433 9.7594 63.982 15.4917C67.8206 21.2239 69.8695 27.9632 69.8695 34.8574C69.8695 34.8574 68.1776 61.0209 82.5556 59.0183H82.4597C82.2748 59.0798 81.8364 59.2097 81.1925 59.3669C75.4454 60.7338 53.9639 63.83 52.4706 34.8232C52.4706 30.1917 50.6267 25.75 47.3445 22.4751C44.0623 19.2002 39.6107 17.3603 34.969 17.3603C30.3273 17.3603 25.8757 19.2002 22.5935 22.4751C19.3113 25.75 17.4674 30.1917 17.4674 34.8232C17.4974 35.9963 17.6118 37.1658 17.8099 38.3226C17.8099 38.3704 17.8099 38.4046 17.8099 38.4456C21.9199 61.9231 57.478 61.4583 57.478 61.4583C51.1866 66.7975 43.194 69.7248 34.9348 69.7147Z" fill="url(#paint0_linear_5_58)"/>
<g style="mix-blend-mode:overlay" opacity="0.3">
<path d="M34.9348 69.7147C28.0253 69.7147 21.271 67.6703 15.5261 63.8402C9.78107 60.01 5.30339 54.566 2.65927 48.1967C0.0151366 41.8273 -0.676688 34.8187 0.671277 28.057C2.01924 21.2954 5.34645 15.0844 10.2322 10.2095C15.1179 5.33461 21.3427 2.01477 28.1193 0.66979C34.896 -0.675188 41.9202 0.015103 48.3037 2.65337C54.6872 5.29164 60.1433 9.7594 63.982 15.4917C67.8206 21.2239 69.8695 27.9632 69.8695 34.8574C69.8695 34.8574 68.1776 61.0209 82.5556 59.0183H82.4597C82.0487 59.1723 81.6245 59.2889 81.1925 59.3669C77.1784 60.146 66.5267 59.9615 64.3348 34.8574C61.8345 6.21966 33.3593 0.362259 15.3576 12.699C-2.64407 25.0358 3.60309 77.5063 57.478 61.4583C51.1866 66.7975 43.194 69.7248 34.9348 69.7147Z" fill="black"/>
</g>
<g style="mix-blend-mode:overlay" opacity="0.1">
<path d="M9.69956 44.3645C9.69956 44.3645 8.53507 11.1133 41.2778 10.6486C41.2778 10.6486 6.49378 5.41999 9.69956 44.3645Z" fill="white"/>
</g>
</g>
<path d="M93.2617 58.5266C92.0632 58.5266 90.8525 58.3554 89.6296 58.0129C88.4066 57.6461 87.2326 57.108 86.1075 56.3987C84.9824 55.6649 83.9796 54.7721 83.099 53.7204C82.243 52.6442 81.5581 51.409 81.0445 50.0149C80.5309 48.5963 80.274 47.0309 80.274 45.3188C80.274 43.6311 80.5309 42.1147 81.0445 40.7694C81.5581 39.3997 82.243 38.2012 83.099 37.174C83.9796 36.1467 84.9701 35.2906 86.0708 34.6058C87.1959 33.9209 88.3699 33.4073 89.5929 33.0649C90.8403 32.698 92.0755 32.5023 93.2984 32.4779C94.5458 32.4779 95.622 32.6124 96.527 32.8814C97.432 33.1505 98.1657 33.444 98.7283 33.7619C99.2908 34.0555 99.6699 34.2634 99.8656 34.3856C100.257 34.6302 100.624 34.9115 100.966 35.2295C101.333 35.523 101.529 35.8899 101.553 36.3301C101.578 36.6236 101.541 36.8927 101.443 37.1373C101.345 37.3574 101.211 37.5898 101.04 37.8344C100.746 38.2502 100.453 38.5559 100.159 38.7516C99.8656 38.9472 99.5721 39.0451 99.2786 39.0451C99.0096 39.0451 98.7527 38.9717 98.5081 38.8249C98.288 38.6782 98.0067 38.4947 97.6643 38.2746C97.5176 38.1768 97.2485 38.03 96.8572 37.8344C96.4903 37.6142 95.9889 37.4186 95.3529 37.2473C94.7415 37.0761 93.9955 36.9905 93.115 36.9905C92.0632 36.9905 91.036 37.174 90.0331 37.5408C89.0303 37.9077 88.1253 38.4581 87.3182 39.1918C86.5355 39.9011 85.9118 40.7939 85.4471 41.8701C84.9824 42.9218 84.75 44.1325 84.75 45.5022C84.75 46.8719 84.9824 48.0949 85.4471 49.171C85.9118 50.2228 86.5355 51.1155 87.3182 51.8493C88.1253 52.5586 89.0303 53.0967 90.0331 53.4636C91.036 53.8305 92.0632 54.0139 93.115 54.0139C93.9466 54.0139 94.6559 53.9405 95.2429 53.7938C95.8544 53.6226 96.368 53.4269 96.7838 53.2068C97.2241 52.9622 97.5542 52.7787 97.7744 52.6564C98.0434 52.4852 98.3002 52.3262 98.5448 52.1795C98.7894 52.0327 99.0462 51.9594 99.3153 51.9594C99.6088 51.9594 99.8901 52.0572 100.159 52.2529C100.453 52.4485 100.734 52.7665 101.003 53.2068C101.174 53.4758 101.309 53.7326 101.407 53.9772C101.504 54.2218 101.541 54.4786 101.517 54.7477C101.492 55.1879 101.296 55.5671 100.93 55.885C100.587 56.1785 100.22 56.4353 99.8289 56.6555C99.6333 56.7778 99.2541 56.9979 98.6916 57.3159C98.1535 57.6094 97.432 57.8784 96.527 58.123C95.622 58.3921 94.5336 58.5266 93.2617 58.5266ZM116.459 58.6733C114.698 58.6733 113.047 58.3431 111.506 57.6827C109.989 56.9979 108.644 56.0685 107.47 54.8944C106.296 53.6959 105.379 52.3262 104.719 50.7853C104.058 49.22 103.728 47.5445 103.728 45.759C103.728 43.9246 104.046 42.2125 104.682 40.6227C105.342 39.0084 106.235 37.602 107.36 36.4035C108.51 35.1806 109.83 34.2267 111.322 33.5418C112.814 32.857 114.416 32.5145 116.129 32.5145C117.914 32.5145 119.565 32.857 121.082 33.5418C122.622 34.2022 123.968 35.1316 125.117 36.3301C126.267 37.5286 127.172 38.9228 127.832 40.5126C128.493 42.078 128.823 43.7779 128.823 45.6123C128.823 47.3978 128.505 49.0854 127.869 50.6753C127.233 52.2406 126.34 53.6348 125.191 54.8577C124.041 56.0562 122.72 56.9979 121.228 57.6827C119.761 58.3431 118.171 58.6733 116.459 58.6733ZM116.275 54.1974C117.4 54.1974 118.452 53.9772 119.431 53.537C120.409 53.0967 121.265 52.4852 121.999 51.7025C122.757 50.9199 123.344 50.0149 123.76 48.9876C124.176 47.9359 124.383 46.8108 124.383 45.6123C124.383 44.4138 124.163 43.3009 123.723 42.2736C123.307 41.2219 122.72 40.3047 121.962 39.522C121.228 38.7149 120.372 38.0912 119.394 37.6509C118.44 37.2107 117.4 36.9905 116.275 36.9905C115.175 36.9905 114.135 37.2107 113.157 37.6509C112.178 38.0912 111.31 38.7149 110.552 39.522C109.818 40.3047 109.243 41.2219 108.828 42.2736C108.412 43.3254 108.204 44.4383 108.204 45.6123C108.204 46.7863 108.412 47.8992 108.828 48.9509C109.268 50.0027 109.855 50.9199 110.589 51.7025C111.322 52.4852 112.166 53.0967 113.12 53.537C114.098 53.9772 115.15 54.1974 116.275 54.1974ZM133.759 58.3431C133.123 58.3431 132.646 58.2331 132.328 58.0129C132.01 57.8173 131.802 57.5482 131.704 57.2058C131.606 56.8634 131.557 56.4965 131.557 56.1051V34.8993C131.557 34.5079 131.594 34.1533 131.668 33.8353C131.765 33.4929 131.973 33.2238 132.291 33.0282C132.609 32.808 133.111 32.698 133.795 32.698L140.693 32.7347C142.478 32.7347 144.117 33.0404 145.609 33.6519C147.126 34.2634 148.434 35.1316 149.535 36.2568C150.635 37.3819 151.479 38.7271 152.066 40.2925C152.678 41.8334 152.983 43.5333 152.983 45.3922C152.983 47.2999 152.678 49.0488 152.066 50.6386C151.455 52.2284 150.599 53.5981 149.498 54.7477C148.397 55.8972 147.089 56.79 145.572 57.4259C144.08 58.0374 142.417 58.3431 140.583 58.3431H133.759ZM135.997 53.9038H140.693C142.258 53.9038 143.628 53.5614 144.802 52.8766C145.976 52.1673 146.881 51.1889 147.517 49.9415C148.177 48.6941 148.507 47.2388 148.507 45.5756C148.507 43.8879 148.177 42.4204 147.517 41.173C146.881 39.9011 145.964 38.9228 144.765 38.2379C143.591 37.5286 142.222 37.174 140.656 37.174H135.997V53.9038ZM159.099 58.3798C158.414 58.3798 157.913 58.2698 157.595 58.0496C157.277 57.854 157.081 57.5849 157.008 57.2425C156.934 56.9001 156.898 56.5209 156.898 56.1051V34.936C156.898 34.1044 157.057 33.5296 157.375 33.2116C157.717 32.8937 158.328 32.7347 159.209 32.7347H173.517C173.933 32.7347 174.3 32.7836 174.618 32.8814C174.961 32.9548 175.23 33.1505 175.425 33.4684C175.621 33.7619 175.719 34.2634 175.719 34.9727C175.719 35.6575 175.609 36.1589 175.389 36.4769C175.193 36.7948 174.924 36.9905 174.581 37.0639C174.263 37.1373 173.897 37.174 173.481 37.174H161.337V43.3376H169.702C170.118 43.3376 170.472 43.3865 170.766 43.4844C171.059 43.5577 171.292 43.7289 171.463 43.998C171.634 44.267 171.72 44.7195 171.72 45.3555C171.72 45.9669 171.634 46.4194 171.463 46.7129C171.292 46.982 171.047 47.1532 170.729 47.2266C170.411 47.2755 170.044 47.2999 169.628 47.2999H161.337V53.9038H173.517C173.933 53.9038 174.3 53.9528 174.618 54.0506C174.961 54.124 175.23 54.3196 175.425 54.6376C175.621 54.9556 175.719 55.457 175.719 56.1418C175.719 56.8267 175.609 57.3281 175.389 57.6461C175.193 57.964 174.924 58.1597 174.581 58.2331C174.263 58.3309 173.897 58.3798 173.481 58.3798H159.099Z" fill="#60527B"/>
<defs>
<linearGradient id="paint0_linear_5_58" x1="-18.5771" y1="72.6605" x2="112.255" y2="-5.566" gradientUnits="userSpaceOnUse">
<stop offset="0.26" stop-color="#A3CAFF"/>
<stop offset="0.77" stop-color="#3C87EB"/>
</linearGradient>
<clipPath id="clip0_5_58">
<rect width="82.5488" height="69.7078" fill="white"/>
</clipPath>
</defs>
</svg>
