<svg width="24" height="24" viewBox="0 0 24 24" fill="none" xmlns="http://www.w3.org/2000/svg">
<g clip-path="url(#clip0_166_2182)">
<path d="M12 24C18.6274 24 24 18.6274 24 12C24 5.37258 18.6274 0 12 0C5.37258 0 0 5.37258 0 12C0 18.6274 5.37258 24 12 24Z" fill="#0052B4"/>
<path d="M12 24C18.6274 24 24 18.6274 24 12C24 5.37258 18.6274 0 12 0C5.37258 0 0 5.37258 0 12C0 18.6274 5.37258 24 12 24Z" fill="#FFDA44"/>
<path d="M12 0C5.7242 0 0.574606 4.81786 0.0457153 10.9565H23.9544C23.4254 4.81786 18.2758 0 12 0Z" fill="#0052B4"/>
<path d="M12 24C18.2758 24 23.4254 19.1821 23.9544 13.0435H0.0457153C0.574606 19.1821 5.7242 24 12 24Z" fill="#0052B4"/>
<path d="M9.91309 16.1739L8.56843 16.8064L9.28445 18.1087L7.82434 17.8293L7.63932 19.3043L6.62228 18.2195L5.60528 19.3043L5.42026 17.8293L3.96011 18.1086L4.67617 16.8064L3.33151 16.1739L4.67622 15.5414L3.96011 14.2392L5.42022 14.5185L5.60532 13.0435L6.62228 14.1283L7.63937 13.0435L7.82434 14.5185L9.2845 14.2392L8.56848 15.5415L9.91309 16.1739Z" fill="#F0F0F0"/>
</g>
<defs>
<clipPath id="clip0_166_2182">
<rect width="24" height="24" fill="white"/>
</clipPath>
</defs>
</svg>
