<svg width="382" height="813" viewBox="0 0 382 813" fill="none" xmlns="http://www.w3.org/2000/svg">
<path d="M-927.821 242.381C-958.164 204.386 -933.08 147.97 -884.543 145.048L-13.5096 92.5963C2.55438 91.629 17.6337 100.383 24.7596 114.812L240.682 552.034C257.742 586.579 238.286 628.021 200.809 636.963L-445.456 791.161C-468.067 796.556 -491.759 788.406 -506.265 770.242L-927.821 242.381Z" fill="#64C8D6" fill-opacity="0.2"/>
<path d="M-500.41 62.6671C-502.435 14.507 -449.715 -16.2598 -408.78 9.19337L240.775 413.09C255.18 422.047 262.369 439.116 258.713 455.68L190.353 765.386C182.465 801.121 144.7 821.532 110.483 808.553L-441.435 599.202C-463.883 590.687 -479.094 569.61 -480.102 545.623L-500.41 62.6671Z" fill="#3C87EB" fill-opacity="0.2"/>
<path d="M381.404 472.888C385.14 442.094 364.789 413.53 334.465 407.003L-632 199V547.664L280.663 754.325C315.337 762.176 349.194 738.326 353.477 703.034L381.404 472.888Z" fill="#69A8FB"/>
</svg>
