<?xml version="1.0" encoding="UTF-8" standalone="no"?>
<!-- Created with Inkscape (http://www.inkscape.org/) -->

<svg
   version="1.1"
   id="svg2"
   width="718.11066"
   height="718.11066"
   viewBox="0 0 718.11066 718.11066"
   sodipodi:docname="Lodestar Drain Inc_logo.ai"
   xmlns:inkscape="http://www.inkscape.org/namespaces/inkscape"
   xmlns:sodipodi="http://sodipodi.sourceforge.net/DTD/sodipodi-0.dtd"
   xmlns="http://www.w3.org/2000/svg"
   xmlns:svg="http://www.w3.org/2000/svg">
  <defs
     id="defs6">
    <clipPath
       clipPathUnits="userSpaceOnUse"
       id="clipPath16">
      <path
         d="M 0,538.583 H 538.583 V 0 H 0 Z"
         id="path14" />
    </clipPath>
  </defs>
  <sodipodi:namedview
     id="namedview4"
     pagecolor="#ffffff"
     bordercolor="#000000"
     borderopacity="0.25"
     inkscape:showpageshadow="2"
     inkscape:pageopacity="0.0"
     inkscape:pagecheckerboard="0"
     inkscape:deskcolor="#d1d1d1" />
  <g
     id="g8"
     inkscape:groupmode="layer"
     inkscape:label="Lodestar Drain Inc_logo"
     transform="matrix(1.3333333,0,0,-1.3333333,0,718.11067)">
    <g
       id="g10">
      <g
         id="g12"
         clip-path="url(#clipPath16)">
        <g
           id="g18"
           transform="translate(269.2141,311.6561)">
          <path
             d="M 0,0 0.01,0.01 C 10.157,10.162 23.923,15.866 38.276,15.866 H 96.797 C 47.643,7.98 -3.332,-13.439 -15.837,-97.691 v 59.443 c 0,14.345 5.696,28.102 15.837,38.248"
             style="fill:#3053ab;fill-opacity:1;fill-rule:nonzero;stroke:none"
             id="path20" />
        </g>
        <g
           id="g22"
           transform="translate(251.3147,447.4379)">
          <path
             d="m 0,0 0.818,-58.52 c 0,-7.12 1.407,-14.094 4.061,-20.555 15.095,-2.899 27.009,-14.704 30.102,-29.732 6.292,-2.496 13.051,-3.827 19.951,-3.827 h 59.443 C 30.123,-100.129 7.886,-49.153 0,0"
             style="fill:#3053ab;fill-opacity:1;fill-rule:nonzero;stroke:none"
             id="path24" />
        </g>
        <g
           id="g26"
           transform="translate(240.7448,368.152)">
          <path
             d="m 0,0 c 2.71,6.52 4.145,13.568 4.145,20.766 l 2.248,58.52 C -1.493,30.133 -25.159,-20.843 -109.411,-33.348 h 59.443 c 7.252,0 14.352,1.461 20.913,4.211 C -25.91,-14.618 -14.503,-3.186 0,0"
             style="fill:#2c3691;fill-opacity:1;fill-rule:nonzero;stroke:none"
             id="path28" />
        </g>
        <g
           id="g30"
           transform="translate(211.5352,323.5064)">
          <path
             d="m 0,0 c -6.428,2.623 -13.36,4.015 -20.438,4.015 h -58.52 C -29.804,-3.871 21.171,-25.289 33.676,-109.541 v 59.443 c 0,6.98 -1.359,13.817 -3.912,20.17 C 14.762,-26.868 2.958,-15.033 0,0"
             style="fill:#2c3691;fill-opacity:1;fill-rule:nonzero;stroke:none"
             id="path32" />
        </g>
        <g
           id="g34"
           transform="translate(119.6563,163.4056)">
          <path
             d="M 0,0 H 15.111 V -5.556 H -5.972 V 30.792 H 0 Z"
             style="fill:#2c3691;fill-opacity:1;fill-rule:nonzero;stroke:none"
             id="path36" />
        </g>
        <g
           id="g38"
           transform="translate(146.0864,166.6505)">
          <path
             d="m 0,0 c 2.493,-2.509 5.616,-3.764 9.373,-3.764 3.755,0 6.871,1.255 9.346,3.764 2.475,2.509 3.713,5.635 3.713,9.373 0,3.738 -1.238,6.863 -3.713,9.372 C 16.244,21.256 13.128,22.51 9.373,22.51 5.616,22.51 2.493,21.256 0,18.745 -2.493,16.236 -3.739,13.111 -3.739,9.373 -3.739,5.635 -2.493,2.509 0,0 m 9.347,-9.476 c -5.505,0 -10.074,1.791 -13.709,5.374 -3.635,3.583 -5.452,8.074 -5.452,13.475 0,5.401 1.817,9.892 5.452,13.475 3.635,3.583 8.204,5.374 13.709,5.374 5.504,0 10.073,-1.791 13.708,-5.374 3.635,-3.583 5.453,-8.074 5.453,-13.475 0,-3.531 -0.823,-6.742 -2.467,-9.632 -1.644,-2.891 -3.93,-5.15 -6.854,-6.777 -2.926,-1.628 -6.206,-2.44 -9.84,-2.44"
             style="fill:#2c3691;fill-opacity:1;fill-rule:nonzero;stroke:none"
             id="path40" />
        </g>
        <g
           id="g42"
           transform="translate(194.1694,163.4056)">
          <path
             d="m 0,0 c 3.635,0 6.621,1.185 8.958,3.557 2.336,2.371 3.505,5.392 3.505,9.061 0,1.835 -0.304,3.531 -0.909,5.089 -0.606,1.557 -1.454,2.89 -2.545,3.998 -1.09,1.107 -2.414,1.973 -3.972,2.596 C 3.479,24.924 1.8,25.236 0,25.236 H -6.698 V 0 Z m 0.156,30.792 c 5.33,0 9.736,-1.713 13.215,-5.14 C 16.85,22.224 18.59,17.879 18.59,12.618 18.59,7.356 16.85,3.012 13.371,-0.416 9.892,-3.843 5.486,-5.556 0.156,-5.556 H -12.67 v 36.348 z"
             style="fill:#2c3691;fill-opacity:1;fill-rule:nonzero;stroke:none"
             id="path44" />
        </g>
        <g
           id="g46"
           transform="translate(225.6882,163.5092)">
          <path
             d="M 0,0 H 15.733 V -5.66 H -5.972 V 30.689 H 15.163 V 25.081 H 0 V 15.63 H 13.812 V 10.126 L 0,10.126 Z"
             style="fill:#2c3691;fill-opacity:1;fill-rule:nonzero;stroke:none"
             id="path48" />
        </g>
        <g
           id="g50"
           transform="translate(259.9601,157.2784)">
          <path
             d="m 0,0 c -2.736,0 -5.133,0.485 -7.193,1.454 -2.06,0.969 -3.66,2.362 -4.802,4.18 -1.142,1.818 -1.713,3.937 -1.713,6.361 h 6.022 c 0,-1.939 0.719,-3.471 2.156,-4.595 1.436,-1.126 3.262,-1.688 5.478,-1.688 2.007,0 3.704,0.493 5.089,1.48 1.383,0.986 2.077,2.276 2.077,3.868 0,0.588 -0.096,1.125 -0.286,1.61 -0.191,0.484 -0.502,0.9 -0.935,1.246 -0.433,0.346 -0.848,0.649 -1.246,0.909 -0.398,0.26 -0.986,0.51 -1.766,0.753 -0.778,0.241 -1.41,0.424 -1.894,0.545 -0.486,0.121 -1.213,0.302 -2.182,0.545 -1.073,0.242 -1.887,0.442 -2.441,0.597 -0.554,0.156 -1.323,0.398 -2.31,0.727 -0.986,0.329 -1.749,0.65 -2.285,0.961 -0.537,0.311 -1.168,0.735 -1.895,1.272 -0.727,0.536 -1.272,1.107 -1.636,1.713 -0.363,0.606 -0.684,1.342 -0.961,2.208 -0.277,0.864 -0.414,1.834 -0.414,2.907 0,3.254 1.15,5.798 3.452,7.633 2.302,1.835 5.392,2.753 9.269,2.753 3.947,0 7.028,-0.996 9.243,-2.986 2.215,-1.991 3.324,-4.699 3.324,-8.127 h -5.92 c 0,1.731 -0.632,3.09 -1.896,4.077 -1.263,0.986 -2.881,1.48 -4.854,1.48 -1.905,0 -3.488,-0.408 -4.752,-1.22 -1.264,-0.815 -1.896,-1.948 -1.896,-3.402 0,-0.623 0.157,-1.195 0.468,-1.714 0.312,-0.519 0.675,-0.943 1.091,-1.272 0.415,-0.329 1.039,-0.648 1.869,-0.96 0.831,-0.312 1.532,-0.545 2.103,-0.701 0.572,-0.156 1.41,-0.373 2.518,-0.65 0.865,-0.207 1.515,-0.362 1.947,-0.467 0.433,-0.104 1.065,-0.285 1.896,-0.545 0.831,-0.259 1.471,-0.486 1.921,-0.675 0.45,-0.19 1.021,-0.459 1.714,-0.805 0.692,-0.346 1.228,-0.693 1.609,-1.039 0.381,-0.346 0.805,-0.778 1.273,-1.297 0.467,-0.519 0.822,-1.065 1.064,-1.636 0.242,-0.572 0.45,-1.23 0.623,-1.973 0.173,-0.745 0.26,-1.532 0.26,-2.363 0,-3.531 -1.247,-6.275 -3.739,-8.23 C 6.957,0.978 3.807,0 0,0"
             style="fill:#2c3691;fill-opacity:1;fill-rule:nonzero;stroke:none"
             id="path52" />
        </g>
        <g
           id="g54"
           transform="translate(303.213,194.1979)">
          <path
             d="m 0,0 v -5.556 h -10.697 v -30.792 h -5.919 V -5.556 H -27.313 V 0 Z"
             style="fill:#2c3691;fill-opacity:1;fill-rule:nonzero;stroke:none"
             id="path56" />
        </g>
        <g
           id="g58"
           transform="translate(319.0512,186.4084)">
          <path
             d="M 0,0 -5.972,-15.318 H 6.075 Z m 11.32,-28.559 -3.168,7.893 H -8.049 l -3.115,-7.893 h -6.335 L -2.856,7.79 h 5.608 l 15.007,-36.349 z"
             style="fill:#2c3691;fill-opacity:1;fill-rule:nonzero;stroke:none"
             id="path60" />
        </g>
        <g
           id="g62"
           transform="translate(348.1293,188.5899)">
          <path
             d="m 0,0 v -11.683 h 7.84 c 0.97,0 1.861,0.137 2.675,0.415 0.812,0.276 1.497,0.675 2.051,1.194 0.553,0.519 0.987,1.142 1.298,1.87 0.312,0.726 0.467,1.523 0.467,2.388 0,1.696 -0.597,3.089 -1.791,4.181 C 11.345,-0.545 9.779,0 7.84,0 Z M 14.695,-30.74 6.906,-17.291 H 0 V -30.74 H -5.972 V 5.608 H 8.204 c 2.285,0 4.362,-0.485 6.232,-1.454 1.869,-0.97 3.331,-2.337 4.387,-4.102 1.055,-1.766 1.584,-3.738 1.584,-5.92 0,-2.459 -0.675,-4.63 -2.026,-6.517 -1.349,-1.886 -3.15,-3.245 -5.399,-4.076 l 8.411,-14.279 z"
             style="fill:#2c3691;fill-opacity:1;fill-rule:nonzero;stroke:none"
             id="path64" />
        </g>
        <g
           id="g66"
           transform="translate(136.0889,108.4641)">
          <path
             d="m 0,0 c 3.602,0 6.462,0.993 8.581,2.979 2.118,1.987 3.178,4.701 3.178,8.144 0,3.443 -1.06,6.158 -3.178,8.145 C 6.462,21.254 3.602,22.247 0,22.247 H -3.973 V 0 Z m 1.271,38.933 c 8.74,0 15.824,-2.571 21.254,-7.707 5.429,-5.139 8.144,-11.839 8.144,-20.103 0,-8.211 -2.715,-14.897 -8.144,-20.061 -5.43,-5.166 -12.514,-7.748 -21.254,-7.748 h -23.836 v 55.619 z"
             style="fill:#2c3691;fill-opacity:1;fill-rule:nonzero;stroke:none"
             id="path68" />
        </g>
        <g
           id="g70"
           transform="translate(191.3878,131.5852)">
          <path
             d="m 0,0 v -10.567 h 4.529 c 1.8,0 3.23,0.503 4.291,1.509 1.058,1.006 1.589,2.277 1.589,3.814 0,1.006 -0.226,1.907 -0.676,2.701 -0.45,0.795 -1.126,1.417 -2.025,1.867 C 6.806,-0.226 5.747,0 4.529,0 Z M 10.965,-39.807 3.814,-24.71 H 0 V -39.807 H -18.433 V 15.812 H 7.548 c 6.515,0 11.812,-1.935 15.891,-5.8 4.079,-3.867 6.118,-8.953 6.118,-15.256 0,-6.463 -2.57,-11.495 -7.707,-15.096 l 9.693,-19.467 z"
             style="fill:#2c3691;fill-opacity:1;fill-rule:nonzero;stroke:none"
             id="path72" />
        </g>
        <g
           id="g74"
           transform="translate(244.3624,114.7716)">
          <path
             d="m 0,0 c 2.424,0.116 4.6,1.153 6.189,2.768 l 2.719,7.716 0.739,22.141 H 0.657 L -12.586,-0.6 Z"
             style="fill:#2c3691;fill-opacity:1;fill-rule:nonzero;stroke:none"
             id="path76" />
        </g>
        <g
           id="g78"
           transform="translate(255.0128,125.3406)">
          <path
             d="m 0,0 2.742,-7.784 c 1.585,-1.607 3.751,-2.64 6.163,-2.758 l 13.034,-0.634 -13.34,33.232 h -9.58 z"
             style="fill:#2c3691;fill-opacity:1;fill-rule:nonzero;stroke:none"
             id="path80" />
        </g>
        <g
           id="g82"
           transform="translate(277.1812,113.5923)">
          <path
             d="m 0,0 -14.495,-0.835 c -4.138,-0.238 -7.442,-3.537 -7.687,-7.675 l -0.264,-5.597 h 8.241 l 2.383,-7.707 H 8.756 Z"
             style="fill:#2c3691;fill-opacity:1;fill-rule:nonzero;stroke:none"
             id="path84" />
        </g>
        <g
           id="g86"
           transform="translate(253.2838,104.683)">
          <path
             d="m 0,0 c -0.199,4.375 -3.677,7.89 -8.05,8.136 l -13.69,0.767 -8.692,-21.807 h 19.943 l 2.463,7.707 h 8.214 z"
             style="fill:#2c3691;fill-opacity:1;fill-rule:nonzero;stroke:none"
             id="path88" />
        </g>
        <path
           d="m 289.513,147.397 h 18.91 V 91.779 h -18.91 z"
           style="fill:#2c3691;fill-opacity:1;fill-rule:nonzero;stroke:none"
           id="path90" />
        <g
           id="g92"
           transform="translate(351.8839,147.3967)">
          <path
             d="M 0,0 H 17.639 V -55.618 H 2.542 l -19.625,26.3 v -26.3 H -34.722 V 0 h 15.653 L 0,-25.187 Z"
             style="fill:#2c3691;fill-opacity:1;fill-rule:nonzero;stroke:none"
             id="path94" />
        </g>
        <path
           d="m 375.303,113.977 h 7.548 V 91.779 h -7.548 z"
           style="fill:#2c3691;fill-opacity:1;fill-rule:nonzero;stroke:none"
           id="path96" />
        <g
           id="g98"
           transform="translate(396.7091,109.5373)">
          <path
             d="m 0,0 c 1.015,0 1.955,-0.175 2.822,-0.523 0.866,-0.349 1.607,-0.84 2.22,-1.475 0.613,-0.634 1.094,-1.4 1.442,-2.299 0.35,-0.898 0.524,-1.887 0.524,-2.965 v -10.497 h -7.104 v 9.609 c 0,0.275 -0.021,0.534 -0.063,0.777 -0.042,0.243 -0.111,0.454 -0.206,0.634 -0.095,0.179 -0.211,0.333 -0.349,0.46 -0.138,0.127 -0.291,0.222 -0.46,0.286 -0.169,0.063 -0.359,0.095 -0.57,0.095 -0.614,0 -1.095,-0.217 -1.444,-0.651 -0.348,-0.433 -0.523,-1.03 -0.523,-1.791 v -9.419 h -7.103 v 17.125 h 5.105 l 0.603,-1.395 C -3.838,-0.677 -2.136,0 0,0"
             style="fill:#2c3691;fill-opacity:1;fill-rule:nonzero;stroke:none"
             id="path100" />
        </g>
        <g
           id="g102"
           transform="translate(415.545,91.1448)">
          <path
             d="m 0,0 c -2.96,0 -5.349,0.84 -7.167,2.521 -1.818,1.68 -2.728,3.895 -2.728,6.643 0,2.748 0.91,4.963 2.728,6.644 1.818,1.681 4.207,2.521 7.167,2.521 2.621,0 4.799,-0.745 6.533,-2.235 1.734,-1.49 2.706,-3.452 2.917,-5.883 H 2.664 C 2.558,10.781 2.252,11.263 1.744,11.653 1.237,12.045 0.655,12.24 0,12.24 c -0.867,0 -1.56,-0.274 -2.077,-0.824 -0.519,-0.55 -0.777,-1.3 -0.777,-2.252 0,-0.951 0.258,-1.702 0.777,-2.251 C -1.56,6.363 -0.867,6.088 0,6.088 0.677,6.088 1.273,6.3 1.792,6.723 2.31,7.146 2.611,7.663 2.695,8.276 H 9.514 C 9.239,5.781 8.229,3.778 6.485,2.267 4.741,0.755 2.579,0 0,0"
             style="fill:#2c3691;fill-opacity:1;fill-rule:nonzero;stroke:none"
             id="path104" />
        </g>
        <g
           id="g106"
           transform="translate(252.9073,325.6089)">
          <path
             d="m 0,0 c -1.368,-1.04 -2.906,-1.669 -4.63,-1.768 -0.679,-0.039 -1.32,0 -1.94,0.086 0.88,-0.547 1.9,-0.849 3.213,-0.774 2.076,0 3.836,0.9 5.204,2.022 C 0.412,-2.154 -1.548,-3.41 -3.785,-3.878 -9.634,-5.099 -13.842,-2.444 -17.067,4.5 -17.564,0.609 -14.456,-3.994 -10.1,-5.818 -5.002,-7.952 0.955,-6.353 4.362,-1.936 7.763,2.473 7.81,8.59 4.569,12.932 4.403,13.153 4.227,13.364 4.046,13.57 3.171,14.788 1.822,16.192 1.216,17.286 0.409,18.746 -0.353,20.228 -1.033,21.753 4.764,20.233 9.53,15.937 11.291,10.188 12.919,4.874 12.333,-0.226 9.388,-4.97 c -2.927,-4.715 -7.283,-7.463 -12.62,-8.796 6.721,-0.664 14.293,4.37 17.361,11.417 3.476,7.984 1.4,17.401 -5.114,23.197 -3.449,3.068 -7.705,4.791 -12.054,5.14 -0.58,1.544 -0.887,2.856 -1.039,3.867 0.011,-1.37 0.074,-2.625 0.193,-3.799 0,0 -0.001,0 -0.001,0 0.002,-0.023 0.007,-0.043 0.009,-0.065 0.066,-0.64 0.153,-1.252 0.255,-1.846 0.015,-0.087 0.032,-0.172 0.048,-0.258 0.1,-0.552 0.218,-1.089 0.351,-1.609 0.007,-0.028 0.012,-0.058 0.019,-0.086 0.001,0 0.002,0 0.004,0 0.448,-1.719 1.071,-3.295 1.924,-4.844 0.036,-0.066 0.073,-0.133 0.11,-0.199 0.034,-0.062 0.069,-0.122 0.103,-0.184 0.396,-0.713 0.796,-1.425 1.195,-2.137 C 0.45,14.259 0.768,13.689 1.075,13.113 1.807,11.738 2.504,10.345 2.979,8.85 3.576,6.972 3.36,5.159 2.614,3.38 2.051,2.037 1.159,0.881 0,0"
             style="fill:#2c3691;fill-opacity:1;fill-rule:nonzero;stroke:none"
             id="path108" />
        </g>
        <g
           id="g110"
           transform="translate(246.7181,306.6841)">
          <path
             d="M 0,0 C -12.047,0.831 -21.72,10.215 -22.952,22.633 -24.18,35.023 -15.606,47.757 -0.947,50.62 -2.484,50.594 -4.035,50.563 -5.535,50.274 -20.471,47.39 -30.08,32.761 -26.836,17.902 -24.095,5.347 -13.838,-3.52 -1.01,-4.422 c 13.262,-0.934 25.365,7.995 28.306,20.898 0.595,2.61 0.774,5.248 0.387,7.905 C 26.531,9.694 13.766,-0.949 0,0"
             style="fill:#2c3691;fill-opacity:1;fill-rule:nonzero;stroke:none"
             id="path112" />
        </g>
        <g
           id="g114"
           transform="translate(228.8036,330.9532)">
          <path
             d="m 0,0 c 1.583,10.802 9.8,16.446 17.255,16.961 0.399,0.989 0.865,2.273 1.305,3.75 C 15.428,20.574 12.319,19.709 9.498,18.087 2.01,13.781 -0.92,5.754 0,0"
             style="fill:#2c3691;fill-opacity:1;fill-rule:nonzero;stroke:none"
             id="path116" />
        </g>
        <g
           id="g118"
           transform="translate(284.0492,346.8589)">
          <path
             d="m 0,0 c -8.314,22.052 -34.742,31.761 -55.772,20.494 -15.755,-8.44 -24.102,-25.73 -20.879,-43.244 3.007,-16.335 15.902,-28.979 32.217,-31.561 2.951,-0.467 5.92,-0.564 8.894,-0.118 -2.094,0.34 -4.208,0.588 -6.279,1.034 -18.39,3.962 -31.013,20.553 -29.884,39.231 1.184,19.588 18.412,34.947 38.02,33.895 16.599,-0.89 30.788,-12.504 34.847,-28.532 0.361,-1.425 0.675,-2.861 1.012,-4.292 0.155,0.271 0.185,0.533 0.18,0.793 C 2.274,-8.065 1.494,-3.962 0,0"
             style="fill:#2c3691;fill-opacity:1;fill-rule:nonzero;stroke:none"
             id="path120" />
        </g>
      </g>
    </g>
  </g>
</svg>
