<svg width="40" height="40" viewBox="0 0 40 40" fill="none" xmlns="http://www.w3.org/2000/svg">
<g clip-path="url(#clip0_286_778)">
<path fill-rule="evenodd" clip-rule="evenodd" d="M23.7284 4.74973C23.7857 4.74973 23.8425 4.73822 23.8954 4.71584C23.9484 4.69347 23.9966 4.66068 24.0371 4.61934C24.0776 4.578 24.1098 4.52893 24.1317 4.47491C24.1537 4.4209 24.165 4.36301 24.165 4.30455C24.165 4.24609 24.1537 4.1882 24.1317 4.13419C24.1098 4.08018 24.0776 4.0311 24.0371 3.98976C23.9966 3.94843 23.9484 3.91563 23.8954 3.89326C23.8425 3.87089 23.7857 3.85937 23.7284 3.85938C23.6126 3.85938 23.5015 3.90628 23.4196 3.98976C23.3377 4.07325 23.2917 4.18648 23.2917 4.30455C23.2917 4.42262 23.3377 4.53585 23.4196 4.61934C23.5015 4.70283 23.6126 4.74973 23.7284 4.74973Z" fill="#363636"/>
<path fill-rule="evenodd" clip-rule="evenodd" d="M17.7051 3.95533C17.7548 3.95598 17.8042 3.94664 17.8504 3.92783C17.8966 3.90902 17.9387 3.88112 17.9743 3.84572C18.0099 3.81032 18.0383 3.76811 18.058 3.7215C18.0776 3.6749 18.088 3.62481 18.0886 3.5741C18.0886 3.52404 18.0789 3.47446 18.0602 3.42821C18.0414 3.38196 18.0138 3.33993 17.9791 3.30453C17.9444 3.26913 17.9032 3.24105 17.8578 3.22189C17.8124 3.20273 17.7638 3.19287 17.7147 3.19287C17.6656 3.19287 17.617 3.20273 17.5716 3.22189C17.5263 3.24105 17.4851 3.26913 17.4503 3.30453C17.4156 3.33993 17.3881 3.38196 17.3693 3.42821C17.3505 3.47446 17.3408 3.52404 17.3408 3.5741C17.3421 3.67481 17.3819 3.77104 17.4517 3.84226C17.5216 3.91348 17.6159 3.95406 17.7147 3.95533H17.7051Z" fill="#363636"/>
<path fill-rule="evenodd" clip-rule="evenodd" d="M13.1796 13.375L12.9915 13.1832C13.5221 12.6741 14.0528 11.9116 14.1469 11.4615C14.1461 11.4183 14.1546 11.3753 14.1719 11.3358C14.1891 11.2963 14.2147 11.2611 14.2467 11.2328C14.2788 11.2044 14.3166 11.1836 14.3574 11.1718C14.3982 11.16 14.4411 11.1575 14.4829 11.1645C14.5248 11.1715 14.5647 11.1877 14.5997 11.2121C14.6347 11.2365 14.6641 11.2685 14.6856 11.3058C14.7072 11.343 14.7205 11.3847 14.7245 11.4277C14.7285 11.4708 14.7232 11.5142 14.709 11.555C14.5522 12.16 13.8647 12.861 13.1796 13.3701V13.375Z" fill="#363636"/>
<path fill-rule="evenodd" clip-rule="evenodd" d="M9.33938 4.11508C8.40343 4.52829 8.278 5.51457 8.93413 6.11961C9.71328 6.81813 11.0569 6.21554 10.9315 5.10136C11.9929 5.16531 12.6803 4.01916 12.5236 3.25424C12.9915 2.84104 13.0229 1.95068 12.4608 1.59897C11.8361 1.21774 11.274 1.35301 10.9001 2.07612C9.93521 2.01463 8.99684 2.77709 9.33938 4.11508L8.90277 3.92324C8.30935 2.61722 9.33938 1.31366 10.6106 1.63094C10.7059 1.42377 10.8435 1.23977 11.0143 1.09132C11.1851 0.942872 11.385 0.833401 11.6007 0.770265C11.8164 0.707128 12.0429 0.691788 12.2649 0.725273C12.4869 0.758759 12.6993 0.840295 12.8878 0.964406C13.7007 1.47353 13.8865 2.80907 13.0132 3.44609C13.4185 4.65618 12.5766 5.67444 11.3247 5.54654C11.1703 7.13787 9.73258 7.32725 8.76527 6.59677C8.3334 6.21944 8.04068 5.70321 7.93546 5.13334C7.81002 4.65618 7.81002 4.24052 7.3734 3.76337C7.09953 3.53946 6.75954 3.4164 6.4085 3.41411C6.4085 2.26796 5.37847 1.21774 4.06621 1.72686C3.59824 1.31366 3.00482 1.28169 2.59957 1.79081C2.51598 1.9023 2.45873 2.03193 2.43228 2.16965C2.40584 2.30736 2.41089 2.44944 2.44707 2.58483C2.48324 2.72023 2.54955 2.84529 2.64085 2.9503C2.73215 3.05531 2.84597 3.13744 2.97346 3.19029C2.9421 4.24052 3.72126 4.91198 4.87673 4.8136C4.90809 5.3547 5.5015 5.8958 6.06355 5.95974L6.02737 6.24751C5.46531 6.18356 5.15172 6.37295 4.77782 6.8501C3.43661 6.78615 2.49825 7.42317 2.52961 8.40945C2.34259 8.42836 2.16475 8.50135 2.01703 8.61982C1.86931 8.73829 1.75785 8.89731 1.69576 9.07818C1.63368 9.25904 1.62355 9.45423 1.66657 9.64077C1.70959 9.8273 1.80397 9.99743 1.93861 10.1311C2.0509 10.2502 2.19077 10.3385 2.34534 10.3879C2.4999 10.4373 2.66419 10.4463 2.82304 10.414C2.9819 10.3816 3.13021 10.309 3.2543 10.2028C3.37839 10.0967 3.47428 9.96036 3.5331 9.80647C4.498 9.99586 5.3447 9.29735 5.37606 8.50045C6.24929 8.50045 6.65455 8.11923 6.81135 7.29036L7.12253 7.32233C7.21661 8.21515 6.81135 9.07353 5.74996 8.97761C5.7186 10.0598 4.71993 10.6329 3.75262 10.2836C3.316 11.1469 2.28597 11.4667 1.4441 10.6378C1.25242 10.4622 1.11019 10.2376 1.03212 9.98717C0.954057 9.73677 0.942974 9.46965 1.00002 9.21342C1.05707 8.95719 1.18018 8.72113 1.35663 8.52964C1.53308 8.33815 1.75648 8.19816 2.00374 8.12414C2.00374 7.07392 2.78531 6.08764 4.25195 6.46887C4.30812 6.33292 4.39826 6.21437 4.51339 6.12504C4.62852 6.0357 4.76461 5.97871 4.90809 5.95974C4.76018 5.92173 4.62589 5.84168 4.52084 5.72891C4.41579 5.61614 4.3443 5.47529 4.31467 5.32272C4.06552 5.37937 3.80638 5.37101 3.56124 5.29841C3.3161 5.22581 3.09289 5.09133 2.91227 4.90741C2.73164 4.72349 2.59945 4.49608 2.52792 4.24623C2.4564 3.99638 2.44785 3.73217 2.50308 3.47806C1.50441 2.93696 1.47305 1.91871 1.97238 1.31366C2.47172 0.708613 3.3739 0.548742 4.12652 1.21774C5.47014 0.479875 6.93679 1.40958 6.84271 2.93942C7.77866 2.87547 8.34071 3.67728 8.21528 4.53075C8.26007 4.37284 8.3489 4.23159 8.47094 4.12418C8.59299 4.01677 8.74301 3.94781 8.90277 3.9257L9.33938 4.11754V4.11508Z" fill="#363636"/>
<path fill-rule="evenodd" clip-rule="evenodd" d="M11.6188 2.26807L11.8359 2.42794C11.3884 3.3705 10.7629 4.21382 9.99538 4.90962L9.75415 4.6858C10.2221 3.92334 11.2015 2.6493 11.6285 2.26807H11.6188Z" fill="#363636"/>
<path fill-rule="evenodd" clip-rule="evenodd" d="M5.18783 7.35938L5.31326 7.60533C4.68411 8.22283 3.98149 8.75744 3.22185 9.19666L3.03369 8.9507C3.65293 8.29354 4.38246 7.75461 5.18783 7.35938Z" fill="#363636"/>
<path fill-rule="evenodd" clip-rule="evenodd" d="M6.46888 4.62413L6.22766 4.94141C5.50398 4.46425 4.10488 3.19021 3.7937 2.71306L4.01322 2.4917C4.69829 2.84095 6.01056 4.05105 6.47853 4.62413H6.46888Z" fill="#363636"/>
<path fill-rule="evenodd" clip-rule="evenodd" d="M5.15653 16.7794C5.25061 17.195 5.15653 17.6722 5.53284 18.1174C5.95065 18.6821 6.40946 19.214 6.90541 19.7087C6.18173 19.994 4.78263 20.5991 3.78396 20.7269C3.55832 20.7761 3.34541 20.8733 3.15919 21.0123C2.99644 21.3412 2.89114 21.6966 2.84801 22.0625C2.81665 22.3822 2.81665 22.7315 2.81665 23.0807C2.85868 23.7757 3.02805 24.4564 3.31599 25.0877C3.65852 25.7543 4.00348 26.0715 4.40873 26.2634C4.59199 26.214 4.78137 26.1925 4.97079 26.1994C5.28016 26.1958 5.58643 26.2625 5.86728 26.3948C6.14813 26.5272 6.39648 26.7217 6.59423 26.9644C6.68589 27.1242 6.90541 27.1562 7.15387 27.1562C7.82012 27.1173 8.47395 26.9556 9.08367 26.679C9.23805 26.5831 9.61436 26.2954 9.98826 26.01C10.3622 25.7247 12.5163 23.8456 13.4522 23.4005C14.1172 23.7631 14.8531 23.9698 15.6064 24.0055C15.7318 24.023 15.8595 24.0121 15.9803 23.9735C16.2215 23.9096 16.5737 23.8137 17.0103 23.7276C17.6384 23.5883 18.2751 23.4929 18.916 23.4423C19.6011 23.4743 21.6298 23.5062 22.1291 23.5062C22.6284 23.5062 23.3352 23.4743 23.6271 23.4423C24.4137 23.2013 25.1874 22.9189 25.9453 22.5962C27.0525 22.0051 28.0983 21.3013 29.0667 20.4957C29.2176 20.3752 29.3537 20.2364 29.472 20.0825C29.5033 20.0186 29.5347 19.9866 29.5347 19.9546C29.5347 19.9227 29.5033 18.5871 29.5033 18.5871C29.5033 18.5871 29.9713 18.078 30.1595 17.8862V17.8222C30.0324 17.1948 29.9902 16.5527 30.034 15.9136L29.5974 15.7095C29.5583 16.589 29.3001 17.4439 28.8472 18.1936C28.1621 18.2895 26.8185 18.7027 26.3505 19.2758L26.6328 19.3398C27.0741 19.0624 27.5811 18.9128 28.0994 18.9069C28.5674 18.9069 28.7845 19.0348 28.7845 19.1528C28.758 19.2946 28.7167 19.4331 28.6615 19.566C28.6313 19.6607 28.5772 19.7455 28.5047 19.812C27.8515 20.5528 27.081 21.1763 26.2251 21.6567C25.5721 22.0206 24.8811 22.3085 24.165 22.515C23.8682 22.574 23.5762 22.6562 23.2918 22.761C22.9493 22.761 21.2004 22.697 20.1704 22.697C19.1403 22.697 17.0175 22.8569 16.3638 23.0143C16.0502 23.1102 15.9562 23.2381 15.6136 23.2381C14.9575 23.2381 14.0843 22.8889 13.5536 22.6331C13.3885 22.6711 13.2305 22.7359 13.0856 22.8249C12.7117 23.0143 11.8795 24.2244 11.3681 23.8432C11.1268 24.3843 10.0269 24.8614 9.67949 25.4025C9.70844 25.1566 10.1475 23.3021 10.1788 22.9209C10.1788 22.8569 10.2078 22.793 10.1475 22.729C9.77116 22.06 8.64705 21.6468 8.02469 21.5189C7.86789 21.4869 7.78347 21.455 7.64838 21.4255L6.65453 21.1721L5.74994 21.4599L6.81133 21.6493L5.47012 22.5716C5.71135 22.4781 7.15869 22.0625 7.24795 22.0305C7.38986 21.9837 7.54265 21.9837 7.68456 22.0305C7.90408 22.0945 8.43477 22.2224 8.77731 22.3502C9.02619 22.4921 9.23161 22.7015 9.37072 22.9553C9.40696 23.1616 9.42793 23.3705 9.43344 23.58C9.43137 23.859 9.39983 24.1368 9.33937 24.4089C9.21483 24.8944 9.02573 25.3603 8.77731 25.7936C8.73414 25.8935 8.66977 25.9824 8.58885 26.0538C8.50792 26.1253 8.41246 26.1775 8.30934 26.2068C7.98595 26.3593 7.63547 26.443 7.27931 26.4528C6.99949 26.4528 6.81133 26.4208 6.68589 26.2609C6.4315 25.9421 6.09693 25.6998 5.71793 25.5599C5.33894 25.42 4.92977 25.3877 4.53417 25.4665C3.97212 25.1172 3.41006 23.9908 3.41006 23.1102C3.45618 22.4889 3.59277 21.8779 3.81532 21.2976C4.71991 21.1697 6.56287 20.4687 7.43369 20.0678C7.62185 20.0678 8.15736 19.8784 8.63981 19.8784C9.82664 19.8784 11.0135 20.9286 11.7299 21.6591C11.828 21.4908 11.9704 21.3539 12.141 21.2639C12.3115 21.1739 12.5034 21.1345 12.6948 21.15C13.5367 21.15 14.036 21.9469 14.2555 22.7413L14.7114 22.4142C14.6213 21.9139 14.3938 21.4499 14.0553 21.0762C13.7029 20.7512 13.2513 20.5601 12.7768 20.5351C12.4946 20.5351 12.2461 20.599 12.0531 20.599C11.4597 20.599 11.2113 20.3137 10.7409 19.994C10.2705 19.6743 9.36831 19.1676 8.71218 19.1676C8.30692 19.1676 8.12118 19.3275 7.77623 19.3275C7.59326 19.3412 7.41032 19.3004 7.2497 19.21C7.08908 19.1196 6.95772 18.9835 6.87164 18.8183C6.60612 18.5796 6.35555 18.3241 6.12143 18.0534C6.00019 17.81 5.90632 17.5534 5.84161 17.2885L5.15412 16.7794H5.15653Z" fill="#363636"/>
<path fill-rule="evenodd" clip-rule="evenodd" d="M5.84392 17.2883C5.99162 17.4602 6.14782 17.6244 6.3119 17.7802C6.50006 17.9056 6.71716 18.0261 6.90531 18.1614C7.21649 18.3213 7.56144 18.5107 7.87021 18.6386C8.20981 18.7036 8.5547 18.7358 8.90024 18.7345C9.39958 18.7345 9.99299 18.6386 10.4923 18.8919C10.8349 19.0198 10.8349 19.401 11.1171 19.497C11.5224 19.6568 12.6465 19.6888 13.2712 19.6888C14.4136 19.6896 15.5532 19.5726 16.6725 19.3395L16.2986 18.8919C15.3262 19.0445 14.346 19.1406 13.3629 19.1797C12.3329 19.1797 11.3342 18.9878 11.3342 18.5746C11.3342 18.2573 11.6478 17.8097 12.2702 17.8097C12.8925 17.8097 13.925 18.2254 14.1131 18.3016C14.1744 18.322 14.239 18.3297 14.3032 18.3242C14.3674 18.3187 14.4299 18.3002 14.487 18.2696L14.8609 18.0778C14.3616 17.8318 12.5837 17.2194 11.9662 17.2194C11.8417 17.2015 11.7148 17.2186 11.5992 17.2689C11.4835 17.3192 11.3836 17.4007 11.3101 17.5047C11.093 17.822 10.4368 18.1098 9.43817 18.1098C8.92293 18.1047 8.40989 18.0404 7.90881 17.9179C7.45702 17.7098 7.02774 17.4543 6.62791 17.1555C6.14486 16.8323 5.73391 16.4091 5.42178 15.9134C5.32425 15.7859 5.26931 15.6299 5.26499 15.4682C5.26499 15.3403 5.3277 15.2444 5.3277 15.1509C5.41645 15.2709 5.52119 15.3777 5.63888 15.4682C6.22868 16.0311 6.96617 16.407 7.76166 16.5504C7.98558 16.6136 8.21681 16.6459 8.44915 16.6463C8.77533 16.6267 9.08439 16.4909 9.32239 16.2626L8.96537 15.8568C8.82149 15.8843 8.67501 15.8951 8.52876 15.8888C7.34193 15.8888 5.84392 15.1263 5.50139 14.2015C5.47003 14.1081 5.40731 14.0761 5.47003 13.9802C5.53274 13.8843 5.53274 13.7342 5.5641 13.567C5.62441 13.6285 5.78121 13.7564 5.938 13.8843C6.37462 14.1696 7.21649 14.5533 7.40465 14.6787C7.73786 14.5709 8.06081 14.4326 8.36955 14.2655C8.66861 14.1096 8.99864 14.0255 9.33445 14.0195C10.2077 14.0195 11.2088 14.5287 12.1447 15.0034L12.7695 14.7574C11.9252 14.1524 10.1474 13.3259 9.15112 13.3259C8.5577 13.3259 7.99565 13.7711 7.59039 13.7711C7.12 13.7711 5.74743 13.0726 5.74743 12.4995C5.74743 12.0519 6.62067 11.7986 8.08973 11.6387C7.8485 11.9904 7.59039 12.4036 7.36605 12.7848L7.73995 13.0087C9.98817 9.66614 12.3594 7.50174 14.3254 6.16621C14.8331 5.8821 15.2318 5.4314 15.4567 4.88725C16.0815 3.58369 16.6629 2.62692 17.6736 2.62692C17.8901 2.63549 18.1024 2.69104 18.2963 2.78986C18.4901 2.88868 18.661 3.0285 18.7977 3.2L19.5214 3.42382L18.7736 3.93294L19.5214 4.25022C18.8837 4.47105 18.2987 4.826 17.8042 5.29206C17.3097 5.75813 16.9167 6.32493 16.6508 6.95572C15.6208 6.9877 15.1214 7.87805 14.7789 8.57902C14.5377 9.08815 14.1855 9.27999 13.6234 9.62925L9.33927 12.6742L9.93268 12.7701L13.896 10.0646C14.6776 9.52349 15.0515 9.11029 15.2396 8.76103C15.5822 7.99611 15.9874 7.42304 16.769 7.42304C17.1917 7.4488 17.591 7.62964 17.8931 7.93216L18.5782 8.15598L17.8304 8.63313L18.4527 9.01436C16.6411 9.58744 15.5194 10.9254 14.8633 13.4711L15.3337 13.567C15.5455 12.7715 15.8491 12.0045 16.2383 11.2821C17.2997 11.2821 18.3611 11.2501 19.4225 11.2501C22.199 11.2501 24.5099 11.378 25.757 11.7272L25.3252 10.9574C23.984 10.7115 22.047 10.6057 19.4273 10.6057C18.5203 10.6057 17.6471 10.6377 16.7425 10.6377C17.492 9.89931 18.4174 9.37288 19.4273 9.11029L18.5155 8.60116L19.5141 8.02809L18.1416 7.51896C17.8931 7.25918 17.5806 7.07229 17.237 6.97786C17.6736 5.61035 19.1668 4.81346 20.6141 4.27236L19.6082 3.85915L20.6069 3.28608L19.0534 2.77695C18.893 2.55247 18.6813 2.37128 18.4366 2.24913C18.1919 2.12698 17.9218 2.06754 17.6495 2.07598C16.2021 2.07598 15.6208 3.35003 15.0274 4.4642C14.8387 4.97141 14.4866 5.39813 14.0287 5.6743C12.6272 6.62955 11.3329 7.7389 10.1691 8.98239C9.46471 8.47326 7.99806 6.94589 7.62416 6.11702C7.49295 6.31457 7.38753 6.52872 7.31057 6.75404C7.46737 6.91145 9.15353 8.63067 9.77589 9.39313C9.72429 9.44172 9.68035 9.49813 9.64563 9.56038C8.95814 9.68828 7.20926 9.88012 6.61584 9.7842L6.30466 10.3892C6.74128 10.3573 8.4588 10.1433 9.19936 10.1015C8.98226 10.3474 8.76274 10.6426 8.54564 10.9304C6.29743 11.1763 4.83078 11.6682 4.83078 12.4897C4.83078 12.6151 4.86214 12.775 4.86214 12.9349C4.87221 13.0675 4.84164 13.2 4.77466 13.3141C4.70769 13.4282 4.6076 13.5183 4.48824 13.5719C4.33145 13.6654 4.33145 13.7613 4.39416 13.8572C4.55944 14.0737 4.70252 14.307 4.82113 14.5533C4.82113 14.7426 4.66434 14.9025 4.54131 15.0624C4.41829 15.2223 4.41587 15.2198 4.50995 15.3797L5.16367 16.7792L5.85116 17.2883H5.84392Z" fill="#363636"/>
<path fill-rule="evenodd" clip-rule="evenodd" d="M33.4667 9.49145C33.3437 9.61935 33.2255 9.81119 33.0928 9.9686L32.7502 9.45948C33.9347 7.83617 37.1188 7.07372 38.9931 6.91384V6.05546C38.7519 6.11941 38.4938 6.21533 38.2429 6.27682C37.9594 6.36188 37.6653 6.40496 37.3697 6.40472C37.2585 6.41722 37.1461 6.40128 37.0425 6.35834C36.9388 6.3154 36.8474 6.24681 36.7763 6.15876C36.5351 5.80705 36.7763 5.26595 37.5868 4.75682L36.9331 4.18375C36.4338 4.85275 35.9682 5.58569 35.464 5.99889C34.9599 6.4121 34.5281 6.60394 34.1542 6.31617C33.9347 6.15876 33.8744 6.09482 33.843 5.68161C33.9426 4.93432 34.1748 4.21175 34.5281 3.54919L33.7803 3.45326C33.6524 4.28673 33.3425 5.08024 32.8733 5.77508C32.4332 6.50762 31.8361 7.12903 31.1268 7.59268L30.6902 7.17948C31.342 6.80117 31.8999 6.27524 32.3209 5.64226C32.8516 4.81339 33.2858 3.79514 33.2858 2.90479L35.4689 3.09663C35.0446 3.69995 34.7082 4.3627 34.4702 5.06427C34.3785 5.41352 34.3785 5.70129 34.5015 5.80213C34.7211 5.962 35.1263 5.67669 35.5316 5.26103C36.0175 4.66475 36.4662 4.03797 36.8752 3.3844L38.4986 4.71993C37.775 5.10362 37.0923 5.5488 37.2177 5.80213C37.3432 6.05546 37.8111 5.962 38.3105 5.80213C38.7274 5.67498 39.1264 5.49309 39.4973 5.26103V7.4574C38.3651 7.48609 37.2416 7.66805 36.1563 7.9985C36.4699 8.41171 37.3118 8.57158 37.8449 8.6675L37.6037 10.4482C36.315 9.82772 34.9087 9.50202 33.4836 9.49391L34.0456 8.98478C35.1361 9.02274 36.2081 9.28282 37.1984 9.7497L37.2925 9.0807C36.6677 8.98478 35.8886 8.63553 35.5436 8.22232C35.0122 8.4049 34.5081 8.66148 34.0456 8.98478L33.4836 9.49391L33.4667 9.49145Z" fill="#363636"/>
<path fill-rule="evenodd" clip-rule="evenodd" d="M26.9124 15.1587L27.4118 14.0126C26.8089 13.2884 26.256 12.5225 25.757 11.7203L25.3252 10.9578C24.2952 8.99021 24.6691 8.02853 24.1384 7.13817C23.6704 6.4372 21.4849 6.89222 21.1424 6.94633L21.7671 5.8961L20.5176 5.99202L21.579 4.71798C21.7159 4.48251 21.8114 4.22448 21.8612 3.95552C22.0469 3.25455 22.609 2.1084 24.2952 2.1084C26.1381 2.1084 26.7291 3.63578 27.5107 4.30477C28.4466 5.06969 29.6335 6.11992 30.6949 7.17014L31.1266 7.59319C31.7066 8.1827 32.2488 8.80953 32.7501 9.46982L33.0926 9.97895C35.3408 13.2895 38.086 19.6228 39.3355 22.5226C39.4296 22.8079 39.5237 23.0932 39.6153 23.3171C38.7727 22.8366 37.8689 22.2595 36.904 21.5855L36.3733 21.2043L35.3433 20.4394L34.7812 19.9622C34.4342 19.705 34.1008 19.4292 33.7825 19.1358L34.9042 25.7225C34.9669 26.1382 35.3119 26.0742 35.5604 25.7225C35.8088 25.3708 35.9367 25.2773 35.8016 24.8321L34.7716 19.9622L35.3336 20.4394L36.3323 24.5468C36.4264 24.9281 36.5735 25.056 37.0174 25.056C37.4612 25.056 37.5167 24.9281 37.4564 24.6403L36.3636 21.1969L36.8943 21.5782L37.9244 24.6649C38.2042 25.4618 37.9244 25.5577 37.4564 25.5577C36.9884 25.5577 36.5807 25.4298 36.3323 25.5897C36.0838 25.7496 35.7702 26.2242 35.3674 26.6079C35.0538 26.9572 34.5544 26.8932 34.4604 26.2242L33.2132 18.6193C32.4251 17.8957 31.6747 17.1306 30.965 16.327C30.6852 16.2016 30.3403 16.0417 30.0291 15.9138L29.5973 15.7097C29.4091 15.6162 29.2837 15.5843 29.2523 15.5523C28.9314 15.9837 28.5773 16.3883 28.1934 16.7624C28.1167 16.8545 28.0208 16.9279 27.9127 16.9772C27.8046 17.0266 27.687 17.0507 27.5686 17.0477C27.4602 17.0576 27.3513 17.0354 27.255 16.9837C27.112 16.8871 26.9943 16.7562 26.9124 16.6025C26.8184 16.4746 26.6929 16.2828 26.5699 16.0934C26.3287 15.6802 26.0706 15.1391 25.8197 14.7234C25.5785 14.2463 25.3204 13.897 25.289 13.8331C25.2526 13.7572 25.1988 13.6914 25.1322 13.6412C24.974 13.8993 24.8904 14.1977 24.891 14.5021L24.4544 14.3422C24.4901 14.0244 24.5714 13.7136 24.6956 13.4199C24.6885 13.3263 24.652 13.2375 24.5916 13.1667C24.5313 13.0958 24.4502 13.0466 24.3603 13.0263C24.1408 13.0263 23.9237 13.2477 23.8296 13.6929L23.3616 13.9167C23.3954 13.1837 23.6366 12.3893 24.3603 12.3893C24.9223 12.3893 25.2962 12.8345 25.5471 13.2477C25.798 13.6609 26.7315 14.903 26.9197 15.1587L27.255 15.6039C27.2972 15.7996 27.3794 15.984 27.4962 16.145C27.6216 16.3344 27.7374 16.3344 27.9328 16.145C28.1536 15.9686 28.3623 15.7772 28.5576 15.572C28.7488 15.3611 28.926 15.1376 29.0883 14.903C29.3295 14.9989 29.8361 15.2522 30.2124 15.4121C28.5576 13.3116 26.9342 10.766 26.2467 9.04678C25.9668 8.30891 26.5289 8.09247 26.7774 8.80082C27.5276 10.7094 29.6721 14.1159 31.2738 15.8966C33.0926 17.9233 36.4336 20.919 38.6167 22.1045C38.3055 21.4699 37.893 20.5771 37.4106 19.5269C34.7571 17.9995 32.1036 15.1981 30.8541 12.7804L31.3848 12.8443C32.5402 14.9448 35.3191 17.7462 36.9739 18.5406C35.4735 15.294 33.5075 11.189 32.0095 9.4403C30.4753 7.72511 28.8166 6.1301 27.0475 4.66879C26.0826 3.77597 25.6726 2.70115 24.3 2.70115C23.1445 2.70115 22.5222 3.56199 22.3026 4.3884C22.2596 4.54465 22.1963 4.69436 22.1145 4.83358L21.5524 5.50257L22.7393 5.37468L22.0518 6.32898C22.0518 6.32898 23.8778 5.8961 24.5412 6.78646C25.2263 7.74322 24.7824 8.82542 25.9451 10.9677C26.5546 12.0211 27.2657 13.0098 28.0679 13.9191L27.255 15.6039L26.9124 15.1587Z" fill="#363636"/>
<path fill-rule="evenodd" clip-rule="evenodd" d="M8.74589 15.4438L8.46606 15.2519C8.70453 15.0593 8.96642 14.8989 9.24522 14.7748C9.39462 14.7155 9.55294 14.6831 9.7132 14.6789C10.0161 14.6928 10.309 14.7943 10.5575 14.9715C10.9627 15.1929 11.4307 15.4487 11.8046 15.4487C11.9301 15.4487 12.0458 15.4167 12.2123 15.4167C12.5862 15.4167 12.936 15.5766 13.1169 15.5766C13.2423 15.5766 13.3026 15.4807 13.3967 15.3528C13.5943 15.0577 13.8791 14.8345 14.2096 14.7157C14.6169 14.5554 15.0517 14.4801 15.4881 14.4944C15.8022 14.4985 16.1154 14.5306 16.4241 14.5903C16.4241 14.5903 16.1442 14.9396 16.0815 15.0355C15.6763 15.0355 14.9574 15.0035 14.4894 15.1929C14.3722 15.2238 14.2685 15.2939 14.195 15.392C14.1215 15.4901 14.0825 15.6105 14.0842 15.734C14.0842 16.0857 14.4894 16.2431 14.8947 16.371C15.1512 16.4307 15.4132 16.4629 15.6763 16.4669C16.1646 16.4259 16.6487 16.3436 17.1236 16.221C17.6304 16.1255 18.1307 15.9973 18.6216 15.8373L18.8629 16.2825C18.1295 16.5498 17.3781 16.7627 16.6146 16.9195C16.247 17.0156 15.8699 17.0692 15.4905 17.0794C14.8889 17.0414 14.303 16.8675 13.7754 16.5702C13.3364 16.3784 12.9625 16.157 12.5886 16.157C12.1991 16.1646 11.8199 16.2858 11.4958 16.5063C11.1138 16.7534 10.7174 16.9768 10.309 17.1753C9.98069 17.3088 9.63225 17.3837 9.27899 17.3966C9.03273 17.4093 8.78978 17.3346 8.5915 17.1851L9.1632 16.8433C9.24678 16.8993 9.34319 16.9324 9.44302 16.9392C9.58519 16.9248 9.72304 16.8813 9.84828 16.8113C10 16.751 10.1461 16.6769 10.2849 16.5899C10.5044 16.43 10.5671 16.344 10.6612 16.2702C10.7083 16.2488 10.7488 16.2147 10.7782 16.1715C10.8076 16.1283 10.8249 16.0778 10.8281 16.0253C10.8314 15.9728 10.8205 15.9205 10.7966 15.8739C10.7726 15.8273 10.7367 15.7883 10.6926 15.7611C10.5671 15.6676 10.4731 15.5717 10.3476 15.4757C10.1382 15.3198 9.88306 15.2409 9.62394 15.2519C9.32091 15.2401 9.01983 15.3061 8.7483 15.4438H8.74589Z" fill="#363636"/>
<path fill-rule="evenodd" clip-rule="evenodd" d="M16.6749 15.6677C16.5317 15.6256 16.3858 15.5936 16.2383 15.5717C16.446 15.2855 16.6987 15.0362 16.9861 14.8339C17.4832 14.4855 18.0714 14.297 18.6747 14.2928C18.9426 14.2562 19.2125 14.2365 19.4828 14.2337C19.7023 14.2657 20.0448 14.2657 20.3584 14.3297C20.5755 14.3616 20.795 14.4256 20.9832 14.4576C21.1789 14.4896 21.3784 14.4896 21.5742 14.4576C22.0841 14.3768 22.5793 14.2184 23.0432 13.9878L23.1663 14.4797C22.4812 14.8609 21.6996 15.2176 20.9518 15.2176C20.6069 15.2176 20.2016 15.1856 19.8277 15.1561C19.2029 15.0921 18.6409 14.9962 18.4527 14.9962C17.8064 15.0256 17.185 15.2595 16.6749 15.6652V15.6677Z" fill="#363636"/>
<path fill-rule="evenodd" clip-rule="evenodd" d="M16.1757 18.4985L15.5195 18.1812C16.4376 17.7351 17.4011 17.3937 18.3925 17.163C18.9275 17.0994 19.4584 17.0033 19.9822 16.8752C20.1703 17.3204 20.5129 17.768 20.9833 17.768C21.2537 17.7265 21.5163 17.6436 21.7624 17.5221C22.105 17.3622 22.4186 17.2048 22.6043 17.1408C22.79 17.0769 23.3859 16.7891 23.9166 16.5358C24.1023 16.4399 24.6402 16.1865 24.6644 16.1865L25.0093 16.3759C24.8997 16.8675 24.7429 17.347 24.5413 17.8074C24.4822 17.9431 24.4085 18.0717 24.3218 18.1911C24.099 18.4242 23.8569 18.6374 23.5981 18.8281C23.2092 19.1032 22.8067 19.3577 22.392 19.5905C22.0481 19.8 21.6939 19.9913 21.3306 20.1636L21.1738 19.8144C21.7229 19.4825 22.2543 19.1213 22.7659 18.7322C22.9759 18.5777 23.1742 18.4076 23.3593 18.223C23.4573 18.1439 23.5392 18.0462 23.6006 17.9353C23.7961 17.6824 23.9582 17.4046 24.083 17.1089C23.8635 17.2048 23.1181 17.586 22.7707 17.7459C22.3655 17.9672 21.7407 18.287 21.3668 18.4837C21.1503 18.595 20.9121 18.6555 20.6697 18.6608C20.5218 18.659 20.3777 18.6127 20.2554 18.5279C20.1332 18.443 20.0381 18.3233 19.9822 18.1837C19.741 17.7385 19.4829 17.7065 18.7761 17.7065C17.8553 17.7102 16.9553 17.9862 16.1853 18.501L16.1757 18.4985Z" fill="#363636"/>
<path fill-rule="evenodd" clip-rule="evenodd" d="M20.0184 16.3979C20.0184 16.3979 19.9267 16.0166 19.864 15.8568C19.9558 15.8355 20.0497 15.8247 20.1438 15.8248C20.3633 15.8248 20.9881 15.8887 21.2366 15.8887C22.1725 15.8887 22.5175 15.6034 22.7973 15.3476C22.9455 15.2018 23.1222 15.0896 23.316 15.0184C23.5097 14.9472 23.7161 14.9185 23.9214 14.9344C24.4045 14.9517 24.8804 15.0592 25.3253 15.2517L25.294 15.7928C24.9852 15.6306 24.6427 15.5462 24.2953 15.5469C24.0927 15.5266 23.8884 15.5597 23.7019 15.6428C23.5488 15.749 23.4029 15.8657 23.2653 15.9921C23.0556 16.1526 22.8239 16.281 22.5778 16.3733C22.1931 16.5215 21.7824 16.5868 21.3717 16.5651C20.916 16.559 20.4623 16.5029 20.0184 16.3979Z" fill="#363636"/>
<path fill-rule="evenodd" clip-rule="evenodd" d="M14.0215 20.3828L14.4702 20.186C14.9058 20.3809 15.3707 20.499 15.8451 20.5353C16.0461 20.5241 16.2429 20.4722 16.4241 20.3828C16.5495 20.3188 18.0162 19.5859 18.735 19.3325C18.9126 19.2556 19.102 19.2106 19.2947 19.1997C19.4804 19.1997 19.4804 19.2637 19.5359 19.3596C19.6613 19.5809 20.742 21.1403 20.8481 21.2362C21.7527 20.9485 22.6887 20.5353 23.2194 20.0261C23.7501 19.517 24.2494 18.848 24.7174 18.3389C24.8587 18.1803 25.0192 18.0406 25.195 17.9232C25.663 17.6773 27.1248 17.6379 27.723 17.6773L27.3805 18.1864C26.2878 18.1864 25.6919 18.3143 25.4145 18.5037C25.2555 18.6609 25.1095 18.8312 24.9779 19.0128C24.604 19.4899 24.1963 20.1589 24.042 20.2868C24.3875 20.5579 24.8121 20.7034 25.2481 20.7C26.1527 20.7 26.8088 20.127 27.1538 19.8097L27.4649 19.9671C27.2431 20.2885 26.969 20.5689 26.6544 20.796C26.3178 21.0171 25.9513 21.1869 25.5665 21.3002C25.0358 21.2043 23.8779 20.9485 23.5981 20.9189C22.5994 21.3321 20.9446 21.9987 20.4164 22.1487C20.2952 22.1909 20.1681 22.2125 20.04 22.2127C19.5098 22.2448 18.9782 22.2448 18.448 22.2127C18.1356 22.2216 17.8231 22.2109 17.512 22.1807L17.0127 21.6716C17.3398 21.7495 17.6757 21.7818 18.0113 21.7675C18.6046 21.7709 19.1965 21.7099 19.7771 21.5855C19.9653 21.5215 19.9942 21.4281 19.9339 21.2682C19.8279 20.9995 19.6797 20.7503 19.4949 20.5303C19.3478 20.3824 19.1915 20.2444 19.0269 20.1171C18.9039 20.0212 18.7857 19.9892 18.4045 20.1171C17.793 20.3869 17.1985 20.6949 16.6243 21.0395C16.3826 21.1633 16.1031 21.1862 15.8451 21.1034C15.2126 20.938 14.6037 20.69 14.0335 20.3655L14.0215 20.3828Z" fill="#363636"/>
<path fill-rule="evenodd" clip-rule="evenodd" d="M16.8631 8.79306C16.9602 8.7856 17.0515 8.74272 17.1202 8.67225C17.1888 8.60179 17.2303 8.50846 17.237 8.40937C17.2351 8.30885 17.1951 8.21298 17.1254 8.14189C17.0557 8.0708 16.9617 8.03003 16.8631 8.02814C16.8133 8.02608 16.7637 8.03451 16.7173 8.0529C16.6709 8.0713 16.6287 8.09927 16.5934 8.13505C16.5581 8.17084 16.5304 8.21367 16.512 8.26087C16.4937 8.30807 16.4851 8.35862 16.4868 8.40937C16.488 8.51073 16.5281 8.60758 16.5984 8.67927C16.6687 8.75095 16.7637 8.79178 16.8631 8.79306Z" fill="#363636"/>
<path fill-rule="evenodd" clip-rule="evenodd" d="M31.0015 30.7839C30.9958 30.6366 30.9338 30.4975 30.8288 30.3964C30.7237 30.2952 30.5839 30.2401 30.4394 30.2428H29.6675C29.523 30.2401 29.3833 30.2952 29.2782 30.3964C29.1731 30.4975 29.1111 30.6366 29.1055 30.7839L29.1368 39.3111C29.1359 39.3824 29.1489 39.4533 29.1752 39.5194C29.2016 39.5855 29.2406 39.6455 29.2901 39.6959C29.3396 39.7464 29.3985 39.7862 29.4633 39.813C29.5281 39.8399 29.5976 39.8532 29.6675 39.8522H30.4467C30.5912 39.8549 30.7309 39.7998 30.836 39.6986C30.9411 39.5974 31.0031 39.4583 31.0087 39.3111V30.7839H31.0015Z" fill="#363636"/>
<path fill-rule="evenodd" clip-rule="evenodd" d="M32 31.0371V31.4208C31.9979 31.4633 32.0046 31.5057 32.0196 31.5453C32.0347 31.5849 32.0578 31.6209 32.0873 31.6508C32.1169 31.6808 32.1524 31.704 32.1914 31.719C32.2303 31.7341 32.272 31.7406 32.3136 31.7381H37.8063C37.9292 31.7344 38.0462 31.6829 38.1332 31.5942C38.2202 31.5056 38.2706 31.3863 38.2743 31.261V30.592C38.2752 30.529 38.2638 30.4665 38.2406 30.4082C38.2175 30.3498 38.183 30.2968 38.1394 30.2523C38.0957 30.2078 38.0437 30.1727 37.9865 30.1491C37.9293 30.1255 37.868 30.1138 37.8063 30.1148C37.8063 30.1148 32.4993 30.6559 32.3136 30.6879C32.2702 30.6888 32.2274 30.6986 32.1878 30.7169C32.1483 30.7351 32.1128 30.7614 32.0835 30.794C32.0541 30.8267 32.0316 30.8651 32.0173 30.9069C32.0029 30.9486 31.9971 30.993 32 31.0371Z" fill="#363636"/>
<path fill-rule="evenodd" clip-rule="evenodd" d="M27.5375 39.8521C27.2474 39.8629 26.9583 39.8133 26.6876 39.7064C26.4169 39.5996 26.1704 39.4377 25.963 39.2306C25.7556 39.0235 25.5917 38.7756 25.4813 38.5019C25.3709 38.2282 25.3162 37.9345 25.3207 37.6386V34.2198H24.9154C24.8183 34.2134 24.7268 34.1712 24.658 34.101C24.5892 34.0309 24.5478 33.9376 24.5415 33.8386V33.2655C24.5421 33.1646 24.5817 33.068 24.6517 32.9966C24.7217 32.9253 24.8164 32.8849 24.9154 32.8843H25.3255V30.7838C25.3248 30.7126 25.3381 30.6419 25.3646 30.576C25.391 30.51 25.4301 30.4501 25.4795 30.3997C25.5289 30.3493 25.5877 30.3095 25.6523 30.2826C25.717 30.2556 25.7863 30.242 25.8562 30.2427H26.6377C26.7738 30.2485 26.9023 30.3083 26.9956 30.4095C27.0889 30.5106 27.1397 30.645 27.1371 30.7838V32.8843H28.3432C28.393 32.8818 28.4428 32.89 28.4894 32.9083C28.536 32.9265 28.5783 32.9545 28.6137 32.9903C28.6491 33.0262 28.6768 33.0692 28.695 33.1166C28.7132 33.1639 28.7216 33.2146 28.7195 33.2655V33.8386C28.7183 33.9397 28.6781 34.0363 28.6078 34.1076C28.5374 34.1789 28.4424 34.2191 28.3432 34.2198H27.1371V37.3705C27.1274 37.5109 27.1474 37.6518 27.1958 37.7837C27.2441 37.9156 27.3197 38.0354 27.4173 38.1349C27.515 38.2345 27.6324 38.3115 27.7618 38.3608C27.8911 38.4101 28.0294 38.4305 28.1671 38.4207H28.2901C28.3439 38.4183 28.3976 38.4272 28.4479 38.4467C28.4981 38.4663 28.544 38.496 28.5826 38.5343C28.6212 38.5725 28.6518 38.6183 28.6724 38.669C28.6931 38.7197 28.7033 38.7741 28.7026 38.829V39.434C28.7008 39.5434 28.6571 39.6478 28.581 39.7249C28.5049 39.8021 28.4023 39.846 28.295 39.8472L27.5375 39.8521Z" fill="#363636"/>
<path fill-rule="evenodd" clip-rule="evenodd" d="M18.173 36.2562C18.173 34.4436 17.1116 32.6284 14.709 32.6284C12.4921 32.6284 11.2739 34.4116 11.2739 36.2562C11.2739 38.2239 12.5862 39.98 14.7403 39.98C16.207 39.98 17.635 39.2175 17.9245 37.9115C17.9316 37.8632 17.929 37.814 17.917 37.7667C17.9049 37.7195 17.8836 37.6752 17.8543 37.6366C17.825 37.598 17.7883 37.5659 17.7465 37.5421C17.7046 37.5183 17.6585 37.5034 17.6109 37.4983H16.5495C16.462 37.4969 16.3757 37.5189 16.2991 37.5621C16.2225 37.6052 16.1583 37.668 16.1129 37.7443C15.9597 37.9666 15.753 38.145 15.5126 38.2621C15.2722 38.3793 15.0062 38.4314 14.7403 38.4133C14.3262 38.4159 13.927 38.2563 13.6249 37.9676C13.3228 37.6788 13.141 37.2828 13.1169 36.8613H17.5795C17.66 36.8722 17.7418 36.8641 17.8187 36.8376C17.8956 36.811 17.9655 36.7668 18.0228 36.7083C18.0802 36.6497 18.1236 36.5785 18.1497 36.5001C18.1757 36.4217 18.1837 36.3383 18.173 36.2562ZM13.1482 35.4938C13.1881 35.103 13.3708 34.7417 13.66 34.482C13.9492 34.2222 14.3237 34.0829 14.709 34.0919C15.1011 34.0819 15.4831 34.2192 15.7825 34.4777C16.0818 34.7362 16.2775 35.0978 16.3324 35.4938H13.1482Z" fill="#363636"/>
<path fill-rule="evenodd" clip-rule="evenodd" d="M38.4625 36.2562C38.4625 34.4436 37.4011 32.6284 34.9961 32.6284C32.7817 32.6284 31.5635 34.4116 31.5635 36.2562C31.5635 38.2239 32.8733 39.98 35.0275 39.98C36.4941 39.98 37.9222 39.2175 38.2116 37.9115C38.2191 37.8634 38.2169 37.8142 38.2051 37.767C38.1933 37.7197 38.1722 37.6754 38.1431 37.6368C38.114 37.5981 38.0775 37.5659 38.0357 37.5421C37.994 37.5183 37.948 37.5034 37.9004 37.4983H36.8391C36.7515 37.4964 36.665 37.5182 36.5883 37.5614C36.5116 37.6046 36.4475 37.6677 36.4024 37.7443C36.2446 37.9701 36.0321 38.1504 35.7857 38.2676C35.5392 38.3848 35.2672 38.435 34.9961 38.4133C34.5857 38.4094 34.1923 38.2458 33.8964 37.9559C33.6004 37.666 33.4243 37.2718 33.404 36.8539H37.8691C37.9495 36.8648 38.0314 36.8567 38.1083 36.8302C38.1852 36.8036 38.255 36.7594 38.3124 36.7009C38.3698 36.6424 38.4132 36.5711 38.4392 36.4927C38.4653 36.4144 38.4732 36.3309 38.4625 36.2489V36.2562ZM33.4354 35.4938C33.4891 35.1065 33.6781 34.752 33.9678 34.4955C34.2574 34.239 34.6281 34.0978 35.0118 34.0978C35.3954 34.0978 35.7661 34.239 36.0558 34.4955C36.3454 34.752 36.5345 35.1065 36.5882 35.4938H33.4354Z" fill="#363636"/>
<path fill-rule="evenodd" clip-rule="evenodd" d="M23.8225 30.3387H9.40452C9.24755 30.3387 9.09698 30.4021 8.98576 30.515C8.87455 30.628 8.81175 30.7812 8.81111 30.9413L8.84247 36.7335C8.84247 36.7335 5.74997 31.0052 5.59317 30.7125C5.49785 30.5462 5.36105 30.4085 5.19667 30.3135C5.03229 30.2184 4.84617 30.1694 4.65722 30.1714H3.47281C3.39519 30.1727 3.31858 30.1896 3.24736 30.2211C3.17614 30.2525 3.11169 30.298 3.05771 30.3549C3.00372 30.4117 2.96125 30.4789 2.93273 30.5525C2.9042 30.6261 2.89018 30.7047 2.89145 30.7839V39.2496C2.88874 39.3297 2.90226 39.4095 2.93115 39.484C2.96004 39.5586 3.0037 39.6262 3.05939 39.6828C3.11507 39.7393 3.1816 39.7835 3.25481 39.8127C3.32801 39.8419 3.40633 39.8553 3.48487 39.8522H4.23266C4.31071 39.8543 4.38834 39.8401 4.46082 39.8105C4.53329 39.7809 4.59909 39.7365 4.65418 39.6801C4.70927 39.6237 4.7525 39.5564 4.78123 39.4824C4.80995 39.4084 4.82357 39.3292 4.82125 39.2496L4.78989 33.3295C4.78989 33.3295 7.9041 39.0898 8.0609 39.321C8.14445 39.4905 8.2743 39.6318 8.4348 39.7278C8.59529 39.8238 8.77959 39.8704 8.96549 39.8621H10.0582C10.1367 39.8648 10.2148 39.8511 10.2879 39.8218C10.3609 39.7925 10.4273 39.7483 10.4829 39.6918C10.5385 39.6353 10.5822 39.5678 10.6112 39.4935C10.6402 39.4191 10.654 39.3395 10.6517 39.2595V31.7702H23.8225C23.9294 31.7683 24.0314 31.7241 24.107 31.647C24.1826 31.5699 24.2259 31.4659 24.2278 31.3569V30.7519C24.2265 30.6427 24.1834 30.5383 24.1077 30.4611C24.032 30.3839 23.9296 30.34 23.8225 30.3387Z" fill="#363636"/>
<path fill-rule="evenodd" clip-rule="evenodd" d="M21.4826 34.0304C22.1049 34.0304 22.5729 34.2517 22.761 34.6649C22.8238 34.8568 22.9806 34.8887 23.1977 34.8887H24.0733C24.154 34.883 24.2299 34.8477 24.2871 34.7894C24.3443 34.7311 24.3789 34.6537 24.3845 34.5715C24.3845 33.5508 23.1784 32.6284 21.4898 32.6284C19.7409 32.6284 18.5951 33.4893 18.5951 34.8248C18.5951 35.875 19.408 36.4801 20.3753 36.7654C20.8433 36.8613 21.6225 37.0531 21.9988 37.181C22.3751 37.3089 22.7466 37.4024 22.7466 37.7517C22.7466 38.3247 22.1845 38.4895 21.5405 38.4895C20.947 38.4895 20.3536 38.2436 20.1968 37.7886C20.1028 37.5426 19.917 37.5032 19.6661 37.5032H18.7664C18.6787 37.5093 18.596 37.5471 18.5333 37.6098C18.4705 37.6724 18.4317 37.7559 18.4238 37.8451V37.973C18.4238 38.9568 19.7337 39.9775 21.5429 39.9775C22.7924 39.9775 24.5726 39.4364 24.5726 37.7197C24.5726 36.699 23.9165 35.998 22.8238 35.7127C22.4185 35.6192 21.4198 35.3315 21.2003 35.2995C20.7951 35.1716 20.4212 35.0535 20.4212 34.7264C20.4212 34.1853 20.8891 34.0279 21.4826 34.0279V34.0304Z" fill="#363636"/>
</g>
<defs>
<clipPath id="clip0_286_778">
<rect width="38.6538" height="39.274" fill="white" transform="translate(0.96167 0.706055)"/>
</clipPath>
</defs>
</svg>
