<svg width="50" height="33" viewBox="0 0 50 33" fill="none" xmlns="http://www.w3.org/2000/svg">
<path d="M5.39793 10.4045H22.7275L19.8866 13.2785C19.8028 13.3574 19.7357 13.4526 19.6891 13.5583C19.6425 13.6641 19.6175 13.7783 19.6154 13.894C19.6134 14.0098 19.6345 14.1248 19.6773 14.2321C19.7202 14.3395 19.784 14.437 19.8649 14.5189C19.9459 14.6008 20.0423 14.6653 20.1484 14.7087C20.2545 14.752 20.3682 14.7733 20.4826 14.7713C20.597 14.7693 20.7099 14.7439 20.8144 14.6968C20.919 14.6497 21.0131 14.5817 21.0911 14.497L24.915 10.6287C25.0746 10.467 25.1642 10.2479 25.1642 10.0194C25.1642 9.79091 25.0746 9.57177 24.915 9.41011L21.0911 5.54177C21.0105 5.46176 20.9152 5.39858 20.8104 5.35586C20.7057 5.31313 20.5937 5.2917 20.4808 5.29276C20.3679 5.29383 20.2563 5.31738 20.1524 5.36208C20.0485 5.40678 19.9543 5.47174 19.8752 5.55326C19.7961 5.63478 19.7337 5.73127 19.6914 5.8372C19.6492 5.94314 19.628 6.05645 19.6291 6.17067C19.6301 6.28489 19.6534 6.39778 19.6976 6.5029C19.7418 6.60802 19.806 6.7033 19.8866 6.78332L21.7616 8.68013H5.39793C5.17189 8.68013 4.95511 8.77096 4.79528 8.93265C4.63545 9.09435 4.54565 9.31365 4.54565 9.54231C4.54565 9.77098 4.63545 9.99028 4.79528 10.152C4.95511 10.3137 5.17189 10.4045 5.39793 10.4045Z" fill="#DC0C1C"/>
<path d="M23.8638 18.7392C23.8638 18.5106 23.774 18.2912 23.6142 18.1296C23.4544 17.9679 23.2376 17.877 23.0115 17.877H5.73882L8.52291 15.0663C8.60163 14.9855 8.66385 14.8899 8.70603 14.7848C8.7482 14.6797 8.7695 14.5672 8.76871 14.4538C8.76791 14.3404 8.74505 14.2282 8.70141 14.1237C8.65778 14.0193 8.59422 13.9245 8.51439 13.8449C8.43455 13.7652 8.33999 13.7023 8.2361 13.6596C8.13222 13.617 8.02104 13.5954 7.90893 13.5962C7.79681 13.597 7.68595 13.6201 7.58267 13.6643C7.47939 13.7084 7.38572 13.7727 7.307 13.8535L3.48314 17.7218C3.32353 17.8835 3.23389 18.1026 3.23389 18.3311C3.23389 18.5596 3.32353 18.7787 3.48314 18.9404L7.307 22.8087C7.46749 22.9719 7.68545 23.0638 7.91295 23.0643C8.14044 23.0649 8.35883 22.974 8.52007 22.8116C8.68131 22.6493 8.77219 22.4288 8.77272 22.1986C8.77326 21.9685 8.6834 21.7475 8.52291 21.5844L6.557 19.6014H23.0343C23.2563 19.5954 23.4673 19.5019 23.6223 19.3409C23.7772 19.1798 23.8639 18.964 23.8638 18.7392Z" fill="#DC0C1C"/>
<path d="M49.1477 16.1523H44.8864V8.96737C44.8864 8.7387 44.7966 8.5194 44.6367 8.35771C44.4769 8.19602 44.2601 8.10518 44.0341 8.10518H30.6818V0.920292C30.6818 0.691626 30.592 0.472326 30.4322 0.310635C30.2724 0.148943 30.0556 0.0581055 29.8295 0.0581055H0.852273C0.626236 0.0581055 0.409457 0.148943 0.249625 0.310635C0.0897927 0.472326 0 0.691626 0 0.920292V27.9355C0 28.1642 0.0897927 28.3835 0.249625 28.5451C0.409457 28.7068 0.626236 28.7977 0.852273 28.7977H7.34091C7.45693 29.875 7.96216 30.8711 8.75963 31.5947C9.55711 32.3184 10.5907 32.7186 11.6619 32.7186C12.7332 32.7186 13.7668 32.3184 14.5642 31.5947C15.3617 30.8711 15.8669 29.875 15.983 28.7977H35.0455C35.1616 29.8765 35.6674 30.874 36.466 31.5986C37.2645 32.3232 38.2994 32.724 39.3722 32.724C40.4449 32.724 41.4798 32.3232 42.2784 31.5986C43.0769 30.874 43.5828 29.8765 43.6989 28.7977H49.1477C49.3738 28.7977 49.5905 28.7068 49.7504 28.5451C49.9102 28.3835 50 28.1642 50 27.9355V17.0145C50 16.7858 49.9102 16.5665 49.7504 16.4048C49.5905 16.2431 49.3738 16.1523 49.1477 16.1523ZM11.6477 31.0049C11.1233 31.0071 10.6101 30.8518 10.1731 30.5587C9.73602 30.2655 9.39489 29.8476 9.19292 29.358C8.99094 28.8685 8.93721 28.3292 9.03855 27.8088C9.13989 27.2883 9.39173 26.8099 9.76213 26.4344C10.1325 26.0589 10.6048 25.8031 11.1191 25.6994C11.6334 25.5958 12.1665 25.649 12.6509 25.8523C13.1353 26.0555 13.5491 26.3997 13.8398 26.8412C14.1306 27.2827 14.2852 27.8016 14.2841 28.3321C14.2827 29.0356 14.0077 29.7102 13.5187 30.2103C13.0297 30.7104 12.3658 30.9958 11.6705 31.0049H11.6477ZM11.6477 23.9292C10.7147 23.9351 9.80826 24.2437 9.06162 24.8097C8.31498 25.3757 7.7676 26.1691 7.5 27.0733H1.70455V1.78248H28.9773V27.0733H15.8295C15.5622 26.1667 15.0133 25.3714 14.2642 24.8051C13.5151 24.2388 12.6056 23.9317 11.6705 23.9292H11.6477ZM39.3693 31.0049C38.8454 31.0049 38.3333 30.8476 37.8977 30.5531C37.4622 30.2585 37.1228 29.8398 36.9226 29.35C36.7224 28.8603 36.6703 28.3214 36.7729 27.8017C36.8755 27.2819 37.1283 26.8047 37.4991 26.4303C37.87 26.0559 38.3423 25.8013 38.8563 25.6986C39.3702 25.5959 39.9028 25.6497 40.3865 25.8534C40.8702 26.057 41.2833 26.4012 41.5736 26.8424C41.8638 27.2837 42.0182 27.8021 42.017 28.3321C42.0155 29.0415 41.7359 29.7213 41.2395 30.2224C40.7432 30.7235 40.0706 31.0049 39.3693 31.0049ZM48.2955 27.0733H43.5398C43.2674 26.1731 42.7166 25.385 41.9684 24.8252C41.2202 24.2653 40.3142 23.9631 39.3835 23.9631C38.4529 23.9631 37.5468 24.2653 36.7986 24.8252C36.0505 25.385 35.4997 26.1731 35.2273 27.0733H30.6818V9.82956H43.1818V17.0145C43.1818 17.2431 43.2716 17.4624 43.4314 17.6241C43.5913 17.7858 43.8081 17.8766 44.0341 17.8766H48.2955V27.0733Z" fill="#DC0C1C"/>
</svg>
