<svg width="66" height="66" viewBox="0 0 66 66" fill="none" xmlns="http://www.w3.org/2000/svg">
<circle cx="33" cy="33" r="32.5" fill="white" stroke="#EFEFEF"/>
<path d="M29.5874 38.143C28.5734 38.143 27.7024 37.948 26.9744 37.558C26.2464 37.168 25.6874 36.6177 25.2974 35.907C24.9161 35.1963 24.7254 34.3643 24.7254 33.411C24.7254 32.7003 24.8338 32.0547 25.0504 31.474C25.2758 30.8933 25.5964 30.395 26.0124 29.979C26.4371 29.563 26.9484 29.2467 27.5464 29.03C28.1531 28.8047 28.8334 28.692 29.5874 28.692C29.9861 28.692 30.3978 28.7397 30.8224 28.835C31.2558 28.9217 31.6371 29.056 31.9664 29.238C32.2091 29.368 32.3781 29.5327 32.4734 29.732C32.5688 29.9313 32.5991 30.135 32.5644 30.343C32.5384 30.551 32.4648 30.7373 32.3434 30.902C32.2221 31.0667 32.0661 31.1793 31.8754 31.24C31.6848 31.292 31.4768 31.2617 31.2514 31.149C30.9914 31.0277 30.7314 30.9367 30.4714 30.876C30.2201 30.8067 29.9558 30.772 29.6784 30.772C29.1411 30.772 28.6904 30.876 28.3264 31.084C27.9711 31.2833 27.7024 31.578 27.5204 31.968C27.3384 32.358 27.2474 32.839 27.2474 33.411C27.2474 33.983 27.3384 34.4683 27.5204 34.867C27.7024 35.257 27.9711 35.556 28.3264 35.764C28.6904 35.9633 29.1411 36.063 29.6784 36.063C29.9038 36.063 30.1464 36.037 30.4064 35.985C30.6664 35.9243 30.9221 35.8333 31.1734 35.712C31.4334 35.5993 31.6631 35.569 31.8624 35.621C32.0704 35.673 32.2351 35.777 32.3564 35.933C32.4864 36.089 32.5688 36.271 32.6034 36.479C32.6381 36.6783 32.6078 36.8777 32.5124 37.077C32.4258 37.2763 32.2698 37.4367 32.0444 37.558C31.7411 37.74 31.3641 37.883 30.9134 37.987C30.4714 38.091 30.0294 38.143 29.5874 38.143ZM34.7936 38.117C34.525 38.117 34.3386 38.0433 34.2346 37.896C34.1393 37.74 34.1176 37.532 34.1696 37.272L34.4426 35.803L35.1836 35.933H34.4556C34.2996 35.933 34.161 35.907 34.0396 35.855C33.927 35.803 33.8403 35.725 33.7796 35.621C33.719 35.5083 33.6886 35.3783 33.6886 35.231C33.6886 35.0143 33.7536 34.8497 33.8836 34.737C34.0223 34.6157 34.213 34.555 34.4556 34.555H35.4436L34.6636 34.698L35.1836 32.046L35.6906 32.176H34.7546C34.59 32.176 34.447 32.15 34.3256 32.098C34.213 32.046 34.1263 31.968 34.0656 31.864C34.005 31.7513 33.9746 31.6257 33.9746 31.487C33.9746 31.2617 34.0396 31.0927 34.1696 30.98C34.3083 30.8587 34.5033 30.798 34.7546 30.798H35.9636L35.3786 30.941L35.6906 29.407C35.734 29.173 35.825 28.9997 35.9636 28.887C36.111 28.7743 36.2973 28.718 36.5226 28.718C36.7653 28.718 36.943 28.7917 37.0556 28.939C37.177 29.0863 37.2073 29.2943 37.1466 29.563L36.8996 30.798H38.0306L38.3036 29.407C38.3556 29.173 38.451 28.9997 38.5896 28.887C38.737 28.7743 38.9233 28.718 39.1486 28.718C39.4 28.718 39.582 28.7917 39.6946 28.939C39.8073 29.0863 39.8333 29.2943 39.7726 29.563L39.4996 30.941L38.9926 30.798H39.4996C39.6643 30.798 39.803 30.824 39.9156 30.876C40.0283 30.928 40.115 31.006 40.1756 31.11C40.2363 31.2053 40.2666 31.331 40.2666 31.487C40.2666 31.7037 40.1973 31.8727 40.0586 31.994C39.9286 32.1153 39.7423 32.176 39.4996 32.176H38.7196L39.2916 32.046L38.7716 34.698L38.2516 34.555H39.2006C39.374 34.555 39.517 34.581 39.6296 34.633C39.7423 34.685 39.829 34.763 39.8896 34.867C39.9503 34.9623 39.9806 35.0837 39.9806 35.231C39.9806 35.4563 39.9113 35.6297 39.7726 35.751C39.6426 35.8723 39.452 35.933 39.2006 35.933H37.9916L38.5636 35.803L38.2386 37.428C38.1953 37.6707 38.1043 37.8483 37.9656 37.961C37.827 38.065 37.645 38.117 37.4196 38.117C37.1683 38.117 36.9863 38.0433 36.8736 37.896C36.761 37.7487 36.7306 37.5407 36.7826 37.272L37.0426 35.933H35.9246L35.6256 37.428C35.5823 37.6707 35.4913 37.8483 35.3526 37.961C35.214 38.065 35.0276 38.117 34.7936 38.117ZM36.1846 34.555H37.3026L37.7706 32.176H36.6526L36.1846 34.555Z" fill="#69A8FB"/>
<path d="M47 25V20C47 17.7909 45.2091 16 43 16H22C19.7909 16 18 17.7909 18 20V25" stroke="#69A8FB" stroke-width="2"/>
<path d="M47 42V47C47 49.2091 45.2091 51 43 51H22C19.7909 51 18 49.2091 18 47V42" stroke="#69A8FB" stroke-width="2"/>
</svg>
