<svg width="66" height="66" viewBox="0 0 66 66" fill="none" xmlns="http://www.w3.org/2000/svg">
<circle cx="33" cy="33" r="32.5" fill="white" stroke="#EFEFEF"/>
<path d="M17.1258 37.0962C16.8124 37.0962 16.5702 37.0107 16.3992 36.8397C16.2283 36.6616 16.1428 36.4159 16.1428 36.1025V30.4609C16.1428 30.1404 16.2283 29.8946 16.3992 29.7236C16.5773 29.5527 16.823 29.4672 17.1365 29.4672H19.7649C20.6197 29.4672 21.2786 29.6773 21.7416 30.0976C22.2118 30.5108 22.4468 31.0877 22.4468 31.8286C22.4468 32.3058 22.34 32.7225 22.1263 33.0787C21.9197 33.4277 21.617 33.6984 21.2181 33.8907C20.8263 34.0759 20.3419 34.1685 19.7649 34.1685L19.8504 33.9762H20.3633C20.6696 33.9762 20.9403 34.051 21.1753 34.2006C21.4104 34.343 21.6063 34.5639 21.763 34.863L22.2972 35.8247C22.4112 36.0312 22.4646 36.2343 22.4575 36.4337C22.4504 36.626 22.372 36.7863 22.2224 36.9145C22.08 37.0356 21.8698 37.0962 21.592 37.0962C21.3142 37.0962 21.0863 37.0392 20.9082 36.9252C20.7372 36.8112 20.5841 36.6332 20.4488 36.391L19.4764 34.6066C19.391 34.4499 19.2806 34.343 19.1452 34.2861C19.017 34.2219 18.8674 34.1899 18.6964 34.1899H18.1088V36.1025C18.1088 36.4159 18.0269 36.6616 17.863 36.8397C17.6992 37.0107 17.4534 37.0962 17.1258 37.0962ZM18.1088 32.8009H19.4123C19.7899 32.8009 20.0784 32.7261 20.2778 32.5765C20.4773 32.4269 20.577 32.1954 20.577 31.882C20.577 31.5828 20.4773 31.3584 20.2778 31.2088C20.0784 31.0521 19.7899 30.9738 19.4123 30.9738H18.1088V32.8009ZM24.7126 37C24.3778 37 24.1214 36.9145 23.9433 36.7436C23.7723 36.5655 23.6868 36.3126 23.6868 35.9849V30.4823C23.6868 30.1546 23.7723 29.9053 23.9433 29.7343C24.1214 29.5563 24.3778 29.4672 24.7126 29.4672H28.3347C28.5912 29.4672 28.7835 29.5313 28.9117 29.6595C29.0399 29.7878 29.104 29.973 29.104 30.2151C29.104 30.4645 29.0399 30.6568 28.9117 30.7921C28.7835 30.9203 28.5912 30.9845 28.3347 30.9845H25.5674V32.4162H28.0997C28.349 32.4162 28.5377 32.4803 28.666 32.6085C28.8013 32.7368 28.869 32.9255 28.869 33.1748C28.869 33.4242 28.8013 33.6129 28.666 33.7411C28.5377 33.8694 28.349 33.9335 28.0997 33.9335H25.5674V35.4828H28.3347C28.5912 35.4828 28.7835 35.5504 28.9117 35.6858C29.0399 35.814 29.104 35.9992 29.104 36.2414C29.104 36.4907 29.0399 36.6795 28.9117 36.8077C28.7835 36.9359 28.5912 37 28.3347 37H24.7126ZM30.4879 37.0962C30.2671 37.0962 30.0819 37.0463 29.9323 36.9466C29.7827 36.8397 29.6901 36.6973 29.6545 36.5192C29.6189 36.334 29.6509 36.1274 29.7506 35.8995L32.4112 30.1724C32.5394 29.8946 32.6961 29.6916 32.8813 29.5634C33.0736 29.4352 33.2909 29.371 33.5331 29.371C33.7752 29.371 33.9854 29.4352 34.1635 29.5634C34.3487 29.6916 34.5089 29.8946 34.6443 30.1724L37.3048 35.8995C37.4188 36.1274 37.4579 36.334 37.4223 36.5192C37.3938 36.7044 37.3048 36.8469 37.1552 36.9466C37.0127 37.0463 36.8347 37.0962 36.621 37.0962C36.336 37.0962 36.1152 37.0321 35.9585 36.9038C35.8089 36.7756 35.6736 36.569 35.5525 36.2841L34.9755 34.9271L35.7234 35.4721H31.3213L32.0799 34.9271L31.5029 36.2841C31.3747 36.569 31.2429 36.7756 31.1076 36.9038C30.9723 37.0321 30.7657 37.0962 30.4879 37.0962ZM33.5117 31.5187L32.2722 34.4784L31.9731 33.9655H35.0824L34.7832 34.4784L33.5331 31.5187H33.5117ZM41.9005 37.1175C41.0671 37.1175 40.3512 36.9573 39.7529 36.6367C39.1545 36.3162 38.6951 35.8638 38.3745 35.2797C38.0611 34.6956 37.9044 34.0118 37.9044 33.2283C37.9044 32.6442 37.9934 32.1135 38.1715 31.6362C38.3567 31.159 38.6203 30.7494 38.9622 30.4075C39.3112 30.0656 39.7315 29.8056 40.223 29.6275C40.7216 29.4423 41.2808 29.3497 41.9005 29.3497C42.2282 29.3497 42.5665 29.3889 42.9156 29.4672C43.2717 29.5384 43.5852 29.6489 43.8558 29.7984C44.0553 29.9053 44.1942 30.0406 44.2725 30.2045C44.3509 30.3683 44.3758 30.5357 44.3473 30.7066C44.326 30.8776 44.2654 31.0308 44.1657 31.1661C44.066 31.3014 43.9377 31.394 43.781 31.4439C43.6243 31.4866 43.4534 31.4617 43.2682 31.3691C43.0545 31.2694 42.8408 31.1946 42.6271 31.1447C42.4205 31.0877 42.2032 31.0592 41.9753 31.0592C41.5337 31.0592 41.1633 31.1447 40.8641 31.3157C40.572 31.4795 40.3512 31.7217 40.2016 32.0422C40.052 32.3628 39.9772 32.7581 39.9772 33.2283C39.9772 33.6984 40.052 34.0973 40.2016 34.425C40.3512 34.7455 40.572 34.9913 40.8641 35.1622C41.1633 35.326 41.5337 35.408 41.9753 35.408C42.1605 35.408 42.36 35.3866 42.5737 35.3439C42.7874 35.294 42.9975 35.2192 43.2041 35.1195C43.4178 35.0269 43.6065 35.0019 43.7704 35.0447C43.9413 35.0874 44.0767 35.1729 44.1764 35.3011C44.2832 35.4293 44.3509 35.5789 44.3794 35.7499C44.4079 35.9137 44.3829 36.0775 44.3046 36.2414C44.2334 36.4052 44.1051 36.537 43.9199 36.6367C43.6706 36.7863 43.3608 36.9038 42.9904 36.9893C42.6271 37.0748 42.2638 37.1175 41.9005 37.1175ZM48.1053 37.0962C47.7919 37.0962 47.5497 37.0107 47.3787 36.8397C47.2078 36.6616 47.1223 36.4159 47.1223 36.1025V31.0699H45.4448C45.1812 31.0699 44.9782 31.0023 44.8357 30.8669C44.7004 30.7245 44.6327 30.525 44.6327 30.2686C44.6327 30.005 44.7004 29.8056 44.8357 29.6702C44.9782 29.5349 45.1812 29.4672 45.4448 29.4672H50.7658C51.0294 29.4672 51.2288 29.5349 51.3642 29.6702C51.5066 29.8056 51.5779 30.005 51.5779 30.2686C51.5779 30.525 51.5066 30.7245 51.3642 30.8669C51.2288 31.0023 51.0294 31.0699 50.7658 31.0699H49.0883V36.1025C49.0883 36.4159 49.0064 36.6616 48.8425 36.8397C48.6787 37.0107 48.433 37.0962 48.1053 37.0962Z" fill="#69A8FB"/>
<path d="M47 25V20C47 17.7909 45.2091 16 43 16H22C19.7909 16 18 17.7909 18 20V25" stroke="#69A8FB" stroke-width="2"/>
<path d="M47 42V47C47 49.2091 45.2091 51 43 51H22C19.7909 51 18 49.2091 18 47V42" stroke="#69A8FB" stroke-width="2"/>
</svg>
