<svg width="66" height="66" viewBox="0 0 66 66" fill="none" xmlns="http://www.w3.org/2000/svg">
<circle cx="33" cy="33" r="32.5" fill="white" stroke="#EFEFEF"/>
<path d="M18.8909 38.09C18.6376 38.09 18.4309 38.0367 18.2709 37.93C18.1176 37.8233 17.9876 37.6533 17.8809 37.42L15.4609 32.08C15.3542 31.8467 15.3209 31.6367 15.3609 31.45C15.4009 31.2633 15.4942 31.12 15.6409 31.02C15.7876 30.9133 15.9709 30.86 16.1909 30.86C16.4642 30.86 16.6676 30.92 16.8009 31.04C16.9409 31.16 17.0609 31.3367 17.1609 31.57L19.2009 36.29H18.6409L20.6809 31.56C20.7809 31.3267 20.9009 31.1533 21.0409 31.04C21.1809 30.92 21.3776 30.86 21.6309 30.86C21.8376 30.86 22.0109 30.9133 22.1509 31.02C22.2909 31.12 22.3776 31.2633 22.4109 31.45C22.4509 31.6367 22.4176 31.8467 22.3109 32.08L19.8809 37.42C19.7809 37.6533 19.6542 37.8233 19.5009 37.93C19.3476 38.0367 19.1442 38.09 18.8909 38.09ZM26.3528 38.11C25.8394 38.11 25.3861 38.0467 24.9928 37.92C24.5994 37.7867 24.2661 37.59 23.9928 37.33C23.7261 37.07 23.5228 36.7467 23.3828 36.36C23.2494 35.9667 23.1828 35.5133 23.1828 35V31.79C23.1828 31.4833 23.2628 31.2533 23.4228 31.1C23.5828 30.94 23.8094 30.86 24.1028 30.86C24.4028 30.86 24.6294 30.94 24.7828 31.1C24.9428 31.2533 25.0228 31.4833 25.0228 31.79V35.02C25.0228 35.5333 25.1361 35.92 25.3628 36.18C25.5894 36.44 25.9194 36.57 26.3528 36.57C26.7794 36.57 27.1061 36.44 27.3328 36.18C27.5594 35.92 27.6728 35.5333 27.6728 35.02V31.79C27.6728 31.4833 27.7494 31.2533 27.9028 31.1C28.0628 30.94 28.2894 30.86 28.5828 30.86C28.8761 30.86 29.0994 30.94 29.2528 31.1C29.4061 31.2533 29.4828 31.4833 29.4828 31.79V35C29.4828 35.6867 29.3628 36.2633 29.1228 36.73C28.8894 37.19 28.5394 37.5367 28.0728 37.77C27.6061 37.9967 27.0328 38.11 26.3528 38.11ZM31.6732 38C31.3599 38 31.1199 37.92 30.9532 37.76C30.7932 37.5933 30.7132 37.3567 30.7132 37.05V31.9C30.7132 31.5933 30.7932 31.36 30.9532 31.2C31.1199 31.0333 31.3599 30.95 31.6732 30.95H35.0632C35.3032 30.95 35.4832 31.01 35.6032 31.13C35.7232 31.25 35.7832 31.4233 35.7832 31.65C35.7832 31.8833 35.7232 32.0633 35.6032 32.19C35.4832 32.31 35.3032 32.37 35.0632 32.37H32.4732V33.71H34.8432C35.0766 33.71 35.2532 33.77 35.3732 33.89C35.4999 34.01 35.5632 34.1867 35.5632 34.42C35.5632 34.6533 35.4999 34.83 35.3732 34.95C35.2532 35.07 35.0766 35.13 34.8432 35.13H32.4732V36.58H35.0632C35.3032 36.58 35.4832 36.6433 35.6032 36.77C35.7232 36.89 35.7832 37.0633 35.7832 37.29C35.7832 37.5233 35.7232 37.7 35.6032 37.82C35.4832 37.94 35.3032 38 35.0632 38H31.6732ZM37.6735 38.06C37.3735 38.06 37.1335 37.97 36.9535 37.79C36.7801 37.61 36.6935 37.3733 36.6935 37.08C36.6935 36.7933 36.7801 36.5633 36.9535 36.39C37.1335 36.21 37.3735 36.12 37.6735 36.12C37.9868 36.12 38.2268 36.21 38.3935 36.39C38.5668 36.5633 38.6535 36.7933 38.6535 37.08C38.6535 37.3733 38.5668 37.61 38.3935 37.79C38.2268 37.97 37.9868 38.06 37.6735 38.06ZM40.0989 38.08C39.8323 38.0933 39.6256 38.0267 39.4789 37.88C39.3389 37.7267 39.2689 37.5333 39.2689 37.3C39.2689 37.12 39.3189 36.9633 39.4189 36.83C39.5189 36.6967 39.6689 36.6233 39.8689 36.61L40.1489 36.59C40.3889 36.5767 40.5656 36.52 40.6789 36.42C40.7923 36.3133 40.8489 36.14 40.8489 35.9V31.79C40.8489 31.4833 40.9289 31.2533 41.0889 31.1C41.2489 30.94 41.4756 30.86 41.7689 30.86C42.0623 30.86 42.2889 30.94 42.4489 31.1C42.6089 31.2533 42.6889 31.4833 42.6889 31.79V35.87C42.6889 36.33 42.6056 36.72 42.4389 37.04C42.2723 37.3533 42.0223 37.5967 41.6889 37.77C41.3623 37.9367 40.9523 38.0333 40.4589 38.06L40.0989 38.08ZM46.5754 38.11C46.3088 38.11 46.0288 38.09 45.7354 38.05C45.4488 38.0167 45.1754 37.9633 44.9154 37.89C44.6554 37.8167 44.4221 37.73 44.2154 37.63C44.0354 37.5433 43.9088 37.43 43.8354 37.29C43.7621 37.1433 43.7354 36.99 43.7554 36.83C43.7754 36.67 43.8321 36.53 43.9254 36.41C44.0188 36.2833 44.1421 36.2 44.2954 36.16C44.4488 36.1133 44.6221 36.1333 44.8154 36.22C45.0688 36.34 45.3554 36.4333 45.6754 36.5C45.9954 36.5667 46.2954 36.6 46.5754 36.6C47.0154 36.6 47.3221 36.5433 47.4954 36.43C47.6754 36.31 47.7654 36.1633 47.7654 35.99C47.7654 35.8367 47.7021 35.7133 47.5754 35.62C47.4554 35.5267 47.2388 35.4467 46.9254 35.38L45.7554 35.13C45.1154 34.9967 44.6388 34.7633 44.3254 34.43C44.0121 34.0967 43.8554 33.6667 43.8554 33.14C43.8554 32.7933 43.9254 32.48 44.0654 32.2C44.2121 31.9133 44.4154 31.67 44.6754 31.47C44.9421 31.27 45.2554 31.1167 45.6154 31.01C45.9821 30.8967 46.3888 30.84 46.8354 30.84C47.1821 30.84 47.5321 30.88 47.8854 30.96C48.2454 31.0333 48.5554 31.1467 48.8154 31.3C48.9688 31.38 49.0788 31.49 49.1454 31.63C49.2121 31.77 49.2388 31.9167 49.2254 32.07C49.2121 32.2167 49.1588 32.3467 49.0654 32.46C48.9788 32.5733 48.8588 32.65 48.7054 32.69C48.5588 32.7233 48.3821 32.6967 48.1754 32.61C47.9821 32.5233 47.7621 32.46 47.5154 32.42C47.2754 32.3733 47.0421 32.35 46.8154 32.35C46.5688 32.35 46.3588 32.38 46.1854 32.44C46.0121 32.4933 45.8788 32.5733 45.7854 32.68C45.6988 32.7867 45.6554 32.91 45.6554 33.05C45.6554 33.19 45.7121 33.31 45.8254 33.41C45.9454 33.5033 46.1621 33.5833 46.4754 33.65L47.6354 33.9C48.2821 34.04 48.7654 34.27 49.0854 34.59C49.4054 34.91 49.5654 35.3267 49.5654 35.84C49.5654 36.1867 49.4954 36.5 49.3554 36.78C49.2154 37.06 49.0154 37.3 48.7554 37.5C48.4954 37.6933 48.1821 37.8433 47.8154 37.95C47.4488 38.0567 47.0354 38.11 46.5754 38.11Z" fill="#69A8FB"/>
<path d="M47 25V20C47 17.7909 45.2091 16 43 16H22C19.7909 16 18 17.7909 18 20V25" stroke="#69A8FB" stroke-width="2"/>
<path d="M47 42V47C47 49.2091 45.2091 51 43 51H22C19.7909 51 18 49.2091 18 47V42" stroke="#69A8FB" stroke-width="2"/>
</svg>
