<svg width="67" height="66" viewBox="0 0 67 66" fill="none" xmlns="http://www.w3.org/2000/svg">
<circle cx="33.5" cy="33" r="32.5" fill="white" stroke="#EFEFEF"/>
<path d="M14.8822 37.081C14.6302 37.081 14.4382 37.015 14.3062 36.883C14.1742 36.751 14.1082 36.556 14.1082 36.298V31.393C14.1082 31.129 14.1742 30.928 14.3062 30.79C14.4382 30.646 14.6122 30.574 14.8282 30.574C15.0202 30.574 15.1702 30.61 15.2782 30.682C15.3862 30.754 15.5062 30.874 15.6382 31.042L18.4912 34.606H18.2392V31.348C18.2392 31.096 18.3022 30.904 18.4282 30.772C18.5602 30.64 18.7522 30.574 19.0042 30.574C19.2562 30.574 19.4452 30.64 19.5712 30.772C19.7032 30.904 19.7692 31.096 19.7692 31.348V36.334C19.7692 36.562 19.7092 36.745 19.5892 36.883C19.4692 37.015 19.3072 37.081 19.1032 37.081C18.8992 37.081 18.7372 37.045 18.6172 36.973C18.5032 36.895 18.3802 36.775 18.2482 36.613L15.3952 33.04H15.6472V36.298C15.6472 36.556 15.5812 36.751 15.4492 36.883C15.3232 37.015 15.1342 37.081 14.8822 37.081ZM23.9885 37.099C23.3465 37.099 22.7825 36.964 22.2965 36.694C21.8105 36.418 21.4325 36.034 21.1625 35.542C20.8985 35.05 20.7665 34.477 20.7665 33.823C20.7665 33.331 20.8415 32.884 20.9915 32.482C21.1475 32.08 21.3665 31.735 21.6485 31.447C21.9365 31.159 22.2785 30.94 22.6745 30.79C23.0705 30.634 23.5085 30.556 23.9885 30.556C24.6305 30.556 25.1915 30.691 25.6715 30.961C26.1575 31.231 26.5355 31.612 26.8055 32.104C27.0755 32.59 27.2105 33.163 27.2105 33.823C27.2105 34.315 27.1325 34.762 26.9765 35.164C26.8265 35.566 26.6075 35.914 26.3195 36.208C26.0375 36.496 25.6985 36.718 25.3025 36.874C24.9065 37.024 24.4685 37.099 23.9885 37.099ZM23.9885 35.713C24.3065 35.713 24.5765 35.638 24.7985 35.488C25.0205 35.338 25.1915 35.122 25.3115 34.84C25.4315 34.558 25.4915 34.219 25.4915 33.823C25.4915 33.229 25.3595 32.767 25.0955 32.437C24.8315 32.107 24.4625 31.942 23.9885 31.942C23.6765 31.942 23.4065 32.017 23.1785 32.167C22.9565 32.311 22.7855 32.524 22.6655 32.806C22.5455 33.082 22.4855 33.421 22.4855 33.823C22.4855 34.417 22.6175 34.882 22.8815 35.218C23.1455 35.548 23.5145 35.713 23.9885 35.713ZM29.0523 37C28.7703 37 28.5543 36.928 28.4043 36.784C28.2603 36.634 28.1883 36.421 28.1883 36.145V31.51C28.1883 31.234 28.2603 31.024 28.4043 30.88C28.5543 30.73 28.7703 30.655 29.0523 30.655H30.8163C31.9203 30.655 32.7723 30.931 33.3723 31.483C33.9783 32.035 34.2813 32.815 34.2813 33.823C34.2813 34.327 34.2033 34.777 34.0473 35.173C33.8913 35.563 33.6663 35.896 33.3723 36.172C33.0783 36.442 32.7153 36.649 32.2833 36.793C31.8573 36.931 31.3683 37 30.8163 37H29.0523ZM29.8443 35.659H30.7083C31.0263 35.659 31.2993 35.62 31.5273 35.542C31.7613 35.464 31.9533 35.35 32.1033 35.2C32.2593 35.05 32.3733 34.861 32.4453 34.633C32.5233 34.405 32.5623 34.135 32.5623 33.823C32.5623 33.199 32.4093 32.74 32.1033 32.446C31.7973 32.146 31.3323 31.996 30.7083 31.996H29.8443V35.659ZM36.1275 37C35.8455 37 35.6295 36.928 35.4795 36.784C35.3355 36.634 35.2635 36.421 35.2635 36.145V31.51C35.2635 31.234 35.3355 31.024 35.4795 30.88C35.6295 30.73 35.8455 30.655 36.1275 30.655H39.1785C39.3945 30.655 39.5565 30.709 39.6645 30.817C39.7725 30.925 39.8265 31.081 39.8265 31.285C39.8265 31.495 39.7725 31.657 39.6645 31.771C39.5565 31.879 39.3945 31.933 39.1785 31.933H36.8475V33.139H38.9805C39.1905 33.139 39.3495 33.193 39.4575 33.301C39.5715 33.409 39.6285 33.568 39.6285 33.778C39.6285 33.988 39.5715 34.147 39.4575 34.255C39.3495 34.363 39.1905 34.417 38.9805 34.417H36.8475V35.722H39.1785C39.3945 35.722 39.5565 35.779 39.6645 35.893C39.7725 36.001 39.8265 36.157 39.8265 36.361C39.8265 36.571 39.7725 36.73 39.6645 36.838C39.5565 36.946 39.3945 37 39.1785 37H36.1275ZM41.5277 37.054C41.2577 37.054 41.0417 36.973 40.8797 36.811C40.7237 36.649 40.6457 36.436 40.6457 36.172C40.6457 35.914 40.7237 35.707 40.8797 35.551C41.0417 35.389 41.2577 35.308 41.5277 35.308C41.8097 35.308 42.0257 35.389 42.1757 35.551C42.3317 35.707 42.4097 35.914 42.4097 36.172C42.4097 36.436 42.3317 36.649 42.1757 36.811C42.0257 36.973 41.8097 37.054 41.5277 37.054ZM43.7106 37.072C43.4706 37.084 43.2846 37.024 43.1526 36.892C43.0266 36.754 42.9636 36.58 42.9636 36.37C42.9636 36.208 43.0086 36.067 43.0986 35.947C43.1886 35.827 43.3236 35.761 43.5036 35.749L43.7556 35.731C43.9716 35.719 44.1306 35.668 44.2326 35.578C44.3346 35.482 44.3856 35.326 44.3856 35.11V31.411C44.3856 31.135 44.4576 30.928 44.6016 30.79C44.7456 30.646 44.9496 30.574 45.2136 30.574C45.4776 30.574 45.6816 30.646 45.8256 30.79C45.9696 30.928 46.0416 31.135 46.0416 31.411V35.083C46.0416 35.497 45.9666 35.848 45.8166 36.136C45.6666 36.418 45.4416 36.637 45.1416 36.793C44.8476 36.943 44.4786 37.03 44.0346 37.054L43.7106 37.072ZM49.5395 37.099C49.2995 37.099 49.0475 37.081 48.7835 37.045C48.5255 37.015 48.2795 36.967 48.0455 36.901C47.8115 36.835 47.6015 36.757 47.4155 36.667C47.2535 36.589 47.1395 36.487 47.0735 36.361C47.0075 36.229 46.9835 36.091 47.0015 35.947C47.0195 35.803 47.0705 35.677 47.1545 35.569C47.2385 35.455 47.3495 35.38 47.4875 35.344C47.6255 35.302 47.7815 35.32 47.9555 35.398C48.1835 35.506 48.4415 35.59 48.7295 35.65C49.0175 35.71 49.2875 35.74 49.5395 35.74C49.9355 35.74 50.2115 35.689 50.3675 35.587C50.5295 35.479 50.6105 35.347 50.6105 35.191C50.6105 35.053 50.5535 34.942 50.4395 34.858C50.3315 34.774 50.1365 34.702 49.8545 34.642L48.8015 34.417C48.2255 34.297 47.7965 34.087 47.5145 33.787C47.2325 33.487 47.0915 33.1 47.0915 32.626C47.0915 32.314 47.1545 32.032 47.2805 31.78C47.4125 31.522 47.5955 31.303 47.8295 31.123C48.0695 30.943 48.3515 30.805 48.6755 30.709C49.0055 30.607 49.3715 30.556 49.7735 30.556C50.0855 30.556 50.4005 30.592 50.7185 30.664C51.0425 30.73 51.3215 30.832 51.5555 30.97C51.6935 31.042 51.7925 31.141 51.8525 31.267C51.9125 31.393 51.9365 31.525 51.9245 31.663C51.9125 31.795 51.8645 31.912 51.7805 32.014C51.7025 32.116 51.5945 32.185 51.4565 32.221C51.3245 32.251 51.1655 32.227 50.9795 32.149C50.8055 32.071 50.6075 32.014 50.3855 31.978C50.1695 31.936 49.9595 31.915 49.7555 31.915C49.5335 31.915 49.3445 31.942 49.1885 31.996C49.0325 32.044 48.9125 32.116 48.8285 32.212C48.7505 32.308 48.7115 32.419 48.7115 32.545C48.7115 32.671 48.7625 32.779 48.8645 32.869C48.9725 32.953 49.1675 33.025 49.4495 33.085L50.4935 33.31C51.0755 33.436 51.5105 33.643 51.7985 33.931C52.0865 34.219 52.2305 34.594 52.2305 35.056C52.2305 35.368 52.1675 35.65 52.0415 35.902C51.9155 36.154 51.7355 36.37 51.5015 36.55C51.2675 36.724 50.9855 36.859 50.6555 36.955C50.3255 37.051 49.9535 37.099 49.5395 37.099Z" fill="#69A8FB"/>
<path d="M47.5 25V20C47.5 17.7909 45.7091 16 43.5 16H22.5C20.2909 16 18.5 17.7909 18.5 20V25" stroke="#69A8FB" stroke-width="2"/>
<path d="M47.5 42V47C47.5 49.2091 45.7091 51 43.5 51H22.5C20.2909 51 18.5 49.2091 18.5 47V42" stroke="#69A8FB" stroke-width="2"/>
</svg>
