<svg width="66" height="66" viewBox="0 0 66 66" fill="none" xmlns="http://www.w3.org/2000/svg">
<circle cx="33" cy="33" r="32.5" fill="white" stroke="#EFEFEF"/>
<path d="M18.897 37.0945C18.5821 37.1102 18.338 37.0315 18.1648 36.8583C17.9995 36.6772 17.9168 36.4489 17.9168 36.1733C17.9168 35.9608 17.9758 35.7757 18.0939 35.6183C18.212 35.4608 18.3892 35.3742 18.6254 35.3585L18.956 35.3349C19.2395 35.3191 19.4481 35.2522 19.5819 35.1341C19.7158 35.0081 19.7827 34.8034 19.7827 34.52V29.6663C19.7827 29.3041 19.8772 29.0325 20.0661 28.8514C20.2551 28.6625 20.5228 28.568 20.8692 28.568C21.2156 28.568 21.4833 28.6625 21.6722 28.8514C21.8612 29.0325 21.9556 29.3041 21.9556 29.6663V34.4846C21.9556 35.0278 21.8572 35.4884 21.6604 35.8663C21.4636 36.2363 21.1683 36.5237 20.7747 36.7284C20.3889 36.9252 19.9047 37.0394 19.3221 37.0709L18.897 37.0945ZM23.841 37.1063C23.597 37.1063 23.3923 37.0512 23.2269 36.941C23.0616 36.8229 22.9592 36.6654 22.9199 36.4686C22.8805 36.2639 22.9159 36.0356 23.0262 35.7836L25.9667 29.4537C26.1085 29.1467 26.2817 28.9223 26.4864 28.7806C26.6989 28.6389 26.9391 28.568 27.2067 28.568C27.4744 28.568 27.7067 28.6389 27.9035 28.7806C28.1082 28.9223 28.2853 29.1467 28.4349 29.4537L31.3755 35.7836C31.5015 36.0356 31.5448 36.2639 31.5054 36.4686C31.4739 36.6733 31.3755 36.8307 31.2102 36.941C31.0527 37.0512 30.8559 37.1063 30.6197 37.1063C30.3048 37.1063 30.0607 37.0354 29.8875 36.8937C29.7222 36.752 29.5726 36.5237 29.4387 36.2088L28.801 34.709L29.6277 35.3112H24.7622L25.6006 34.709L24.9629 36.2088C24.8212 36.5237 24.6756 36.752 24.526 36.8937C24.3764 37.0354 24.1481 37.1063 23.841 37.1063ZM27.1831 30.9417L25.8132 34.213L25.4825 33.6461H28.9191L28.5885 34.213L27.2067 30.9417H27.1831ZM35.3115 37.1063C35.0123 37.1063 34.7682 37.0433 34.5793 36.9173C34.3982 36.7914 34.2447 36.5906 34.1187 36.315L31.2608 30.0088C31.1348 29.7332 31.0955 29.4852 31.1427 29.2648C31.19 29.0443 31.3002 28.875 31.4734 28.757C31.6466 28.631 31.8631 28.568 32.1229 28.568C32.4457 28.568 32.6858 28.6389 32.8433 28.7806C33.0086 28.9223 33.1503 29.1309 33.2684 29.4065L35.6776 34.9806H35.0162L37.4254 29.3947C37.5435 29.1191 37.6852 28.9144 37.8505 28.7806C38.0159 28.6389 38.2481 28.568 38.5473 28.568C38.7914 28.568 38.9961 28.631 39.1614 28.757C39.3267 28.875 39.4291 29.0443 39.4684 29.2648C39.5157 29.4852 39.4763 29.7332 39.3503 30.0088L36.4806 36.315C36.3625 36.5906 36.2129 36.7914 36.0319 36.9173C35.8508 37.0433 35.6107 37.1063 35.3115 37.1063ZM40.0445 37.1063C39.8005 37.1063 39.5958 37.0512 39.4304 36.941C39.2651 36.8229 39.1627 36.6654 39.1234 36.4686C39.084 36.2639 39.1194 36.0356 39.2297 35.7836L42.1702 29.4537C42.3119 29.1467 42.4852 28.9223 42.6899 28.7806C42.9024 28.6389 43.1426 28.568 43.4102 28.568C43.6779 28.568 43.9102 28.6389 44.107 28.7806C44.3117 28.9223 44.4888 29.1467 44.6384 29.4537L47.579 35.7836C47.705 36.0356 47.7483 36.2639 47.7089 36.4686C47.6774 36.6733 47.579 36.8307 47.4137 36.941C47.2562 37.0512 47.0594 37.1063 46.8232 37.1063C46.5083 37.1063 46.2642 37.0354 46.091 36.8937C45.9257 36.752 45.7761 36.5237 45.6422 36.2088L45.0045 34.709L45.8312 35.3112H40.9657L41.8041 34.709L41.1664 36.2088C41.0247 36.5237 40.8791 36.752 40.7295 36.8937C40.5799 37.0354 40.3516 37.1063 40.0445 37.1063ZM43.3866 30.9417L42.0167 34.213L41.686 33.6461H45.1226L44.7919 34.213L43.4102 30.9417H43.3866Z" fill="#69A8FB"/>
<path d="M47 25V20C47 17.7909 45.2091 16 43 16H22C19.7909 16 18 17.7909 18 20V25" stroke="#69A8FB" stroke-width="2"/>
<path d="M47 42V47C47 49.2091 45.2091 51 43 51H22C19.7909 51 18 49.2091 18 47V42" stroke="#69A8FB" stroke-width="2"/>
</svg>
