<svg width="66" height="66" viewBox="0 0 66 66" fill="none" xmlns="http://www.w3.org/2000/svg">
<circle cx="33" cy="33" r="32.5" fill="white" stroke="#EFEFEF"/>
<path d="M17.8678 37.1063C17.5214 37.1063 17.2537 37.0118 17.0647 36.8229C16.8758 36.626 16.7813 36.3544 16.7813 36.008V29.7726C16.7813 29.4183 16.8758 29.1467 17.0647 28.9577C17.2615 28.7688 17.5332 28.6743 17.8796 28.6743H20.7847C21.7295 28.6743 22.4577 28.9065 22.9695 29.371C23.4891 29.8277 23.7489 30.4654 23.7489 31.2842C23.7489 31.8117 23.6308 32.2723 23.3946 32.6659C23.1663 33.0517 22.8317 33.3509 22.3908 33.5634C21.9578 33.7681 21.4224 33.8705 20.7847 33.8705L20.8792 33.6579H21.4461C21.7846 33.6579 22.0838 33.7406 22.3436 33.9059C22.6034 34.0634 22.8199 34.3074 22.9931 34.6381L23.5836 35.701C23.7095 35.9293 23.7686 36.1537 23.7607 36.3741C23.7528 36.5867 23.6662 36.7638 23.5009 36.9055C23.3435 37.0394 23.1112 37.1063 22.8041 37.1063C22.4971 37.1063 22.2452 37.0433 22.0483 36.9173C21.8594 36.7914 21.6901 36.5945 21.5405 36.3269L20.4659 34.3547C20.3714 34.1815 20.2494 34.0634 20.0998 34.0004C19.9581 33.9295 19.7927 33.8941 19.6038 33.8941H18.9542V36.008C18.9542 36.3544 18.8637 36.626 18.6826 36.8229C18.5015 37.0118 18.2299 37.1063 17.8678 37.1063ZM18.9542 32.3589H20.395C20.8123 32.3589 21.1311 32.2762 21.3516 32.1109C21.572 31.9455 21.6822 31.6897 21.6822 31.3432C21.6822 31.0126 21.572 30.7646 21.3516 30.5992C21.1311 30.426 20.8123 30.3394 20.395 30.3394H18.9542V32.3589ZM28.804 37.1299C28.1978 37.1299 27.6624 37.0551 27.1979 36.9055C26.7334 36.7481 26.3398 36.5158 26.017 36.2088C25.7021 35.9017 25.4619 35.5199 25.2966 35.0632C25.1391 34.5987 25.0604 34.0634 25.0604 33.4571V29.6663C25.0604 29.3041 25.1549 29.0325 25.3438 28.8514C25.5328 28.6625 25.8005 28.568 26.1469 28.568C26.5012 28.568 26.7689 28.6625 26.9499 28.8514C27.1389 29.0325 27.2334 29.3041 27.2334 29.6663V33.4808C27.2334 34.087 27.3672 34.5436 27.6349 34.8507C27.9026 35.1577 28.2923 35.3112 28.804 35.3112C29.3079 35.3112 29.6937 35.1577 29.9614 34.8507C30.229 34.5436 30.3629 34.087 30.3629 33.4808V29.6663C30.3629 29.3041 30.4534 29.0325 30.6345 28.8514C30.8235 28.6625 31.0911 28.568 31.4376 28.568C31.784 28.568 32.0477 28.6625 32.2288 28.8514C32.4099 29.0325 32.5004 29.3041 32.5004 29.6663V33.4571C32.5004 34.2681 32.3587 34.9491 32.0753 35.5002C31.7997 36.0434 31.3864 36.4528 30.8353 36.7284C30.2842 36.9961 29.6071 37.1299 28.804 37.1299ZM35.0873 37C34.7172 37 34.4338 36.9055 34.237 36.7166C34.048 36.5197 33.9535 36.2403 33.9535 35.8781V29.7962C33.9535 29.434 34.048 29.1585 34.237 28.9695C34.4338 28.7727 34.7172 28.6743 35.0873 28.6743H37.9688C38.5671 28.6743 39.0749 28.7648 39.4922 28.9459C39.9174 29.1191 40.2401 29.3671 40.4606 29.6899C40.681 30.0127 40.7913 30.3906 40.7913 30.8236C40.7913 31.3117 40.6495 31.729 40.3661 32.0754C40.0906 32.4218 39.7127 32.658 39.2324 32.784V32.595C39.7993 32.6974 40.2362 32.9257 40.5433 33.28C40.8582 33.6343 41.0156 34.087 41.0156 34.6381C41.0156 35.3703 40.7519 35.949 40.2244 36.3741C39.7048 36.7914 38.9923 37 38.0869 37H35.0873ZM36.032 35.4057H37.7916C38.1932 35.4057 38.4845 35.3309 38.6655 35.1813C38.8545 35.0239 38.949 34.7916 38.949 34.4846C38.949 34.1775 38.8545 33.9492 38.6655 33.7996C38.4845 33.65 38.1932 33.5752 37.7916 33.5752H36.032V35.4057ZM36.032 31.981H37.5791C37.9727 31.981 38.2601 31.9101 38.4412 31.7684C38.6301 31.6267 38.7246 31.4102 38.7246 31.1189C38.7246 30.8276 38.6301 30.615 38.4412 30.4811C38.2601 30.3394 37.9727 30.2686 37.5791 30.2686H36.032V31.981ZM45.1656 37.1063C44.8192 37.1063 44.5515 37.0118 44.3625 36.8229C44.1736 36.626 44.0791 36.3465 44.0791 35.9844V32.7486L44.5279 33.9413L41.8117 30.0324C41.6778 29.8434 41.6188 29.6348 41.6345 29.4065C41.6581 29.1703 41.7526 28.9735 41.918 28.816C42.0912 28.6507 42.3352 28.568 42.6501 28.568C42.8706 28.568 43.0714 28.6231 43.2524 28.7333C43.4335 28.8357 43.6028 29.0128 43.7602 29.2648L45.4136 31.6975H44.9884L46.6418 29.253C46.8071 29.001 46.9764 28.8239 47.1496 28.7215C47.3228 28.6192 47.5275 28.568 47.7637 28.568C48.0628 28.568 48.2951 28.6428 48.4604 28.7924C48.6258 28.942 48.7124 29.1309 48.7202 29.3592C48.736 29.5876 48.6651 29.8198 48.5077 30.056L45.8151 33.9413L46.2521 32.7486V35.9844C46.2521 36.7323 45.8899 37.1063 45.1656 37.1063Z" fill="#69A8FB"/>
<path d="M47 25V20C47 17.7909 45.2091 16 43 16H22C19.7909 16 18 17.7909 18 20V25" stroke="#69A8FB" stroke-width="2"/>
<path d="M47 42V47C47 49.2091 45.2091 51 43 51H22C19.7909 51 18 49.2091 18 47V42" stroke="#69A8FB" stroke-width="2"/>
</svg>
