<svg width="66" height="66" viewBox="0 0 66 66" fill="none" xmlns="http://www.w3.org/2000/svg">
<circle cx="33" cy="33" r="32.5" fill="white" stroke="#EFEFEF"/>
<path d="M21.7197 37.1063C21.3733 37.1063 21.1056 37.0118 20.9167 36.8229C20.7277 36.626 20.6332 36.3544 20.6332 36.008V29.7726C20.6332 29.4183 20.7277 29.1467 20.9167 28.9577C21.1135 28.7688 21.3851 28.6743 21.7315 28.6743H24.6367C25.5814 28.6743 26.3097 28.9183 26.8214 29.4065C27.341 29.8867 27.6008 30.552 27.6008 31.4023C27.6008 32.2526 27.341 32.9218 26.8214 33.4099C26.3097 33.8902 25.5814 34.1303 24.6367 34.1303H22.8062V36.008C22.8062 36.3544 22.7156 36.626 22.5346 36.8229C22.3535 37.0118 22.0819 37.1063 21.7197 37.1063ZM22.8062 32.4651H24.2588C24.6681 32.4651 24.9831 32.3785 25.2035 32.2053C25.424 32.0243 25.5342 31.7566 25.5342 31.4023C25.5342 31.0401 25.424 30.7724 25.2035 30.5992C24.9831 30.426 24.6681 30.3394 24.2588 30.3394H22.8062V32.4651ZM29.7004 37.1063C29.3539 37.1063 29.0863 37.0118 28.8973 36.8229C28.7084 36.626 28.6139 36.3505 28.6139 35.9962V29.6781C28.6139 29.3159 28.7084 29.0404 28.8973 28.8514C29.0863 28.6625 29.3539 28.568 29.7004 28.568C30.0546 28.568 30.3223 28.6625 30.5034 28.8514C30.6924 29.0404 30.7868 29.3159 30.7868 29.6781V31.8865H34.2234V29.6781C34.2234 29.3159 34.3139 29.0404 34.495 28.8514C34.684 28.6625 34.9556 28.568 35.3099 28.568C35.6563 28.568 35.92 28.6625 36.1011 28.8514C36.2901 29.0404 36.3845 29.3159 36.3845 29.6781V35.9962C36.3845 36.3505 36.2901 36.626 36.1011 36.8229C35.92 37.0118 35.6563 37.1063 35.3099 37.1063C34.9556 37.1063 34.684 37.0118 34.495 36.8229C34.3139 36.626 34.2234 36.3505 34.2234 35.9962V33.6697H30.7868V35.9962C30.7868 36.3505 30.6963 36.626 30.5152 36.8229C30.3341 37.0118 30.0625 37.1063 29.7004 37.1063ZM38.9842 37.1063C38.6378 37.1063 38.3701 37.0118 38.1812 36.8229C37.9922 36.626 37.8977 36.3544 37.8977 36.008V29.7726C37.8977 29.4183 37.9922 29.1467 38.1812 28.9577C38.378 28.7688 38.6496 28.6743 38.996 28.6743H41.9012C42.8459 28.6743 43.5742 28.9183 44.0859 29.4065C44.6055 29.8867 44.8654 30.552 44.8654 31.4023C44.8654 32.2526 44.6055 32.9218 44.0859 33.4099C43.5742 33.8902 42.8459 34.1303 41.9012 34.1303H40.0707V36.008C40.0707 36.3544 39.9801 36.626 39.7991 36.8229C39.618 37.0118 39.3464 37.1063 38.9842 37.1063ZM40.0707 32.4651H41.5233C41.9327 32.4651 42.2476 32.3785 42.468 32.2053C42.6885 32.0243 42.7987 31.7566 42.7987 31.4023C42.7987 31.0401 42.6885 30.7724 42.468 30.5992C42.2476 30.426 41.9327 30.3394 41.5233 30.3394H40.0707V32.4651Z" fill="#69A8FB"/>
<path d="M47 25V20C47 17.7909 45.2091 16 43 16H22C19.7909 16 18 17.7909 18 20V25" stroke="#69A8FB" stroke-width="2"/>
<path d="M47 42V47C47 49.2091 45.2091 51 43 51H22C19.7909 51 18 49.2091 18 47V42" stroke="#69A8FB" stroke-width="2"/>
</svg>
