<svg width="66" height="66" viewBox="0 0 66 66" fill="none" xmlns="http://www.w3.org/2000/svg">
<circle cx="33" cy="33" r="32.5" fill="white" stroke="#EFEFEF"/>
<path d="M26.1174 38.104C25.7707 38.1213 25.5021 38.0347 25.3114 37.844C25.1294 37.6447 25.0384 37.3933 25.0384 37.09C25.0384 36.856 25.1034 36.6523 25.2334 36.479C25.3634 36.3057 25.5584 36.2103 25.8184 36.193L26.1824 36.167C26.4944 36.1497 26.7241 36.076 26.8714 35.946C27.0187 35.8073 27.0924 35.582 27.0924 35.27V29.927C27.0924 29.5283 27.1964 29.2293 27.4044 29.03C27.6124 28.822 27.9071 28.718 28.2884 28.718C28.6697 28.718 28.9644 28.822 29.1724 29.03C29.3804 29.2293 29.4844 29.5283 29.4844 29.927V35.231C29.4844 35.829 29.3761 36.336 29.1594 36.752C28.9427 37.1593 28.6177 37.4757 28.1844 37.701C27.7597 37.9177 27.2267 38.0433 26.5854 38.078L26.1174 38.104ZM34.5368 38.143C34.1902 38.143 33.8262 38.117 33.4448 38.065C33.0722 38.0217 32.7168 37.9523 32.3788 37.857C32.0408 37.7617 31.7375 37.649 31.4688 37.519C31.2348 37.4063 31.0702 37.259 30.9748 37.077C30.8795 36.8863 30.8448 36.687 30.8708 36.479C30.8968 36.271 30.9705 36.089 31.0918 35.933C31.2132 35.7683 31.3735 35.66 31.5728 35.608C31.7722 35.5473 31.9975 35.5733 32.2488 35.686C32.5782 35.842 32.9508 35.9633 33.3668 36.05C33.7828 36.1367 34.1728 36.18 34.5368 36.18C35.1088 36.18 35.5075 36.1063 35.7328 35.959C35.9668 35.803 36.0838 35.6123 36.0838 35.387C36.0838 35.1877 36.0015 35.0273 35.8368 34.906C35.6808 34.7847 35.3992 34.6807 34.9918 34.594L33.4708 34.269C32.6388 34.0957 32.0192 33.7923 31.6118 33.359C31.2045 32.9257 31.0008 32.3667 31.0008 31.682C31.0008 31.2313 31.0918 30.824 31.2738 30.46C31.4645 30.0873 31.7288 29.771 32.0668 29.511C32.4135 29.251 32.8208 29.0517 33.2888 28.913C33.7655 28.7657 34.2942 28.692 34.8748 28.692C35.3255 28.692 35.7805 28.744 36.2398 28.848C36.7078 28.9433 37.1108 29.0907 37.4488 29.29C37.6482 29.394 37.7912 29.537 37.8778 29.719C37.9645 29.901 37.9992 30.0917 37.9818 30.291C37.9645 30.4817 37.8952 30.6507 37.7738 30.798C37.6612 30.9453 37.5052 31.045 37.3058 31.097C37.1152 31.1403 36.8855 31.1057 36.6168 30.993C36.3655 30.8803 36.0795 30.798 35.7588 30.746C35.4468 30.6853 35.1435 30.655 34.8488 30.655C34.5282 30.655 34.2552 30.694 34.0298 30.772C33.8045 30.8413 33.6312 30.9453 33.5098 31.084C33.3972 31.2227 33.3408 31.383 33.3408 31.565C33.3408 31.747 33.4145 31.903 33.5618 32.033C33.7178 32.1543 33.9995 32.2583 34.4068 32.345L35.9148 32.67C36.7555 32.852 37.3838 33.151 37.7998 33.567C38.2158 33.983 38.4238 34.5247 38.4238 35.192C38.4238 35.6427 38.3328 36.05 38.1508 36.414C37.9688 36.778 37.7088 37.09 37.3708 37.35C37.0328 37.6013 36.6255 37.7963 36.1488 37.935C35.6722 38.0737 35.1348 38.143 34.5368 38.143Z" fill="#69A8FB"/>
<path d="M47 25V20C47 17.7909 45.2091 16 43 16H22C19.7909 16 18 17.7909 18 20V25" stroke="#69A8FB" stroke-width="2"/>
<path d="M47 42V47C47 49.2091 45.2091 51 43 51H22C19.7909 51 18 49.2091 18 47V42" stroke="#69A8FB" stroke-width="2"/>
</svg>
