<svg width="66" height="66" viewBox="0 0 66 66" fill="none" xmlns="http://www.w3.org/2000/svg">
<circle cx="33" cy="33" r="32.5" fill="white" stroke="#EFEFEF"/>
<path d="M23.4587 38.143C23.112 38.143 22.748 38.117 22.3667 38.065C21.994 38.0217 21.6387 37.9523 21.3007 37.857C20.9627 37.7617 20.6594 37.649 20.3907 37.519C20.1567 37.4063 19.992 37.259 19.8967 37.077C19.8014 36.8863 19.7667 36.687 19.7927 36.479C19.8187 36.271 19.8924 36.089 20.0137 35.933C20.135 35.7683 20.2954 35.66 20.4947 35.608C20.694 35.5473 20.9194 35.5733 21.1707 35.686C21.5 35.842 21.8727 35.9633 22.2887 36.05C22.7047 36.1367 23.0947 36.18 23.4587 36.18C24.0307 36.18 24.4294 36.1063 24.6547 35.959C24.8887 35.803 25.0057 35.6123 25.0057 35.387C25.0057 35.1877 24.9234 35.0273 24.7587 34.906C24.6027 34.7847 24.321 34.6807 23.9137 34.594L22.3927 34.269C21.5607 34.0957 20.941 33.7923 20.5337 33.359C20.1264 32.9257 19.9227 32.3667 19.9227 31.682C19.9227 31.2313 20.0137 30.824 20.1957 30.46C20.3864 30.0873 20.6507 29.771 20.9887 29.511C21.3354 29.251 21.7427 29.0517 22.2107 28.913C22.6874 28.7657 23.216 28.692 23.7967 28.692C24.2474 28.692 24.7024 28.744 25.1617 28.848C25.6297 28.9433 26.0327 29.0907 26.3707 29.29C26.57 29.394 26.713 29.537 26.7997 29.719C26.8864 29.901 26.921 30.0917 26.9037 30.291C26.8864 30.4817 26.817 30.6507 26.6957 30.798C26.583 30.9453 26.427 31.045 26.2277 31.097C26.037 31.1403 25.8074 31.1057 25.5387 30.993C25.2874 30.8803 25.0014 30.798 24.6807 30.746C24.3687 30.6853 24.0654 30.655 23.7707 30.655C23.45 30.655 23.177 30.694 22.9517 30.772C22.7264 30.8413 22.553 30.9453 22.4317 31.084C22.319 31.2227 22.2627 31.383 22.2627 31.565C22.2627 31.747 22.3364 31.903 22.4837 32.033C22.6397 32.1543 22.9214 32.2583 23.3287 32.345L24.8367 32.67C25.6774 32.852 26.3057 33.151 26.7217 33.567C27.1377 33.983 27.3457 34.5247 27.3457 35.192C27.3457 35.6427 27.2547 36.05 27.0727 36.414C26.8907 36.778 26.6307 37.09 26.2927 37.35C25.9547 37.6013 25.5474 37.7963 25.0707 37.935C24.594 38.0737 24.0567 38.143 23.4587 38.143ZM36.8665 39.157C37.0225 39.417 37.0788 39.651 37.0355 39.859C36.9921 40.0757 36.8838 40.2577 36.7105 40.405C36.5458 40.5523 36.3465 40.6477 36.1125 40.691C35.8871 40.7343 35.6618 40.7127 35.4365 40.626C35.2111 40.5393 35.0248 40.3747 34.8775 40.132L33.9155 38.585C33.8201 38.429 33.6945 38.3163 33.5385 38.247C33.3825 38.1777 33.1788 38.143 32.9275 38.143L34.7085 37.48C35.0985 37.48 35.4278 37.5537 35.6965 37.701C35.9651 37.8397 36.1948 38.0693 36.3855 38.39L36.8665 39.157ZM32.9405 38.143C32.0131 38.143 31.1985 37.948 30.4965 37.558C29.7945 37.1593 29.2485 36.6047 28.8585 35.894C28.4771 35.1833 28.2865 34.3557 28.2865 33.411C28.2865 32.7003 28.3948 32.0547 28.6115 31.474C28.8368 30.8933 29.1531 30.395 29.5605 29.979C29.9765 29.563 30.4705 29.2467 31.0425 29.03C31.6145 28.8047 32.2471 28.692 32.9405 28.692C33.8678 28.692 34.6781 28.887 35.3715 29.277C36.0735 29.667 36.6195 30.2173 37.0095 30.928C37.3995 31.63 37.5945 32.4577 37.5945 33.411C37.5945 34.1217 37.4818 34.7673 37.2565 35.348C37.0398 35.9287 36.7235 36.4313 36.3075 36.856C35.9001 37.272 35.4105 37.5927 34.8385 37.818C34.2665 38.0347 33.6338 38.143 32.9405 38.143ZM32.9405 36.141C33.3998 36.141 33.7898 36.0327 34.1105 35.816C34.4311 35.5993 34.6781 35.2873 34.8515 34.88C35.0248 34.4727 35.1115 33.983 35.1115 33.411C35.1115 32.553 34.9208 31.8857 34.5395 31.409C34.1581 30.9323 33.6251 30.694 32.9405 30.694C32.4898 30.694 32.0998 30.8023 31.7705 31.019C31.4498 31.227 31.2028 31.5347 31.0295 31.942C30.8561 32.3407 30.7695 32.8303 30.7695 33.411C30.7695 34.269 30.9601 34.9407 31.3415 35.426C31.7228 35.9027 32.2558 36.141 32.9405 36.141ZM40.2158 38C39.8345 38 39.5355 37.896 39.3188 37.688C39.1108 37.4713 39.0068 37.1723 39.0068 36.791V30.031C39.0068 29.641 39.1108 29.342 39.3188 29.134C39.5268 28.926 39.8215 28.822 40.2028 28.822C40.5928 28.822 40.8875 28.926 41.0868 29.134C41.2948 29.342 41.3988 29.641 41.3988 30.031V36.011H44.5708C44.9001 36.011 45.1515 36.0977 45.3248 36.271C45.5068 36.4357 45.5978 36.6783 45.5978 36.999C45.5978 37.3197 45.5068 37.5667 45.3248 37.74C45.1515 37.9133 44.9001 38 44.5708 38H40.2158Z" fill="#69A8FB"/>
<path d="M47 25V20C47 17.7909 45.2091 16 43 16H22C19.7909 16 18 17.7909 18 20V25" stroke="#69A8FB" stroke-width="2"/>
<path d="M47 42V47C47 49.2091 45.2091 51 43 51H22C19.7909 51 18 49.2091 18 47V42" stroke="#69A8FB" stroke-width="2"/>
</svg>
