<svg width="66" height="66" viewBox="0 0 66 66" fill="none" xmlns="http://www.w3.org/2000/svg">
<circle cx="33" cy="33" r="32.5" fill="white" stroke="#EFEFEF"/>
<path d="M18.8637 38.078C18.4737 38.078 18.1617 37.961 17.9277 37.727C17.7024 37.493 17.5897 37.1853 17.5897 36.804C17.5897 36.4313 17.7024 36.1323 17.9277 35.907C18.1617 35.673 18.4737 35.556 18.8637 35.556C19.271 35.556 19.583 35.673 19.7997 35.907C20.025 36.1323 20.1377 36.4313 20.1377 36.804C20.1377 37.1853 20.025 37.493 19.7997 37.727C19.583 37.961 19.271 38.078 18.8637 38.078ZM22.5877 38.117C22.2237 38.117 21.9464 38.0217 21.7557 37.831C21.565 37.6403 21.4697 37.3587 21.4697 36.986V29.901C21.4697 29.5197 21.565 29.2293 21.7557 29.03C21.9464 28.822 22.1977 28.718 22.5097 28.718C22.787 28.718 23.0037 28.77 23.1597 28.874C23.3157 28.978 23.489 29.1513 23.6797 29.394L27.8007 34.542H27.4367V29.836C27.4367 29.472 27.5277 29.1947 27.7097 29.004C27.9004 28.8133 28.1777 28.718 28.5417 28.718C28.9057 28.718 29.1787 28.8133 29.3607 29.004C29.5514 29.1947 29.6467 29.472 29.6467 29.836V37.038C29.6467 37.3673 29.56 37.6317 29.3867 37.831C29.2134 38.0217 28.9794 38.117 28.6847 38.117C28.39 38.117 28.156 38.065 27.9827 37.961C27.818 37.8483 27.6404 37.675 27.4497 37.441L23.3287 32.28H23.6927V36.986C23.6927 37.3587 23.5974 37.6403 23.4067 37.831C23.2247 38.0217 22.9517 38.117 22.5877 38.117ZM32.5693 38C32.1619 38 31.8499 37.896 31.6333 37.688C31.4253 37.4713 31.3213 37.1637 31.3213 36.765V30.07C31.3213 29.6713 31.4253 29.368 31.6333 29.16C31.8499 28.9433 32.1619 28.835 32.5693 28.835H36.9763C37.2883 28.835 37.5223 28.913 37.6783 29.069C37.8343 29.225 37.9123 29.4503 37.9123 29.745C37.9123 30.0483 37.8343 30.2823 37.6783 30.447C37.5223 30.603 37.2883 30.681 36.9763 30.681H33.6093V32.423H36.6903C36.9936 32.423 37.2233 32.501 37.3793 32.657C37.5439 32.813 37.6263 33.0427 37.6263 33.346C37.6263 33.6493 37.5439 33.879 37.3793 34.035C37.2233 34.191 36.9936 34.269 36.6903 34.269H33.6093V36.154H36.9763C37.2883 36.154 37.5223 36.2363 37.6783 36.401C37.8343 36.557 37.9123 36.7823 37.9123 37.077C37.9123 37.3803 37.8343 37.61 37.6783 37.766C37.5223 37.922 37.2883 38 36.9763 38H32.5693ZM42.7241 38.117C42.3428 38.117 42.0481 38.013 41.8401 37.805C41.6321 37.5883 41.5281 37.2893 41.5281 36.908V30.785H39.4871C39.1664 30.785 38.9194 30.7027 38.7461 30.538C38.5814 30.3647 38.4991 30.122 38.4991 29.81C38.4991 29.4893 38.5814 29.2467 38.7461 29.082C38.9194 28.9173 39.1664 28.835 39.4871 28.835H45.9611C46.2818 28.835 46.5244 28.9173 46.6891 29.082C46.8624 29.2467 46.9491 29.4893 46.9491 29.81C46.9491 30.122 46.8624 30.3647 46.6891 30.538C46.5244 30.7027 46.2818 30.785 45.9611 30.785H43.9201V36.908C43.9201 37.2893 43.8204 37.5883 43.6211 37.805C43.4218 38.013 43.1228 38.117 42.7241 38.117Z" fill="#69A8FB"/>
<path d="M47 25V20C47 17.7909 45.2091 16 43 16H22C19.7909 16 18 17.7909 18 20V25" stroke="#69A8FB" stroke-width="2"/>
<path d="M47 42V47C47 49.2091 45.2091 51 43 51H22C19.7909 51 18 49.2091 18 47V42" stroke="#69A8FB" stroke-width="2"/>
</svg>
