<svg width="66" height="66" viewBox="0 0 66 66" fill="none" xmlns="http://www.w3.org/2000/svg">
<circle cx="33" cy="33" r="32.5" fill="white" stroke="#EFEFEF"/>
<path d="M47 30V20C47 17.7909 45.2091 16 43 16H22C19.7909 16 18 17.7909 18 20V30" stroke="#69A8FB" stroke-width="2"/>
<path d="M47 37V47C47 49.2091 45.2091 51 43 51H22C19.7909 51 18 49.2091 18 47V37" stroke="#69A8FB" stroke-width="2"/>
<path d="M26.867 27C26.4137 28.6852 25.6432 32.7778 26.1871 35.6667C26.867 39.2778 28.227 40 30.9466 40C33.1223 40 35.2527 40 35.706 40C36.8392 40 39.2415 39.1333 39.7854 35.6667C40.4654 31.3333 39.3322 27.963 39.1055 27" stroke="#69A8FB" stroke-width="2.5"/>
</svg>
