<svg width="85" height="85" viewBox="0 0 85 85" fill="none" xmlns="http://www.w3.org/2000/svg">
<rect width="85" height="85" rx="9" fill="#C4D9F8"/>
<path d="M65.3084 34.0469C64.4691 34.0448 63.6565 34.3416 63.0162 34.8841C62.3758 35.4267 61.9496 36.1795 61.8138 37.0077L60.4294 45.3133C60.9314 45.4734 61.4033 45.716 61.8255 46.0311C62.3503 46.4252 62.7888 46.9227 63.1138 47.4928C63.4388 48.063 63.6436 48.6937 63.7154 49.346C63.7872 49.9984 63.7245 50.6585 63.5312 51.2857C63.338 51.9129 63.0183 52.4938 62.5918 52.9926L58.9764 57.2089C58.903 57.2945 58.8134 57.3649 58.7128 57.4159C58.6123 57.4669 58.5026 57.4976 58.3902 57.5063C58.2777 57.5149 58.1646 57.5013 58.0574 57.4663C57.9502 57.4313 57.851 57.3754 57.7654 57.302C57.6797 57.2286 57.6094 57.1391 57.5584 57.0385C57.5073 56.9379 57.4766 56.8283 57.468 56.7158C57.4593 56.6034 57.4729 56.4903 57.5079 56.3831C57.543 56.2759 57.5988 56.1767 57.6722 56.091L61.2868 51.8747C61.5603 51.5544 61.7654 51.1815 61.8893 50.7789C62.0132 50.3763 62.0534 49.9526 62.0073 49.5339C61.9612 49.1152 61.8299 48.7104 61.6214 48.3444C61.4129 47.9784 61.1316 47.659 60.795 47.4058C60.1989 46.9683 59.4667 46.7569 58.7291 46.8093C57.9915 46.8617 57.2966 47.1746 56.7683 47.692L51.759 53.5607C51.5188 53.7996 51.3285 54.0836 51.1988 54.3965C51.0692 54.7094 51.0028 55.0449 51.0037 55.3836V69.2813C51.0036 69.3941 51.0258 69.5059 51.0689 69.6102C51.1121 69.7145 51.1754 69.8093 51.2552 69.8891C51.335 69.9689 51.4298 70.0322 51.5341 70.0753C51.6384 70.1185 51.7502 70.1407 51.863 70.1406H62.1755C62.2974 70.1406 62.4178 70.1147 62.5289 70.0646C62.64 70.0145 62.7391 69.9414 62.8198 69.85C62.9004 69.7587 62.9607 69.6512 62.9966 69.5348C63.0326 69.4183 63.0433 69.2956 63.0282 69.1747L62.2351 62.8267L66.2483 60.1513C66.5746 59.932 66.8468 59.6416 67.0445 59.3019C67.2422 58.9621 67.3602 58.5819 67.3896 58.19L68.8424 37.8427C68.8767 37.3575 68.8109 36.8703 68.6489 36.4116C68.4869 35.9529 68.2323 35.5324 67.9008 35.1764C67.5693 34.8203 67.168 34.5363 66.722 34.342C66.2761 34.1477 65.7948 34.0472 65.3084 34.0469Z" fill="#FCEFC1"/>
<path d="M43.7192 47.692C43.191 47.1746 42.496 46.8618 41.7585 46.8093C41.0209 46.7569 40.2887 46.9683 39.6926 47.4058C39.3559 47.659 39.0747 47.9784 38.8661 48.3444C38.6576 48.7104 38.5263 49.1152 38.4802 49.5339C38.4342 49.9526 38.4743 50.3763 38.5982 50.7789C38.7222 51.1815 38.9272 51.5544 39.2008 51.8747L42.8154 56.091C42.9636 56.264 43.0371 56.4887 43.0196 56.7158C43.0021 56.9429 42.8951 57.1538 42.7222 57.302C42.5493 57.4503 42.3245 57.5237 42.0974 57.5063C41.8703 57.4888 41.6594 57.3818 41.5112 57.2089L37.8958 52.9926C37.4693 52.4938 37.1496 51.9129 36.9563 51.2857C36.7631 50.6585 36.7004 49.9984 36.7722 49.346C36.844 48.6937 37.0487 48.063 37.3738 47.4928C37.6988 46.9227 38.1372 46.4252 38.662 46.0311C39.0843 45.716 39.5561 45.4734 40.0581 45.3133L38.6737 37.0077C38.5241 36.1091 38.034 35.3028 37.3054 34.756C36.5768 34.2093 35.6656 33.9642 34.761 34.0717C33.8565 34.1792 33.0281 34.6309 32.4478 35.3331C31.8676 36.0354 31.5801 36.9341 31.6452 37.8427L33.0979 58.1899C33.1273 58.5819 33.2453 58.9621 33.443 59.3019C33.6407 59.6416 33.913 59.932 34.2392 60.1512L38.2524 62.8267L37.4594 69.1747C37.4443 69.2956 37.455 69.4183 37.491 69.5348C37.5269 69.6512 37.5872 69.7586 37.6678 69.85C37.7485 69.9413 37.8476 70.0145 37.9587 70.0646C38.0697 70.1147 38.1902 70.1406 38.312 70.1406H48.6245C48.7374 70.1407 48.8492 70.1185 48.9535 70.0753C49.0578 70.0322 49.1525 69.9689 49.2323 69.8891C49.3122 69.8092 49.3755 69.7145 49.4186 69.6102C49.4618 69.5059 49.484 69.3941 49.4839 69.2812V55.3835C49.4847 55.0449 49.4184 54.7094 49.2888 54.3965C49.1591 54.0836 48.9687 53.7996 48.7286 53.5607L43.7192 47.692Z" fill="#FCEFC1"/>
<path d="M27.4974 21.1596C25.2812 23.4326 23.8558 26.3589 23.4325 29.5051C23.0091 32.6513 23.6102 35.8503 25.1467 38.6282C25.8813 39.9771 26.8366 41.1934 27.9728 42.2269C29.1543 43.2633 29.9111 44.6997 30.0978 46.2602C29.7094 46.4101 29.3635 46.6526 29.09 46.9665C28.8166 47.2804 28.6239 47.6563 28.5286 48.0616C28.4334 48.4669 28.4385 48.8893 28.5436 49.2922C28.6486 49.695 28.8504 50.0661 29.1314 50.3733C28.7953 50.7417 28.5738 51.2 28.4939 51.6921C28.4141 52.1843 28.4793 52.6891 28.6816 53.1449C28.8839 53.6006 29.2146 53.9875 29.6332 54.2584C30.0519 54.5293 30.5403 54.6724 31.0389 54.6702H31.1076C31.3149 56.1004 32.0298 57.4082 33.1217 58.3549C34.2135 59.3015 35.6095 59.8239 37.0546 59.8265H38.7733C40.2184 59.8239 41.6144 59.3016 42.7062 58.3549C43.7981 57.4082 44.513 56.1004 44.7203 54.6702H44.7889C45.2876 54.6724 45.776 54.5293 46.1947 54.2584C46.6133 53.9875 46.944 53.6006 47.1463 53.1449C47.3486 52.6891 47.4138 52.1843 47.3339 51.6921C47.2541 51.2 47.0326 50.7417 46.6965 50.3733C46.9777 50.066 47.1795 49.6946 47.2845 49.2914C47.3895 48.8883 47.3944 48.4656 47.2989 48.0602C47.2033 47.6547 47.0102 47.2787 46.7363 46.9648C46.4624 46.651 46.1159 46.4088 45.7271 46.2593C45.9147 44.6987 46.6726 43.2625 47.8551 42.2269C48.9913 41.1934 49.9465 39.9771 50.6812 38.6282C52.4182 35.5371 52.9748 31.9207 52.2476 28.4503C51.5204 24.9799 49.5589 21.8912 46.727 19.7574C43.8951 17.6236 40.3853 16.5897 36.8489 16.8476C33.3125 17.1055 29.9898 18.6376 27.4974 21.1596ZM50.7737 30.6075L46.7099 30.6069C46.5441 30.6071 46.3819 30.6553 46.2429 30.7456C46.1038 30.8359 45.9938 30.9645 45.9262 31.1159C45.8585 31.2673 45.836 31.435 45.8615 31.5989C45.8869 31.7627 45.9592 31.9157 46.0696 32.0394C46.2909 32.2867 46.4359 32.5927 46.4871 32.9206C46.5383 33.2485 46.4935 33.5842 46.3581 33.8871C46.2226 34.1901 46.0024 34.4473 45.724 34.6279C45.4455 34.8084 45.1208 34.9045 44.7889 34.9045C44.4571 34.9045 44.1323 34.8084 43.8539 34.6279C43.5755 34.4473 43.3552 34.1901 43.2198 33.8871C43.0844 33.5842 43.0396 33.2485 43.0908 32.9206C43.1419 32.5927 43.2869 32.2867 43.5083 32.0394C43.6187 31.9157 43.6909 31.7627 43.7164 31.5989C43.7418 31.435 43.7194 31.2673 43.6517 31.1159C43.584 30.9646 43.474 30.836 43.335 30.7456C43.1959 30.6553 43.0337 30.6071 42.8679 30.6069H38.7739L38.7734 27.9204C39.2813 28.0515 39.8125 28.0646 40.3263 27.9586C40.84 27.8527 41.3228 27.6306 41.7374 27.3093C42.1521 26.988 42.4877 26.576 42.7186 26.105C42.9495 25.634 43.0696 25.1163 43.0695 24.5918C43.0695 24.0672 42.9494 23.5496 42.7184 23.0786C42.4875 22.6076 42.1518 22.1957 41.7371 21.8744C41.3223 21.5532 40.8396 21.3312 40.3258 21.2253C39.812 21.1194 39.2808 21.1325 38.7729 21.2637L38.7732 18.6181C41.9188 18.8144 44.8849 20.1506 47.1161 22.3765C49.2998 24.5813 50.6008 27.5092 50.7737 30.6075ZM28.7117 22.3765C30.943 20.1506 33.909 18.8144 37.0546 18.6181L37.0541 22.6711C37.0545 22.8369 37.1027 22.9991 37.1931 23.1382C37.2834 23.2772 37.4121 23.3872 37.5635 23.4549C37.7149 23.5225 37.8826 23.545 38.0465 23.5195C38.2104 23.4941 38.3634 23.4218 38.4871 23.3114C38.7344 23.0901 39.0404 22.9451 39.3683 22.8939C39.6962 22.8427 40.0319 22.8875 40.3348 23.0229C40.6378 23.1584 40.8951 23.3786 41.0756 23.657C41.2561 23.9355 41.3522 24.2602 41.3522 24.5921C41.3522 24.9239 41.2561 25.2487 41.0756 25.5271C40.8951 25.8055 40.6378 26.0258 40.3348 26.1612C40.0319 26.2966 39.6962 26.3414 39.3683 26.2902C39.0404 26.2391 38.7344 26.0941 38.4871 25.8727C38.3634 25.7623 38.2104 25.6901 38.0465 25.6646C37.8826 25.6392 37.7149 25.6616 37.5635 25.7293C37.4121 25.7969 37.2834 25.9069 37.1931 26.046C37.1027 26.185 37.0545 26.3472 37.0541 26.5131L37.0549 30.6069H34.3678C34.4984 30.099 34.5112 29.568 34.4051 29.0544C34.2989 28.5408 34.0767 28.0584 33.7553 27.644C33.434 27.2295 33.0221 26.8941 32.5512 26.6634C32.0803 26.4327 31.5628 26.3127 31.0384 26.3128C30.514 26.3129 29.9965 26.4329 29.5257 26.6638C29.0548 26.8946 28.643 27.2301 28.3218 27.6447C28.0006 28.0592 27.7784 28.5417 27.6724 29.0553C27.5664 29.5689 27.5793 30.0999 27.7101 30.6077H25.0542C25.227 27.5093 26.5281 24.5814 28.7117 22.3765ZM29.1284 40.9546C28.1337 40.05 27.2976 38.9851 26.6548 37.8041C25.735 36.1148 25.193 34.2458 25.0662 32.3265H29.1175C29.2833 32.3262 29.4455 32.278 29.5845 32.1876C29.7236 32.0973 29.8335 31.9687 29.9011 31.8173C29.9688 31.6659 29.9912 31.4982 29.9657 31.3344C29.9402 31.1705 29.8679 31.0176 29.7574 30.8939C29.5363 30.6466 29.3914 30.3406 29.3403 30.0128C29.2893 29.685 29.3341 29.3494 29.4695 29.0465C29.6049 28.7437 29.8251 28.4865 30.1034 28.3059C30.3818 28.1254 30.7064 28.0293 31.0382 28.0292C31.3699 28.0291 31.6946 28.125 31.9731 28.3053C32.2516 28.4856 32.4719 28.7427 32.6075 29.0455C32.7431 29.3483 32.7882 29.6838 32.7373 30.0116C32.6865 30.3395 32.5418 30.6456 32.3209 30.893C32.2105 31.0168 32.1382 31.1698 32.1128 31.3336C32.0873 31.4975 32.1098 31.6652 32.1774 31.8165C32.2451 31.9679 32.3551 32.0965 32.4941 32.1868C32.6332 32.2771 32.7954 32.3253 32.9612 32.3256H37.0552L37.0558 35.0137C36.5478 34.8825 36.0165 34.8693 35.5027 34.9751C34.9889 35.081 34.506 35.303 34.0913 35.6243C33.6765 35.9455 33.3407 36.3574 33.1097 36.8285C32.8787 37.2995 32.7586 37.8172 32.7586 38.3418C32.7586 38.8664 32.8786 39.3841 33.1095 39.8552C33.3405 40.3263 33.6762 40.7382 34.0909 41.0595C34.5057 41.3808 34.9884 41.6029 35.5023 41.7088C36.0161 41.8147 36.5474 41.8016 37.0553 41.6705L37.0547 46.0764H31.8089C31.5677 44.1001 30.6148 42.2793 29.1284 40.9546ZM45.6483 48.6546C45.6481 48.8825 45.5575 49.1009 45.3964 49.262C45.2352 49.4231 45.0168 49.5138 44.7889 49.514H31.0389C30.811 49.514 30.5924 49.4234 30.4313 49.2623C30.2701 49.1011 30.1796 48.8825 30.1796 48.6546C30.1796 48.4267 30.2701 48.2081 30.4313 48.0469C30.5924 47.8858 30.811 47.7952 31.0389 47.7952H44.7889C45.0168 47.7955 45.2352 47.8861 45.3963 48.0472C45.5575 48.2083 45.6481 48.4268 45.6483 48.6546ZM38.7733 58.1077H37.0546C36.0645 58.1064 35.1051 57.7638 34.3381 57.1377C33.5711 56.5115 33.0435 55.6401 32.8441 54.6702H42.9837C42.7844 55.6401 42.2567 56.5115 41.4898 57.1376C40.7228 57.7638 39.7634 58.1064 38.7733 58.1077ZM44.7889 52.9515H31.0389C30.811 52.9515 30.5924 52.8609 30.4313 52.6998C30.2701 52.5386 30.1796 52.32 30.1796 52.0921C30.1796 51.8642 30.2701 51.6456 30.4313 51.4844C30.5924 51.3233 30.811 51.2327 31.0389 51.2327H44.7889C45.0169 51.2327 45.2354 51.3233 45.3966 51.4844C45.5578 51.6456 45.6483 51.8642 45.6483 52.0921C45.6483 52.32 45.5578 52.5386 45.3966 52.6998C45.2354 52.8609 45.0169 52.9515 44.7889 52.9515ZM49.1731 37.8041C48.5303 38.9851 47.6942 40.05 46.6995 40.9546C45.2145 42.28 44.2628 44.1006 44.0223 46.0765H38.7734L38.7745 40.2623C38.7742 40.0964 38.726 39.9341 38.6355 39.795C38.5451 39.6559 38.4164 39.546 38.2649 39.4784C38.1134 39.4108 37.9456 39.3885 37.7817 39.4141C37.6178 39.4397 37.4648 39.5122 37.3411 39.6228C37.0938 39.844 36.7878 39.9889 36.4599 40.04C36.1321 40.0911 35.7965 40.0462 35.4936 39.9107C35.1908 39.7752 34.9336 39.555 34.7531 39.2766C34.5727 38.9981 34.4767 38.6734 34.4767 38.3416C34.4768 38.0098 34.5729 37.6852 34.7534 37.4068C34.934 37.1284 35.1912 36.9083 35.4941 36.7729C35.7971 36.6375 36.1327 36.5927 36.4605 36.6439C36.7883 36.6951 37.0943 36.8401 37.3415 37.0614C37.4652 37.1721 37.6182 37.2446 37.7821 37.2703C37.946 37.2959 38.1139 37.2736 38.2654 37.206C38.4169 37.1384 38.5456 37.0284 38.6361 36.8893C38.7265 36.7502 38.7747 36.5879 38.775 36.4219L38.7742 32.3256H41.4605C41.3294 32.8336 41.3163 33.3648 41.4222 33.8786C41.528 34.3924 41.7501 34.8752 42.0714 35.2899C42.3927 35.7046 42.8046 36.0403 43.2756 36.2713C43.7467 36.5022 44.2643 36.6223 44.7889 36.6223C45.3135 36.6223 45.8312 36.5022 46.3022 36.2713C46.7732 36.0403 47.1852 35.7046 47.5064 35.2899C47.8277 34.8752 48.0498 34.3924 48.1557 33.8786C48.2615 33.3648 48.2484 32.8336 48.1173 32.3256L50.7616 32.3263C50.6349 34.2457 50.0929 36.1147 49.1731 37.8041Z" fill="#25313B"/>
<path d="M20.7264 30.6077H19.0077C18.7798 30.6077 18.5612 30.6982 18.4 30.8594C18.2389 31.0206 18.1483 31.2392 18.1483 31.4671C18.1483 31.695 18.2389 31.9136 18.4 32.0747C18.5612 32.2359 18.7798 32.3264 19.0077 32.3264H20.7264C20.9544 32.3264 21.1729 32.2359 21.3341 32.0747C21.4953 31.9136 21.5858 31.695 21.5858 31.4671C21.5858 31.2392 21.4953 31.0206 21.3341 30.8594C21.1729 30.6982 20.9544 30.6077 20.7264 30.6077Z" fill="#25313B"/>
<path d="M56.8202 30.6077H55.1014C54.8735 30.6077 54.6549 30.6982 54.4938 30.8594C54.3326 31.0206 54.2421 31.2392 54.2421 31.4671C54.2421 31.695 54.3326 31.9136 54.4938 32.0747C54.6549 32.2359 54.8735 32.3264 55.1014 32.3264H56.8202C57.0481 32.3264 57.2667 32.2359 57.4279 32.0747C57.589 31.9136 57.6796 31.695 57.6796 31.4671C57.6796 31.2392 57.589 31.0206 57.4279 30.8594C57.2667 30.6982 57.0481 30.6077 56.8202 30.6077Z" fill="#25313B"/>
<path d="M25.153 43.0132L23.9378 44.2285C23.7766 44.3896 23.6861 44.6082 23.6861 44.8361C23.6861 45.064 23.7766 45.2825 23.9378 45.4437C24.0989 45.6048 24.3175 45.6953 24.5454 45.6953C24.7733 45.6953 24.9918 45.6048 25.153 45.4437L26.3682 44.2285C26.5293 44.0673 26.6199 43.8488 26.6199 43.6209C26.6199 43.393 26.5293 43.1744 26.3682 43.0132C26.207 42.8521 25.9885 42.7616 25.7606 42.7616C25.5327 42.7616 25.3141 42.8521 25.153 43.0132Z" fill="#25313B"/>
<path d="M50.6749 19.9209L51.8901 18.7057C51.9707 18.6261 52.0348 18.5313 52.0786 18.4269C52.1225 18.3224 52.1452 18.2103 52.1456 18.097C52.146 17.9837 52.1239 17.8714 52.0807 17.7667C52.0375 17.662 51.9741 17.5668 51.8939 17.4867C51.8138 17.4066 51.7187 17.3431 51.6139 17.2999C51.5092 17.2567 51.3969 17.2346 51.2836 17.235C51.1703 17.2353 51.0582 17.2581 50.9538 17.3019C50.8493 17.3458 50.7545 17.4099 50.6749 17.4905L49.4597 18.7057C49.2986 18.8668 49.208 19.0854 49.208 19.3133C49.208 19.5412 49.2986 19.7598 49.4597 19.9209C49.6209 20.0821 49.8394 20.1726 50.0673 20.1726C50.2952 20.1726 50.5138 20.082 50.6749 19.9209Z" fill="#25313B"/>
<path d="M50.6749 43.0132C50.5951 42.9335 50.5004 42.8702 50.3962 42.827C50.2919 42.7838 50.1802 42.7616 50.0673 42.7616C49.9545 42.7616 49.8427 42.7838 49.7385 42.827C49.6342 42.8702 49.5395 42.9335 49.4597 43.0132C49.3799 43.093 49.3166 43.1878 49.2734 43.292C49.2303 43.3963 49.208 43.508 49.208 43.6209C49.208 43.7337 49.2303 43.8454 49.2734 43.9497C49.3166 44.0539 49.3799 44.1487 49.4597 44.2285L50.6749 45.4437C50.8364 45.6031 51.0544 45.6922 51.2814 45.6915C51.5084 45.6908 51.7258 45.6003 51.8863 45.4398C52.0468 45.2793 52.1372 45.0619 52.138 44.8349C52.1387 44.608 52.0496 44.3899 51.8901 44.2285L50.6749 43.0132Z" fill="#25313B"/>
<path d="M25.153 19.9209C25.3141 20.082 25.5327 20.1726 25.7606 20.1726C25.9885 20.1726 26.207 20.082 26.3682 19.9209C26.5293 19.7598 26.6199 19.5412 26.6199 19.3133C26.6199 19.0854 26.5293 18.8668 26.3682 18.7057L25.153 17.4905C25.0732 17.4107 24.9785 17.3474 24.8742 17.3042C24.7699 17.261 24.6582 17.2388 24.5454 17.2388C24.4325 17.2388 24.3208 17.261 24.2165 17.3042C24.1123 17.3474 24.0176 17.4107 23.9378 17.4905C23.858 17.5703 23.7947 17.665 23.7515 17.7692C23.7083 17.8735 23.6861 17.9852 23.6861 18.0981C23.6861 18.326 23.7766 18.5445 23.9378 18.7057L25.153 19.9209Z" fill="#25313B"/>
</svg>
