<svg width="178" height="70" viewBox="0 0 178 70" fill="none" xmlns="http://www.w3.org/2000/svg">
<g clip-path="url(#clip0_41_1095)">
<path d="M34.9348 69.7147C28.0253 69.7147 21.271 67.6703 15.5261 63.8402C9.78107 60.01 5.30339 54.566 2.65927 48.1967C0.0151366 41.8273 -0.676688 34.8187 0.671277 28.057C2.01924 21.2954 5.34645 15.0844 10.2322 10.2095C15.1179 5.33461 21.3427 2.01477 28.1193 0.66979C34.896 -0.675188 41.9202 0.015103 48.3037 2.65337C54.6872 5.29164 60.1433 9.7594 63.982 15.4917C67.8206 21.2239 69.8695 27.9632 69.8695 34.8574C69.8695 34.8574 68.1776 61.0209 82.5556 59.0183H82.4597C82.2748 59.0798 81.8364 59.2097 81.1925 59.3669C75.4454 60.7338 53.9639 63.83 52.4706 34.8232C52.4706 30.1917 50.6267 25.75 47.3445 22.4751C44.0623 19.2002 39.6107 17.3603 34.969 17.3603C30.3273 17.3603 25.8757 19.2002 22.5935 22.4751C19.3113 25.75 17.4674 30.1917 17.4674 34.8232C17.4974 35.9963 17.6118 37.1658 17.8099 38.3226C17.8099 38.3704 17.8099 38.4046 17.8099 38.4456C21.9199 61.9231 57.478 61.4583 57.478 61.4583C51.1866 66.7975 43.194 69.7248 34.9348 69.7147Z" fill="url(#paint0_linear_41_1095)"/>
<g style="mix-blend-mode:overlay" opacity="0.3">
<path d="M34.9348 69.7147C28.0253 69.7147 21.271 67.6703 15.5261 63.8402C9.78107 60.01 5.30339 54.566 2.65927 48.1967C0.0151366 41.8273 -0.676688 34.8187 0.671277 28.057C2.01924 21.2954 5.34645 15.0844 10.2322 10.2095C15.1179 5.33461 21.3427 2.01477 28.1193 0.66979C34.896 -0.675188 41.9202 0.015103 48.3037 2.65337C54.6872 5.29164 60.1433 9.7594 63.982 15.4917C67.8206 21.2239 69.8695 27.9632 69.8695 34.8574C69.8695 34.8574 68.1776 61.0209 82.5556 59.0183H82.4597C82.0487 59.1723 81.6245 59.2889 81.1925 59.3669C77.1784 60.146 66.5267 59.9615 64.3348 34.8574C61.8345 6.21966 33.3593 0.362259 15.3576 12.699C-2.64407 25.0358 3.60309 77.5063 57.478 61.4583C51.1866 66.7975 43.194 69.7248 34.9348 69.7147Z" fill="black"/>
</g>
<g style="mix-blend-mode:overlay" opacity="0.1">
<path d="M9.69956 44.3643C9.69956 44.3643 8.53507 11.1131 41.2778 10.6483C41.2778 10.6483 6.49378 5.41974 9.69956 44.3643Z" fill="white"/>
</g>
</g>
<path d="M93.2617 58.5268C92.0632 58.5268 90.8525 58.3556 89.6296 58.0132C88.4066 57.6463 87.2326 57.1082 86.1075 56.3989C84.9824 55.6651 83.9796 54.7724 83.099 53.7206C82.243 52.6445 81.5581 51.4093 81.0445 50.0151C80.5309 48.5965 80.274 47.0311 80.274 45.319C80.274 43.6314 80.5309 42.1149 81.0445 40.7697C81.5581 39.4 82.243 38.2015 83.099 37.1742C83.9796 36.1469 84.9701 35.2909 86.0708 34.606C87.1959 33.9212 88.3699 33.4075 89.5929 33.0651C90.8403 32.6982 92.0755 32.5026 93.2984 32.4781C94.5458 32.4781 95.622 32.6126 96.527 32.8817C97.432 33.1507 98.1657 33.4442 98.7283 33.7622C99.2908 34.0557 99.6699 34.2636 99.8656 34.3859C100.257 34.6305 100.624 34.9118 100.966 35.2297C101.333 35.5232 101.529 35.8901 101.553 36.3304C101.578 36.6239 101.541 36.8929 101.443 37.1375C101.345 37.3576 101.211 37.59 101.04 37.8346C100.746 38.2504 100.453 38.5561 100.159 38.7518C99.8656 38.9475 99.5721 39.0453 99.2786 39.0453C99.0096 39.0453 98.7527 38.9719 98.5081 38.8252C98.288 38.6784 98.0067 38.495 97.6643 38.2749C97.5176 38.177 97.2485 38.0303 96.8572 37.8346C96.4903 37.6145 95.9889 37.4188 95.3529 37.2476C94.7415 37.0764 93.9955 36.9908 93.115 36.9908C92.0632 36.9908 91.036 37.1742 90.0331 37.5411C89.0303 37.908 88.1253 38.4583 87.3182 39.1921C86.5355 39.9014 85.9118 40.7941 85.4471 41.8703C84.9824 42.922 84.75 44.1328 84.75 45.5025C84.75 46.8722 84.9824 48.0951 85.4471 49.1713C85.9118 50.223 86.5355 51.1158 87.3182 51.8495C88.1253 52.5589 89.0303 53.0969 90.0331 53.4638C91.036 53.8307 92.0632 54.0142 93.115 54.0142C93.9466 54.0142 94.6559 53.9408 95.2429 53.794C95.8544 53.6228 96.368 53.4271 96.7838 53.207C97.2241 52.9624 97.5542 52.779 97.7744 52.6567C98.0434 52.4855 98.3002 52.3265 98.5448 52.1797C98.7894 52.033 99.0462 51.9596 99.3153 51.9596C99.6088 51.9596 99.8901 52.0574 100.159 52.2531C100.453 52.4488 100.734 52.7668 101.003 53.207C101.174 53.4761 101.309 53.7329 101.407 53.9775C101.504 54.2221 101.541 54.4789 101.517 54.7479C101.492 55.1882 101.296 55.5673 100.93 55.8853C100.587 56.1788 100.22 56.4356 99.8289 56.6557C99.6333 56.778 99.2541 56.9981 98.6916 57.3161C98.1535 57.6096 97.432 57.8787 96.527 58.1232C95.622 58.3923 94.5336 58.5268 93.2617 58.5268ZM116.459 58.6736C114.698 58.6736 113.047 58.3434 111.506 57.683C109.989 56.9981 108.644 56.0687 107.47 54.8947C106.296 53.6962 105.379 52.3265 104.719 50.7856C104.058 49.2202 103.728 47.5448 103.728 45.7593C103.728 43.9249 104.046 42.2127 104.682 40.6229C105.342 39.0086 106.235 37.6022 107.36 36.4038C108.51 35.1808 109.83 34.2269 111.322 33.5421C112.814 32.8572 114.416 32.5148 116.129 32.5148C117.914 32.5148 119.565 32.8572 121.082 33.5421C122.622 34.2024 123.968 35.1319 125.117 36.3304C126.267 37.5289 127.172 38.923 127.832 40.5128C128.493 42.0782 128.823 43.7781 128.823 45.6125C128.823 47.398 128.505 49.0857 127.869 50.6755C127.233 52.2409 126.34 53.635 125.191 54.858C124.041 56.0565 122.72 56.9981 121.228 57.683C119.761 58.3434 118.171 58.6736 116.459 58.6736ZM116.275 54.1976C117.4 54.1976 118.452 53.9775 119.431 53.5372C120.409 53.0969 121.265 52.4855 121.999 51.7028C122.757 50.9201 123.344 50.0151 123.76 48.9879C124.176 47.9361 124.383 46.811 124.383 45.6125C124.383 44.414 124.163 43.3012 123.723 42.2739C123.307 41.2222 122.72 40.3049 121.962 39.5223C121.228 38.7151 120.372 38.0914 119.394 37.6512C118.44 37.2109 117.4 36.9908 116.275 36.9908C115.175 36.9908 114.135 37.2109 113.157 37.6512C112.178 38.0914 111.31 38.7151 110.552 39.5223C109.818 40.3049 109.243 41.2222 108.828 42.2739C108.412 43.3256 108.204 44.4385 108.204 45.6125C108.204 46.7866 108.412 47.8994 108.828 48.9512C109.268 50.0029 109.855 50.9201 110.589 51.7028C111.322 52.4855 112.166 53.0969 113.12 53.5372C114.098 53.9775 115.15 54.1976 116.275 54.1976ZM133.759 58.3434C133.123 58.3434 132.646 58.2333 132.328 58.0132C132.01 57.8175 131.802 57.5485 131.704 57.206C131.606 56.8636 131.557 56.4967 131.557 56.1054V34.8995C131.557 34.5082 131.594 34.1535 131.668 33.8356C131.765 33.4931 131.973 33.2241 132.291 33.0284C132.609 32.8083 133.111 32.6982 133.795 32.6982L140.693 32.7349C142.478 32.7349 144.117 33.0407 145.609 33.6521C147.126 34.2636 148.434 35.1319 149.535 36.257C150.635 37.3821 151.479 38.7273 152.066 40.2927C152.678 41.8336 152.983 43.5335 152.983 45.3924C152.983 47.3002 152.678 49.049 152.066 50.6388C151.455 52.2287 150.599 53.5984 149.498 54.7479C148.397 55.8975 147.089 56.7902 145.572 57.4262C144.08 58.0376 142.417 58.3434 140.583 58.3434H133.759ZM135.997 53.9041H140.693C142.258 53.9041 143.628 53.5617 144.802 52.8768C145.976 52.1675 146.881 51.1892 147.517 49.9417C148.177 48.6943 148.507 47.239 148.507 45.5758C148.507 43.8882 148.177 42.4206 147.517 41.1732C146.881 39.9014 145.964 38.923 144.765 38.2382C143.591 37.5289 142.222 37.1742 140.656 37.1742H135.997V53.9041ZM159.099 58.3801C158.414 58.3801 157.913 58.27 157.595 58.0499C157.277 57.8542 157.081 57.5852 157.008 57.2427C156.934 56.9003 156.898 56.5212 156.898 56.1054V34.9362C156.898 34.1046 157.057 33.5298 157.375 33.2119C157.717 32.8939 158.328 32.7349 159.209 32.7349H173.517C173.933 32.7349 174.3 32.7838 174.618 32.8817C174.961 32.955 175.23 33.1507 175.425 33.4687C175.621 33.7622 175.719 34.2636 175.719 34.9729C175.719 35.6578 175.609 36.1592 175.389 36.4771C175.193 36.7951 174.924 36.9908 174.581 37.0641C174.263 37.1375 173.897 37.1742 173.481 37.1742H161.337V43.3378H169.702C170.118 43.3378 170.472 43.3868 170.766 43.4846C171.059 43.558 171.292 43.7292 171.463 43.9982C171.634 44.2673 171.72 44.7198 171.72 45.3557C171.72 45.9672 171.634 46.4197 171.463 46.7132C171.292 46.9822 171.047 47.1534 170.729 47.2268C170.411 47.2757 170.044 47.3002 169.628 47.3002H161.337V53.9041H173.517C173.933 53.9041 174.3 53.953 174.618 54.0508C174.961 54.1242 175.23 54.3199 175.425 54.6379C175.621 54.9558 175.719 55.4572 175.719 56.1421C175.719 56.8269 175.609 57.3283 175.389 57.6463C175.193 57.9643 174.924 58.1599 174.581 58.2333C174.263 58.3311 173.897 58.3801 173.481 58.3801H159.099Z" fill="white"/>
<defs>
<linearGradient id="paint0_linear_41_1095" x1="-18.5771" y1="72.6605" x2="112.255" y2="-5.566" gradientUnits="userSpaceOnUse">
<stop offset="0.26" stop-color="#A3CAFF"/>
<stop offset="0.77" stop-color="#3C87EB"/>
</linearGradient>
<clipPath id="clip0_41_1095">
<rect width="82.5488" height="69.7078" fill="white"/>
</clipPath>
</defs>
</svg>
