<svg width="64" height="64" viewBox="0 0 64 64" fill="none" xmlns="http://www.w3.org/2000/svg">
<path d="M30.852 42.37L30.969 42.467L31.168 42.621C29.108 43.967 26.636 44.75 23.979 44.75C16.81 44.752 11 39.043 11 32.001C11 24.96 16.81 19.25 23.979 19.25C26.636 19.25 29.109 20.034 31.163 21.379L31.04 21.48C30.978 21.532 30.92 21.583 30.873 21.637C27.8 24.245 26.042 28.026 26.042 32.001C26.041 35.974 27.793 39.755 30.852 42.37ZM40.021 19.25C37.361 19.25 34.891 20.034 32.837 21.379C32.942 21.467 33.045 21.547 33.124 21.637C36.197 24.245 37.958 28.026 37.958 32.001C37.958 35.973 36.206 39.75 33.147 42.37L32.831 42.621C34.891 43.967 37.36 44.75 40.018 44.75C47.19 44.752 53 39.043 53 32.001C53 24.962 47.19 19.25 40.021 19.25ZM31.511 22.381C31.669 22.242 31.833 22.113 32 21.984C32.167 22.113 32.334 22.244 32.489 22.381C35.228 24.718 36.954 28.158 36.954 32.001C36.954 35.845 35.225 39.284 32.489 41.621C32.331 41.758 32.167 41.893 32 42.02C31.833 41.893 31.669 41.759 31.511 41.621C28.775 39.284 27.046 35.846 27.046 32.001C27.046 28.158 28.774 24.718 31.511 22.381Z" fill="#BFBFBF"/>
</svg>
