<svg width="64" height="64" viewBox="0 0 64 64" fill="none" xmlns="http://www.w3.org/2000/svg">
<path fill-rule="evenodd" clip-rule="evenodd" d="M55.381 26.807C55.561 26.725 55.766 26.683 55.996 26.683C56.215 26.683 56.414 26.723 56.593 26.802C56.772 26.881 56.925 26.99 57.053 27.128C57.181 27.266 57.281 27.43 57.351 27.619C57.422 27.808 57.458 28.014 57.458 28.237C57.458 28.46 57.423 28.665 57.351 28.854C57.28 29.043 57.181 29.207 57.053 29.345C56.925 29.483 56.771 29.592 56.593 29.671C56.414 29.75 56.215 29.79 55.996 29.79C55.767 29.79 55.562 29.749 55.381 29.666C55.2 29.583 55.048 29.472 54.923 29.332C54.798 29.192 54.702 29.028 54.634 28.839C54.567 28.65 54.533 28.449 54.533 28.237C54.533 28.024 54.567 27.824 54.634 27.635C54.702 27.446 54.798 27.282 54.923 27.142C55.048 27.001 55.2 26.89 55.381 26.807ZM59.633 30.507V30.431H59.703C59.719 30.431 59.732 30.434 59.741 30.44C59.751 30.446 59.756 30.456 59.756 30.468C59.756 30.481 59.751 30.491 59.741 30.497C59.732 30.503 59.719 30.507 59.703 30.507H59.633ZM59.789 30.401C59.769 30.385 59.741 30.377 59.704 30.377H59.572V30.663H59.633V30.556H59.661L59.748 30.663H59.821L59.727 30.555C59.756 30.551 59.779 30.542 59.795 30.527C59.811 30.512 59.819 30.492 59.819 30.468C59.819 30.44 59.809 30.418 59.789 30.401ZM59.779 30.743C59.75 30.755 59.719 30.762 59.686 30.762C59.652 30.762 59.621 30.756 59.591 30.743C59.561 30.73 59.536 30.713 59.514 30.692C59.493 30.67 59.475 30.645 59.463 30.616C59.451 30.587 59.445 30.556 59.445 30.522C59.445 30.489 59.451 30.458 59.463 30.428C59.475 30.399 59.493 30.373 59.514 30.352C59.536 30.33 59.561 30.313 59.591 30.301C59.62 30.288 59.652 30.283 59.686 30.283C59.719 30.283 59.75 30.289 59.779 30.301C59.807 30.313 59.833 30.33 59.854 30.352C59.876 30.374 59.893 30.399 59.905 30.428C59.917 30.457 59.924 30.489 59.924 30.522C59.924 30.555 59.918 30.586 59.905 30.616C59.893 30.645 59.876 30.671 59.854 30.692C59.832 30.713 59.807 30.73 59.779 30.743ZM59.808 30.237C59.77 30.221 59.73 30.213 59.686 30.213C59.642 30.213 59.601 30.221 59.562 30.237C59.524 30.253 59.49 30.275 59.462 30.303C59.434 30.331 59.412 30.364 59.395 30.401C59.378 30.439 59.37 30.478 59.37 30.521C59.37 30.563 59.378 30.603 59.395 30.64C59.411 30.677 59.434 30.71 59.462 30.738C59.49 30.766 59.524 30.788 59.562 30.804C59.601 30.82 59.642 30.829 59.686 30.829C59.73 30.829 59.77 30.821 59.808 30.804C59.846 30.788 59.879 30.766 59.908 30.738C59.937 30.71 59.959 30.677 59.975 30.64C59.991 30.603 60 30.563 60 30.521C60 30.479 59.992 30.439 59.975 30.401C59.959 30.364 59.936 30.331 59.908 30.303C59.879 30.275 59.846 30.253 59.808 30.237ZM56.765 25.881C56.515 25.751 56.217 25.686 55.869 25.686C55.528 25.686 55.211 25.749 54.918 25.876C54.625 26.003 54.368 26.179 54.149 26.405C53.93 26.631 53.758 26.9 53.633 27.212C53.508 27.524 53.446 27.866 53.446 28.237C53.446 28.608 53.509 28.95 53.633 29.262C53.758 29.574 53.93 29.843 54.149 30.069C54.368 30.295 54.625 30.471 54.918 30.598C55.211 30.724 55.529 30.788 55.869 30.788C56.217 30.788 56.515 30.724 56.765 30.595C57.015 30.467 57.224 30.295 57.392 30.079V30.661H58.45V23.373H57.392V26.4C57.224 26.184 57.015 26.011 56.765 25.881ZM52.835 25.719C52.705 25.697 52.56 25.686 52.397 25.686C52.1 25.686 51.832 25.74 51.592 25.848C51.352 25.956 51.152 26.126 50.99 26.359V25.812H49.942V30.66H51V27.993C51 27.787 51.029 27.603 51.086 27.441C51.143 27.279 51.223 27.142 51.324 27.031C51.425 26.919 51.546 26.835 51.689 26.778C51.83 26.721 51.985 26.692 52.154 26.692C52.282 26.692 52.421 26.707 52.569 26.737C52.717 26.767 52.847 26.811 52.958 26.869L53.211 25.821C53.091 25.776 52.965 25.741 52.835 25.719ZM45.314 26.807C45.495 26.725 45.7 26.683 45.929 26.683C46.148 26.683 46.347 26.723 46.526 26.802C46.705 26.881 46.858 26.99 46.987 27.128C47.115 27.266 47.215 27.43 47.286 27.619C47.357 27.808 47.392 28.014 47.392 28.237C47.392 28.46 47.357 28.665 47.286 28.854C47.215 29.043 47.116 29.207 46.987 29.345C46.858 29.483 46.705 29.592 46.526 29.671C46.347 29.75 46.148 29.79 45.929 29.79C45.7 29.79 45.495 29.749 45.314 29.666C45.133 29.583 44.981 29.472 44.856 29.332C44.731 29.192 44.635 29.028 44.567 28.839C44.5 28.65 44.466 28.449 44.466 28.237C44.466 28.024 44.5 27.824 44.567 27.635C44.634 27.446 44.731 27.282 44.856 27.142C44.981 27.001 45.134 26.89 45.314 26.807ZM47.326 30.661H48.384V25.813H47.326V26.4C47.157 26.184 46.948 26.011 46.699 25.881C46.449 25.751 46.15 25.686 45.803 25.686C45.462 25.686 45.145 25.749 44.852 25.876C44.559 26.003 44.302 26.179 44.083 26.405C43.864 26.631 43.692 26.9 43.567 27.212C43.442 27.524 43.379 27.866 43.379 28.237C43.379 28.608 43.442 28.95 43.567 29.262C43.692 29.574 43.864 29.843 44.083 30.069C44.302 30.295 44.559 30.471 44.852 30.598C45.146 30.724 45.463 30.788 45.803 30.788C46.151 30.788 46.449 30.724 46.699 30.595C46.949 30.467 47.158 30.295 47.326 30.079V30.661ZM41.951 25.881C41.637 25.751 41.298 25.686 40.934 25.686C40.55 25.686 40.2 25.751 39.887 25.881C39.573 26.011 39.304 26.19 39.082 26.417C38.859 26.645 38.687 26.914 38.566 27.224C38.444 27.535 38.384 27.872 38.384 28.236C38.384 28.6 38.445 28.937 38.566 29.248C38.687 29.558 38.859 29.827 39.082 30.055C39.304 30.283 39.573 30.461 39.887 30.591C40.2 30.721 40.55 30.786 40.934 30.786C41.299 30.786 41.635 30.721 41.947 30.591C42.257 30.461 42.524 30.268 42.746 30.012L42.093 29.283C41.938 29.428 41.759 29.549 41.556 29.645C41.353 29.741 41.136 29.789 40.903 29.789C40.701 29.789 40.512 29.751 40.336 29.675C40.161 29.599 40.009 29.493 39.88 29.356C39.752 29.219 39.652 29.055 39.579 28.865C39.506 28.674 39.47 28.464 39.47 28.235C39.47 28.005 39.506 27.795 39.579 27.605C39.651 27.415 39.752 27.251 39.88 27.114C40.008 26.977 40.16 26.871 40.336 26.795C40.512 26.719 40.701 26.681 40.903 26.681C41.136 26.681 41.345 26.724 41.531 26.81C41.716 26.896 41.895 27.02 42.067 27.182L42.745 26.458C42.53 26.204 42.265 26.011 41.951 25.881ZM37.753 25.719C37.623 25.697 37.477 25.686 37.315 25.686C37.018 25.686 36.75 25.74 36.51 25.848C36.271 25.956 36.07 26.126 35.908 26.359V25.812H34.86V30.66H35.918V27.993C35.918 27.787 35.946 27.603 36.004 27.441C36.061 27.279 36.141 27.142 36.242 27.031C36.343 26.919 36.464 26.835 36.606 26.778C36.748 26.721 36.903 26.692 37.072 26.692C37.2 26.692 37.338 26.707 37.487 26.737C37.636 26.767 37.765 26.811 37.877 26.869L38.13 25.821C38.009 25.776 37.883 25.741 37.753 25.719ZM30.835 26.714C30.982 26.657 31.15 26.628 31.339 26.628C31.676 26.628 31.951 26.733 32.164 26.942C32.377 27.151 32.511 27.445 32.569 27.823H30.053C30.08 27.648 30.127 27.486 30.195 27.34C30.262 27.193 30.349 27.067 30.456 26.96C30.561 26.853 30.688 26.771 30.835 26.714ZM32.287 25.871C32.006 25.748 31.695 25.686 31.358 25.686C31 25.686 30.674 25.748 30.379 25.871C30.084 25.994 29.83 26.168 29.617 26.392C29.405 26.616 29.239 26.885 29.121 27.199C29.003 27.513 28.944 27.859 28.944 28.237C28.944 28.621 29.005 28.971 29.126 29.284C29.248 29.598 29.418 29.866 29.637 30.089C29.856 30.312 30.118 30.484 30.422 30.605C30.726 30.726 31.06 30.787 31.424 30.787C31.791 30.787 32.142 30.736 32.474 30.635C32.806 30.534 33.121 30.357 33.418 30.103L32.891 29.349C32.689 29.511 32.465 29.637 32.22 29.726C31.975 29.816 31.731 29.86 31.488 29.86C31.316 29.86 31.151 29.837 30.992 29.789C30.833 29.742 30.69 29.668 30.562 29.569C30.434 29.469 30.324 29.342 30.233 29.187C30.142 29.032 30.079 28.844 30.046 28.625H33.63C33.636 28.564 33.642 28.5 33.645 28.433C33.648 28.366 33.65 28.298 33.65 28.231C33.65 27.853 33.593 27.508 33.48 27.196C33.367 26.884 33.21 26.616 33.009 26.392C32.81 26.168 32.569 25.994 32.287 25.871ZM26.247 26.774H28.105V25.813H26.247V24.345H25.184V25.813H24.217V26.774H25.184V28.905C25.184 29.55 25.337 30.024 25.642 30.33C25.947 30.636 26.375 30.788 26.925 30.788C27.232 30.788 27.508 30.741 27.753 30.646C27.997 30.552 28.218 30.438 28.413 30.307L27.993 29.462C27.848 29.553 27.69 29.631 27.52 29.695C27.35 29.759 27.182 29.791 27.016 29.791C26.908 29.791 26.808 29.774 26.715 29.74C26.622 29.706 26.541 29.653 26.472 29.581C26.403 29.508 26.348 29.414 26.307 29.3C26.267 29.185 26.246 29.047 26.246 28.885L26.247 26.774ZM22.811 26.888C22.919 26.937 23.01 26.984 23.084 27.027L23.54 26.202C23.287 26.04 22.992 25.914 22.655 25.825C22.317 25.736 21.958 25.691 21.577 25.691C21.267 25.691 20.988 25.727 20.742 25.8C20.496 25.872 20.286 25.975 20.112 26.109C19.938 26.242 19.805 26.405 19.712 26.598C19.619 26.79 19.573 27.006 19.573 27.246C19.573 27.638 19.712 27.954 19.991 28.195C20.269 28.437 20.678 28.594 21.218 28.668L21.724 28.734C22.014 28.774 22.227 28.839 22.362 28.929C22.497 29.019 22.565 29.133 22.565 29.271C22.565 29.453 22.472 29.598 22.287 29.704C22.101 29.81 21.826 29.863 21.462 29.863C21.263 29.863 21.085 29.85 20.928 29.823C20.771 29.796 20.628 29.76 20.498 29.714C20.368 29.669 20.252 29.616 20.149 29.557C20.046 29.498 19.951 29.435 19.863 29.367L19.372 30.162C19.547 30.293 19.731 30.4 19.924 30.481C20.116 30.562 20.305 30.625 20.491 30.671C20.676 30.716 20.852 30.747 21.017 30.762C21.182 30.777 21.327 30.785 21.452 30.785C21.799 30.785 22.111 30.746 22.386 30.669C22.661 30.591 22.892 30.482 23.079 30.342C23.266 30.202 23.41 30.035 23.509 29.841C23.608 29.647 23.658 29.434 23.658 29.201C23.658 28.786 23.51 28.463 23.213 28.232C22.916 28.001 22.503 27.846 21.973 27.769L21.472 27.693C21.361 27.676 21.256 27.657 21.158 27.635C21.06 27.613 20.976 27.584 20.905 27.546C20.834 27.509 20.778 27.462 20.736 27.404C20.694 27.347 20.673 27.276 20.673 27.192C20.673 27.02 20.753 26.88 20.913 26.774C21.073 26.668 21.298 26.615 21.589 26.615C21.741 26.615 21.89 26.628 22.037 26.655C22.184 26.682 22.323 26.716 22.454 26.756C22.583 26.795 22.703 26.839 22.811 26.888ZM15.156 26.807C15.336 26.725 15.541 26.683 15.771 26.683C15.991 26.683 16.189 26.723 16.368 26.802C16.547 26.881 16.7 26.99 16.829 27.128C16.957 27.266 17.057 27.43 17.128 27.619C17.199 27.808 17.234 28.014 17.234 28.237C17.234 28.46 17.199 28.665 17.128 28.854C17.057 29.043 16.957 29.207 16.829 29.345C16.701 29.483 16.547 29.592 16.368 29.671C16.189 29.75 15.99 29.79 15.771 29.79C15.542 29.79 15.337 29.749 15.156 29.666C14.975 29.583 14.823 29.472 14.698 29.332C14.573 29.192 14.477 29.028 14.41 28.839C14.342 28.65 14.309 28.449 14.309 28.237C14.309 28.024 14.343 27.824 14.41 27.635C14.477 27.446 14.573 27.282 14.698 27.142C14.823 27.001 14.975 26.89 15.156 26.807ZM17.167 30.661H18.225V25.813H17.167V26.4C16.998 26.184 16.789 26.011 16.54 25.881C16.29 25.751 15.991 25.686 15.644 25.686C15.303 25.686 14.986 25.749 14.693 25.876C14.399 26.003 14.143 26.179 13.924 26.405C13.705 26.631 13.533 26.9 13.408 27.212C13.283 27.524 13.221 27.866 13.221 28.237C13.221 28.608 13.283 28.95 13.408 29.262C13.533 29.574 13.705 29.843 13.924 30.069C14.143 30.295 14.4 30.471 14.693 30.598C14.987 30.724 15.304 30.788 15.644 30.788C15.991 30.788 16.29 30.724 16.54 30.595C16.79 30.467 16.999 30.295 17.167 30.079V30.661ZM11.059 30.661H12.203V23.576H10.447L8.387 28.637L6.327 23.576H4.571V30.661H5.715V24.886L7.785 29.967H8.989L11.059 24.83V30.661ZM55.699 36.693C55.841 36.638 56.002 36.61 56.185 36.61C56.51 36.61 56.775 36.711 56.98 36.913C57.185 37.114 57.315 37.398 57.37 37.762H54.945C54.971 37.593 55.016 37.437 55.082 37.296C55.147 37.155 55.231 37.033 55.333 36.93C55.436 36.828 55.558 36.749 55.699 36.693ZM59.37 40.216V40.5H59.318V40.285L59.239 40.47H59.184L59.104 40.286V40.5H59.052V40.216H59.126L59.212 40.411L59.297 40.216H59.37ZM58.902 40.265V40.5H58.85V40.265H58.755V40.217H58.996V40.265H58.902ZM57.099 35.881C56.827 35.763 56.529 35.703 56.204 35.703C55.859 35.703 55.544 35.763 55.26 35.881C54.975 36 54.731 36.167 54.526 36.384C54.321 36.6 54.162 36.86 54.048 37.162C53.934 37.464 53.877 37.798 53.877 38.162C53.877 38.533 53.935 38.87 54.053 39.172C54.17 39.475 54.334 39.733 54.546 39.948C54.757 40.1621 55.01 40.328 55.302 40.446C55.595 40.563 55.917 40.621 56.268 40.621C56.623 40.621 56.96 40.572 57.28 40.474C57.6 40.377 57.904 40.206 58.19 39.962L57.683 39.235C57.488 39.391 57.272 39.512 57.036 39.599C56.8 39.685 56.565 39.728 56.331 39.728C56.165 39.728 56.006 39.705 55.853 39.66C55.7 39.615 55.562 39.5441 55.438 39.448C55.314 39.352 55.209 39.229 55.121 39.079C55.033 38.929 54.973 38.749 54.94 38.537H58.395C58.401 38.478 58.406 38.417 58.409 38.352C58.412 38.287 58.414 38.222 58.414 38.157C58.414 37.793 58.359 37.46 58.251 37.159C58.142 36.858 57.991 36.6 57.797 36.383C57.604 36.168 57.371 36 57.099 35.881ZM49.849 36.784C50.023 36.705 50.221 36.665 50.442 36.665C50.653 36.665 50.845 36.703 51.018 36.78C51.191 36.857 51.338 36.962 51.462 37.095C51.586 37.228 51.681 37.386 51.75 37.568C51.818 37.75 51.853 37.949 51.853 38.163C51.853 38.378 51.819 38.576 51.75 38.758C51.682 38.94 51.586 39.098 51.462 39.231C51.339 39.364 51.191 39.47 51.018 39.546C50.845 39.623 50.653 39.661 50.442 39.661C50.221 39.661 50.023 39.621 49.849 39.542C49.675 39.462 49.528 39.354 49.408 39.22C49.288 39.085 49.195 38.927 49.13 38.744C49.065 38.562 49.032 38.368 49.032 38.163C49.032 37.958 49.065 37.765 49.13 37.582C49.195 37.4 49.288 37.241 49.408 37.106C49.528 36.971 49.675 36.864 49.849 36.784ZM51.183 35.891C50.943 35.766 50.655 35.703 50.319 35.703C49.991 35.703 49.685 35.764 49.402 35.886C49.119 36.008 48.872 36.178 48.66 36.396C48.448 36.614 48.283 36.874 48.162 37.174C48.041 37.475 47.982 37.804 47.982 38.162C47.982 38.52 48.042 38.849 48.162 39.15C48.282 39.451 48.448 39.71 48.66 39.928C48.871 40.146 49.118 40.316 49.402 40.438C49.685 40.561 49.991 40.621 50.319 40.621C50.654 40.621 50.942 40.559 51.183 40.436C51.424 40.312 51.626 40.146 51.788 39.938V40.499H52.808V33.473H51.788V36.391C51.626 36.183 51.424 36.016 51.183 35.891ZM44.152 36.774C44.331 36.701 44.524 36.664 44.733 36.664C44.941 36.664 45.134 36.7 45.313 36.774C45.492 36.847 45.647 36.95 45.779 37.081C45.911 37.213 46.014 37.371 46.089 37.554C46.164 37.738 46.201 37.941 46.201 38.162C46.201 38.383 46.164 38.586 46.089 38.77C46.014 38.954 45.911 39.111 45.779 39.243C45.647 39.374 45.492 39.477 45.313 39.55C45.134 39.623 44.941 39.66 44.733 39.66C44.524 39.66 44.331 39.624 44.152 39.55C43.973 39.476 43.819 39.374 43.689 39.243C43.558 39.111 43.456 38.954 43.381 38.77C43.306 38.586 43.269 38.383 43.269 38.162C43.269 37.941 43.307 37.738 43.381 37.554C43.456 37.371 43.558 37.212 43.689 37.081C43.819 36.95 43.973 36.847 44.152 36.774ZM45.735 35.891C45.428 35.766 45.094 35.703 44.733 35.703C44.372 35.703 44.037 35.766 43.73 35.891C43.423 36.016 43.157 36.189 42.935 36.409C42.712 36.628 42.538 36.888 42.41 37.187C42.283 37.486 42.22 37.812 42.22 38.163C42.22 38.515 42.283 38.84 42.41 39.139C42.537 39.438 42.711 39.698 42.935 39.917C43.158 40.136 43.423 40.309 43.73 40.434C44.037 40.559 44.372 40.622 44.733 40.622C45.094 40.622 45.428 40.559 45.735 40.434C46.043 40.309 46.308 40.136 46.533 39.917C46.758 39.697 46.933 39.438 47.06 39.139C47.187 38.84 47.25 38.515 47.25 38.163C47.25 37.812 47.187 37.486 47.06 37.187C46.933 36.888 46.758 36.628 46.533 36.409C46.309 36.189 46.043 36.016 45.735 35.891ZM39.585 33.639C39.302 33.574 39.009 33.541 38.707 33.541C38.183 33.541 37.702 33.63 37.263 33.808C36.824 33.985 36.446 34.232 36.131 34.547C35.815 34.862 35.57 35.236 35.394 35.669C35.219 36.102 35.131 36.573 35.131 37.084C35.131 37.595 35.219 38.066 35.394 38.499C35.57 38.932 35.815 39.305 36.131 39.621C36.446 39.936 36.824 40.183 37.263 40.36C37.702 40.538 38.183 40.626 38.707 40.626C39.006 40.626 39.293 40.594 39.568 40.531C39.843 40.468 40.1 40.376 40.339 40.255C40.578 40.134 40.796 39.99 40.993 39.821C41.19 39.652 41.361 39.46 41.508 39.245L40.61 38.586C40.395 38.895 40.126 39.136 39.802 39.308C39.478 39.48 39.113 39.566 38.707 39.566C38.359 39.566 38.037 39.506 37.741 39.385C37.445 39.265 37.19 39.096 36.975 38.878C36.761 38.66 36.592 38.398 36.47 38.092C36.348 37.786 36.287 37.45 36.287 37.082C36.287 36.714 36.348 36.378 36.47 36.072C36.592 35.766 36.76 35.504 36.975 35.286C37.19 35.068 37.445 34.899 37.741 34.778C38.037 34.658 38.359 34.598 38.707 34.598C39.117 34.598 39.485 34.686 39.812 34.861C40.139 35.037 40.406 35.277 40.615 35.583L41.537 34.969C41.404 34.747 41.238 34.549 41.039 34.371C40.841 34.193 40.619 34.043 40.375 33.919C40.132 33.798 39.868 33.704 39.585 33.639ZM31.59 36.693C31.732 36.638 31.893 36.61 32.076 36.61C32.402 36.61 32.667 36.711 32.871 36.913C33.076 37.114 33.206 37.398 33.262 37.762H30.837C30.863 37.593 30.908 37.437 30.974 37.296C31.039 37.155 31.123 37.033 31.225 36.93C31.327 36.828 31.449 36.749 31.59 36.693ZM32.991 35.881C32.719 35.763 32.421 35.703 32.096 35.703C31.751 35.703 31.436 35.763 31.151 35.881C30.866 36 30.622 36.167 30.417 36.384C30.212 36.601 30.053 36.86 29.939 37.162C29.825 37.464 29.768 37.798 29.768 38.162C29.768 38.533 29.826 38.87 29.944 39.172C30.061 39.475 30.225 39.733 30.437 39.948C30.648 40.1621 30.9 40.328 31.193 40.446C31.486 40.563 31.808 40.621 32.159 40.621C32.514 40.621 32.851 40.572 33.172 40.474C33.492 40.377 33.796 40.206 34.082 39.962L33.575 39.235C33.38 39.391 33.164 39.512 32.928 39.599C32.692 39.685 32.457 39.728 32.223 39.728C32.058 39.728 31.898 39.705 31.745 39.66C31.592 39.615 31.454 39.5441 31.33 39.448C31.207 39.352 31.101 39.229 31.013 39.079C30.925 38.929 30.865 38.749 30.832 38.537H34.287C34.294 38.478 34.298 38.417 34.302 38.352C34.305 38.287 34.307 38.222 34.307 38.157C34.307 37.793 34.253 37.46 34.144 37.159C34.035 36.858 33.884 36.6 33.69 36.383C33.495 36.168 33.263 36 32.991 35.881ZM29.092 35.735C28.967 35.714 28.826 35.703 28.67 35.703C28.384 35.703 28.125 35.755 27.894 35.859C27.663 35.963 27.469 36.127 27.313 36.352V35.825H26.303V40.499H27.323V37.928C27.323 37.73 27.351 37.553 27.406 37.396C27.461 37.24 27.538 37.109 27.635 37.001C27.732 36.894 27.85 36.812 27.986 36.757C28.123 36.702 28.272 36.674 28.435 36.674C28.559 36.674 28.692 36.688 28.835 36.718C28.978 36.748 29.103 36.789 29.211 36.845L29.455 35.835C29.338 35.789 29.217 35.756 29.092 35.735ZM24.762 39.475C24.885 39.208 24.947 38.889 24.947 38.519V35.826H23.922V38.427C23.922 38.651 23.893 38.843 23.834 39C23.775 39.158 23.695 39.285 23.592 39.383C23.49 39.48 23.368 39.551 23.229 39.595C23.089 39.639 22.939 39.661 22.78 39.661C22.621 39.661 22.471 39.639 22.331 39.595C22.191 39.551 22.07 39.48 21.968 39.383C21.865 39.285 21.785 39.158 21.726 39C21.668 38.843 21.638 38.651 21.638 38.427V35.826H20.613V38.519C20.613 38.889 20.674 39.208 20.796 39.475C20.918 39.742 21.081 39.96 21.284 40.129C21.487 40.298 21.719 40.422 21.979 40.502C22.239 40.582 22.506 40.622 22.779 40.622C23.052 40.622 23.319 40.582 23.58 40.502C23.84 40.422 24.071 40.298 24.273 40.129C24.475 39.96 24.638 39.742 24.762 39.475ZM18.951 35.891C18.649 35.766 18.322 35.703 17.97 35.703C17.599 35.703 17.262 35.766 16.96 35.891C16.658 36.016 16.399 36.189 16.184 36.409C15.969 36.628 15.803 36.888 15.686 37.187C15.569 37.486 15.51 37.812 15.51 38.163C15.51 38.515 15.569 38.84 15.686 39.139C15.803 39.438 15.969 39.698 16.184 39.917C16.399 40.136 16.657 40.309 16.96 40.434C17.263 40.559 17.599 40.622 17.97 40.622C18.321 40.622 18.647 40.559 18.946 40.434C19.245 40.309 19.502 40.122 19.717 39.875L19.087 39.172C18.938 39.312 18.765 39.429 18.57 39.521C18.375 39.614 18.165 39.66 17.941 39.66C17.746 39.66 17.563 39.624 17.394 39.55C17.225 39.476 17.078 39.374 16.955 39.243C16.831 39.111 16.734 38.954 16.664 38.77C16.594 38.586 16.559 38.383 16.559 38.162C16.559 37.941 16.594 37.738 16.664 37.554C16.734 37.371 16.831 37.212 16.955 37.081C17.078 36.949 17.225 36.847 17.394 36.774C17.563 36.701 17.745 36.664 17.941 36.664C18.165 36.664 18.367 36.705 18.546 36.788C18.725 36.871 18.897 36.99 19.063 37.146L19.717 36.449C19.509 36.203 19.253 36.016 18.951 35.891ZM12.064 36.693C12.206 36.638 12.367 36.61 12.549 36.61C12.874 36.61 13.139 36.711 13.344 36.913C13.549 37.114 13.679 37.398 13.734 37.762H11.31C11.336 37.593 11.381 37.437 11.447 37.296C11.512 37.155 11.596 37.033 11.698 36.93C11.8 36.828 11.922 36.749 12.064 36.693ZM13.464 35.881C13.192 35.763 12.894 35.703 12.569 35.703C12.224 35.703 11.909 35.763 11.625 35.881C11.34 36 11.095 36.168 10.89 36.384C10.685 36.6 10.526 36.86 10.412 37.162C10.298 37.464 10.241 37.798 10.241 38.162C10.241 38.533 10.3 38.87 10.417 39.172C10.534 39.475 10.698 39.733 10.91 39.948C11.121 40.1621 11.374 40.328 11.666 40.446C11.959 40.563 12.281 40.621 12.632 40.621C12.987 40.621 13.324 40.572 13.645 40.474C13.965 40.377 14.269 40.206 14.555 39.962L14.048 39.235C13.853 39.391 13.637 39.512 13.401 39.599C13.165 39.685 12.93 39.728 12.696 39.728C12.53 39.728 12.371 39.705 12.218 39.66C12.065 39.615 11.927 39.5441 11.803 39.448C11.679 39.352 11.573 39.229 11.486 39.079C11.398 38.929 11.338 38.749 11.306 38.537H14.76C14.767 38.478 14.771 38.417 14.775 38.352C14.778 38.287 14.78 38.222 14.78 38.157C14.78 37.793 14.725 37.46 14.617 37.159C14.508 36.858 14.357 36.6 14.163 36.383C13.968 36.168 13.735 36 13.464 35.881ZM7.928 34.749C8.247 34.852 8.552 34.996 8.845 35.181L9.406 34.288C9.061 34.06 8.688 33.881 8.286 33.749C7.884 33.617 7.435 33.552 6.937 33.552C6.566 33.552 6.217 33.599 5.89 33.694C5.563 33.788 5.278 33.925 5.034 34.106C4.79 34.287 4.597 34.509 4.456 34.774C4.314 35.039 4.244 35.343 4.244 35.684C4.244 36.003 4.302 36.274 4.417 36.496C4.532 36.719 4.685 36.904 4.876 37.052C5.066 37.2 5.283 37.315 5.525 37.396C5.767 37.477 6.015 37.536 6.269 37.572L6.801 37.645C7.302 37.714 7.683 37.818 7.945 37.958C8.207 38.098 8.338 38.301 8.338 38.568C8.338 38.724 8.297 38.865 8.213 38.99C8.13 39.115 8.017 39.222 7.874 39.31C7.731 39.398 7.563 39.465 7.369 39.51C7.175 39.556 6.967 39.578 6.742 39.578C6.544 39.578 6.343 39.559 6.139 39.522C5.936 39.485 5.74 39.431 5.551 39.363C5.362 39.295 5.186 39.215 5.022 39.124C4.858 39.033 4.717 38.933 4.6 38.826L4 39.704C4.176 39.857 4.374 39.99 4.595 40.105C4.816 40.219 5.048 40.314 5.29 40.39C5.532 40.466 5.778 40.524 6.027 40.563C6.276 40.602 6.516 40.622 6.747 40.622C7.118 40.622 7.468 40.575 7.799 40.481C8.129 40.387 8.419 40.248 8.67 40.066C8.92 39.8841 9.119 39.66 9.265 39.393C9.411 39.126 9.485 38.819 9.485 38.471C9.485 38.156 9.422 37.887 9.297 37.666C9.172 37.445 9.006 37.261 8.799 37.115C8.592 36.968 8.357 36.855 8.094 36.774C7.831 36.693 7.56 36.632 7.284 36.593L6.811 36.53C6.59 36.497 6.392 36.458 6.216 36.413C6.04 36.367 5.891 36.31 5.77 36.24C5.648 36.17 5.554 36.085 5.489 35.984C5.424 35.883 5.391 35.761 5.391 35.618C5.391 35.462 5.428 35.321 5.503 35.195C5.578 35.07 5.683 34.963 5.818 34.873C5.953 34.783 6.115 34.715 6.304 34.668C6.493 34.621 6.701 34.597 6.928 34.597C7.276 34.596 7.61 34.647 7.928 34.749Z" fill="#BFBFBF"/>
</svg>
