<svg width="64" height="64" viewBox="0 0 64 64" fill="none" xmlns="http://www.w3.org/2000/svg">
<path d="M25.472 38.143C25.472 38.143 24.817 36.745 24.715 36.19L24.694 36.25H24.676C24.652 36.249 24.613 36.249 24.563 36.25C24.338 36.256 23.742 36.253 23.42 36.251C23.327 36.251 23.256 36.25 23.224 36.25C18.467 35.949 18.366 32.499 18.366 32.4V31.6C18.366 31.448 18.638 28.128 23.225 27.76C23.53 27.717 24.628 27.723 24.696 27.76C25.958 27.835 26.317 28.1 26.317 28.1C26.341 28.113 26.367 28.144 26.367 28.17V30.26C26.367 30.286 26.34 30.293 26.317 30.28C26.317 30.28 25.636 29.874 24.717 29.75H23.938C21.858 29.926 21.367 31.55 21.367 31.55C21.364 31.568 21.365 31.591 21.366 31.612C21.366 31.622 21.367 31.631 21.367 31.64V32.24C21.367 32.248 21.367 32.258 21.366 32.268C21.365 32.289 21.365 32.313 21.367 32.33C21.367 32.33 21.815 33.893 23.938 34.25C24.091 34.275 24.292 34.298 24.717 34.25C26.214 34.104 26.317 33.82 26.317 33.82C26.34 33.806 26.367 33.824 26.367 33.85V34.19C26.659 34.239 27.031 34.559 27.375 34.855C27.551 35.006 27.719 35.151 27.867 35.251V28.251H30.867V33.251C32.367 31.251 33.867 29.501 33.867 29.501L30.367 21.751L4.867 23.251L11.867 42.251L25.472 38.143ZM29.365 27.25C30.43 27.25 31.365 26.504 31.365 25.5C31.365 24.496 30.43 23.75 29.365 23.75C28.3 23.75 27.365 24.496 27.365 25.5C27.365 26.504 28.3 27.25 29.365 27.25ZM9.911 36.25C9.885 36.25 9.864 36.229 9.864 36.203V28.301C9.864 28.275 9.885 28.254 9.912 28.254C9.912 28.254 13.844 28.252 13.865 28.251C14.878 28.203 17.865 28.653 17.865 31.251C17.865 34.079 12.912 33.749 12.912 33.749C12.886 33.748 12.865 33.768 12.865 33.794V36.204C12.865 36.23 12.844 36.251 12.818 36.251L9.911 36.25ZM12.865 32V30H13.583C13.583 30 14.78 30.006 14.865 30.75V31.25C14.724 32.125 13.67 32 13.67 32H12.865ZM35.651 33.512C35.727 33.419 35.8 33.331 35.865 33.25L36.365 34.75L34.365 35.25C34.662 34.717 35.226 34.029 35.651 33.512ZM30.206 40.074C29.978 40.179 29.824 40.25 29.614 40.25C28.663 40.25 28.385 40.051 28.223 39.935L28.208 39.925C27.177 38.971 25.939 37.241 25.663 36.76C25.627 36.697 25.613 36.575 25.613 36.545C25.613 36.512 25.612 36.481 25.612 36.451C25.608 36.143 25.605 35.976 25.868 35.699C26.085 35.47 26.522 35.491 26.68 35.499C26.7 35.5 26.715 35.501 26.725 35.501C26.841 35.501 26.953 35.568 26.996 35.593C27.002 35.597 27.007 35.6 27.01 35.601C27.863 36.251 29.433 37.751 29.433 37.751H29.59C29.936 37.227 30.342 36.555 30.796 35.804C32.882 32.354 35.967 27.251 38.745 27.251C39.335 27.251 39.335 27.426 39.335 27.426C39.335 27.426 39.334 27.464 39.308 27.501C39.289 27.528 39.257 27.554 39.232 27.572C36.71 29.368 34.27 33.651 32.538 36.692C31.54 38.444 30.777 39.785 30.367 40C30.309 40.026 30.256 40.05 30.206 40.074ZM41.762 33.431L42.301 33.594C42.265 33.745 42.208 33.872 42.13 33.973C42.052 34.074 41.956 34.151 41.84 34.202C41.725 34.254 41.578 34.279 41.399 34.279C41.183 34.279 41.006 34.248 40.869 34.185C40.732 34.122 40.613 34.011 40.514 33.853C40.415 33.695 40.365 33.492 40.365 33.245C40.365 32.915 40.453 32.662 40.628 32.485C40.803 32.308 41.051 32.22 41.371 32.22C41.622 32.22 41.819 32.271 41.962 32.372C42.106 32.473 42.212 32.629 42.282 32.839L41.739 32.96C41.72 32.899 41.7 32.855 41.679 32.827C41.645 32.78 41.603 32.744 41.553 32.718C41.503 32.693 41.447 32.68 41.386 32.68C41.247 32.68 41.14 32.736 41.066 32.848C41.01 32.931 40.982 33.062 40.982 33.24C40.982 33.461 41.016 33.612 41.082 33.694C41.149 33.776 41.243 33.817 41.364 33.817C41.482 33.817 41.571 33.784 41.631 33.718C41.691 33.653 41.735 33.557 41.762 33.431ZM42.522 33.251C42.522 32.926 42.612 32.673 42.794 32.492C42.975 32.311 43.227 32.22 43.55 32.22C43.881 32.22 44.137 32.309 44.316 32.487C44.495 32.665 44.585 32.914 44.585 33.235C44.585 33.468 44.546 33.658 44.467 33.807C44.389 33.956 44.276 34.072 44.127 34.155C43.979 34.238 43.795 34.279 43.574 34.279C43.349 34.279 43.164 34.243 43.016 34.172C42.869 34.1 42.75 33.987 42.658 33.832C42.568 33.677 42.522 33.483 42.522 33.251ZM43.137 33.253C43.137 33.454 43.174 33.598 43.249 33.686C43.324 33.774 43.425 33.818 43.554 33.818C43.686 33.818 43.789 33.775 43.861 33.689C43.933 33.603 43.97 33.449 43.97 33.226C43.97 33.039 43.932 32.902 43.857 32.815C43.781 32.729 43.679 32.685 43.549 32.685C43.425 32.685 43.325 32.729 43.25 32.817C43.175 32.905 43.137 33.051 43.137 33.253ZM45.719 32.254H44.91V34.245H45.414V32.727L45.802 34.245H46.257L46.647 32.727V34.245H47.15V32.254H46.343L46.032 33.465L45.719 32.254ZM47.538 32.254H48.56C48.783 32.254 48.95 32.307 49.06 32.413C49.17 32.519 49.226 32.67 49.226 32.865C49.226 33.066 49.166 33.223 49.045 33.336C48.924 33.449 48.74 33.506 48.492 33.506H48.155V34.245H47.537L47.538 32.254ZM48.156 33.103H48.307C48.426 33.103 48.509 33.082 48.557 33.041C48.605 33 48.629 32.947 48.629 32.883C48.629 32.82 48.608 32.768 48.567 32.724C48.525 32.68 48.447 32.659 48.332 32.659H48.157V33.103H48.156ZM50.165 32.254H49.55V34.245H51.125V33.755H50.165V32.254ZM51.429 32.254H52.046V34.245H51.429V32.254ZM53.011 33.916H53.712L53.81 34.245H54.454L53.706 32.254H53.035L52.287 34.245H52.916L53.011 33.916ZM53.363 32.77L53.583 33.486H53.144L53.363 32.77ZM54.654 32.254H55.228L55.978 33.355V32.254H56.558V34.245H55.978L55.232 33.152V34.245H54.654V32.254ZM58.697 32.254H56.827V32.746H57.454V34.245H58.069V32.746H58.696L58.697 32.254ZM48.934 28.977L47.029 29.096C47.085 29.75 47.325 30.289 47.749 30.714C48.173 31.138 48.936 31.35 50.038 31.35C50.666 31.35 51.186 31.259 51.598 31.078C52.01 30.897 52.332 30.631 52.562 30.28C52.792 29.929 52.907 29.546 52.907 29.131C52.907 28.777 52.821 28.458 52.649 28.172C52.477 27.886 52.201 27.647 51.823 27.454C51.444 27.261 50.818 27.07 49.942 26.882C49.588 26.808 49.365 26.729 49.27 26.643C49.173 26.561 49.124 26.468 49.124 26.365C49.124 26.224 49.183 26.104 49.301 26.005C49.419 25.906 49.594 25.857 49.827 25.857C50.11 25.857 50.332 25.923 50.492 26.056C50.653 26.189 50.758 26.401 50.808 26.692L52.695 26.582C52.613 25.91 52.354 25.42 51.919 25.113C51.485 24.805 50.853 24.651 50.025 24.651C49.35 24.651 48.819 24.736 48.432 24.905C48.045 25.074 47.754 25.307 47.561 25.603C47.368 25.899 47.272 26.214 47.272 26.547C47.272 27.054 47.461 27.471 47.838 27.798C48.212 28.125 48.838 28.387 49.716 28.585C50.252 28.703 50.594 28.828 50.741 28.961C50.888 29.094 50.962 29.244 50.962 29.412C50.962 29.589 50.885 29.744 50.73 29.878C50.575 30.012 50.355 30.079 50.069 30.079C49.686 30.079 49.391 29.948 49.185 29.686C49.059 29.522 48.975 29.286 48.934 28.977ZM43.339 24.76H40.365V31.239H43.339C43.696 31.239 44.093 31.18 44.532 31.062C44.853 30.977 45.154 30.805 45.434 30.547C45.714 30.289 45.933 29.97 46.09 29.588C46.248 29.206 46.365 28.692 46.365 27.999C46.365 27.557 46.274 27.116 46.168 26.722C46.062 26.327 45.891 25.981 45.655 25.683C45.419 25.385 45.121 25.157 44.76 24.998C44.399 24.84 43.925 24.76 43.339 24.76ZM42.367 29.75V26.25H42.866C43.385 26.25 43.756 26.354 43.98 26.608C44.204 26.861 44.365 27.314 44.365 28C44.365 28.519 44.266 28.911 44.166 29.142C44.066 29.373 43.927 29.535 43.751 29.628C43.574 29.721 43.277 29.75 42.858 29.75H42.367ZM53.257 29.096L55.162 28.977C55.203 29.286 55.287 29.522 55.414 29.684C55.62 29.946 55.915 30.077 56.298 30.077C56.584 30.077 56.804 30.01 56.959 29.876C57.114 29.742 57.191 29.587 57.191 29.41C57.191 29.242 57.117 29.092 56.97 28.959C56.823 28.826 56.481 28.701 55.945 28.583C55.067 28.386 54.441 28.123 54.067 27.796C53.69 27.469 53.501 27.052 53.501 26.545C53.501 26.212 53.597 25.898 53.79 25.601C53.983 25.305 54.273 25.072 54.661 24.903C55.048 24.734 55.58 24.649 56.254 24.649C57.082 24.649 57.713 24.803 58.148 25.111C58.583 25.419 58.841 25.909 58.924 26.58L57.037 26.69C56.987 26.398 56.882 26.186 56.721 26.054C56.56 25.921 56.339 25.855 56.056 25.855C55.823 25.855 55.648 25.904 55.53 26.003C55.412 26.102 55.353 26.222 55.353 26.363C55.353 26.466 55.402 26.559 55.499 26.641C55.593 26.726 55.817 26.806 56.171 26.88C57.046 27.069 57.673 27.259 58.052 27.452C58.431 27.645 58.706 27.884 58.878 28.17C59.05 28.456 59.137 28.775 59.137 29.129C59.137 29.544 59.022 29.927 58.792 30.278C58.562 30.629 58.241 30.895 57.829 31.076C57.417 31.257 56.896 31.348 56.269 31.348C55.167 31.348 54.404 31.136 53.98 30.712C53.554 30.289 53.313 29.75 53.257 29.096Z" fill="#BFBFBF"/>
</svg>
