<svg width="64" height="64" viewBox="0 0 64 64" fill="none" xmlns="http://www.w3.org/2000/svg">
<path fill-rule="evenodd" clip-rule="evenodd" d="M47.2493 33.2211C47.2493 38.8915 45.9535 43.1171 43.3642 45.8706C40.7748 48.624 36.7739 50 31.3801 50C26.3406 50 22.5173 48.6235 19.9102 45.8706C17.3031 43.1176 15.9997 38.9657 16 33.4148V14.7912C16.0006 14.5817 16.0841 14.3808 16.2323 14.2326C16.3804 14.0843 16.5812 14.0007 16.7908 14H25.9284C26.1381 14.0006 26.339 14.0842 26.4873 14.2324C26.6355 14.3807 26.7191 14.5816 26.7197 14.7912V33.8218C26.7197 36.0884 27.139 37.8327 27.9923 39.0633C28.4157 39.6247 28.9618 40.0821 29.5888 40.4004C30.2159 40.7187 30.9073 40.8897 31.6104 40.9002C32.3136 40.9108 33.0098 40.7606 33.6461 40.4613C34.2825 40.1619 34.842 39.7212 35.2821 39.1727C36.1162 38.0181 36.5319 36.3165 36.5292 34.0679V30.5041H47.2493V33.2211ZM46.4207 28.4225H36.5301V14.8286C36.5307 14.609 36.6182 14.3986 36.7735 14.2434C36.9287 14.0881 37.1391 14.0006 37.3587 14H38.8391C38.8407 16.229 39.7273 18.3662 41.304 19.9418C42.8807 21.5174 45.0185 22.4025 47.2475 22.4025H47.2498V28.4225H46.4207ZM46.4212 14H40.9458V14.0068C40.9458 15.6788 41.61 17.2822 42.7922 18.4644C43.9744 19.6467 45.5779 20.3109 47.2498 20.3109V14.8286C47.2492 14.609 47.1617 14.3986 47.0064 14.2434C46.8512 14.0881 46.6407 14.0006 46.4212 14Z" fill="#BFBFBF"/>
</svg>
