<svg width="64" height="64" viewBox="0 0 64 64" fill="none" xmlns="http://www.w3.org/2000/svg">
<path fill-rule="evenodd" clip-rule="evenodd" d="M42.4071 17.0041L53.729 17.0068C55.2966 17.0054 56.2832 18.3067 55.9269 19.908L50.5724 44.1096C50.2254 45.6635 48.7495 46.9226 47.227 47H35.3334C33.7897 46.9755 32.8297 45.6865 33.182 44.0987L33.5982 42.2162H32.6648L32.2486 44.0987C31.8963 45.6852 32.855 46.9755 34.4 47H22.3898C20.8474 46.9755 19.886 45.6865 20.2397 44.0987L21.4829 38.481H20.3926L19.1494 44.0987C18.7957 45.6852 19.7571 46.9755 21.3008 47H10.2125C8.97064 46.9823 8.10637 46.1388 8 44.9843V44.5361C8.01064 44.3948 8.02925 44.2495 8.06249 44.1028L13.4183 19.9013C13.7773 18.2971 15.7877 17 17.3567 17L28.3811 17.0027C26.8214 17.0353 24.8576 18.3189 24.5052 19.9013L23.5 24.4474H24.5876L25.5942 19.9013C25.9465 18.3175 27.9091 17.0353 29.4688 17.0027L29.4725 17.0025C29.4924 17.0012 29.5111 17 29.5299 17L36.9449 17.0041H41.471C41.4662 17.0041 41.4614 17.0044 41.4567 17.0048C41.4524 17.0051 41.4483 17.0054 41.4444 17.0054C39.8888 17.0543 37.9515 18.3284 37.5978 19.8999L36.5912 24.446H37.5247L38.5312 19.8999C38.8835 18.3284 40.8208 17.0543 42.3765 17.0054C42.3801 17.0054 42.3837 17.0052 42.3876 17.0049C42.3925 17.0045 42.3978 17.0041 42.4044 17.0041H42.4071ZM19.1536 25.0137C19.264 25.0392 19.6097 25.0508 20.7804 25.0392C20.7737 25.0495 20.7712 25.0606 20.7669 25.0799C20.7663 25.0824 20.7657 25.085 20.7651 25.0878C20.62 25.5252 19.766 28.887 19.766 28.887L19.6705 29.2491L19.6698 29.2515C19.4641 29.9568 19.2328 30.7499 18.3515 31.2575C17.8431 31.5607 17.0909 31.7267 16.2891 31.7267C15.6667 31.7267 14.5666 31.6283 14.1809 30.9714C14.0605 30.7642 14 30.5192 14 30.219L14.1407 29.2069L14.2134 28.8975L15.0599 25.2493C15.0599 25.2493 15.0999 25.0486 15.1107 25.0137C15.1304 25.0392 15.4164 25.053 17.0302 25.0392C17.0282 25.0508 17.026 25.0635 17.0182 25.0878C16.8698 25.5157 16.0407 28.7525 16.0407 28.7525C16.0407 28.7579 15.8826 29.7205 15.8826 29.7205L15.8923 29.8841C15.9431 30.3607 16.2455 30.6119 16.7646 30.6119C17.0876 30.6119 17.3662 30.5192 17.6048 30.3269C18.0252 29.9961 18.1489 29.4839 18.319 28.7652C18.3212 28.7623 19.1111 25.2104 19.1536 25.0137ZM22.7661 27.9613C23.104 27.7998 23.4803 27.7511 23.6862 27.7511C24.0016 27.7511 24.3451 27.8366 24.4883 28.1906C24.6237 28.5065 24.5338 28.8944 24.3548 29.6592L24.2627 30.05C24.0796 30.9006 24.0494 31.0569 23.9461 31.6411L23.879 31.6917C23.308 31.6822 23.104 31.6822 22.4353 31.7171L22.4104 31.6674C22.438 31.5475 22.4669 31.4288 22.4959 31.3098C22.5271 31.1816 22.5584 31.0531 22.5882 30.9228L22.6706 30.5826C22.7941 30.0554 22.9145 29.4415 22.9287 29.2535C22.929 29.251 22.9293 29.2483 22.9296 29.2456C22.9431 29.1288 22.9741 28.8606 22.6512 28.8606C22.5125 28.8606 22.3671 28.926 22.2198 28.9925C22.1566 29.2139 22.0423 29.7507 21.9585 30.1441C21.9359 30.2501 21.9156 30.3457 21.899 30.4219C21.7778 30.9754 21.7399 31.1713 21.6991 31.3826C21.6841 31.4604 21.6686 31.5404 21.6485 31.6411L21.6007 31.6917C21.0111 31.6822 20.8053 31.6822 20.1269 31.7171L20.0963 31.6601C20.2093 31.2111 20.3219 30.7567 20.4304 30.3067C20.7154 29.0856 20.7836 28.6185 20.8605 27.9973L20.916 27.9613C20.9593 27.9553 21.0004 27.9497 21.0397 27.9443C21.6013 27.8674 21.7852 27.8422 22.455 27.71L22.5155 27.7755L22.4051 28.1641C22.4333 28.1479 22.4611 28.1316 22.4888 28.1154C22.5813 28.0614 22.6717 28.0085 22.7661 27.9613ZM26.8145 28.574C26.8521 28.567 26.8913 28.5596 26.9322 28.5519L26.9453 28.5814L26.955 28.6133C26.9261 28.7307 26.8966 28.8482 26.8669 28.9661C26.83 29.1132 26.7928 29.2609 26.7566 29.4098C26.7274 29.5354 26.6971 29.6597 26.667 29.7833C26.6325 29.9248 26.5983 30.0654 26.566 30.2063C26.5141 30.4344 26.4746 30.6046 26.4441 30.7365C26.3993 30.9295 26.3736 31.0404 26.3557 31.1307C26.3372 31.2165 26.3272 31.279 26.311 31.3795C26.3005 31.4449 26.2874 31.5265 26.2677 31.6411L26.2353 31.6676L26.205 31.6917C26.0935 31.6911 25.9947 31.6899 25.9048 31.6888C25.716 31.6865 25.5664 31.6846 25.4204 31.6898C25.223 31.6915 25.0306 31.7005 24.7538 31.7134C24.7278 31.7146 24.701 31.7158 24.6734 31.7171L24.6562 31.6898L24.6357 31.66C24.7125 31.3777 24.7587 31.2568 24.7981 31.1537C24.8036 31.1391 24.809 31.125 24.8144 31.1107C24.8588 30.9955 24.899 30.8814 24.977 30.5539C25.0777 30.126 25.1396 29.8282 25.1798 29.5662C25.2147 29.3796 25.2375 29.2135 25.2613 29.0393C25.2699 28.977 25.2786 28.9136 25.288 28.8478L25.313 28.8286L25.3402 28.8045C25.6837 28.758 25.9015 28.7264 26.1248 28.6915C26.3242 28.6661 26.5247 28.6285 26.8145 28.574ZM25.6685 27.602C26.05 27.3454 26.6169 27.2864 26.9398 27.4722C27.2583 27.6561 27.2109 28.0099 26.8313 28.2668C26.4531 28.5256 25.8841 28.5795 25.5667 28.3988C25.2448 28.2106 25.2881 27.8536 25.6685 27.602ZM30.7204 31.0789C30.2162 31.5998 29.5464 31.7753 28.893 31.7753C28.6372 31.7753 28.2404 31.7437 27.9652 31.6285C27.0731 31.2766 27.2152 30.3311 27.3387 29.8059C27.461 29.2904 27.6639 28.7527 28.1028 28.3565C28.7141 27.8072 29.4965 27.7755 29.825 27.7755C30.3713 27.7755 30.898 27.8948 31.196 28.2667C31.3921 28.5106 31.5483 28.9112 31.3477 29.7691C31.2861 30.0279 31.1083 30.6564 30.7204 31.0789ZM29.6244 28.6502C29.1705 28.6502 28.9926 29.1954 28.842 29.8451C28.7901 30.0701 28.7476 30.2773 28.7499 30.4801C28.7543 30.8909 29.0381 30.8909 29.0859 30.8909C29.2462 30.8909 29.3913 30.7884 29.514 30.6194C29.6896 30.3903 29.8195 29.8524 29.8478 29.7077C30.0059 29.0559 29.9801 28.6502 29.6244 28.6502ZM33.0322 31.6412L32.9812 31.6918C32.3927 31.6823 32.1898 31.6823 31.5103 31.7172L31.4801 31.6601C31.5927 31.2112 31.7054 30.7568 31.8139 30.3068C32.0988 29.0854 32.164 28.6186 32.2442 27.9973L32.295 27.9614C32.3441 27.9546 32.3905 27.9483 32.4346 27.9422C32.9836 27.867 33.1731 27.841 33.8363 27.7098L33.8915 27.7756L33.7886 28.1642C33.9068 28.0934 34.0272 28.0228 34.1473 27.9614C34.4833 27.7996 34.8615 27.7512 35.0677 27.7512C35.3787 27.7512 35.7244 27.8367 35.8718 28.1907C36.005 28.5066 35.9139 28.8942 35.7342 29.659L35.6443 30.0501C35.4556 30.9004 35.4284 31.0567 35.3277 31.6412L35.2583 31.6918C34.684 31.6823 34.4878 31.6823 33.8169 31.7172L33.7919 31.6674C33.8236 31.5297 33.8577 31.3936 33.8918 31.2569C33.9195 31.1462 33.9472 31.0352 33.9739 30.9226L34.0519 30.5824C34.1776 30.0552 34.298 29.4416 34.3099 29.2533L34.3108 29.2462C34.3245 29.13 34.3562 28.8604 34.0347 28.8604C33.8932 28.8604 33.752 28.9243 33.6062 28.9903L33.601 28.9926C33.5431 29.2013 33.4367 29.6901 33.353 30.075C33.3239 30.2085 33.2976 30.3295 33.2769 30.422C33.1524 31.0099 33.1174 31.1944 33.0741 31.4225C33.0616 31.4882 33.0484 31.5576 33.0322 31.6412ZM38.2054 30.3269C38.2032 30.3269 37.9526 31.5164 37.9104 31.7171C37.724 31.6971 37.2809 31.6971 36.2002 31.7098L37.3111 27.2505C37.3111 27.2472 37.7545 25.2442 37.7545 25.2442C37.7545 25.2442 37.787 25.0879 37.8042 25C38.0081 25.0243 38.5045 25.0287 39.7422 25.0138L40.2189 25.0095C41.1859 25.0138 42.0235 25.0243 42.4442 25.598C42.6101 25.8135 42.6675 26.0894 42.6675 26.3682C42.6675 26.5806 42.6348 26.7929 42.5904 26.9714C42.4192 27.6994 42.0355 28.2985 41.4742 28.7042C40.6493 29.2957 39.5969 29.2957 38.6649 29.2957H38.5661C38.4989 29.3316 38.4318 29.4225 38.4318 29.4225C38.4187 29.4542 38.2054 30.3269 38.2054 30.3269ZM39.2012 26.1676C39.2034 26.16 38.732 28.1589 38.732 28.1589L38.7126 28.2593H38.9684C39.3638 28.2593 39.7475 28.2466 40.0608 28.0935C40.4412 27.9128 40.7372 27.5388 40.8379 27.0939C40.9484 26.6071 40.7902 26.2341 40.4065 26.0894C40.3837 26.0872 39.4115 26.0058 39.4115 26.0058L39.2231 25.9869L39.2164 26.0651L39.2012 26.1676ZM42.287 31.6823C41.3994 31.3453 41.5425 30.3998 41.6671 29.8821C41.7853 29.3685 41.9934 28.833 42.4268 28.4422C43.0436 27.8948 43.7611 27.7439 44.0666 27.861C44.3055 27.9505 44.4603 28.0941 44.5672 28.2623C44.5704 28.2369 44.5739 28.2114 44.5773 28.1857C44.5809 28.1592 44.5844 28.1325 44.588 28.1052L44.6401 28.0638C45.3271 27.9689 45.518 27.9413 46.2322 27.8123L46.2527 27.8704C46.1215 28.3986 45.9939 28.9239 45.866 29.4542C45.6136 30.5187 45.5159 31.0793 45.419 31.6353L45.4073 31.7023L45.3446 31.7488C44.6529 31.7437 44.4548 31.7437 43.8163 31.7699L43.7761 31.7193L43.8394 31.4829C43.6057 31.6744 43.3535 31.8075 43.0813 31.8218C42.8236 31.8345 42.57 31.7996 42.287 31.6823ZM43.9506 28.7359C43.4956 28.7359 43.32 29.2757 43.1671 29.9137C43.1141 30.1409 43.0716 30.3478 43.0739 30.5488C43.0836 30.9523 43.3644 30.9523 43.4099 30.9523C43.5702 30.9523 43.8488 30.852 43.9659 30.6902C44.0283 30.6094 44.0852 30.4879 44.134 30.3592C44.1462 30.3116 44.1584 30.264 44.1706 30.2164C44.2068 30.0758 44.2429 29.935 44.2769 29.7934C44.3083 29.6622 44.3346 29.5462 44.3591 29.4361C44.3899 28.9947 44.2384 28.7359 43.9506 28.7359ZM50.9448 27.7457L51 27.8071C51 27.8071 48.1549 32.5645 47.7809 33.3493L47.7223 33.4148H47.7312L47.1752 34.3435C46.9995 34.6616 46.6732 34.8982 46.1541 34.9004L45.2698 34.8855L45.5276 34.0498H45.701C45.7912 34.0498 45.8561 34.0455 45.9061 34.0214C45.9516 34.0065 45.984 33.9717 46.0198 33.9208L46.3328 33.4383L46.3297 33.4318C46.5886 33.0523 46.7337 32.7985 46.901 32.5061C47.021 32.2963 47.1524 32.0666 47.3453 31.7563C47.2761 31.0582 47.2384 30.7571 47.1882 30.356C47.1786 30.2793 47.1685 30.1989 47.1577 30.1114C47.1382 29.9523 47.1155 29.7917 47.0927 29.6306C47.0688 29.4621 47.0449 29.2931 47.0245 29.1245C47.0064 28.9824 46.993 28.8746 46.9824 28.7889C46.9427 28.4696 46.9412 28.4576 46.8738 28.1219L46.8694 28.1125C46.871 28.1031 46.872 28.0941 46.873 28.0853C46.8748 28.0691 46.8765 28.0538 46.8813 28.0394L46.9346 27.9929C47.4318 27.9308 47.5767 27.9021 47.9034 27.8374C48.026 27.8131 48.1741 27.7838 48.376 27.7457L48.4379 27.8071L48.5364 29.6622C48.5375 29.6824 48.538 29.6985 48.5386 29.7142C48.5392 29.7308 48.5397 29.7469 48.5408 29.7669C48.72 29.3773 48.8146 29.2137 48.9102 29.0485C49.0245 28.8508 49.1402 28.6508 49.4035 28.0587L49.4057 28.0692C49.4076 28.0631 49.4091 28.0567 49.4104 28.0508C49.4114 28.0466 49.4123 28.0427 49.4132 28.0394L49.4609 27.9929C50.1102 27.9075 50.2381 27.8853 50.9448 27.7457ZM41.292 38.7829H41.6671L41.3766 39.7071H41.0059L40.9182 39.9924H39.5969L39.6868 39.7071H37.0054L37.2732 38.8514H37.5462L38.9532 34.3066L39.2337 33.3906H40.58L40.439 33.8522C40.439 33.8522 40.7978 33.6007 41.1382 33.5153C41.4196 33.4422 42.8091 33.4082 43.2744 33.3987V33.396H44.7136L44.7278 33.9177C44.7181 34.0064 44.796 34.0478 44.9642 34.0478H45.2566L44.9892 34.9097H44.212C43.54 34.9562 43.2841 34.6752 43.3013 34.3583L43.2872 33.8455L43.141 34.3066H42.6804L41.292 38.7829ZM39.9501 35.4506C39.9501 35.4506 40.3514 35.2743 40.5669 35.2162C40.7881 35.1591 41.1185 35.1402 41.1185 35.1402L41.3766 34.3066H40.307L39.9501 35.4506ZM40.0303 36.9403C40.2515 36.8916 40.5875 36.8505 40.5875 36.8505L40.8477 36.017H39.7726L39.4041 37.2075C39.4041 37.2075 39.8125 37.0047 40.0303 36.9403ZM38.9152 38.7935H39.9882L40.2959 37.7887H39.2262L38.9152 38.7935ZM44.1186 36.017H42.5721L42.8354 35.1518H47.1394L46.8716 36.017H45.428L45.2024 36.7185H46.6505L46.4099 37.4856H44.8459L44.5673 37.8088H45.2024L45.3575 38.7754C45.3621 38.8005 45.3654 38.8234 45.3685 38.8442C45.3772 38.9032 45.3835 38.9457 45.4075 38.9761C45.4399 39.0099 45.6305 39.028 45.7412 39.028H45.9341L45.6405 39.9681H45.1516C45.0854 39.9681 44.9897 39.9641 44.8606 39.9587C44.8437 39.9579 44.8262 39.9572 44.8081 39.9565C44.7001 39.9472 44.6155 39.8987 44.5382 39.8544C44.5116 39.8391 44.4858 39.8243 44.4602 39.8118C44.37 39.7707 44.2368 39.6649 44.2044 39.4842L44.0515 38.5198L43.3395 39.4696C43.1139 39.7707 42.8085 40 42.2913 40H41.2963L41.5577 39.16H41.9381C42.0485 39.16 42.1439 39.1178 42.2166 39.0818C42.289 39.0523 42.3543 39.0153 42.4269 38.9106L43.4652 37.4856H42.094L42.3293 36.7185H43.8964L44.1186 36.017ZM29.8706 37.8183L29.5096 38.9888C29.4663 39.1179 29.8628 39.1346 30.006 39.1346L30.7474 39.0354L30.4494 39.9998H28.7768C28.6414 39.9998 28.5418 39.9809 28.3964 39.9492C28.2555 39.9143 28.1928 39.853 28.1309 39.7602C28.1213 39.7451 28.1109 39.7305 28.1003 39.7157C28.0442 39.6371 27.9852 39.5544 28.0399 39.3818L28.521 37.8332H27.6964L27.9705 36.9477H28.7976L29.0177 36.2272H28.1928L28.4561 35.3842H32.087L31.8181 36.2272H30.367L30.1403 36.9477H31.6253L31.3542 37.8183H29.8706ZM29.3038 34.0476L29.6798 33.3853H31.1581L30.8981 33.867H32.3873L32.1173 34.7492H30.0829L29.8629 34.935C29.8068 34.9878 29.7725 34.9968 29.7286 35.0084C29.6979 35.0165 29.6624 35.0259 29.6115 35.0524C29.4966 35.1084 29.2561 35.2204 28.9428 35.2204H28.2913L28.5535 34.373H28.7497C28.9145 34.373 29.0283 34.3584 29.0857 34.3235C29.1509 34.2821 29.2233 34.1923 29.3038 34.0476ZM32.7264 38.6929C32.6734 38.8714 32.6485 38.9572 32.6831 39.0059C32.7112 39.047 32.7786 39.0956 32.8718 39.0956L33.7442 39.0153L33.4451 39.9998H32.4706C32.1596 39.9998 31.9343 39.9925 31.7758 39.9809C31.7433 39.9781 31.7104 39.9765 31.6778 39.975C31.5596 39.9694 31.4452 39.964 31.3619 39.9027C31.3514 39.8936 31.3403 39.8841 31.3288 39.8744C31.2416 39.8004 31.1336 39.7088 31.1366 39.6163C31.1463 39.5192 31.1884 39.3574 31.2514 39.1346L33.0266 33.3958H34.2946L34.1093 34.0181C34.1093 34.0181 34.5105 33.7054 34.7913 33.5935C35.0696 33.4931 35.7017 33.4023 35.7017 33.4023L37.7543 33.3906L37.0554 35.6608C36.9372 36.0487 36.7996 36.3002 36.7138 36.4151C36.637 36.5304 36.546 36.6307 36.3681 36.7259C36.1958 36.8168 36.0377 36.8674 35.8923 36.8822C35.7569 36.8917 35.5488 36.8949 35.2605 36.899H33.2825L32.7264 38.6929ZM35.7189 35.6873H33.6412L33.5133 36.0952H35.3124C35.4548 36.0788 35.5214 36.0868 35.5554 36.0909C35.5719 36.0929 35.5807 36.094 35.5868 36.0909L35.7189 35.6873ZM36.1525 34.334H34.0574L33.7539 35.3187C33.7539 35.3187 34.1604 34.9563 34.8562 34.8389C35.0144 34.8105 36.0019 34.82 36.0019 34.82L36.1525 34.334ZM35.5509 37.5668C35.5889 37.5392 35.6161 37.5025 35.6333 37.4422L35.7568 37.0576H36.7248L36.6066 37.6028C36.5567 37.774 36.5134 37.9006 36.3811 38.0107C36.2423 38.1256 36.0797 38.2462 35.6993 38.2462L34.9949 38.2746L34.9896 38.8904C34.9834 39.0293 35.0127 39.0462 35.0392 39.0614C35.0458 39.0652 35.0522 39.0689 35.0578 39.0744C35.0894 39.1052 35.1179 39.117 35.1475 39.1293L35.15 39.1303L35.3733 39.1176L36.045 39.0817L35.7665 39.9809H34.9949C34.4552 39.9809 34.0543 39.9682 33.9241 39.8679C33.794 39.7876 33.7768 39.6872 33.7787 39.5139L33.8287 37.1114H35.0601L35.0426 37.6028H35.3386C35.4405 37.6028 35.5087 37.5933 35.5509 37.5668Z" fill="#BFBFBF"/>
</svg>
