<svg width="64" height="65" viewBox="0 0 64 65" fill="none" xmlns="http://www.w3.org/2000/svg">
<path fill-rule="evenodd" clip-rule="evenodd" d="M14.3105 41.4987C16.9971 41.4987 19.417 40.3607 21.1162 38.5404C20.8672 38.1735 20.665 37.7653 20.5098 37.3163C20.3457 36.8357 20.2256 36.3488 20.1553 35.8585C20.0996 35.4597 20.0732 35.0585 20.082 34.6562C20.0908 34.2863 20.1289 33.9153 20.1963 33.5444C20.2578 33.2201 20.3398 32.8958 20.4482 32.5721C20.9492 31.0673 21.8984 30.0123 23.2021 29.4274C22.0273 25.6342 18.4912 22.8794 14.3105 22.8794C9.16895 22.8794 5 27.0474 5 32.189C5 37.3306 9.16895 41.4987 14.3105 41.4987ZM20.958 27.5369L21.1309 27.058L21.084 27.0458L17.9932 27.0421L17.9463 27.0493L17.917 27.0674C17.8994 27.0857 17.8906 27.1124 17.8789 27.143C17.627 27.8588 17.3662 28.5723 17.0996 29.2835C16.3145 31.3856 15.4766 33.4673 14.5889 35.5285L14.3135 36.1558L14.2461 36.0104C12.9746 33.1022 11.8115 30.15 10.751 27.158C10.7188 27.0677 10.6777 27.041 10.584 27.0416L7.49609 27.0438L7.55176 27.2137L7.86816 28.0527C8.10547 28.6886 8.34277 29.3243 8.5918 29.9551C9.91016 33.2734 11.3867 36.5204 13.001 39.7048L13.0186 39.7339L13.0566 39.7802L13.0947 39.8015C13.1123 39.808 13.1328 39.8113 13.1592 39.8112L15.4648 39.8104C15.5234 39.8108 15.5615 39.796 15.5908 39.7579L15.6172 39.7165L15.9775 38.9954L16.4902 37.9565C18.0371 34.7855 19.4434 31.554 20.6914 28.2537L20.958 27.5369Z" fill="#BFBFBF"/>
<path fill-rule="evenodd" clip-rule="evenodd" d="M24.834 29.8204C24.3125 29.9059 23.8408 30.052 23.4189 30.2578C22.3906 30.7595 21.6553 31.6187 21.248 32.8394C21.1895 33.0143 21.1396 33.1893 21.0957 33.3646C21.0459 33.5654 21.0078 33.7667 20.9814 33.9679C20.958 34.1409 20.9404 34.3141 20.9316 34.4874L20.9229 34.8224C20.9229 34.9828 20.9287 35.1431 20.9404 35.3033C20.9639 35.6133 21.0107 35.9227 21.0781 36.2314C21.1221 36.4294 21.1748 36.627 21.2363 36.8242L21.3096 37.0421C21.374 37.229 21.4473 37.4052 21.5293 37.5734L21.6611 37.8184L21.6875 37.8655C22.1475 38.6389 22.8301 39.2108 23.7119 39.5867C24.4502 39.9014 25.2295 40.0386 26.0264 40.0488C26.4805 40.0545 26.9375 40.0223 27.3916 39.9827C28.1006 39.9208 28.7891 39.7641 29.4629 39.5392L29.5098 39.5195C29.5361 39.5046 29.5537 39.4872 29.5625 39.4649C29.5713 39.4396 29.5713 39.4085 29.5654 39.3684L29.2959 37.2556C28.5723 37.4507 27.8604 37.5905 27.1309 37.6458C26.5801 37.6877 26.0293 37.6937 25.4873 37.5595C25.0537 37.4528 24.6758 37.2772 24.3682 37.0129C24.125 36.806 23.9258 36.5449 23.7793 36.2197C23.6973 36.0342 23.6504 35.8314 23.5801 35.6061L29.7207 35.6083C29.8232 35.6083 29.8701 35.5838 29.873 35.4734C29.8848 35.2498 29.9141 35.0273 29.9229 34.8038C29.9551 33.9243 29.8408 33.0656 29.5156 32.2436C29.2578 31.5901 28.8916 31.0432 28.3936 30.6288C28.0742 30.3627 27.6992 30.1512 27.2656 30.0011C26.4717 29.7263 25.6514 29.6858 24.834 29.8204ZM23.6182 33.6379C23.5859 32.7407 24.4092 31.8149 25.2705 31.7314C26.7148 31.5917 27.3447 32.6171 27.4678 33.6379H23.6182Z" fill="#BFBFBF"/>
<path d="M49.0566 29.9952L49.001 29.9855L46.3467 29.9829C46.2617 29.9825 46.25 30.0268 46.2354 30.094C45.8164 31.8304 45.2949 33.5355 44.668 35.208C44.5186 35.6132 44.3545 36.0147 44.1904 36.4394L44.1289 36.302C43.3057 34.2859 42.6494 32.2164 42.1396 30.1001C42.1162 30.0082 42.084 29.9822 41.9902 29.9827L39.4385 29.9847L39.3154 29.99L39.3506 30.1277C39.7695 31.662 40.2588 33.1737 40.8096 34.6656C41.4453 36.3886 42.1572 38.0791 43.0127 39.7067C43.0537 39.7845 43.0977 39.8109 43.1855 39.8107L45.1895 39.8103L45.2363 39.8072L45.2861 39.792C45.3008 39.7847 45.3125 39.775 45.3213 39.7624L45.3535 39.7127C45.5645 39.2812 45.79 38.856 45.9951 38.4213C47.1816 35.897 48.1162 33.2782 48.8867 30.6005L49.0566 29.9952Z" fill="#BFBFBF"/>
<path d="M32.0088 39.6677L32.0059 31.0236C32.0059 30.9835 32.0117 30.9513 32.0234 30.9237C32.041 30.8845 32.0732 30.8548 32.1172 30.8255C32.8965 30.3161 33.752 30.0116 34.6719 29.8818C35.1758 29.8106 35.6768 29.7866 36.1777 29.8093C36.7021 29.8331 37.2236 29.9083 37.7422 30.0343L37.8623 30.0702L37.4434 32.3074C36.9863 32.1627 36.541 32.1062 36.0869 32.1336C35.668 32.1587 35.2812 32.2728 34.9238 32.4947C34.8301 32.5528 34.8037 32.6185 34.8037 32.7258V39.7977H32.0146L32.0088 39.6677Z" fill="#BFBFBF"/>
<path fill-rule="evenodd" clip-rule="evenodd" d="M58.6016 32.2849C58.8213 32.8573 58.9355 33.4525 58.9795 34.0641C59.0176 34.5631 59.0059 35.0584 58.9268 35.5522L58.9121 35.6077H52.6719C52.7305 36.0155 52.8799 36.3689 53.123 36.6816C53.3809 37.0105 53.6973 37.2397 54.0547 37.3948C54.2451 37.4768 54.4473 37.5382 54.6582 37.5827C55.2559 37.7096 55.8594 37.6847 56.4629 37.6211C57.0928 37.555 57.708 37.4347 58.3174 37.2663L58.3672 37.2685L58.4463 37.8782L58.4902 38.2547L58.6338 39.3833C58.6484 39.4846 58.6133 39.517 58.5312 39.5377L58.0742 39.6576C57.7373 39.7464 57.4004 39.8352 57.0605 39.9011C56.4131 40.0275 55.7539 40.0731 55.0918 40.052C53.999 40.0171 52.9531 39.7966 52.0244 39.1804C51.0957 38.5645 50.5244 37.6938 50.2461 36.6276C49.9297 35.4043 49.8975 34.1714 50.2783 32.9582C50.8262 31.2099 52.0156 30.155 53.8262 29.836C54.7783 29.6683 55.7217 29.7214 56.6211 30.1127C57.5996 30.5397 58.2236 31.3036 58.6016 32.2849ZM53.2783 32.2539C52.9121 32.6427 52.7451 33.1176 52.6719 33.6417H56.5273C56.5537 32.5901 55.6455 31.7055 54.5615 31.72C54.0635 31.7264 53.624 31.8842 53.2783 32.2539Z" fill="#BFBFBF"/>
</svg>
