<svg width="64" height="65" viewBox="0 0 64 65" fill="none" xmlns="http://www.w3.org/2000/svg">
<path d="M13.0947 25.1792H6.5498L6.5 25.4797C8.17871 25.8732 9.66406 26.4346 10.959 27.1563L14.5303 40.2792L18.752 40.2731L25.0332 25.2968H20.8086L16.9033 35.5297L16.4844 33.4508C16.4082 33.204 16.3203 32.9533 16.2148 32.7038L16.3525 33.0271L14.9316 26.3961C14.6855 25.4824 13.9736 25.212 13.0947 25.1792Z" fill="#BFBFBF"/>
<path d="M42.6289 25.9081C41.8379 25.6136 40.5986 25.2969 39.0547 25.2969C35.1143 25.2969 32.3398 27.2651 32.3135 30.0875C32.293 32.1721 34.2969 33.3372 35.8086 34.0317C37.3613 34.7427 37.8828 35.196 37.877 35.8315C37.8652 36.8049 36.6377 37.2475 35.4893 37.2475C33.8955 37.2475 33.0488 37.0276 31.7363 36.4862L31.2236 36.2566L30.6641 39.5062C31.5928 39.9112 33.3184 40.2618 35.1055 40.2793C39.2979 40.2793 42.0166 38.3352 42.0488 35.32C42.0635 33.6705 41.0029 32.4143 38.7031 31.3769C37.3086 30.7056 36.4531 30.258 36.4619 29.5781C36.4619 28.9757 37.1855 28.3296 38.7471 28.3296C39.3916 28.3197 39.9482 28.3838 40.4346 28.4868C40.9326 28.5919 41.3574 28.7373 41.7295 28.8855L42.0869 29.0531L42.6289 25.9081Z" fill="#BFBFBF"/>
<path fill-rule="evenodd" clip-rule="evenodd" d="M52.8242 25.2969H49.7979C49.625 25.2969 49.4609 25.3059 49.3057 25.3268C48.6084 25.4193 48.0811 25.7443 47.7441 26.5404L41.9229 40.2793H46.0391C46.0391 40.2793 46.71 38.4325 46.8652 38.0263L51.8838 38.0333C52.001 38.5575 52.3613 40.2793 52.3613 40.2793H55.9971L52.8242 25.2969ZM47.9932 34.9609H51.2451L50.3369 30.6311L50.0732 29.3386C49.9678 29.6424 49.8184 30.0477 49.707 30.3496C49.6104 30.6062 49.543 30.788 49.5547 30.7692L47.9932 34.9609Z" fill="#BFBFBF"/>
<path d="M30.6641 25.2969H26.7646L24.3301 40.2793H28.2236L30.6641 25.2969Z" fill="#BFBFBF"/>
</svg>
