<svg width="64" height="64" viewBox="0 0 64 64" fill="none" xmlns="http://www.w3.org/2000/svg">
<path fill-rule="evenodd" clip-rule="evenodd" d="M23.0153 10.3114L21.8732 13.7863C17.6501 14.3136 14.3135 17.6503 13.7862 21.8734L10.3115 23.0156L11.9602 26.2832C9.34662 29.6428 9.34662 34.3612 11.9602 37.7209L10.3115 40.9839L13.7862 42.1282C14.3135 46.3515 17.6501 49.6859 21.8732 50.2155L23.0153 53.6904L26.2806 52.0416C29.6424 54.6528 34.3607 54.6528 37.7203 52.0416L40.9833 53.6904L42.1277 50.2155C46.3508 49.6859 49.6851 46.3491 50.2147 42.1259L53.6894 40.9839L52.0407 37.7186C54.652 34.3588 54.6542 29.6407 52.0407 26.2809L53.6894 23.0156L50.2147 21.8734C49.6851 17.6503 46.3508 14.3136 42.1254 13.7863L40.9833 10.3114L37.718 11.9602C34.3583 9.3466 29.6401 9.3466 26.2806 11.9602L23.0153 10.3114ZM28.2563 50.4504C27.1418 49.7274 26.2529 48.6912 25.7096 47.4683L25.6496 47.3324L25.5115 47.3854C24.2634 47.8667 22.9002 47.9703 21.6014 47.6962C20.3442 47.4292 19.1469 46.8074 18.1705 45.831C17.1942 44.8548 16.5701 43.6573 16.3053 42.4V42.3976C16.0313 41.1013 16.1349 39.7381 16.6139 38.4899L16.6669 38.3518L16.5333 38.292C15.3106 37.7484 14.2721 36.8573 13.549 35.7451C12.849 34.6697 12.4415 33.3826 12.4415 32.0008C12.4415 30.6192 12.849 29.3319 13.549 28.2566C14.2721 27.1444 15.3106 26.2532 16.5333 25.7098L16.6669 25.65L16.6139 25.5141C16.1349 24.2638 16.0313 22.9005 16.3053 21.6017C16.5701 20.3444 17.1942 19.147 18.1705 18.1707C19.1469 17.1943 20.3442 16.5726 21.6014 16.3055C22.9002 16.0314 24.2634 16.1351 25.5115 16.6163L25.6496 16.6693L25.7096 16.5334C26.2507 15.3107 27.1418 14.2721 28.2539 13.5491C29.3316 12.8491 30.6189 12.4415 32.0004 12.4415C33.3821 12.4415 34.6669 12.8491 35.7447 13.5491C36.8569 14.2721 37.7479 15.3107 38.2914 16.5334L38.3512 16.6693L38.4871 16.6163C39.7375 16.1351 41.1006 16.0314 42.397 16.3055H42.3994C43.6566 16.5703 44.854 17.1943 45.8303 18.1707C46.8067 19.147 47.4285 20.3444 47.6933 21.6017C47.9696 22.9005 47.8659 24.2638 47.3848 25.5117L47.3318 25.65L47.4675 25.7098C48.6903 26.2509 49.7264 27.142 50.4495 28.2566C51.1518 29.3319 51.5595 30.6192 51.5595 32.0008C51.5595 33.3826 51.1518 34.6674 50.4495 35.7451C49.7264 36.8573 48.6903 37.7484 47.4675 38.292L47.3318 38.3518L47.3848 38.4876C47.8659 39.7381 47.9696 41.1013 47.6956 42.3976C47.4285 43.6549 46.8067 44.8524 45.8303 45.831C44.854 46.8074 43.6566 47.4292 42.3994 47.6941C41.1006 47.9703 39.7375 47.8667 38.4894 47.3854L38.3512 47.3324L38.2914 47.466C37.7479 48.6912 36.8569 49.7274 35.7447 50.4504C34.6692 51.1526 33.3821 51.5603 32.0004 51.5603C30.6189 51.5603 29.3316 51.1526 28.2563 50.4504ZM14.4793 20.4089C14.3043 20.98 14.1892 21.5649 14.1293 22.1545L11.0091 23.179L10.8387 23.2367L10.9193 23.3956L12.4 26.3292C12.0246 26.7875 11.6931 27.2803 11.4144 27.8076C10.7489 29.0581 10.3713 30.4856 10.3713 32.0008C10.3713 33.516 10.7489 34.9438 11.4144 36.1941C11.6931 36.7215 12.0246 37.2166 12.4 37.6748L10.9193 40.6062L10.8387 40.7673L11.0091 40.8226L14.1316 41.8497C14.1892 42.4368 14.3043 43.0217 14.4793 43.5905C14.8938 44.9469 15.6376 46.2225 16.7083 47.2932C17.7767 48.3641 19.0547 49.1056 20.4087 49.5223C20.9799 49.6951 21.5624 49.8125 22.1519 49.8702L23.1788 52.9903L23.2342 53.1606L23.3953 53.0801L26.329 51.5994C26.7849 51.9748 27.28 52.3063 27.8072 52.585C29.0576 53.2504 30.4853 53.6281 32.0004 53.6281C33.5157 53.6281 34.9432 53.2504 36.1936 52.585C36.721 52.3063 37.2161 51.9748 37.6743 51.5994L40.6033 53.0801L40.7645 53.1606L40.822 52.9903L41.8491 49.8702C42.4362 49.8125 43.0211 49.6951 43.5921 49.5223C44.9461 49.1056 46.2219 48.3641 47.2925 47.2932C48.3634 46.2225 49.107 44.9469 49.5216 43.5905C49.6942 43.0217 49.8117 42.4368 49.8693 41.8474L52.9894 40.8226L53.1599 40.7673L53.0793 40.6062L51.5986 37.6724C51.9739 37.2143 52.3055 36.7192 52.5865 36.1941C53.2496 34.9414 53.6272 33.5137 53.6272 32.0008C53.6272 30.4856 53.2496 29.0581 52.5865 27.8076C52.3055 27.2803 51.9739 26.7852 51.5986 26.3269L53.0793 23.3956L53.1599 23.2367L52.9894 23.179L49.8693 22.1521C49.8117 21.5625 49.6942 20.9776 49.5192 20.4089C49.1047 19.0526 48.3634 17.7769 47.2925 16.7084C46.2219 15.6377 44.9461 14.8939 43.5898 14.4794C43.0211 14.3044 42.4362 14.1892 41.8468 14.1317L40.822 11.0115L40.7645 10.8411L40.6033 10.9217L37.672 12.4023C37.2138 12.0247 36.7186 11.6954 36.1936 11.4145C34.941 10.7513 33.5133 10.3736 32.0004 10.3736C30.4853 10.3736 29.0576 10.7513 27.805 11.4145C27.28 11.6954 26.7849 12.027 26.3266 12.4023L23.3953 10.9217L23.2342 10.8411L23.1788 11.0115L22.1519 14.1317C21.5624 14.1892 20.9799 14.3067 20.4087 14.4794C19.0525 14.8939 17.7767 15.6377 16.706 16.7084C15.6376 17.7769 14.8938 19.0549 14.4793 20.4089ZM38.6552 13.3418C38.4273 13.0862 38.1832 12.8444 37.9275 12.6188L40.5825 11.2786L41.5128 14.1041C41.3747 14.0948 41.2388 14.0902 41.1006 14.0879H41.0868H41.0845H41.0684C40.9428 14.0856 40.8173 14.0879 40.6896 14.0902H40.6862V14.0925L40.495 14.0994H40.4858L40.3546 14.1086C40.2833 14.1132 40.2117 14.1179 40.1404 14.1248L40.122 14.1271L40.069 14.1317L40.0505 14.134L39.9977 14.1386L39.9793 14.1409L39.9608 14.1432H39.9538L39.9424 14.1455L39.9263 14.1478L39.9078 14.1501L39.8894 14.1524H39.887L39.8548 14.1547L39.8365 14.157L39.8226 14.1593H39.8203L39.6775 14.18L39.6591 14.1823L39.6408 14.1847L39.6245 14.1869L39.6063 14.1892L39.5878 14.1938L39.5717 14.1962L39.5579 14.1985H39.5533L39.5348 14.2008L39.5187 14.2031L39.5003 14.2077L39.4911 14.21H39.4818L39.4657 14.2123L39.4473 14.2146L39.4288 14.2192H39.4267L39.4129 14.2215L39.3944 14.2261L39.376 14.2284L39.3599 14.2307L39.3482 14.2169L39.3391 14.2031L39.3298 14.1869L39.3207 14.1754L39.2562 14.0856L39.2447 14.0718L39.2424 14.0672L39.2354 14.0557L39.224 14.0419L39.1917 13.9981L39.1826 13.9843L39.171 13.9705L39.1642 13.9613L39.042 13.8001H39.0397L39.0189 13.7725L39.0075 13.7586L39.0007 13.7494L38.9845 13.7287L38.9729 13.7149C38.8739 13.5905 38.7681 13.4685 38.662 13.3488L38.6552 13.3418ZM51.3821 26.0713C51.2209 25.8894 51.0505 25.7145 50.8732 25.544L50.8617 25.5326L50.8388 25.5117L50.8295 25.5002L50.8157 25.4887L50.8064 25.4796H50.8042L50.7949 25.4681L50.7811 25.4566L50.7697 25.4472L50.758 25.4358V25.4334L50.7466 25.4243L50.7351 25.4151L50.7006 25.3828L50.6891 25.3713L50.6775 25.3598L50.666 25.3506L50.5324 25.2308L50.5186 25.2193L50.5072 25.2123L50.5048 25.2079L50.491 25.1964L50.4773 25.1849L50.4495 25.1617L50.4357 25.1502L50.4219 25.1387L50.4081 25.1272L50.4058 25.1249L50.3943 25.1157L50.3806 25.1042L50.3666 25.0927L50.3551 25.0834L50.3528 25.0812L50.339 25.0696L50.3114 25.0489L50.3045 25.0421L50.2975 25.0374L50.2837 25.0259L50.2699 25.0144L50.2561 25.0029L50.2515 24.9983L50.2423 24.9914L50.2285 24.9821L50.2147 24.9706L50.2008 24.9591L50.1986 24.9568L50.187 24.9476L50.1709 24.9361L50.1571 24.9246L50.1295 24.9038L50.1157 24.8923L50.1018 24.8832L50.0926 24.8762L50.0858 24.8717L50.0718 24.8602L50.0581 24.8508L50.0443 24.8393L50.0396 24.8348L50.0305 24.8278L50.0144 24.8163L50.0006 24.8072L49.9866 24.7957L49.9728 24.7864L49.9567 24.7749L49.9429 24.7634L49.9315 24.7565L49.9291 24.7542L49.913 24.7427L49.8992 24.7334L49.8854 24.7219L49.8785 24.7174L49.8717 24.7127L49.8555 24.7012L49.8416 24.6921L49.8278 24.6806L49.8233 24.6782L49.8117 24.6712L49.7979 24.6597L49.7841 24.6506L49.768 24.6391L49.7726 24.6229L49.775 24.6044L49.7771 24.5884L49.7794 24.5746L49.7818 24.57L49.7841 24.5515L49.7864 24.5355L49.7887 24.517L49.7909 24.5078L49.7932 24.4987L49.7956 24.4825L49.7979 24.464L49.8025 24.4457V24.4433L49.8049 24.4295L49.807 24.411L49.8093 24.3927L49.8117 24.3765L49.814 24.358L49.8186 24.3397L49.821 24.3212V24.3097L49.8233 24.3051L49.8255 24.2867L49.8301 24.2523V24.2429L49.8324 24.2338L49.8348 24.2153L49.8392 24.1808V24.1784L49.8416 24.1625L49.8439 24.144L49.8462 24.1278L49.8486 24.1116V24.1095L49.8509 24.091L49.8532 24.0748V24.0565L49.8555 24.045V24.038L49.8577 24.0218L49.86 24.0035L49.8623 23.985V23.9782L49.8647 23.9667L49.867 23.9321L49.8693 23.9137V23.9114L49.8717 23.8976L49.8738 23.8791V23.8608L49.8761 23.8469V23.8423L49.8785 23.8261V23.8078L49.8808 23.7801L49.8831 23.7733V23.7548L49.8922 23.6305L49.8946 23.612V23.5935V23.5799L49.8969 23.5775V23.559L49.8992 23.5407V23.5222V23.5131V23.5061L49.9016 23.4899V23.4739V23.4578V23.4463L49.9039 23.4416L49.906 23.3795V23.3771V23.361V23.345L49.9084 23.3311V23.315V23.3126V23.2988V23.2827V23.2667L49.9107 23.2505V23.2458V23.2343V23.2182V23.2022V23.186V23.179V23.1699V23.1537V23.1377L49.913 23.1216V23.1124V23.1077V23.0916V22.9788V22.9626V22.9465V22.9326L49.9107 22.9167V22.912V22.9005V22.8843V22.8682V22.8522V22.8452V22.836V22.8199L49.9084 22.8037V22.7877V22.7784V22.7739V22.7577V22.7416L49.9016 22.5828V22.5781L49.8992 22.5666V22.5505V22.5343L49.8969 22.5181V22.5137V22.5022L49.8946 22.486L52.7222 23.4163L51.3821 26.0713ZM51.2625 38.0571L51.3821 37.9282L52.7222 40.5832L49.8969 41.5135L49.9039 41.3869V41.3707L49.906 41.3063V41.2924V41.2878L49.913 41.1013V41.0875V41.0852V41.069C49.913 40.9424 49.913 40.8158 49.9084 40.6869L49.906 40.6245V40.62L49.9016 40.4956L49.8992 40.4864C49.8922 40.3115 49.8761 40.1317 49.8555 39.9545V39.9453C49.8462 39.8624 49.8348 39.7796 49.8233 39.6966V39.6898L49.821 39.6781L49.8186 39.6598L49.8163 39.6436L49.814 39.6253L49.8117 39.623L49.8093 39.6068L49.807 39.5906L49.8049 39.5723L49.8025 39.5585V39.5538L49.7979 39.5377L49.7956 39.5193L49.7932 39.5008L49.7909 39.4917V39.4847L49.7864 39.4664L49.7841 39.4479L49.7818 39.4317L49.7794 39.4272L49.7771 39.4134L49.775 39.3949L49.7726 39.3789L49.768 39.3604L49.7979 39.3398L49.8117 39.3304L49.8233 39.3213L49.8278 39.3189L49.8416 39.3098L49.8555 39.2983L49.8992 39.2683L49.913 39.2568L49.9291 39.2476L49.9315 39.243L49.9866 39.2038L50.0006 39.1946L50.0144 39.1832L50.0305 39.1717L50.0396 39.1646L50.0443 39.1623L50.0581 39.1508L50.0858 39.1302L50.0926 39.1232L50.0996 39.1187L50.1157 39.1072L50.1295 39.0978L50.1433 39.0864L50.1456 39.084L50.1571 39.0749L50.1709 39.0634L50.1847 39.0542L50.1986 39.0427L50.2124 39.031L50.2285 39.0195L50.2423 39.0104L50.2515 39.0012L50.2561 38.9989L50.2699 38.9874L50.2837 38.9759L50.2975 38.9644L50.3045 38.9597L50.3114 38.9527L50.3252 38.9412L50.339 38.9297L50.3528 38.9183L50.3551 38.9159L50.3666 38.9068L50.3806 38.8953L50.3943 38.8861L50.4058 38.8746H50.4081L50.4219 38.8629L50.4357 38.8514L50.4495 38.8376L50.4565 38.8308L50.4633 38.8285L50.4749 38.817L50.4887 38.8055L50.5025 38.7916L50.5072 38.787L50.5163 38.7802L50.5301 38.7687L50.544 38.7572L50.5578 38.7455L50.5716 38.734L50.5831 38.7225L50.5969 38.711L50.6085 38.6995H50.6107L50.6246 38.688L50.6384 38.6742L50.6522 38.6627L50.659 38.6557L50.6637 38.6512L50.6751 38.6397L50.6868 38.6304L50.7006 38.6189L50.7074 38.6121L50.712 38.6097L50.7237 38.5982L50.7351 38.5867L50.7466 38.5774L50.758 38.5659L50.7697 38.5544L50.7811 38.5429L50.7926 38.5338L50.8042 38.5223H50.8064L50.8157 38.5108L50.8272 38.5014L50.8388 38.4899L50.8547 38.4738L50.8617 38.4669L50.8732 38.4578L50.8848 38.4463L50.8963 38.4346L50.9031 38.4278L50.9077 38.4231L50.9194 38.4116L50.9308 38.4025L50.9423 38.391L50.9493 38.3818L50.9539 38.3795L50.9654 38.368L50.9769 38.3565L50.986 38.3448L50.9976 38.3357V38.3333L51.0091 38.3242L51.0205 38.3127L51.0322 38.3012L51.0436 38.2897L51.046 38.2874L51.0667 38.2665L51.0759 38.255L51.0873 38.2435L51.092 38.239L51.099 38.232L51.1104 38.2206L51.138 38.1929L51.1427 38.1861L51.1541 38.1746L51.1656 38.1629L51.2532 38.0686L51.2625 38.0571ZM38.5747 50.7498C38.676 50.6392 38.7749 50.5264 38.8716 50.4089L38.8762 50.4066L38.8832 50.3951L38.9523 50.3145L38.9591 50.303L38.9638 50.2983L38.9752 50.2847L38.9867 50.2708L39.0075 50.2432L39.0189 50.2293L39.0743 50.1579L39.0836 50.1464L39.0857 50.144L39.1411 50.0727L39.1504 50.0589L39.1642 50.0404L39.1733 50.0312L39.1826 50.0174L39.1941 50.0013L39.2032 49.9874H39.2055L39.2146 49.9738L39.2263 49.96L39.2354 49.9438L39.2447 49.9323L39.2471 49.93L39.2562 49.9138L39.2677 49.9L39.277 49.8861L39.2838 49.8793L39.2884 49.8723L39.2999 49.8563L39.3092 49.8425L39.3207 49.8287L39.323 49.824L39.3298 49.8125L39.3391 49.7987L39.3506 49.7849L39.3599 49.7687L39.3783 49.7734L39.3966 49.7757L39.4129 49.778L39.4267 49.7802L39.4311 49.7825L39.4496 49.7849L39.4657 49.7872L39.4841 49.7895L39.4935 49.7919L39.5026 49.794L39.5187 49.7964L39.5371 49.7987L39.5556 49.8034H39.5579L39.5717 49.8055L39.5902 49.8078L39.6086 49.8102L39.6245 49.8125L39.643 49.8148L39.6614 49.8193L39.6775 49.8217H39.6913L39.696 49.824L39.7144 49.8263L39.749 49.831H39.756L39.7674 49.8332L39.7835 49.8355L39.8203 49.8402H39.8226L39.8387 49.8425L39.8548 49.8447L39.8733 49.847L39.8894 49.8493H39.8917L39.9078 49.8517L39.9263 49.854H39.9447L39.9562 49.8563H39.9608L39.9793 49.8585L39.9977 49.8608L40.0162 49.8632H40.0206L40.0323 49.8655L40.069 49.8678L40.0874 49.8702L40.1035 49.8723L40.122 49.8747H40.1404L40.1542 49.877H40.1589L40.175 49.8793H40.1934L40.2119 49.8817H40.221L40.228 49.8838H40.2464L40.2878 49.8885H40.2993L40.3707 49.8932L40.3891 49.8955H40.4076L40.4214 49.8976H40.4237H40.4422L40.4604 49.9H40.4789H40.4882L40.495 49.9023H40.5111H40.5272H40.5433L40.555 49.9046H40.5594H40.5756H40.5919L40.6078 49.907H40.6218H40.64H40.654L40.6701 49.9091H40.6862H40.6884H40.7023H40.7185H40.7346L40.7507 49.9115H40.7552H40.7668H40.7829H40.8151H40.8198H40.8289H40.8451H40.8612H40.8773H40.8887L40.8934 49.9138H40.9095H40.9256H40.9417H40.9555H40.9579H40.974H40.9901H41.0062H41.02L41.0522 49.9115H41.0684H41.0845H41.0868H41.1006H41.1167H41.1328H41.1489H41.1536H41.165H41.179L41.1951 49.9091H41.2112H41.2204H41.2274H41.2435H41.2596L41.2757 49.907H41.2872H41.2918H41.3079H41.3241L41.3378 49.9046H41.354H41.3701H41.3862L41.4023 49.9023H41.4184H41.4208H41.4345L41.4507 49.9H41.4644L41.4806 49.8976H41.4875H41.4967H41.5128L40.5825 52.7231L37.9275 51.383L37.9392 51.3715L37.9483 51.3645L37.9506 51.3622L37.9621 51.3507L37.999 51.3207V51.3186L38.0104 51.3071L38.0219 51.2977L38.0335 51.2862L38.045 51.2771L38.0473 51.2747L38.0588 51.2656L38.0795 51.2426L38.0933 51.2332L38.1393 51.1896L38.144 51.1849L38.1508 51.1781L38.1624 51.1688L38.1739 51.1573L38.3327 51.0007L38.3351 50.9983L38.3766 50.957L38.3834 50.95L38.3881 50.9454L38.3995 50.9339L38.4112 50.9224L38.4226 50.9109L38.4663 50.8649L38.4756 50.8556V50.8534L38.5193 50.8073H38.5217L38.563 50.7613L38.5677 50.7566L38.5747 50.7498ZM26.0618 51.3715L26.0733 51.383L23.4161 52.7231L22.488 49.8976C22.6031 49.9046 22.7183 49.9091 22.8357 49.9115H22.8472H22.8518H22.9002H22.914V49.9138H22.9301H22.9462C23.0315 49.9138 23.1167 49.9138 23.1996 49.9115H23.218L23.2963 49.9091H23.3124L23.5035 49.9023H23.5128H23.5196L23.5796 49.8976H23.591L23.644 49.8932H23.6464L23.8466 49.877H23.8582L23.8765 49.8747L23.9295 49.8702L23.9479 49.8678L23.9664 49.8655L24.0032 49.8608H24.0194L24.0378 49.8585L24.0446 49.8563H24.0563L24.0724 49.854L24.0906 49.8517L24.1091 49.8493H24.1114L24.1436 49.8447L24.1621 49.8425L24.1782 49.8402H24.1805L24.1966 49.8378L24.2335 49.8332H24.245L24.2681 49.8287L24.2864 49.8263L24.3095 49.824L24.3209 49.8217L24.3394 49.8193L24.3578 49.8172L24.3739 49.8125H24.3762L24.3924 49.8102L24.4108 49.8078L24.4292 49.8055L24.443 49.8034H24.4454L24.4638 49.7987L24.4823 49.7964L24.4984 49.794L24.5075 49.7919H24.5166L24.5351 49.7872L24.5512 49.7849L24.5696 49.7825H24.5743L24.5881 49.7802L24.6042 49.7757L24.6226 49.7734L24.6411 49.7687L24.6502 49.7849L24.6619 49.7987L24.671 49.8125L24.678 49.824L24.6801 49.8287L24.6918 49.8425L24.7009 49.8563L24.7124 49.8723L24.717 49.8793L24.724 49.8861L24.7331 49.9023L24.7424 49.9161L24.7539 49.93L24.7562 49.9323L24.7654 49.9438L24.7747 49.96L24.7861 49.9738L24.7953 49.9874L24.8069 50.0013L24.8184 50.0174L24.8275 50.0312L24.8345 50.0404L24.8391 50.0451L24.8506 50.0589L24.8597 50.0727L24.8714 50.0866L24.876 50.0934L24.8828 50.1027L24.8943 50.1164L24.9036 50.1302L24.9151 50.144L24.9174 50.1464L24.9265 50.1579L24.9358 50.1717L24.9473 50.1879L24.9588 50.1993V50.2017L24.9704 50.2155L24.9819 50.2293L24.9912 50.2432L24.998 50.2523L25.0026 50.257L25.0255 50.2847L25.0372 50.2983L25.0417 50.3053L25.0486 50.3121L25.0601 50.326L25.0717 50.3398L25.0809 50.3536L25.0832 50.3559L25.0923 50.3674L25.104 50.3813L25.1154 50.3951L25.1246 50.4066L25.1269 50.4089L25.1384 50.4228L25.15 50.4366L25.1615 50.4504L25.1684 50.4572L25.1729 50.4642L25.1846 50.4781L25.1983 50.4919L25.2098 50.5056L25.2121 50.5079L25.2191 50.5194L25.2329 50.5332L25.2444 50.5447L25.2558 50.5585V50.5609L25.2675 50.5724L25.2789 50.5862L25.2904 50.6L25.2997 50.6092L25.3018 50.6138L25.3158 50.6253L25.3273 50.6392L25.3387 50.653L25.3434 50.66L25.3502 50.6668L25.3618 50.6783L25.371 50.6898L25.3826 50.7013L25.3894 50.7083L25.3941 50.7128L25.4032 50.7245L25.4148 50.7381L25.4263 50.7475L25.4331 50.7589H25.4354L25.4471 50.7728L25.4585 50.7843L25.4677 50.7958L25.5345 50.8649L25.5461 50.8764L25.5552 50.8879L25.5783 50.9109L25.5898 50.9224L25.6012 50.9339L25.6127 50.9454L25.6174 50.95L25.6243 50.957L25.6335 50.9662L25.6451 50.9777L25.6657 50.9983L25.668 51.0007L25.6795 51.0122L25.6911 51.0237L25.7026 51.0353L25.7117 51.0468L25.7234 51.056L25.7348 51.0675L25.7463 51.079L25.7579 51.0905L25.7601 51.0928L25.7694 51.102L25.7808 51.1113L25.7925 51.1228L25.8039 51.1343L25.8084 51.139L25.8154 51.1458L25.8269 51.1573L25.8385 51.1664L25.8614 51.1896L25.8731 51.2011L25.8845 51.2103L25.896 51.2217L25.9053 51.2309L25.9076 51.2332L25.9191 51.2426L25.9305 51.2541L25.942 51.2656L25.9536 51.2747L25.956 51.2771L25.9789 51.2977L25.9904 51.3071L26.002 51.3186L26.0041 51.3207L26.0135 51.33L26.0249 51.3392L26.0366 51.3507L26.0503 51.3622L26.0527 51.3645L26.0618 51.3715ZM13.321 38.6397L13.3855 38.6972L13.3901 38.7018L13.4132 38.7202L13.427 38.734L13.4408 38.7455L13.4546 38.7572L13.4661 38.7687L13.48 38.7802L13.4914 38.7893L13.4938 38.7916L13.5076 38.8031L13.5905 38.8723L13.5928 38.8768L13.6043 38.8838L13.6181 38.8953L13.6319 38.9068L13.6458 38.9183L13.6595 38.9297L13.6872 38.9527L13.6964 38.9597L13.701 38.9644L13.7148 38.9759L13.7286 38.9874L13.7563 39.008L13.7701 39.0195L13.7862 39.031L13.8 39.0427V39.0449L13.8138 39.0542L13.8276 39.0634L13.8415 39.0749L13.853 39.084L13.8553 39.0864L13.8691 39.0978L13.8829 39.1072L13.899 39.1187L13.906 39.1255L13.9128 39.1302L13.9267 39.1417L13.9405 39.1508L13.9589 39.167L13.9704 39.1738L13.9842 39.1832L13.9981 39.1946L14.0119 39.2038L14.0142 39.2061L14.028 39.2153L14.0418 39.2268L14.0556 39.2361L14.0671 39.2453L14.0694 39.2476L14.0855 39.2568L14.0994 39.2683L14.1132 39.2798L14.1224 39.2844L14.1293 39.2891L14.1431 39.3006L14.1569 39.3098L14.173 39.3213L14.1753 39.3236L14.1869 39.3304L14.203 39.3398L14.2168 39.3512L14.2306 39.3604L14.2283 39.3789L14.226 39.3972L14.2214 39.4134L14.2191 39.4272V39.4317L14.2168 39.4479L14.2122 39.4664L14.2099 39.4847L14.2076 39.494V39.5032L14.203 39.5193L14.2007 39.5377L14.1984 39.5562V39.5585L14.1961 39.5723L14.1938 39.5906L14.1892 39.6091L14.1869 39.6253L14.1846 39.6436L14.1823 39.6621L14.18 39.6781L14.1777 39.6919V39.6966L14.1753 39.7151L14.173 39.7311L14.1685 39.7496V39.7564L14.1662 39.7681L14.1638 39.7841V39.8026L14.1615 39.8209L14.1592 39.8232V39.837L14.1546 39.8555V39.8738L14.1523 39.89V39.8923L14.15 39.9085L14.1477 39.9268L14.1454 39.9453L14.1431 39.9568V39.9615L14.1408 39.9798L14.1385 39.9983L14.1362 40.0145V40.0236V40.0328L14.1339 40.0513L14.1316 40.0696L14.1293 40.0858V40.0904V40.1043L14.127 40.1226L14.1247 40.1387V40.1549L14.1224 40.1571V40.1756L14.1201 40.1941L14.1178 40.21V40.2217V40.2285L14.1155 40.247V40.2654L14.1132 40.2815V40.2883L14.1109 40.2998V40.3183L14.1086 40.3345V40.3528V40.3552L14.1063 40.3713V40.3898L14.104 40.4058V40.422V40.4243V40.4426L14.1017 40.4588V40.4773L14.0994 40.4888V40.4956V40.5118L14.0971 40.5279V40.5441V40.5556V40.5601L14.0948 40.5739V40.5901V40.6062V40.6224L14.0925 40.6384V40.6545V40.6707V40.6869V40.689V40.7028L14.0901 40.719V40.7352V40.7513V40.7558V40.7673V40.7811V40.7996L14.0878 40.8135V40.8203V40.8296V40.8456V40.8618V40.8779V40.9101V40.9262V40.9424V40.9562V40.9586V40.9746V40.9907V41.0045V41.0207V41.0369V41.0529V41.1173L14.0901 41.1335V41.1658V41.1796V41.1956V41.2118V41.221L14.0925 41.228V41.2441V41.2601V41.2763V41.2878L14.0948 41.2924V41.3086V41.3246V41.3407V41.3546L14.0971 41.3707V41.3869V41.4029L14.0994 41.419V41.4214V41.4352L14.1017 41.4514V41.4673V41.4812V41.4882L14.104 41.4973V41.5135L11.2763 40.5832L12.6187 37.9282C12.8283 38.1676 13.0516 38.3933 13.2865 38.6074L13.2911 38.6121L13.3095 38.6282L13.321 38.6397ZM13.2289 25.4472C13.0148 25.6453 12.8122 25.8549 12.6187 26.0737L11.2763 23.4163L14.104 22.4883L14.1017 22.5045V22.5137V22.5181V22.5343L14.0994 22.5505V22.5666V22.5805L14.0971 22.5828V22.6149L14.0948 22.6311L14.0925 22.6932V22.7094V22.7139V22.7416L14.0901 22.7577V22.7739V22.7807V22.7877V22.8037V22.8199L14.0878 22.836V22.8475V22.8522V22.8682V22.8843V22.9005V22.9143V22.9167V22.9305V22.9465V22.9626V22.9788V22.9811V23.1054V23.1146V23.1216V23.1377V23.1537V23.1699V23.1814V23.186V23.2022V23.2182V23.2343L14.0901 23.2458V23.2482V23.2667V23.2805V23.2965V23.3126V23.315L14.0925 23.3288V23.345V23.3771L14.0948 23.3818V23.4094V23.4233V23.4393L14.0971 23.4463V23.4554V23.4716V23.4877L14.0994 23.5037V23.5131V23.5222L14.1017 23.5407V23.5567L14.104 23.5752V23.5799V23.5935L14.1063 23.612V23.6282V23.6465L14.1086 23.665V23.6812L14.1109 23.6995L14.1132 23.7133V23.718V23.7363L14.1155 23.771L14.1178 23.7801V23.7893L14.1201 23.8261L14.1224 23.8423V23.8469L14.1247 23.8608V23.8791L14.127 23.8976L14.1293 23.9137L14.1316 23.9321L14.1339 23.9505L14.1362 23.9805V23.985L14.1385 24.0035L14.1408 24.0218L14.1431 24.038V24.045L14.1454 24.0565V24.0748L14.1477 24.091L14.15 24.1095L14.1523 24.1116V24.1278L14.1546 24.144L14.1569 24.1625L14.1592 24.1784V24.1808L14.1615 24.1993L14.1638 24.2153L14.1662 24.2338L14.1685 24.2453V24.2523L14.1708 24.2706L14.173 24.2867L14.1753 24.3051L14.1777 24.3121L14.18 24.3236L14.1823 24.3397L14.1846 24.358L14.1869 24.3765L14.1892 24.3927L14.1938 24.411L14.1961 24.4295V24.4433L14.1984 24.4478L14.2007 24.464L14.203 24.4825L14.2076 24.5008V24.5078L14.2099 24.517L14.2145 24.5538L14.2191 24.57V24.5746L14.2214 24.5884L14.2283 24.6253L14.2306 24.6414C13.9128 24.8623 13.6089 25.1019 13.3234 25.3621L13.3118 25.3713L13.2428 25.4358H13.2405L13.2289 25.4472ZM14.7303 20.6484L14.7741 20.4987C14.8754 20.1694 14.9974 19.8448 15.1379 19.5247L16.4527 20.1372C16.326 20.4274 16.2178 20.7221 16.1303 21.0238L14.7303 20.6484ZM14.4425 22.1292C14.4839 21.7306 14.553 21.337 14.6497 20.9478L16.052 21.3232L16.0014 21.5396C15.953 21.7745 15.9139 22.0139 15.8885 22.2534L14.4425 22.1292ZM11.9164 27.5497C12.1237 27.2065 12.3539 26.8773 12.6049 26.5688L13.7148 27.4991C13.5628 27.6878 13.4224 27.8836 13.2888 28.0863L13.1737 28.2727L11.9164 27.5497ZM11.6885 27.9527L11.7621 27.8146L13.0194 28.54C12.8674 28.8162 12.7339 29.1017 12.6187 29.3964L11.2556 28.9015C11.3822 28.5744 11.525 28.2589 11.6885 27.9527ZM10.8411 30.3475C10.9171 29.9515 11.0207 29.5669 11.1496 29.1915L12.5128 29.6866C12.4115 29.9837 12.3309 30.2877 12.2687 30.5986L10.8411 30.3475ZM10.6845 31.8466C10.6914 31.4412 10.7259 31.0429 10.7858 30.6537L12.2158 30.9048C12.1674 31.2133 12.1398 31.5265 12.1329 31.8466H10.6845ZM10.7858 33.3479C10.7259 32.9588 10.6914 32.5604 10.6845 32.1551H12.1329C12.1398 32.4753 12.1674 32.7883 12.2135 33.097L10.7858 33.3479ZM11.1496 34.8101C11.0207 34.4348 10.9171 34.048 10.8411 33.652L12.2687 33.4009C12.3309 33.7141 12.4115 34.0182 12.5128 34.3152L11.1496 34.8101ZM11.6885 36.0491C11.525 35.7428 11.3799 35.4274 11.2556 35.1004L12.6187 34.6052C12.7339 34.8999 12.8674 35.1855 13.0194 35.4595L11.7621 36.1849L11.6885 36.0491ZM12.6049 37.4354C12.3539 37.1245 12.1237 36.7975 11.9164 36.4543L13.1737 35.7289L13.2911 35.9155C13.4224 36.1181 13.5628 36.3138 13.7148 36.5028L12.6049 37.4354ZM12.8122 37.6794L12.803 37.6724L13.9151 36.7377C14.1224 36.9747 14.3457 37.1981 14.5829 37.4054L13.6504 38.5176L13.602 38.4738L13.5536 38.4301L13.5398 38.421L13.5283 38.4093L13.5145 38.3978L13.503 38.3863L13.4914 38.3748L13.48 38.3633L13.4661 38.3542L13.4546 38.3427L13.4431 38.331L13.4316 38.3195L13.4178 38.308L13.4062 38.2965L13.3947 38.285L13.3832 38.2759L13.3717 38.2644L13.3579 38.2529L13.3464 38.2412L13.3349 38.2297L13.3234 38.2182L13.3118 38.2067L13.3003 38.1952L13.2888 38.1837L13.2773 38.1722L13.2635 38.1607L13.252 38.1493L13.2405 38.1376L13.2289 38.1261L13.2174 38.1146L13.2059 38.1031L13.1944 38.0916L13.1829 38.0778L13.1714 38.0686V38.0663L13.1599 38.0548L13.1484 38.0433L13.1253 38.0201L13.1138 38.0086L13.1023 37.9971L13.0908 37.9856L13.0793 37.9742V37.9718L13.0678 37.9603L13.0562 37.9488L13.0447 37.9373L13.0355 37.9258L13.0332 37.9235L13.024 37.9144L13.0125 37.9029L13.001 37.8912L12.9895 37.8775L12.9872 37.8752L12.978 37.8659L12.9664 37.8544L12.9572 37.8429L12.9457 37.829L12.9434 37.8267L12.9342 37.8176L12.9227 37.8061L12.9112 37.7946L12.8582 37.7324L12.8559 37.7301L12.8467 37.7209L12.8352 37.7094L12.8145 37.6839L12.8122 37.6794ZM14.6497 43.0517C14.5553 42.6625 14.4862 42.2687 14.4448 41.875L15.8885 41.7461C15.9139 41.9878 15.953 42.225 16.0014 42.4623L16.0497 42.6763L14.6497 43.0517ZM14.7741 43.5007L14.7303 43.3511L16.1303 42.9757C16.2178 43.2774 16.326 43.5745 16.4527 43.8645L15.1379 44.4771C14.9974 44.1571 14.8754 43.8324 14.7741 43.5007ZM15.8701 45.7942C15.6444 45.4603 15.4441 45.1127 15.2691 44.758L16.584 44.1456C16.7221 44.4264 16.881 44.6982 17.056 44.9629L15.8701 45.7942ZM16.8189 46.964C16.5379 46.6715 16.28 46.3653 16.0474 46.0476L17.2333 45.2163C17.4175 45.4672 17.6202 45.7091 17.8435 45.9393L16.8189 46.964ZM17.9541 47.9541C17.634 47.7215 17.3277 47.4637 17.0376 47.1828L18.06 46.158C18.2902 46.3791 18.5343 46.5817 18.7853 46.766L17.9541 47.9541ZM19.2436 48.7303C18.8866 48.5575 18.5412 48.3571 18.2073 48.1316L19.0363 46.9432C19.3011 47.1206 19.5751 47.2796 19.8561 47.4177L19.2436 48.7303ZM20.4985 49.2253C20.1692 49.124 19.8423 49.0042 19.5244 48.8614L20.137 47.549C20.4271 47.6756 20.7218 47.7815 21.0236 47.869L20.6482 49.2714L20.4985 49.2253ZM22.1288 49.557C21.7305 49.5155 21.3368 49.4463 20.9498 49.3497L21.323 47.9496L21.5371 47.9979C21.7742 48.0486 22.0136 48.0877 22.2532 48.1131L22.1288 49.557ZM23.6324 49.5846L23.5679 49.5868L23.5035 49.5914L23.4874 49.5938H23.4712H23.4528L23.4367 49.5961H23.4206H23.4044H23.3883L23.3722 49.5983H23.3699H23.3561H23.34H23.3239L23.3078 49.6006H23.3054H23.2893H23.2755H23.2571L23.241 49.6029H23.2386H23.2248H23.2087H23.1926H23.1765H23.172H23.1604H23.1443H23.1281H23.1097H23.0775H23.0614H23.0452H23.0291H23.013H22.9946H22.9623H22.9462H22.9301H22.914H22.9095H22.8979H22.8818H22.8635L22.7483 49.5983H22.7344H22.7159H22.7115L22.6354 49.5961L22.6169 49.5938H22.601L22.5847 49.5914H22.5779H22.5686H22.5524L22.5363 49.5891H22.5181H22.5134L22.5019 49.5868H22.4858H22.4695L22.4536 49.5846H22.4466H22.4373L22.5618 48.1384C22.8773 48.1592 23.1903 48.1592 23.5058 48.1384L23.6324 49.5846ZM27.547 52.0831C27.2039 51.878 26.8769 51.6477 26.5661 51.3945L27.4986 50.2847C27.6876 50.4366 27.8833 50.577 28.0858 50.7106L28.2724 50.8281L27.547 52.0831ZM27.9524 52.3133L27.8142 52.2373L28.5396 50.9824C28.8135 51.1343 29.0991 51.2679 29.396 51.383L28.8988 52.744C28.5741 52.6195 28.2586 52.4744 27.9524 52.3133ZM30.3471 53.1584C29.9511 53.0823 29.5665 52.9787 29.1912 52.8497L29.6863 51.489C29.9832 51.5903 30.2873 51.6707 30.5981 51.733L30.3471 53.1584ZM31.8462 53.3172C31.4408 53.3104 31.0426 53.2736 30.6534 53.2136L30.9043 51.786C31.2105 51.8343 31.526 51.862 31.8462 51.8688V53.3172ZM33.3475 53.2136C32.9584 53.2736 32.56 53.3104 32.1547 53.3172V51.8688C32.4747 51.862 32.7879 51.8343 33.0965 51.786L33.3475 53.2136ZM34.8098 52.8497C34.4345 52.9787 34.0475 53.0823 33.6537 53.1584L33.4005 51.733C33.7137 51.6707 34.0176 51.5903 34.3123 51.489L34.8098 52.8497ZM36.0486 52.3133C35.7424 52.4744 35.4268 52.6195 35.0999 52.744L34.6047 51.383C34.8995 51.2679 35.1851 51.1343 35.4591 50.9824L36.1845 52.2373L36.0486 52.3133ZM37.4324 51.3945C37.1239 51.6454 36.7969 51.8758 36.4538 52.0831L35.7286 50.8281L35.915 50.7106C36.1177 50.5794 36.3134 50.4366 36.4998 50.2847L37.4324 51.3945ZM43.051 49.3497C42.6642 49.4463 42.2704 49.5155 41.872 49.557L41.7454 48.1131C41.9871 48.0877 42.2244 48.0486 42.4615 47.9979H42.4638C42.5353 47.9841 42.6042 47.9679 42.6757 47.9496L43.051 49.3497ZM43.5024 49.2253L43.3527 49.2714L42.9774 47.869C43.2766 47.7815 43.5737 47.6756 43.8639 47.5466L44.4764 48.8614C44.1587 49.0042 43.8315 49.124 43.5024 49.2253ZM45.7936 48.1292C45.4596 48.3571 45.1119 48.5575 44.7573 48.7303L44.1424 47.4177C44.4234 47.2796 44.6975 47.1206 44.9622 46.9432L45.7936 48.1292ZM46.9632 47.1828C46.6732 47.4637 46.3646 47.7216 46.0468 47.952L45.2155 46.766C45.4666 46.5817 45.7083 46.3791 45.9386 46.158L46.9632 47.1828ZM47.9535 46.0453C47.7209 46.3653 47.4653 46.6715 47.1821 46.964L46.1573 45.9393C46.3784 45.7091 46.5811 45.4672 46.7652 45.2163L47.9535 46.0453ZM48.7294 44.758C48.5568 45.1127 48.3564 45.4603 48.1308 45.7942L46.9425 44.9629C47.1199 44.6982 47.2788 44.4264 47.4168 44.1456L48.7294 44.758ZM49.2268 43.5007C49.1232 43.8324 49.0035 44.1571 48.8606 44.4771L47.5459 43.8645C47.6749 43.5745 47.783 43.2774 47.8682 42.9757L49.2705 43.3511L49.2268 43.5007ZM49.5561 41.875C49.5146 42.2687 49.4457 42.6625 49.3488 43.0517L47.9488 42.6763L47.9972 42.4623C48.0479 42.225 48.0871 41.9878 48.1123 41.7484L49.5561 41.875ZM49.5837 40.3666L49.586 40.4311L49.5907 40.4979L49.593 40.5118V40.5279V40.5441V40.5624V40.5647L49.5952 40.5786V40.5947V40.6107L49.5975 40.6269V40.6292V40.643V40.6592V40.6752L49.5998 40.6937V40.696V40.7098V40.726V40.742V40.7581V40.7605L49.6022 40.7743V40.7905V40.8088V40.8226V40.8273V40.8411V40.8571V40.8733V40.8894V40.8941V40.9056V40.9216V40.9377V40.9562V40.9724V40.9884V41.0045V41.0369V41.0552C49.5998 41.2233 49.593 41.3937 49.5814 41.5641L48.1376 41.4375C48.1583 41.1243 48.1583 40.8088 48.1376 40.4934L49.5837 40.3666ZM51.1957 37.6703L51.145 37.7278L51.1427 37.7324L51.0644 37.8176L51.0551 37.8267L50.9677 37.9235L50.9654 37.9258L50.9539 37.9373L50.9423 37.9488L50.9308 37.9603L50.9215 37.9718L50.9194 37.9742L50.9077 37.9856L50.8963 37.9971L50.8617 38.0318L50.8503 38.0433L50.8388 38.0548L50.8295 38.0663L50.8272 38.0686L50.8157 38.0801L50.8042 38.0916L50.7926 38.1031L50.7835 38.1123L50.7811 38.1146L50.7697 38.1261L50.758 38.1376L50.7466 38.1493L50.7351 38.1584V38.1607L50.7213 38.1722L50.7097 38.1837L50.6982 38.1952L50.6891 38.2044L50.6868 38.2067L50.6751 38.2182L50.6637 38.2297L50.6522 38.2412L50.6406 38.2505L50.6384 38.2529L50.6268 38.2644L50.6153 38.2759L50.6039 38.2874L50.5922 38.2965V38.2988L50.5784 38.3103L50.567 38.3195L50.5555 38.331L50.544 38.3403V38.3427L50.5301 38.3542L50.5186 38.3657L50.5048 38.3772L50.4957 38.3863L50.4934 38.3886L50.4817 38.4001L50.4703 38.4093L50.4565 38.421L50.4472 38.4301L50.3988 38.4738L50.3505 38.5176L49.4179 37.4054C49.6552 37.1981 49.8761 36.9747 50.0858 36.7377L51.1957 37.6703ZM52.0821 36.4521C51.8749 36.7951 51.6446 37.1222 51.3937 37.433L50.2837 36.5028C50.4357 36.3138 50.5784 36.1181 50.7097 35.9132L50.7237 35.8918C50.7586 35.8387 50.7946 35.7839 50.8272 35.7289L52.0821 36.4521ZM52.3123 36.0491L52.2364 36.1849L50.9815 35.4619C51.1335 35.1855 51.2669 34.8999 51.3821 34.6052L52.743 35.1004C52.6187 35.4274 52.4737 35.7428 52.3123 36.0491ZM53.1599 33.652C53.0814 34.048 52.9779 34.4348 52.8513 34.8101L51.4881 34.3152C51.5894 34.0182 51.67 33.7118 51.7322 33.4009L53.1599 33.652ZM53.3164 32.1551C53.3096 32.5604 53.275 32.9588 53.2127 33.3479L51.7852 33.097C51.8335 32.7883 51.8611 32.4753 51.8681 32.1551H53.3164ZM53.2127 30.6514C53.275 31.0429 53.3096 31.4412 53.3164 31.8442L51.8681 31.8466C51.8611 31.5265 51.8335 31.2133 51.7852 30.9048L53.2127 30.6514ZM52.8513 29.1915C52.9779 29.5645 53.0814 29.9515 53.1599 30.3475L51.7322 30.6007C51.67 30.2877 51.5894 29.9837 51.4881 29.6866L52.8513 29.1915ZM52.3123 27.9527C52.4758 28.2566 52.6187 28.5744 52.7453 28.8991L51.3821 29.3964C51.2669 29.1017 51.1335 28.8162 50.9815 28.54L52.2387 27.8146L52.3123 27.9527ZM51.3959 26.5664C51.6469 26.8773 51.8772 27.2044 52.0821 27.5474L50.8272 28.2727L50.7097 28.0863C50.5784 27.8836 50.4357 27.6878 50.2837 27.5014L51.3959 26.5664ZM49.3488 20.9478C49.4457 21.337 49.5146 21.7306 49.5561 22.1268L48.1123 22.2534C48.0847 22.0139 48.0479 21.7745 47.9972 21.5396C47.9876 21.4885 47.9758 21.4385 47.9641 21.3889C47.9589 21.3669 47.9538 21.345 47.9488 21.3232L49.3488 20.9478ZM49.2245 20.4987L49.2682 20.6484L47.8682 21.0238C47.7807 20.7221 47.6749 20.425 47.5459 20.1349L48.8606 19.5224C49.0035 19.8425 49.1232 20.1694 49.2245 20.4987ZM48.1284 18.2052C48.3564 18.5414 48.5568 18.8868 48.7294 19.2437L47.4168 19.8563C47.2788 19.5753 47.1199 19.3013 46.9425 19.0365L48.1284 18.2052ZM47.1821 17.0377C47.463 17.3279 47.7209 17.6341 47.9512 17.9519L46.7652 18.7855C46.5811 18.5345 46.3784 18.2927 46.1573 18.0624L47.1821 17.0377ZM46.0468 16.0476C46.3646 16.2801 46.6708 16.5357 46.9632 16.8167L45.9386 17.8437C45.7083 17.6226 45.4666 17.42 45.2155 17.2358L46.0468 16.0476ZM44.7573 15.2692C45.1142 15.4442 45.4596 15.6446 45.7936 15.8702L44.9622 17.0584C44.6975 16.8811 44.4257 16.7223 44.1447 16.5841L44.7573 15.2692ZM43.5001 14.7741C43.8317 14.8755 44.1564 14.9975 44.4764 15.1403L43.8639 16.4528C43.5737 16.3262 43.2766 16.218 42.9751 16.1327L43.3504 14.7304L43.5001 14.7741ZM41.8743 14.4449C42.2704 14.4863 42.6619 14.5554 43.051 14.6498L42.6757 16.0522L42.4615 16.0038C42.2267 15.9531 41.9871 15.914 41.7477 15.8887L41.8743 14.4449ZM40.3661 14.4172L40.4305 14.4126L40.4973 14.4103L40.5111 14.408H40.5272L40.5433 14.4057H40.5618H40.5641H40.5779L40.594 14.4034H40.6101H40.6262H40.6286H40.6424L40.6585 14.4011H40.6746H40.693H40.6954H40.7091H40.7253L40.7414 14.3988H40.7575H40.7621H40.7736H40.7897H40.8082H40.8243H40.8266H40.8404L40.8565 14.3965H40.8726H40.8887H40.8934H40.9049H40.921H40.9394H40.9555H40.9717H40.9878H41.0039H41.0361H41.0546L41.0707 14.3988H41.0868H41.0914H41.1029C41.2503 14.4011 41.4 14.408 41.5474 14.4172H41.552H41.5635L41.4392 15.861C41.1237 15.8403 40.8082 15.8426 40.4927 15.8633L40.3661 14.4172ZM39.0605 14.3435L39.1135 14.4195L38.4226 16.0913C38.1947 15.6377 37.9207 15.2117 37.6052 14.8202L38.715 13.8876L38.7288 13.9037L38.7426 13.9198L38.7496 13.929L38.7611 13.9451L38.7681 13.9521L38.7704 13.9567L38.7749 13.9613L38.7818 13.9705L38.7933 13.9866L38.8003 13.9935L38.8117 14.0096L38.8187 14.0189L38.8255 14.0257L38.844 14.0511L38.851 14.0603L38.8578 14.0672L38.8647 14.0764L38.8694 14.0856L38.9383 14.1754L38.9453 14.1847L38.9706 14.2169V14.2192L38.9822 14.233L38.9867 14.2422L39.0535 14.3343L39.0605 14.3435ZM36.4515 11.9188C36.7946 12.1237 37.1215 12.354 37.4324 12.605L36.4998 13.7149C36.3134 13.5652 36.1154 13.4224 35.9126 13.2912L35.7262 13.1737L36.4515 11.9188ZM36.0462 11.6885L36.1845 11.7622L35.4614 13.0195C35.1851 12.8675 34.8995 12.7339 34.6024 12.6188L35.0999 11.2556C35.4245 11.3822 35.7424 11.525 36.0462 11.6885ZM33.6514 10.8411C34.0475 10.9194 34.4345 11.0207 34.8074 11.1496L34.3123 12.5129C34.0153 12.4115 33.7114 12.3286 33.4005 12.2688L33.6514 10.8411ZM32.1547 10.6845C32.56 10.6914 32.9561 10.7259 33.3475 10.7881L33.0941 12.2158C32.7879 12.1674 32.4724 12.1398 32.1547 12.1329V10.6845ZM30.6534 10.7881C31.0426 10.7259 31.4408 10.6914 31.8462 10.6845V12.1329C31.526 12.1398 31.2129 12.1674 30.9043 12.2158L30.6534 10.7881ZM29.1912 11.1496C29.5642 11.0207 29.9511 10.9171 30.3471 10.8411L30.6004 12.2688C30.2873 12.3309 29.9832 12.4115 29.6863 12.5129L29.1912 11.1496ZM27.9501 11.6885C28.2563 11.525 28.5741 11.3822 28.8988 11.2556L29.396 12.6188C29.1013 12.7339 28.8159 12.8675 28.5396 13.0195L27.8142 11.7622L27.9501 11.6885ZM26.5661 12.605C26.8769 12.354 27.2039 12.1237 27.547 11.9188L28.2724 13.1737L28.0858 13.2912C27.8833 13.4224 27.6876 13.5652 27.4986 13.7149L26.5661 12.605ZM25.569 13.5537L25.6127 13.5053V13.503L25.6243 13.4938L25.6451 13.4685L25.6566 13.457L25.6589 13.4547L25.668 13.4432L25.7026 13.4086L25.7141 13.3971L25.7463 13.3603H25.7486L25.7579 13.3488L25.7694 13.3372L25.8269 13.2774L25.8385 13.2659H25.8408L25.85 13.2543L25.8614 13.2428L25.8731 13.2313L25.8845 13.2198L25.8869 13.2175L25.896 13.2083L25.9076 13.1968L25.9191 13.1853L25.9305 13.1737L25.9329 13.1714L25.942 13.1622L25.956 13.1507L25.9674 13.1392L25.9789 13.1277L25.9812 13.1254L25.9904 13.1162L26.002 13.1047L26.0135 13.0931L26.0272 13.0816V13.0793L26.0387 13.0701L26.0503 13.0586L26.0618 13.0471L26.0733 13.0356L26.0756 13.0333L26.0849 13.0241L26.0987 13.0149L26.1102 13.0033L26.1216 12.9918L26.1239 12.9895L26.1333 12.9803L26.147 12.9688L26.1585 12.9573L26.17 12.9481L26.1723 12.9435L26.1816 12.9366L26.1954 12.925L26.2068 12.9135L26.2183 12.902L26.223 12.8997L26.2323 12.8905L26.2437 12.8813L26.2552 12.8698L26.269 12.8583L26.2713 12.856L26.2806 12.8468L26.2921 12.8375L26.3035 12.826L26.3175 12.8145L26.3197 12.8122L26.329 12.8053L27.2616 13.9152C27.0243 14.1225 26.801 14.3458 26.5938 14.583L25.4838 13.6504L25.5253 13.602L25.569 13.5537ZM25.2766 13.8968L25.2836 13.8876L26.3958 14.8202C26.0802 15.2117 25.8063 15.6377 25.576 16.0913L24.8852 14.4218L24.892 14.4126L24.8966 14.4034L24.9036 14.3942L24.9081 14.3873L24.9127 14.3804L24.9151 14.3781L24.9197 14.3689L24.9265 14.362L24.9335 14.3527L24.9382 14.3435L24.945 14.3343L24.9519 14.3274L24.9566 14.3182L24.9634 14.3113L24.9681 14.3021L24.9819 14.2837L24.9865 14.2767L24.9912 14.2721L24.9933 14.2675L25.0003 14.2606L25.005 14.2514L25.0118 14.2422L25.0187 14.233L25.0232 14.2261L25.0302 14.2192V14.2169L25.0349 14.21L25.0417 14.2008L25.0554 14.1847L25.0601 14.1754L25.0671 14.1662H25.0694L25.0739 14.1593L25.0785 14.1501L25.0855 14.1432L25.0923 14.134L25.097 14.1248L25.104 14.1179L25.1085 14.1133L25.1108 14.1086L25.1178 14.1018L25.1222 14.0925L25.1292 14.0856L25.1362 14.0764L25.143 14.0672L25.1477 14.0603H25.15L25.1545 14.0511L25.1615 14.0419L25.1684 14.035L25.1729 14.0257L25.1799 14.0189L25.1869 14.0096L25.189 14.0073L25.1937 14.0027L25.2007 13.9935L25.2051 13.9866L25.2121 13.9774L25.2191 13.9705L25.2259 13.9613L25.2282 13.9567L25.2306 13.9521L25.2374 13.9451L25.2444 13.936L25.2513 13.929L25.2582 13.9198L25.2696 13.906V13.9037L25.2766 13.8968ZM20.9475 14.6521C21.3368 14.5554 21.7305 14.4863 22.1264 14.4449L22.2532 15.8887C22.0136 15.914 21.7742 15.9531 21.5371 16.0038L21.323 16.0522L20.9475 14.6521ZM20.4985 14.7741L20.6482 14.7304L21.0236 16.1327C20.7218 16.218 20.4248 16.3262 20.1347 16.4551L19.5223 15.1403C19.8423 14.9975 20.1669 14.8755 20.4985 14.7741ZM18.2073 15.8702C18.5412 15.6446 18.8866 15.4442 19.2413 15.2692L19.8561 16.5841C19.5751 16.7223 19.3011 16.8811 19.0386 17.0561L18.2073 15.8702ZM17.0376 16.819C17.3277 16.538 17.634 16.2801 17.9541 16.0476L18.7853 17.2335C18.5343 17.4177 18.2925 17.6226 18.0623 17.8414L17.0376 16.819ZM16.0474 17.9542C16.28 17.6341 16.5356 17.3279 16.8189 17.0377L17.8435 18.0624C17.6225 18.2927 17.4198 18.5345 17.2356 18.7855L16.0474 17.9542ZM15.2691 19.2437C15.4441 18.8868 15.6444 18.5414 15.8701 18.2075L17.0583 19.0365C16.881 19.3013 16.7221 19.5753 16.584 19.8563L15.2691 19.2437ZM40.0575 14.4449L40.1841 15.8887C39.6845 15.9439 39.1894 16.0498 38.7081 16.2087L39.3989 14.5393L39.4105 14.537L39.4197 14.5347L39.4288 14.5324H39.4405L39.4496 14.5301L39.4612 14.5278L39.4704 14.5254H39.4818L39.4911 14.5231L39.5026 14.5208L39.5117 14.5185H39.514H39.521L39.5325 14.5162L39.5418 14.5139L39.5533 14.5116H39.5624L39.574 14.5093H39.5785L39.5832 14.507H39.5946L39.6039 14.5047L39.6154 14.5024L39.6245 14.5001H39.6338L39.643 14.4978H39.6453L39.6546 14.4955H39.6661L39.6752 14.4932L39.6868 14.4909H39.696L39.7074 14.4886H39.7098L39.7168 14.4863H39.7282L39.7375 14.484L39.749 14.4817H39.7581L39.7674 14.4794H39.7742H39.7789L39.7882 14.4771L39.7997 14.4748H39.8111L39.8203 14.4725L39.8296 14.4702H39.841L39.8503 14.4679H39.8618L39.8711 14.4656L39.8826 14.4633H39.8917L39.9033 14.461H39.9055H39.9125L39.9239 14.4587H39.9332L39.9424 14.4564H39.9538L39.9631 14.4541H39.9723H39.9746L39.9861 14.4518H39.9954L40.0045 14.4495H40.0162L40.0253 14.4472H40.0367L40.0461 14.4449H40.0575ZM38.517 13.6504L37.4048 14.583C37.1976 14.3458 36.9743 14.1225 36.7371 13.9152L37.6697 12.803L37.6788 12.8122L37.6811 12.8145L37.6926 12.826L37.7271 12.856L37.7318 12.8583L37.7434 12.8698L37.7549 12.879L37.7664 12.8905L37.8032 12.9227L37.817 12.9343L37.8262 12.9435L37.8285 12.9458L37.8745 12.9895H37.8768L37.8885 13.001L37.8999 13.0126L37.9229 13.0333L37.9252 13.0356L37.9368 13.0471L37.9483 13.0586L37.9597 13.0678L37.9714 13.0793L37.9852 13.0908L37.9966 13.1024L38.0081 13.1139L38.0174 13.1254L38.0197 13.1277L38.0312 13.1369L38.0427 13.1484L38.0541 13.1599L38.0658 13.1714L38.0772 13.1853L38.0887 13.1968L38.1025 13.206L38.1118 13.2175L38.1141 13.2198L38.1256 13.2313L38.137 13.2428L38.1487 13.2543L38.1578 13.2636L38.1601 13.2659L38.1716 13.2774L38.1832 13.2889L38.1947 13.3004L38.2038 13.3119L38.2061 13.3142L38.2176 13.3257L38.2292 13.3372L38.2407 13.3488L38.25 13.3603H38.2522L38.2638 13.3718L38.2753 13.3856L38.2844 13.3971L38.296 13.4063V13.4086L38.3075 13.4201L38.319 13.4339L38.3306 13.4455L38.3397 13.4547L38.3421 13.457L38.3535 13.4685L38.365 13.4823L38.3743 13.4938L38.3857 13.503V13.5053L38.3974 13.5191L38.4088 13.5307L38.4203 13.5422L38.4296 13.5514L38.4733 13.602L38.517 13.6504ZM26.596 49.4187C26.8033 49.6559 27.0243 49.877 27.2616 50.0866L26.3313 51.1964L26.3059 51.1734L26.2944 51.1643L26.2806 51.1526L26.2713 51.1458L26.269 51.1411L26.2552 51.132L26.2437 51.1205L26.2323 51.109L26.2068 51.086L26.1954 51.0766L26.1816 51.0652L26.1746 51.056L26.17 51.0537L26.1585 51.0422L26.147 51.0307L26.1333 51.0215L26.1239 51.0122L26.1102 50.9983L26.0987 50.9869L26.0872 50.9754L26.0779 50.9662L26.0733 50.9639L26.0618 50.9524L26.0503 50.9409L26.0387 50.9294L26.0296 50.9224L26.0272 50.92L26.0135 50.9085L26.002 50.8971L25.9904 50.8856L25.9812 50.8764L25.9789 50.8741L25.9674 50.8626L25.956 50.8511L25.9443 50.8396L25.9352 50.8302L25.9329 50.8281L25.9214 50.8164L25.9098 50.8049L25.896 50.7934L25.8869 50.7843L25.8845 50.7796L25.8731 50.7704L25.8614 50.7566L25.85 50.7451L25.8408 50.736L25.8385 50.7336L25.8269 50.7221L25.8154 50.7106L25.8039 50.699L25.7946 50.6898L25.7925 50.6875L25.7808 50.676L25.7694 50.6645L25.7579 50.6507L25.7509 50.6415L25.7486 50.6392L25.7372 50.6277L25.7257 50.6162L25.7141 50.6047L25.7049 50.5932H25.7026L25.6911 50.5794L25.6795 50.5679L25.668 50.5564L25.6589 50.5447H25.6566L25.6473 50.5332L25.6358 50.5194L25.6243 50.5079L25.615 50.4964H25.6127L25.6012 50.4826L25.5921 50.4711L25.5805 50.4596L25.5713 50.4481L25.5253 50.3998L25.4838 50.3513L26.596 49.4187ZM25.5783 47.9105C25.8063 48.3641 26.0802 48.7901 26.3958 49.1816L25.2857 50.1142L25.2789 50.1049L25.2719 50.0981L25.2696 50.0957L25.2651 50.0889L25.2582 50.0819L25.2513 50.0727L25.2397 50.0566L25.2329 50.0497L25.2306 50.0451L25.2259 50.0404L25.2191 50.0312L25.2075 50.0174L25.2007 50.0083L25.1937 49.9991L25.189 49.9921L25.1822 49.9829L25.1752 49.9759L25.1684 49.9668L25.1615 49.96L25.1568 49.9506L25.15 49.9415L25.143 49.9346L25.1362 49.9253L25.1316 49.9185L25.1246 49.9091L25.1178 49.9023L25.1108 49.8932L25.1085 49.8885L25.1061 49.8838L25.0993 49.877L25.0923 49.8678L25.0879 49.8585L25.0809 49.8517L25.0739 49.8425L25.0694 49.8355H25.0671L25.0624 49.8263L25.0554 49.8172L25.0486 49.8102L25.044 49.801L25.0372 49.7919L25.0302 49.7849V49.7825L25.0255 49.7757L25.0187 49.7665L25.0118 49.7595L25.0071 49.7504L25.0003 49.741L24.9933 49.7342L24.9912 49.7295L24.9588 49.6836L24.9519 49.6744L24.945 49.6651L24.9403 49.6582L24.9335 49.6491L24.9265 49.6397L24.922 49.6329L24.9151 49.6238L24.9127 49.6214L24.9104 49.6144L24.9036 49.6053L24.8966 49.5983L24.892 49.5891L24.8852 49.5799L25.5783 47.9105ZM23.8143 48.1107C24.3141 48.0577 24.8092 47.952 25.2927 47.793L24.5995 49.4625L24.5904 49.4648H24.5789L24.5696 49.4672L24.5582 49.4693L24.5512 49.4716H24.5489L24.5397 49.474H24.5283L24.519 49.4763L24.5075 49.4787L24.4984 49.481H24.4867V49.4831H24.4776L24.4683 49.4855L24.4568 49.4878H24.4477L24.4361 49.4901L24.4269 49.4925H24.4223H24.4155L24.4061 49.4946L24.3947 49.497L24.3856 49.4993H24.3739L24.3648 49.5016L24.3555 49.504H24.3531H24.344L24.3326 49.5063L24.3232 49.5085H24.3118L24.3026 49.5108L24.2933 49.5131H24.291H24.2819L24.2726 49.5155L24.2611 49.5178H24.252L24.2403 49.5201L24.2312 49.5223H24.2242H24.2197L24.2104 49.5246L24.199 49.527H24.1897L24.1782 49.5293H24.1691L24.1598 49.5316H24.1574L24.1483 49.5338H24.1368L24.1275 49.5361H24.1184L24.1067 49.5385H24.0953L24.0862 49.5408H24.0745L24.0654 49.5431H24.0563L24.0446 49.5455H24.0355L24.0285 49.5476H24.024H24.0147L24.0032 49.55H23.9939L23.9825 49.5523H23.9733L23.9617 49.5546L23.9526 49.557H23.9411L23.8143 48.1107ZM15.8609 40.4956C15.8402 40.8088 15.8402 41.1243 15.8609 41.4375L14.4171 41.5641C14.3941 41.2233 14.3918 40.8824 14.4079 40.5441V40.5279V40.5118L14.4171 40.369L15.8609 40.4956ZM16.2086 38.7087C16.0497 39.19 15.9438 39.6851 15.8885 40.1871L14.4448 40.0604V40.049L14.4517 39.9983V39.9868L14.454 39.973V39.966L14.4563 39.9568V39.9453L14.4586 39.9362L14.4609 39.9245V39.9085V39.9038L14.4632 39.8947L14.4655 39.8832V39.8738L14.4678 39.8624V39.8532L14.4701 39.844V39.8417V39.8325L14.4724 39.8232L14.4747 39.8117V39.8026L14.477 39.7911V39.7817L14.4793 39.7772V39.7702L14.4816 39.7611V39.7496L14.4839 39.7404L14.4862 39.7289V39.7196L14.4908 39.6989V39.6874L14.4931 39.6781L14.4954 39.6689V39.6574L14.4977 39.6483V39.646L14.5 39.6368V39.6275L14.5023 39.616L14.5046 39.6068V39.5953L14.5069 39.5861L14.5092 39.5653L14.5116 39.5538L14.5139 39.5447L14.5162 39.5353L14.5184 39.5238V39.5147L14.5207 39.5032L14.5231 39.494L14.5254 39.4825V39.4732L14.5277 39.4617L14.53 39.4525V39.4502V39.4434L14.5323 39.4317L14.5346 39.4225L14.5369 39.411L14.5392 39.4019L16.2086 38.7087ZM14.8201 37.6058C15.2116 37.9212 15.6376 38.1952 16.0889 38.4231L14.4194 39.1163L14.4102 39.1093L14.4033 39.1025L14.3941 39.0978L14.3872 39.091L14.3803 39.0864H14.378L14.3688 39.0795L14.3596 39.0749L14.3527 39.068L14.3435 39.061L14.3342 39.0564L14.3273 39.0495H14.325L14.3181 39.0449L14.3089 39.038L14.302 39.031L14.2928 39.0242L14.2836 39.0195L14.2767 39.0127L14.2721 39.0104L14.2675 39.008L14.2582 39.0012L14.2514 38.9942L14.2421 38.9897L14.2329 38.9827L14.226 38.9759L14.2191 38.9712H14.2168L14.2076 38.9644L14.2007 38.9574L14.1915 38.9527L14.1823 38.9459L14.1753 38.9391L14.1662 38.9344V38.9321L14.1592 38.9274L14.15 38.9206L14.1408 38.9138L14.1339 38.9091L14.1247 38.9021L14.1155 38.8953L14.1132 38.8929L14.1086 38.8906L14.0994 38.8838L14.0925 38.8768L14.0833 38.8699L14.0763 38.8653L14.0671 38.8585L14.0602 38.8538L14.0579 38.8514L14.051 38.8446L14.0418 38.8376L14.0349 38.8331L14.0257 38.8261L14.0165 38.8193L14.0096 38.8146L14.0073 38.8123L14.0003 38.8078L13.9934 38.8008L13.9842 38.794L13.9773 38.787L13.9681 38.7802L13.9589 38.7755L13.9428 38.7617L13.9359 38.7548L13.9267 38.7478L13.9197 38.7433L13.9106 38.7363L13.9036 38.7295L13.8944 38.7225L13.8875 38.7157L14.8201 37.6058ZM14.5829 26.5941C14.3457 26.8014 14.1224 27.0248 13.9151 27.2618L12.803 26.3315L12.8122 26.3224L12.8145 26.3177L12.826 26.3062L12.8352 26.2947L12.8467 26.2809L12.8536 26.2739L12.8582 26.2694L12.8789 26.2441L12.8905 26.2326L12.8997 26.2233L12.902 26.2211L12.9112 26.2073L12.9227 26.1958L12.9342 26.1841L12.9434 26.1749L12.9457 26.1726L12.9572 26.1588L12.9664 26.1473L12.978 26.1358L13.001 26.1128L13.0125 26.099L13.0332 26.0783L13.0355 26.076L13.0471 26.0645L13.0586 26.053L13.0678 26.0392L13.0793 26.0298V26.0275L13.0908 26.016L13.1023 26.0045L13.1138 25.993L13.123 25.9839L13.1253 25.9815L13.1368 25.97L13.1484 25.9585L13.1599 25.947L13.1691 25.9356L13.1714 25.9332L13.1829 25.9217L13.1944 25.9102L13.2059 25.8986L13.2174 25.8894V25.8871L13.2289 25.8756L13.2405 25.8641L13.2543 25.8526L13.2635 25.8411H13.2658L13.2773 25.8296L13.2888 25.8181L13.3003 25.8066L13.3118 25.7973V25.7949L13.3234 25.7834L13.3349 25.7719L13.3487 25.7604L13.3579 25.7513L13.3602 25.749L13.3717 25.7375L13.3832 25.726L13.3947 25.7145L13.4062 25.7051H13.4086L13.4201 25.6936L13.4316 25.6822L13.4431 25.6707L13.4546 25.6615V25.6592L13.4684 25.6477L13.48 25.6362L13.4938 25.6247L13.503 25.6153L13.5053 25.6132L13.5168 25.6038L13.5283 25.5924L13.5421 25.5809L13.5513 25.5717L13.602 25.5279L13.6504 25.4841L14.5829 26.5941ZM16.0889 25.5785C15.6376 25.8066 15.2116 26.0805 14.8201 26.396L13.8875 25.2862L13.8967 25.2792L13.9036 25.2723L13.9128 25.2653L13.9197 25.2585L13.929 25.2515L13.9359 25.247L13.9451 25.24L13.952 25.2332L13.9543 25.2308L13.9612 25.2262L13.9681 25.2193L13.9773 25.2147L13.9842 25.2079L13.9934 25.2009L14.0003 25.194L14.0073 25.1894H14.0096L14.0165 25.1825L14.0257 25.1755L14.0349 25.1687L14.0418 25.1617L14.051 25.1572L14.0579 25.1502L14.074 25.1387L14.0763 25.1364L14.0833 25.1319L14.0925 25.1249L14.0994 25.1181L14.1086 25.1111L14.1109 25.1087L14.1155 25.1066L14.1247 25.0996L14.1339 25.0927L14.1408 25.0881L14.15 25.0812L14.1592 25.0742L14.1638 25.0696L14.1662 25.0674L14.1753 25.0627L14.1846 25.0559L14.1915 25.0489L14.2007 25.0442L14.2076 25.0374L14.2168 25.0304L14.226 25.0259L14.2329 25.0189L14.2421 25.0121L14.2514 25.0074L14.2582 25.0006L14.2675 24.9936L14.2721 24.9914L14.2767 24.9891L14.2836 24.9821L14.2928 24.9776L14.302 24.9706L14.3089 24.9638L14.3181 24.9591L14.325 24.9523H14.3273L14.3342 24.9453L14.3435 24.9406L14.3527 24.9338L14.3596 24.9268L14.3688 24.9223L14.378 24.9153L14.3849 24.9108L14.3941 24.9038L14.4033 24.8993L14.4102 24.8923L14.4194 24.8855L16.0889 25.5785ZM15.8885 23.8146C15.9415 24.3144 16.0497 24.8117 16.2086 25.293L14.5392 24.6023L14.5369 24.5906L14.5346 24.5814L14.5323 24.57L14.53 24.5608V24.5515V24.5493L14.5277 24.54L14.5254 24.5285L14.5231 24.5193V24.5078L14.5207 24.4987L14.5184 24.4893V24.487L14.5162 24.4778V24.4687L14.5139 24.4572L14.5116 24.4478L14.5092 24.4387V24.4272L14.5069 24.4225V24.418L14.5046 24.4065L14.5023 24.3972V24.3857L14.5 24.3765L14.4977 24.365V24.3559L14.4954 24.3442L14.4931 24.335V24.3236L14.4908 24.3144L14.4885 24.3029V24.2936L14.4862 24.2914V24.2821L14.4839 24.2729V24.2638L14.4816 24.2523L14.4793 24.2429V24.2314L14.477 24.2269V24.2223L14.4747 24.2108V24.2016L14.4724 24.1899V24.1808L14.4701 24.1693V24.1601L14.4678 24.1486L14.4655 24.1393V24.1278L14.4632 24.1186V24.1072L14.4609 24.098V24.0957V24.0863L14.4586 24.0772V24.0657L14.4563 24.0565L14.454 24.045V24.0357V24.0288L14.4517 24.0242V24.015L14.4494 24.0059V23.9944L14.4471 23.985V23.9735L14.4448 23.9644V23.962V23.9529L14.4425 23.9435L15.8885 23.8146ZM15.8609 22.5643C15.8402 22.8775 15.8402 23.1929 15.8609 23.5061L14.4171 23.6327L14.4079 23.4877V23.4716L14.4056 23.4554V23.4393V23.4371V23.4233L14.4033 23.4071V23.3748V23.3703L14.401 23.3241V23.308V23.3058V23.292V23.2758L14.3987 23.2597V23.2435V23.239V23.2275V23.209C14.3941 22.9535 14.401 22.6956 14.4171 22.4377L15.8609 22.5643ZM23.5058 15.8633C23.1926 15.8403 22.8773 15.8426 22.5618 15.861L22.4352 14.4172H22.4466H22.4513L22.4674 14.4149H22.4835L22.4996 14.4126H22.5134H22.5181H22.5342L22.5503 14.4103H22.5664H22.5779L22.5825 14.408H22.601H22.6169L22.6332 14.4057H22.6447H22.6493H22.6653L22.6816 14.4034H22.6998H22.7091H22.7159H22.732L22.7483 14.4011H22.7643H22.7759H22.7827H22.7988H22.815L22.8311 14.3988H22.8427H22.8472H22.8635H22.8794H22.8979H22.9072H22.914H22.9301H22.9462H22.9623L22.974 14.3965H22.9784H22.9946H23.013H23.0291H23.0452H23.0614H23.0775L23.1097 14.3988H23.1281H23.1443H23.1604H23.172H23.1765H23.1926H23.2087H23.2272H23.2365L23.2433 14.4011H23.2594H23.2755H23.2916H23.3033H23.3078H23.3239L23.34 14.4034H23.3561H23.3699H23.3745L23.3907 14.4057H23.4068H23.4229H23.4345L23.439 14.408H23.4551H23.4712L23.4874 14.4103H23.5011L23.5679 14.4126L23.6324 14.4172L23.5058 15.8633ZM25.2904 16.2087C24.8092 16.0498 24.3141 15.9439 23.8167 15.8887L23.9411 14.4449L23.9526 14.4472H23.9617L23.9825 14.4495L23.9939 14.4518H24.0032H24.0147L24.024 14.4541H24.0262H24.0355L24.0446 14.4564L24.0563 14.4587H24.0654L24.0745 14.461H24.093L24.0953 14.4633H24.1067L24.1161 14.4656H24.1275L24.1368 14.4679L24.1483 14.4702H24.1574H24.1598L24.1691 14.4725H24.1782L24.1897 14.4748L24.199 14.4771H24.2104L24.2197 14.4794H24.2242H24.2312L24.2403 14.4817L24.2496 14.484H24.2611L24.2704 14.4863L24.2819 14.4886L24.3026 14.4909H24.3118L24.3232 14.4932L24.3326 14.4955L24.344 14.4978H24.3531H24.3555L24.3648 14.5001L24.3739 14.5024H24.3832L24.3947 14.5047L24.4038 14.507L24.4155 14.5093L24.4361 14.5116H24.4454L24.4568 14.5139L24.4661 14.5162L24.4776 14.5185H24.4867L24.496 14.5208L24.5075 14.5231L24.5166 14.5254L24.5283 14.5278H24.5374L24.5489 14.5301H24.5512L24.5582 14.5324L24.5673 14.5347L24.5789 14.537H24.5881L24.5995 14.5393L25.2904 16.2087ZM48.1376 23.5061C48.1583 23.1929 48.1583 22.8775 48.1376 22.562L49.5814 22.4354L49.5837 22.4468V22.4537C49.5975 22.7024 49.6068 22.9603 49.5998 23.2114V23.2275V23.239V23.2435V23.2597V23.2758L49.5975 23.2943V23.3035V23.308V23.3265V23.3588V23.3703L49.5952 23.3748V23.3909V23.4071L49.593 23.4233V23.4371V23.4416V23.4578V23.4739L49.5907 23.4899V23.5016L49.586 23.5682L49.5814 23.6327L48.1376 23.5061ZM49.4618 24.5999L47.7923 25.2906C47.9488 24.8095 48.057 24.3167 48.11 23.8169L49.5561 23.9414L49.5538 23.9529V23.962L49.5515 23.9827L49.5492 23.9944V24.0035L49.5468 24.015V24.0242V24.0288L49.5447 24.0357V24.045L49.5423 24.0565L49.54 24.0657V24.0772L49.5377 24.0933V24.0957L49.5354 24.1072V24.1163L49.533 24.1278V24.137L49.5307 24.1486V24.1578V24.1601L49.5284 24.1693L49.5262 24.1784V24.1899L49.5239 24.1993V24.2108L49.5216 24.2199V24.2246L49.5192 24.2314V24.2406L49.5169 24.2523V24.2614L49.5101 24.3029L49.5078 24.3121V24.3236L49.5055 24.3327L49.5031 24.3442L49.5008 24.3535V24.3559V24.365L49.4985 24.3742L49.4962 24.3834V24.395L49.494 24.4042L49.4893 24.4363L49.487 24.4457L49.4847 24.4572V24.4663L49.4824 24.4778L49.48 24.487L49.4779 24.4987V24.5078L49.4756 24.517L49.4732 24.5285L49.4709 24.5378V24.5493L49.4686 24.5515V24.5585L49.4662 24.5676L49.4639 24.5791L49.4618 24.5884V24.5999ZM49.1785 26.396C48.787 26.0805 48.3634 25.8066 47.9096 25.5785L49.5791 24.8855L49.5884 24.8923L49.5952 24.897L49.6045 24.9038L49.6136 24.9085L49.6206 24.9131L49.6229 24.9153L49.6297 24.9223L49.639 24.9268L49.6482 24.9338L49.6552 24.9385L49.6643 24.9453L49.6736 24.9523L49.6804 24.9568L49.6897 24.9638L49.6989 24.9706L49.7082 24.9753L49.715 24.9821L49.7243 24.9868L49.7264 24.9914L49.7334 24.9936L49.7404 25.0006L49.7495 25.0051L49.7587 25.0121L49.7656 25.0189L49.775 25.0236L49.7818 25.0304L49.7909 25.0374L49.8002 25.0421L49.807 25.0489L49.8163 25.0559L49.8255 25.0604L49.8324 25.0674L49.8348 25.0696L49.8416 25.0742L49.8486 25.0812L49.8577 25.0857L49.867 25.0927L49.8738 25.0996L49.8831 25.1066L49.8878 25.1087L49.8922 25.1111L49.8992 25.1181L49.9084 25.1249L49.9153 25.1296L49.9245 25.1364L49.9315 25.1434L49.9406 25.1479V25.1502L49.9499 25.1572L49.9567 25.1617L49.966 25.1687L49.9728 25.1755L49.9821 25.1802L49.9889 25.187L49.9913 25.1894L49.9983 25.194L50.0074 25.2009L50.0144 25.2079L50.0212 25.2123L50.0305 25.2193L50.0443 25.2285L50.0466 25.2332L50.0557 25.2377L50.0627 25.2447L50.0718 25.2515L50.088 25.2653L50.0949 25.27V25.2723L50.1041 25.2768L50.1111 25.2838L49.1785 26.396ZM50.0858 27.2642C49.8785 27.0269 49.6528 26.8014 49.4156 26.5941L50.3482 25.4841L50.4472 25.5694L50.4588 25.5809L50.4703 25.59L50.4841 25.6015L50.4957 25.6132L50.5072 25.6247L50.5186 25.6362L50.5324 25.6477L50.544 25.6592L50.5555 25.6683L50.567 25.6798L50.5808 25.6913L50.5922 25.703L50.6039 25.7145L50.6153 25.726L50.6291 25.7375L50.6406 25.749L50.6522 25.7604L50.6637 25.7719L50.6751 25.7834L50.6868 25.7949H50.6891L50.7006 25.8066L50.712 25.8181L50.7237 25.8296L50.7351 25.8411L50.7466 25.8526L50.758 25.8641L50.7697 25.8756L50.7811 25.8871H50.7835L50.7926 25.8986L50.8042 25.9102L50.8157 25.9217L50.8295 25.9332L50.8388 25.9447L50.8526 25.9562L50.8617 25.9677L50.8732 25.9815H50.8755L50.8848 25.993L50.8986 26.0045L50.9077 26.016L50.9194 26.0275H50.9215L50.9308 26.0392L50.9423 26.053L50.9539 26.0645L50.9654 26.076H50.9677L50.9769 26.0875L50.9883 26.099L51 26.1128L51.0091 26.1243H51.0114L51.0205 26.1358L51.0322 26.1473L51.0436 26.1588L51.0551 26.1726L51.0667 26.1841L51.0759 26.1958L51.0873 26.2073L51.099 26.2211H51.1011L51.1196 26.2441L51.1312 26.2556L51.1427 26.2694L51.145 26.2717L51.1541 26.2809L51.1634 26.2947L51.1749 26.3062L51.1864 26.3177L51.1887 26.3201L51.1957 26.3315L50.0858 27.2642ZM47.9096 38.4231C48.3634 38.1952 48.7894 37.9212 49.1808 37.6058L50.1134 38.7157L50.1041 38.7225L50.0973 38.7295H50.0949L50.088 38.734L50.0788 38.741L50.0718 38.7478L50.065 38.7548L50.0557 38.7617L50.0489 38.7687L50.0443 38.771L50.0396 38.7731L50.0305 38.7802L50.0235 38.787L50.0144 38.794L50.0074 38.7985L49.9983 38.8055L49.9913 38.8101V38.8123L49.9821 38.8193L49.9728 38.8261L49.966 38.8308L49.9567 38.8376L49.9499 38.8446L49.9406 38.8514L49.9338 38.8561L49.9245 38.8629L49.9153 38.8699L49.9084 38.8768L49.8992 38.8814L49.8922 38.8883L49.8878 38.8906L49.8831 38.8953L49.8738 38.8999L49.867 38.9068L49.8577 38.9138L49.8509 38.9206L49.8416 38.9253L49.8348 38.9321H49.8324L49.8255 38.9391L49.8163 38.9459L49.8093 38.9506L49.8002 38.9574L49.7909 38.9644L49.7841 38.9689L49.7818 38.9712L49.775 38.9759L49.7656 38.9827L49.7587 38.9874L49.7495 38.9942L49.7404 39.0012L49.7334 39.0057L49.7288 39.0104L49.7243 39.0127L49.715 39.0172L49.6827 39.0427L49.6736 39.0472V39.0495L49.6643 39.0542L49.6552 39.061L49.6482 39.068L49.639 39.0725L49.6321 39.0795L49.6229 39.084L49.6206 39.0864L49.6136 39.091L49.6045 39.0955L49.5975 39.1025L49.5884 39.1093L49.5791 39.114L47.9096 38.4231ZM48.1123 40.1847C48.057 39.6851 47.9512 39.19 47.7923 38.7087L49.4618 39.3996L49.4639 39.4087V39.4202L49.4662 39.4295L49.4686 39.441L49.4709 39.4479V39.4502V39.4617L49.4732 39.4709L49.4756 39.4825L49.4779 39.4917V39.5008L49.48 39.5123V39.5147L49.4824 39.5217L49.4847 39.5332L49.487 39.5423V39.5538L49.4893 39.563L49.4917 39.5745V39.5791V39.5838L49.494 39.5953L49.4962 39.6045L49.4985 39.6136V39.6253L49.5008 39.6345L49.5031 39.6436V39.646V39.6551L49.5055 39.6666L49.5078 39.6759V39.6874L49.5101 39.6966L49.5124 39.7081V39.7104V39.7172L49.5146 39.7289L49.5169 39.7381V39.7472L49.5192 39.7587L49.5216 39.7702V39.7749V39.7796L49.5239 39.7911L49.5262 39.8002V39.8094L49.5284 39.8209V39.8302L49.5307 39.8417L49.533 39.8509V39.8624L49.5354 39.8717V39.8832L49.5377 39.8923V39.9038V39.9062L49.54 39.913V39.9245L49.5423 39.9338V39.9453L49.5447 39.9545V39.966L49.5468 39.973V39.9753V39.9845L49.5492 39.996V40.0075L49.5515 40.0166V40.0281L49.5538 40.0375L49.5561 40.0466V40.0581L48.1123 40.1847ZM40.495 48.1384C40.8082 48.1592 41.1237 48.1592 41.4369 48.1384L41.5635 49.5823C41.3079 49.5983 41.0454 49.6053 40.7897 49.6029L40.7736 49.6006H40.7621H40.7575H40.7414H40.7229H40.7091H40.6954L40.6907 49.5983H40.6746H40.6424H40.6309L40.6262 49.5961H40.6101H40.594H40.5779L40.5641 49.5938H40.5594H40.5433H40.5272L40.5111 49.5914H40.4973L40.3684 49.5823L40.495 48.1384ZM38.7081 47.7907C39.1894 47.9496 39.6868 48.0577 40.1864 48.1107L40.0598 49.557L40.0484 49.5546L39.9977 49.55L39.9861 49.5476H39.9723L39.9655 49.5455H39.9562L39.9447 49.5431H39.9354L39.9239 49.5408L39.9055 49.5385H39.9033L39.894 49.5361H39.8826L39.8733 49.5338H39.8641L39.8527 49.5316H39.8434H39.841L39.8319 49.5293L39.8203 49.527H39.8111L39.802 49.5246H39.7903L39.7812 49.5223H39.7742L39.7698 49.5201H39.7604L39.749 49.5178H39.7397L39.7282 49.5155L39.7191 49.5131L39.6983 49.5108L39.6868 49.5085L39.6775 49.5063H39.6661L39.6569 49.504L39.6453 49.5016H39.6362L39.6269 49.4993L39.6154 49.497H39.6063L39.5946 49.4946L39.5855 49.4925L39.5647 49.4901L39.5533 49.4878L39.544 49.4855H39.5325L39.5234 49.4831L39.514 49.481L39.5026 49.4787H39.4935L39.4818 49.4763L39.4727 49.474L39.4612 49.4716H39.4519L39.4496 49.4693H39.4405L39.4311 49.4672L39.4197 49.4648L39.4105 49.4625H39.3989L38.7081 47.7907ZM37.6052 49.1816C37.9207 48.7878 38.1947 48.3641 38.4226 47.9105L39.1158 49.5799L39.1088 49.5891L39.1042 49.5961L39.0974 49.6053L39.0904 49.6144L39.0857 49.6214V49.6238L39.0789 49.6306L39.0743 49.6397L39.0675 49.6491L39.0605 49.6559L39.0558 49.6651L39.0189 49.7157L39.0121 49.7251L39.0098 49.7274L39.0075 49.7342L39.0007 49.741L38.9937 49.7504L38.989 49.7595L38.9822 49.7665L38.9752 49.7757L38.9706 49.7825L38.9638 49.7919L38.9568 49.801L38.9383 49.8263L38.9339 49.8332L38.9315 49.8355L38.9269 49.8425L38.9131 49.8585L38.9084 49.8678L38.9016 49.8747L38.8947 49.8838L38.8923 49.8885L38.89 49.8932L38.8832 49.9L38.8762 49.9091L38.8647 49.9253L38.8578 49.9323L38.851 49.9415L38.8463 49.9506L38.8393 49.9576L38.8325 49.9668L38.8255 49.9738L38.8187 49.9829L38.8141 49.9898L38.8117 49.9921L38.8073 49.9991L38.8003 50.0083L38.7933 50.0151L38.7888 50.0244L38.7818 50.0312L38.7749 50.0404L38.7704 50.0451L38.7681 50.0474L38.7611 50.0566L38.7543 50.0657L38.7496 50.0727L38.7426 50.0819L38.7358 50.0889L38.7288 50.0957V50.0981L38.722 50.1049L38.715 50.1142L37.6052 49.1816ZM36.7371 50.0866C36.9743 49.8793 37.1976 49.6559 37.4048 49.4187L38.517 50.3491L38.4733 50.3974L38.4296 50.4481L38.4203 50.4596L38.4088 50.4734L38.3974 50.4849L38.3857 50.4964L38.3743 50.5079L38.365 50.5217L38.3535 50.5332L38.3421 50.5447L38.3306 50.5564L38.319 50.5679L38.3075 50.5817L38.296 50.5932L38.2867 50.6047L38.2753 50.6162L38.2638 50.6277L38.2522 50.6415H38.25L38.2407 50.653L38.2292 50.6645L38.2176 50.676L38.2061 50.6875V50.6898L38.1947 50.699L38.1832 50.7106L38.1716 50.7221L38.1601 50.7336V50.736L38.1487 50.7475L38.137 50.7589L38.1256 50.7704L38.1141 50.7819L38.1025 50.7934L38.091 50.8049L38.0795 50.8164L38.0681 50.8281L38.0658 50.8302L38.0564 50.8396L38.045 50.8511L38.0335 50.8626L38.0197 50.8741V50.8764L38.0081 50.8856L37.9966 50.8971L37.9852 50.9085L37.9735 50.92L37.9714 50.9224L37.9621 50.9294L37.9506 50.9409L37.9392 50.9524L37.9252 50.9639L37.9229 50.9662L37.9137 50.9754L37.9023 50.9869L37.8906 50.9983L37.8792 51.0098L37.8745 51.0122L37.8654 51.0215L37.8539 51.0307L37.8423 51.0422L37.8308 51.0537L37.8262 51.056L37.817 51.0652L37.8056 51.0766L37.7939 51.086L37.7801 51.0975L37.7778 51.102L37.7687 51.109L37.7572 51.1205L37.7434 51.132L37.7318 51.1411L37.7295 51.1458L37.7203 51.1526L37.7065 51.1643L37.6949 51.1734L37.6834 51.1849L37.6788 51.1873L37.6697 51.1964L36.7371 50.0866ZM22.4858 14.1041L23.4161 11.2786L26.0709 12.6188L26.0595 12.6303L26.0527 12.6372L26.048 12.6395L26.0366 12.651L26.0249 12.6625L26.0135 12.6718L26.002 12.681L25.9997 12.6833L25.9882 12.6948L25.9766 12.704L25.9651 12.7155L25.9536 12.7247L25.942 12.7362L25.9305 12.7477L25.9191 12.757L25.9076 12.7685L25.9053 12.7708L25.896 12.78L25.8845 12.7915L25.8614 12.8122L25.8546 12.8168L25.85 12.8237L25.8385 12.8329L25.8269 12.8444L25.8154 12.856L25.8084 12.8629L25.8039 12.8675L25.7925 12.879L25.7808 12.8882L25.7694 12.8997L25.7601 12.9089L25.7579 12.9112L25.7463 12.9227L25.7348 12.9343L25.7234 12.9435L25.7117 12.955L25.7003 12.9665L25.6888 12.978L25.668 13.001L25.6634 13.0033L25.6566 13.0102L25.6451 13.0218L25.6335 13.0333L25.622 13.0448L25.6174 13.0494L25.6106 13.0563L25.5989 13.0678L25.5898 13.0793L25.5783 13.0908L25.5713 13.0978L25.5667 13.1024L25.5552 13.1139L25.5438 13.1254L25.5345 13.1369L25.5253 13.1461L25.523 13.1484L25.5115 13.1599L25.4999 13.1714L25.4908 13.183L25.4793 13.1945L25.4677 13.206L25.4562 13.2175L25.4471 13.229L25.4354 13.2405L25.4331 13.2428L25.4263 13.252L25.4148 13.2636L25.4032 13.2751L25.3917 13.2866L25.3871 13.2935L25.3826 13.2981L25.371 13.3096L25.3595 13.3234L25.3502 13.3349L25.3434 13.3418L25.3387 13.3465L25.3273 13.3603L25.3135 13.3741L25.3018 13.3879L25.2997 13.3925L25.2904 13.4017L25.2789 13.4132L25.2675 13.4271L25.2558 13.4409L25.2444 13.4547L25.2306 13.4685L25.2191 13.4823L25.2098 13.4915L25.2075 13.4961L25.196 13.51L25.1846 13.5215L25.1729 13.5353L25.1684 13.5422L25.1615 13.5491L25.15 13.5629L25.1384 13.5767L25.1269 13.5905L25.1246 13.5951L25.1154 13.6044L25.104 13.6182L25.0832 13.6458H25.0809L25.0601 13.6734L25.0486 13.6873L25.0395 13.6965L25.0372 13.7011L25.0255 13.7149L25.0141 13.7287L25.0026 13.7425L24.998 13.7494L24.9912 13.7586L24.9795 13.7725L24.9681 13.7863L24.9588 13.8001L24.9566 13.8024L24.9473 13.8139L24.9358 13.8277L24.9151 13.8554H24.9127L24.876 13.9083L24.8714 13.9129L24.8597 13.9267L24.8483 13.9406L24.8391 13.9567L24.8345 13.9613L24.8275 13.9705L24.816 13.9843L24.8069 13.9981L24.7953 14.0142L24.7861 14.028L24.7747 14.0419L24.763 14.0557L24.7562 14.0672L24.7539 14.0718L24.7424 14.0856L24.7331 14.0994L24.7217 14.1156L24.717 14.1225L24.7124 14.1294L24.7009 14.1432L24.6918 14.1593L24.6801 14.1731L24.678 14.1777L24.6687 14.1869L24.6595 14.2031L24.6502 14.2169L24.6388 14.233L24.6226 14.2284L24.6042 14.2261L24.5858 14.2215L24.5743 14.2192H24.5696L24.5512 14.2169L24.5329 14.2123L24.5166 14.21H24.5075L24.4984 14.2077L24.4799 14.2054L24.4638 14.2031L24.4454 14.1985H24.4407L24.4269 14.1962L24.4108 14.1938L24.3924 14.1915L24.3762 14.1892L24.3739 14.1869L24.3578 14.1847L24.3394 14.1823L24.3209 14.18L24.3095 14.1777H24.3048L24.2864 14.1754L24.2496 14.1708L24.2427 14.1685H24.2335L24.2151 14.1662L24.1805 14.1616H24.1782L24.1621 14.1593L24.1436 14.157L24.1252 14.1547L24.1114 14.1524H24.1091L24.0906 14.1501L24.0724 14.1478L24.0563 14.1455H24.0446L24.0378 14.1432H24.0194L24.0032 14.1409L23.9848 14.1386H23.9778L23.9664 14.1363L23.9318 14.1317H23.9134H23.911L23.8949 14.1294L23.8788 14.1271L23.8605 14.1248H23.8442H23.8421L23.8236 14.1225L23.8075 14.1202H23.7891L23.7798 14.1179H23.7706L23.7545 14.1156L23.7108 14.1133H23.6992L23.6279 14.1063H23.6118L23.5934 14.1041H23.5796H23.5749H23.5565L23.5404 14.1018H23.5219L23.5128 14.0994H23.5035H23.4874L23.4712 14.0971H23.4574H23.446H23.4413L23.3792 14.0948H23.3769H23.3608L23.3446 14.0925H23.3285H23.3124H23.2963L23.2802 14.0902H23.2664H23.2503H23.2456H23.2342H23.218H23.2019H23.1858H23.1788H23.1697L23.1536 14.0879H23.1375H23.1213H23.112H23.1052H23.0914H22.9784H22.9623H22.9462H22.9301H22.9163H22.9118H22.9002L22.8841 14.0902H22.868H22.8518H22.845H22.8357H22.8196H22.8035H22.7874L22.7782 14.0925H22.7713H22.7551H22.739L22.5825 14.0994H22.5779H22.5664L22.5503 14.1018H22.5342H22.5181L22.5111 14.1041H22.5019H22.4858ZM47.3248 26.0298C52.4851 28.321 52.4851 35.6783 47.3248 37.9695L46.885 38.1652L47.0576 38.6144C48.5014 42.3631 46.2425 46.5219 42.3188 47.3532C40.753 47.6824 39.6086 47.4407 38.1648 46.8834L37.9691 47.3256C36.341 50.9983 31.8047 52.341 28.4405 50.151C27.1004 49.2806 26.4626 48.2997 25.8339 46.8834L25.3848 47.0585C21.636 48.5022 17.4797 46.2434 16.6484 42.3195C16.3168 40.7513 16.5609 39.6115 17.1159 38.1652L16.6761 37.9695C13.001 36.3392 11.6608 31.8051 13.8484 28.4408C14.7234 27.0984 15.702 26.4628 17.1159 25.8341L16.9432 25.3851C15.4994 21.6385 17.7584 17.4798 21.6822 16.6486C23.2503 16.317 24.39 16.5611 25.8339 17.116L26.0296 16.6762C27.6621 13.001 32.1984 11.6608 35.5604 13.8484C36.9006 14.7212 37.5361 15.7021 38.1648 17.116L38.6137 16.9433C42.3625 15.4995 46.5211 17.7585 47.3524 21.6823C47.684 23.2458 47.4422 24.3904 46.885 25.8341L47.3248 26.0298ZM40.548 41.3316C37.8102 40.5509 34.9663 40.0051 32.0006 39.95C29.0323 40.0051 26.1886 40.5509 23.453 41.3316L22.2256 39.174C24.6434 39.2683 25.3389 38.4624 26.009 36.7145C28.8826 38.9067 30.8099 37.4307 31.9544 35.6553L32.0006 35.5885L32.0443 35.6553C33.191 37.4307 35.116 38.9067 37.9898 36.7145C38.6622 38.4624 39.3552 39.2683 41.7753 39.174L40.548 41.3316ZM32.2147 28.8208H32.0006H31.7864C31.8941 27.905 30.942 27.9521 30.2663 27.9856C30.1623 27.9907 30.0648 27.9956 29.9787 27.9965C30.011 26.7922 31.0057 26.2188 32.0006 26.2096C32.9953 26.2188 33.99 26.7922 34.0222 27.9965C33.9362 27.9956 33.8387 27.9907 33.7347 27.9856C33.0591 27.9521 32.1069 27.905 32.2147 28.8208ZM34.8581 29.2951C35.367 26.5779 33.6768 25.141 32.0006 25.1387C30.3218 25.141 28.6316 26.5779 29.1405 29.2951C29.7346 28.8968 30.4624 28.4293 31.4111 29.4102V33.7856C30.2919 36.2908 27.5355 36.8919 25.4632 33.7856C25.1409 37.836 22.6953 38.6833 19.1537 36.5304L22.8518 42.8329C26.5039 41.8727 29.258 41.3522 32.0006 41.3131C34.743 41.3522 37.497 41.8727 41.1468 42.8329L44.8449 36.5304C41.3033 38.6833 38.8603 37.836 38.5354 33.7856C36.4654 36.8919 33.709 36.2908 32.5901 33.7856V29.4102C33.5388 28.4293 34.2663 28.8968 34.8581 29.2951ZM31.7191 38.7979C31.2876 38.1883 31.7236 37.5471 32.0006 37.3109C32.2758 37.5476 32.7127 38.1909 32.2794 38.8016C32.6815 38.2542 33.0005 38.2182 33.7298 38.3771C33.472 39.2638 32.7328 39.6391 32.0006 39.6413C31.2682 39.6391 30.5268 39.2638 30.2711 38.3771C30.9966 38.2185 31.3182 38.254 31.7191 38.7979ZM31.4272 18.5L32.0006 16.7706L32.5739 18.5H34.5174L32.993 19.7204L33.5432 21.5949L32.0006 20.455L30.4554 21.5949L31.008 19.7204L29.4836 18.5H31.4272ZM26.5018 21.8251L27.0957 23.741L25.5645 22.5596L24.0194 23.6973L24.572 21.8251L23.0477 20.6046H24.9888L25.5645 18.8753L26.1241 20.6046H28.0238L26.5018 21.8251ZM21.6983 26.7345L22.2924 28.6504L20.7611 27.4691L19.2182 28.6068L19.7687 26.7345L18.2443 25.514H20.1877L20.7611 23.7848L21.323 25.514H23.2227L21.6983 26.7345ZM19.9345 33.7003L20.5284 35.6161L18.9972 34.435L17.4544 35.5725L18.0048 33.7003L16.4827 32.4798H18.4239L18.9972 30.7505L19.5592 32.4798H21.4589L19.9345 33.7003ZM26.3594 39.4068C25.7881 38.8753 26.1499 38.1068 26.3727 37.8499C26.6515 37.9903 27.2567 38.5319 27.0308 39.1548C27.0043 39.2028 26.9798 39.2544 26.9577 39.3097C26.9881 39.2577 27.0122 39.206 27.0308 39.1548C27.3329 38.6081 27.9007 38.5272 28.2563 38.6097C28.3737 40.0213 25.7717 41.0369 24.8576 39.2983C25.5382 38.9897 25.8589 38.9583 26.3594 39.4068ZM37.4994 21.8251L36.9052 23.741L38.4364 22.5596L39.9816 23.6973L39.429 21.8251L40.9534 20.6046H39.0098L38.4364 18.8753L37.8747 20.6046H35.975L37.4994 21.8251ZM42.3027 26.7345L41.7064 28.6504L43.2376 27.4691L44.7827 28.6068L44.2301 26.7345L45.7544 25.514H43.811L43.2376 23.7848L42.6757 25.514H40.7783L42.3027 26.7345ZM44.0643 33.7003L43.4702 35.6161L45.0014 34.435L46.5466 35.5725L45.994 33.7003L47.5184 32.4798H45.5748L45.0014 30.7505L44.442 32.4798H42.5423L44.0643 33.7003ZM37.6393 39.4069C38.2131 38.8755 37.8511 38.1068 37.6283 37.8499C37.3477 37.9901 36.7436 38.5304 36.9689 39.1523C36.6662 38.6078 36.0997 38.5273 35.7447 38.6097C35.6249 40.0213 38.2269 41.0369 39.1434 39.2983C38.4626 38.9896 38.142 38.9583 37.6393 39.4069ZM37.0435 39.3097C37.0124 39.2568 36.9877 39.2043 36.9689 39.1523C36.996 39.201 37.021 39.2534 37.0435 39.3097Z" fill="#BFBFBF"/>
</svg>
