<svg width="64" height="64" viewBox="0 0 64 64" fill="none" xmlns="http://www.w3.org/2000/svg">
<path fill-rule="evenodd" clip-rule="evenodd" d="M55.327 25.1467C54.5462 25.1467 53.685 25.5821 53.3414 26.3643L49.6915 34.731L48.3768 26.3643C48.2222 25.5821 47.6907 25.1467 46.8495 25.1467H42.2255L46.1805 39.0419C46.2533 39.3084 46.2671 39.6038 46.2138 39.9146C46.0068 41.0741 44.8991 42.0148 43.7391 42.0148H41.1497C40.4921 42.0148 40.0591 42.4221 39.8474 43.3442L39.2721 46.7877H43.8323C46.2114 46.7877 49.0054 45.5924 50.8691 42.2874L60 25.1467H55.327Z" fill="#BFBFBF"/>
<path fill-rule="evenodd" clip-rule="evenodd" d="M10.4392 21C11.8048 21 12.4647 21.5448 12.2244 22.9137L11.8309 25.1439H14.9685L14.2771 29.0617H11.1382L10.2831 33.9126C9.98763 35.6027 11.6606 35.8278 12.6203 35.8278C12.8116 35.8278 12.9705 35.8235 13.0842 35.8168L12.3167 40.1858C12.0798 40.211 11.8357 40.2438 11.319 40.2438C8.93703 40.2438 4.43109 39.6058 5.31705 34.5792L6.28724 29.0617H4L4.68848 25.1439H6.95336L7.68233 21H10.4392Z" fill="#BFBFBF"/>
<path fill-rule="evenodd" clip-rule="evenodd" d="M16.7848 25.1467H19.4807C20.8468 25.1467 21.5039 25.6925 21.2631 27.0619L20.9681 28.7187C21.9725 26.6798 24.1513 24.9978 26.3862 24.9978C26.6793 24.9978 26.9615 25.0558 26.9615 25.0558L26.0902 29.9957C26.0902 29.9957 25.6991 29.9049 25.0886 29.9049C23.8977 29.9049 21.8836 30.2827 20.7626 32.5204C20.4951 33.0719 20.2896 33.7428 20.1473 34.5512L19.1719 40.1011H14.1497L16.7848 25.1467Z" fill="#BFBFBF"/>
<path fill-rule="evenodd" clip-rule="evenodd" d="M36.8043 25.3235L35.9982 29.8913C36.9922 30.399 37.6731 31.4301 37.6731 32.6211C37.6731 34.1913 36.4959 35.4779 34.9805 35.663L34.1749 40.2298C34.3172 40.2389 34.4618 40.2436 34.606 40.2436C38.8184 40.2436 42.23 36.8297 42.23 32.6211C42.23 29.18 39.9451 26.2685 36.8043 25.3235Z" fill="#BFBFBF"/>
<path fill-rule="evenodd" clip-rule="evenodd" d="M33.2164 35.3516C32.2234 34.8468 31.541 33.8109 31.541 32.6214C31.541 31.0612 32.7206 29.7646 34.2356 29.5828L35.0402 25.0155C34.897 25.0065 34.7514 24.9998 34.6081 24.9998C30.3991 24.9998 26.9856 28.4161 26.9856 32.6214C26.9856 36.0639 29.2714 38.9773 32.4123 39.9222L33.2164 35.3516Z" fill="#BFBFBF"/>
</svg>
