<svg width="64" height="64" viewBox="0 0 64 64" fill="none" xmlns="http://www.w3.org/2000/svg">
<path fill-rule="evenodd" clip-rule="evenodd" d="M12.6103 29.0239H16.4419C16.451 28.9019 16.4584 28.8189 16.4642 28.7544C16.4741 28.643 16.4791 28.5873 16.4791 28.4817C16.4791 26.4498 15.6455 25.2133 13.978 24.7718C13.2949 24.5912 12.1487 24.5 10.5405 24.5C9.51896 24.5 8.59029 24.5366 7.75307 24.6088C6.74716 24.6885 5.9205 24.9552 5.27454 25.4101C4.83371 25.7063 4.51419 26.1392 4.316 26.7097C4.1178 27.2798 4.01871 28.038 4.01871 28.9833C4.01871 30.2251 4.20196 31.1531 4.56884 31.7663C4.986 32.4882 5.82213 32.9639 7.07651 33.1951C7.55269 33.2755 8.40339 33.3585 9.62826 33.4446C11.1533 33.5455 12.0791 33.6256 12.2631 33.6827C12.7542 33.8277 13.0001 34.3251 13.0001 34.9889C13.0001 35.2854 12.971 35.5274 12.9123 35.7148C12.8019 36.0189 12.5706 36.2386 12.2183 36.375C12.0204 36.4479 11.49 36.4842 10.7712 36.4842H9.5303C9.15541 36.4759 8.83662 36.4081 8.57248 36.2788C8.19103 36.0911 8.00013 35.5768 8.00013 34.922L8.00012 34.4735H4.00049C4.00049 35.7006 4.09121 36.712 4.27556 37.2383C4.606 38.1835 5.28948 38.8114 6.32563 39.1212C7.17014 39.3743 8.66534 39.5 10.8112 39.5C12.0969 39.5 13.0526 39.4422 13.6774 39.3262C15.1686 39.052 16.2208 38.3989 16.6475 37.365C16.8824 36.8017 17.0001 35.9128 17.0001 34.6987C17.0001 34.172 16.9746 33.6977 16.9229 33.2788C16.8347 32.5787 16.4645 32.0115 16.0011 31.5774C15.412 31.0213 14.4625 30.6781 13.1528 30.5482C12.7403 30.5047 11.706 30.4283 10.0498 30.3202L9.27705 30.2664C8.93822 30.2448 8.66607 30.1727 8.46023 30.0495C8.17277 29.8765 8.02923 29.5146 8.02923 28.9657C8.02923 28.3593 8.19135 27.9655 8.51488 27.7842C8.8384 27.6036 9.50148 27.5135 10.5019 27.5135C11.5319 27.5135 12.1611 27.6704 12.3891 27.9834C12.5363 28.1953 12.6103 28.4043 12.6103 29.0239ZM27.6069 26.6182C29.2256 26.6182 30.7419 27.3317 31.7672 28.5748L31.8335 28.6553L31.8783 28.5615L32.7658 26.6843L32.7855 26.6416L32.7516 26.6092C31.2921 25.2491 29.3713 24.5 27.3435 24.5C25.7597 24.5 24.2361 24.9563 22.9365 25.8196C21.68 26.6542 20.7132 27.8118 20.139 29.1686H18.4513H18.409L18.3915 29.206L17.3696 31.4077L17.3259 31.5H17.429H19.582C19.5692 31.6802 19.5629 31.8445 19.5629 32.0004C19.5629 32.2197 19.5733 32.445 19.5939 32.67H18.5471H18.5056L18.4881 32.7074L17.4654 34.8687L17.4221 35H17.5252H20.2101C21.4501 37.7366 24.2404 39.5 27.3435 39.5C28.9137 39.5 30.4268 39.0513 31.7205 38.2013L31.7493 38.1822V38.147V35.4978V35.3257L31.6345 35.4551C30.6141 36.6007 29.1462 37.2575 27.6069 37.2575C25.853 37.2575 24.2246 36.4165 23.2166 35H28.7414H28.7837L28.8012 34.963L29.8235 32.762L29.8672 32.67H29.7637H22.2881C22.2543 32.4263 22.237 32.1807 22.237 31.9379C22.237 31.7928 22.2431 31.6461 22.2552 31.5H30.3973H30.4395L30.457 31.4626L31.479 29.261L31.5231 29.1686H31.4192H23.0229C23.9952 27.5926 25.7414 26.6182 27.6069 26.6182ZM50.0013 37H55.5081L56.2939 39.5H60.4655L55.8112 24.5H49.5983L45.0001 39.5H49.2613L50.0013 37ZM52.7603 27.4833L54.6902 33.9855H50.8877L52.7603 27.4833ZM33.5001 24.5001V39.5H37.5001V35.5H40.0745L40.7579 35.4779C42.1092 35.4564 42.8747 35.4304 43.0547 35.4007C44.5845 35.2043 45.5973 34.4458 46.0895 33.1295C46.3355 32.4635 46.5001 31.4976 46.5001 29.976C46.5001 28.7104 46.3475 27.7626 46.1238 27.133C45.6899 25.9339 44.8432 25.14 43.5811 24.7526C43.0292 24.584 42.2262 24.5001 41.1736 24.5001H40.4453H39.5032H33.5001ZM40.1863 32H37.5001V28H40.2209C40.6424 28 41.1685 28.0079 41.28 28.0221C41.8418 28.1175 42.1966 28.3793 42.3446 28.8096C42.4484 29.1167 42.5001 29.3692 42.5001 30.0038C42.5001 30.5216 42.4743 30.9116 42.4222 31.1737C42.3409 31.5676 42.1773 31.8304 41.934 31.9615C41.8283 32.0184 41.5199 32.0114 41.1166 32.0021C40.8396 31.9958 40.5178 31.9884 40.1863 32Z" fill="#BFBFBF"/>
</svg>
