<svg width="64" height="64" viewBox="0 0 64 64" fill="none" xmlns="http://www.w3.org/2000/svg">
<path fill-rule="evenodd" clip-rule="evenodd" d="M45.4664 26.3829C45.4459 25.7977 44.9653 25.3343 44.3801 25.3343H43.1418C42.7309 25.3343 42.3548 25.5661 42.1705 25.9339L39.3717 31.6032L36.4915 25.9112C36.3024 25.5566 35.934 25.3343 35.5312 25.3343H34.2827C33.6945 25.3343 33.2133 25.8026 33.1965 26.3909L32.9058 36.6487C32.8885 37.2608 33.3797 37.7666 33.9927 37.7666H34.0308C34.6212 37.7666 35.1035 37.2952 35.1173 36.7046L35.2512 30.9872C35.2684 30.3703 35.2865 29.2613 35.2684 28.9445H35.304C35.5152 29.5076 35.9907 30.4235 36.2906 31.0221L38.0577 34.2497C38.4888 35.0371 39.6172 35.0444 40.0583 34.2627L41.89 30.7231C42.1892 30.1419 42.6643 29.1385 42.8755 28.645H42.9115C42.9115 29.2264 42.9463 30.2646 42.9638 31.0049L43.1268 36.7103C43.144 37.2987 43.6257 37.7666 44.2136 37.7666H44.7428C45.359 37.7666 45.8513 37.2559 45.8288 36.6411L45.4664 26.3829ZM14.2222 26.0982C14.8007 26.0761 14.7937 26.6233 14.6824 29.6992V30.1235C13.2123 30.1228 10.6798 30.1147 9.30517 30.1105V30.1076C9.30517 27.4965 9.74513 26.3278 9.95102 25.6079C9.27392 25.7096 8.25439 26.0233 7.69432 27.1982C6.99544 28.6634 6.84316 30.8756 7.11247 32.6461C7.36387 34.306 8.23374 37.278 10.2857 37.9601C10.4262 38.0068 10.5504 37.8584 10.4755 37.731C10.0967 37.0906 9.37874 35.4333 9.29068 32.0126C10.4545 32.0336 13.5879 32.0822 14.6824 32.0753V32.3649V36.7761C14.6824 37.2723 15.0856 37.6759 15.5818 37.6759H16.6261C17.1224 37.6759 17.5255 37.2723 17.5255 36.7761V27.7617C17.5951 26.1458 16.5687 25.3049 15.5967 25.3042C15.0546 25.3042 14.5309 25.5651 14.2222 26.0982ZM5.17984 30.1066C4.62399 32.6006 5.8274 36.8335 8.17637 38.2823C8.2196 38.3083 8.29728 38.3507 8.24093 38.4425C6.75168 38.1494 5.31912 36.1752 4.61943 33.4321C4.47548 33.4644 4.4197 33.5589 4.36381 33.6517C3.84469 34.4996 3.92431 35.3813 4.33096 36.2104C5.21235 38.0034 6.614 38.9449 8.42195 39.1422C8.90548 39.1958 9.39585 39.2023 9.8641 38.993C10.0058 38.9298 10.1828 38.8545 10.1981 38.6824C10.2207 38.4337 9.98079 38.4968 9.86079 38.4528C8.73142 38.0505 7.9147 37.239 7.34847 36.0956C6.63738 34.6628 6.10937 32.656 6.12203 31.039C6.13355 29.5129 6.228 28.6897 6.69248 27.9036C5.95789 28.4105 5.38299 29.1913 5.17984 30.1066ZM29.6033 25.3184H28.9303C28.3355 25.3184 27.8539 25.8009 27.8539 26.3957V32.8061C27.8539 34.6749 26.974 35.6951 25.2965 35.7819C23.6187 35.6951 22.7395 34.6749 22.7395 32.8061V26.3957C22.7395 25.8009 22.2567 25.3184 21.6619 25.3184H20.9897C20.3948 25.3184 19.9124 25.8009 19.9124 26.3957V32.8061C19.9124 33.4786 19.987 34.1566 20.1795 34.8027C20.3436 35.3551 20.596 35.8829 20.9497 36.3394C21.2812 36.7668 21.6963 37.1228 22.1673 37.3872C22.6649 37.6657 23.2108 37.8818 23.7739 37.9625C24.6025 38.0823 25.0456 38.0638 25.5214 38.0613C26.4361 38.0555 27.0528 37.9885 27.92 37.6515C27.972 37.6308 28.0234 37.6098 28.0747 37.5876C28.5739 37.3712 29.028 37.0582 29.4005 36.6615C29.7876 36.2487 30.0792 35.7556 30.2808 35.2277C30.5149 34.6133 30.6297 33.9588 30.6668 33.3042C30.6763 33.1385 30.6806 32.9722 30.6806 32.8061V26.3957C30.6806 25.8009 30.1982 25.3184 29.6033 25.3184ZM53.6427 26.7436C51.0544 26.7436 50.2094 29.1032 50.2094 31.2861C50.2094 33.4521 51.0017 36.3576 53.6783 36.3576C56.2664 36.3576 57.0769 33.3293 57.0769 31.2689C57.0769 29.1557 56.1612 26.7436 53.6427 26.7436ZM53.5024 38.1005C49.4698 38.1005 47.2864 35.0189 47.2864 31.1808C47.2864 27.4124 50.0159 25 53.6783 25C57.4114 25 60 27.1309 60 31.0046C60 34.931 57.5345 38.1005 53.5024 38.1005Z" fill="#BFBFBF"/>
</svg>
