<svg width="36" height="36" viewBox="0 0 36 36" fill="none" xmlns="http://www.w3.org/2000/svg">
<path d="M0.789673 34.9739L3.11521 26.1524C1.6805 23.5707 0.926018 20.6416 0.926923 17.6418C0.930685 8.25551 8.28384 0.619141 17.3186 0.619141C21.7036 0.621198 25.8191 2.39408 28.9135 5.61179C32.0085 8.82947 33.712 13.1065 33.7102 17.6551C33.7064 27.0416 26.3528 34.6786 17.3192 34.6786C17.3186 34.6786 17.3197 34.6786 17.3192 34.6786H17.3119C14.5687 34.6777 11.8732 33.9623 9.47921 32.6068L0.789673 34.9739Z" fill="#8BA529"/>
<path fill-rule="evenodd" clip-rule="evenodd" d="M13.0776 10.2651C12.7598 9.53105 12.4252 9.51636 12.1229 9.50352C11.8756 9.4925 11.5925 9.49317 11.3098 9.49317C11.027 9.49317 10.5673 9.60361 10.1786 10.0447C9.78962 10.4857 8.69348 11.5519 8.69348 13.7204C8.69348 15.8891 10.2139 17.9845 10.4259 18.2789C10.638 18.5727 13.3609 23.165 17.6732 24.9317C21.257 26.3999 21.9863 26.1078 22.7642 26.0344C23.5421 25.9609 25.2743 24.9684 25.6279 23.9391C25.9815 22.9101 25.9815 22.028 25.8754 21.8437C25.7693 21.66 25.4864 21.5498 25.0621 21.3294C24.6378 21.109 22.5521 20.0425 22.1631 19.8956C21.7742 19.7487 21.4913 19.6752 21.2084 20.1165C20.9256 20.5573 20.1129 21.5498 19.8654 21.8437C19.6179 22.1382 19.3704 22.1749 18.9461 21.9545C18.5218 21.7335 17.1554 21.2685 15.5344 19.767C14.2732 18.5988 13.4217 17.1561 13.1741 16.7149C12.9266 16.274 13.1476 16.0353 13.3604 15.8155C13.5509 15.6181 13.7848 15.301 13.9969 15.0437C14.2086 14.7863 14.2793 14.6026 14.4208 14.3087C14.5622 14.0144 14.4915 13.757 14.3854 13.5366C14.2793 13.3162 13.4548 11.1366 13.0776 10.2651Z" fill="white"/>
<path d="M29.3322 5.17443C26.1262 1.84149 21.8632 0.00501619 17.3214 0.00292969C7.962 0.00292969 0.345399 7.91319 0.341637 17.636C0.340533 20.744 1.1222 23.7778 2.60794 26.452L0.199097 35.5897L9.20022 33.1376C11.6802 34.5427 14.4725 35.2831 17.3141 35.2843H17.3213H17.3214C26.6792 35.2843 34.2969 27.3727 34.3008 17.6502C34.3024 12.9382 32.5377 8.50761 29.3322 5.17443ZM17.3214 32.3061H17.3158C14.783 32.3047 12.2992 31.5983 10.1328 30.2628L9.61723 29.9452L4.27579 31.4001L5.70187 25.9917L5.36595 25.4373C3.95314 23.1035 3.20729 20.4065 3.20839 17.6372C3.21147 9.55591 9.5421 2.9814 17.3267 2.9814C21.0964 2.98301 24.6394 4.50954 27.3042 7.27977C29.9687 10.05 31.435 13.7326 31.4339 17.6492C31.4306 25.7307 25.0997 32.3061 17.3214 32.3061Z" fill="#8BA529"/>
</svg>
