<svg width="376" height="1048" viewBox="0 0 376 1048" fill="none" xmlns="http://www.w3.org/2000/svg">
<circle cx="66.3156" cy="651.112" r="2.5" transform="rotate(-13.4177 66.3156 651.112)" fill="#D9D9D9"/>
<circle cx="51.7251" cy="654.593" r="2.5" transform="rotate(-13.4177 51.7251 654.593)" fill="#D9D9D9"/>
<circle cx="37.1345" cy="658.073" r="2.5" transform="rotate(-13.4177 37.1345 658.073)" fill="#D9D9D9"/>
<circle cx="22.5439" cy="661.555" r="2.5" transform="rotate(-13.4177 22.5439 661.555)" fill="#D9D9D9"/>
<circle cx="7.95335" cy="665.035" r="2.5" transform="rotate(-13.4177 7.95335 665.035)" fill="#D9D9D9"/>
<circle cx="80.2385" cy="709.475" r="2.5" transform="rotate(-13.4177 80.2385 709.475)" fill="#D9D9D9"/>
<circle cx="65.6479" cy="712.955" r="2.5" transform="rotate(-13.4177 65.6479 712.955)" fill="#D9D9D9"/>
<circle cx="51.0574" cy="716.436" r="2.5" transform="rotate(-13.4177 51.0574 716.436)" fill="#D9D9D9"/>
<circle cx="36.4668" cy="719.917" r="2.5" transform="rotate(-13.4177 36.4668 719.917)" fill="#D9D9D9"/>
<circle cx="21.8762" cy="723.398" r="2.5" transform="rotate(-13.4177 21.8762 723.398)" fill="#D9D9D9"/>
<circle cx="87.1999" cy="738.655" r="2.5" transform="rotate(-13.4177 87.1999 738.655)" fill="#D9D9D9"/>
<circle cx="72.6094" cy="742.137" r="2.5" transform="rotate(-13.4177 72.6094 742.137)" fill="#D9D9D9"/>
<circle cx="58.0188" cy="745.617" r="2.5" transform="rotate(-13.4177 58.0188 745.617)" fill="#D9D9D9"/>
<circle cx="43.4282" cy="749.098" r="2.5" transform="rotate(-13.4177 43.4282 749.098)" fill="#D9D9D9"/>
<circle cx="28.8376" cy="752.578" r="2.5" transform="rotate(-13.4177 28.8376 752.578)" fill="#D9D9D9"/>
<circle cx="76.7577" cy="694.884" r="2.5" transform="rotate(-13.4177 76.7577 694.884)" fill="#D9D9D9"/>
<circle cx="62.1672" cy="698.364" r="2.5" transform="rotate(-13.4177 62.1672 698.364)" fill="#D9D9D9"/>
<circle cx="47.5766" cy="701.846" r="2.5" transform="rotate(-13.4177 47.5766 701.846)" fill="#D9D9D9"/>
<circle cx="32.9861" cy="705.326" r="2.5" transform="rotate(-13.4177 32.9861 705.326)" fill="#D9D9D9"/>
<circle cx="18.3955" cy="708.807" r="2.5" transform="rotate(-13.4177 18.3955 708.807)" fill="#D9D9D9"/>
<circle cx="83.7192" cy="724.065" r="2.5" transform="rotate(-13.4177 83.7192 724.065)" fill="#D9D9D9"/>
<circle cx="69.1286" cy="727.546" r="2.5" transform="rotate(-13.4177 69.1286 727.546)" fill="#D9D9D9"/>
<circle cx="54.5381" cy="731.026" r="2.5" transform="rotate(-13.4177 54.5381 731.026)" fill="#D9D9D9"/>
<circle cx="39.9475" cy="734.507" r="2.5" transform="rotate(-13.4177 39.9475 734.507)" fill="#D9D9D9"/>
<circle cx="25.3569" cy="737.988" r="2.5" transform="rotate(-13.4177 25.3569 737.988)" fill="#D9D9D9"/>
<circle cx="73.277" cy="680.293" r="2.5" transform="rotate(-13.4177 73.277 680.293)" fill="#D9D9D9"/>
<circle cx="58.6865" cy="683.774" r="2.5" transform="rotate(-13.4177 58.6865 683.774)" fill="#D9D9D9"/>
<circle cx="44.0959" cy="687.255" r="2.5" transform="rotate(-13.4177 44.0959 687.255)" fill="#D9D9D9"/>
<circle cx="29.5054" cy="690.735" r="2.5" transform="rotate(-13.4177 29.5054 690.735)" fill="#D9D9D9"/>
<circle cx="14.9148" cy="694.216" r="2.5" transform="rotate(-13.4177 14.9148 694.216)" fill="#D9D9D9"/>
<circle cx="69.7963" cy="665.703" r="2.5" transform="rotate(-13.4177 69.7963 665.703)" fill="#D9D9D9"/>
<circle cx="55.2058" cy="669.184" r="2.5" transform="rotate(-13.4177 55.2058 669.184)" fill="#D9D9D9"/>
<circle cx="40.6152" cy="672.664" r="2.5" transform="rotate(-13.4177 40.6152 672.664)" fill="#D9D9D9"/>
<circle cx="26.0246" cy="676.145" r="2.5" transform="rotate(-13.4177 26.0246 676.145)" fill="#D9D9D9"/>
<circle cx="11.4341" cy="679.626" r="2.5" transform="rotate(-13.4177 11.4341 679.626)" fill="#D9D9D9"/>
<circle cx="90.6806" cy="753.246" r="2.5" transform="rotate(-13.4177 90.6806 753.246)" fill="#D9D9D9"/>
<circle cx="76.0901" cy="756.727" r="2.5" transform="rotate(-13.4177 76.0901 756.727)" fill="#D9D9D9"/>
<circle cx="61.4995" cy="760.207" r="2.5" transform="rotate(-13.4177 61.4995 760.207)" fill="#D9D9D9"/>
<circle cx="46.9089" cy="763.689" r="2.5" transform="rotate(-13.4177 46.9089 763.689)" fill="#D9D9D9"/>
<circle cx="32.3183" cy="767.169" r="2.5" transform="rotate(-13.4177 32.3183 767.169)" fill="#D9D9D9"/>
<circle cx="104.603" cy="811.608" r="2.5" transform="rotate(-13.4177 104.603 811.608)" fill="#D9D9D9"/>
<circle cx="90.0129" cy="815.089" r="2.5" transform="rotate(-13.4177 90.0129 815.089)" fill="#D9D9D9"/>
<circle cx="75.4223" cy="818.569" r="2.5" transform="rotate(-13.4177 75.4223 818.569)" fill="#D9D9D9"/>
<circle cx="60.8318" cy="822.051" r="2.5" transform="rotate(-13.4177 60.8318 822.051)" fill="#D9D9D9"/>
<circle cx="46.2412" cy="825.531" r="2.5" transform="rotate(-13.4177 46.2412 825.531)" fill="#D9D9D9"/>
<circle cx="111.565" cy="840.789" r="2.5" transform="rotate(-13.4177 111.565 840.789)" fill="#D9D9D9"/>
<circle cx="96.9743" cy="844.271" r="2.5" transform="rotate(-13.4177 96.9743 844.271)" fill="#D9D9D9"/>
<circle cx="82.3838" cy="847.751" r="2.5" transform="rotate(-13.4177 82.3838 847.751)" fill="#D9D9D9"/>
<circle cx="101.123" cy="797.018" r="2.5" transform="rotate(-13.4177 101.123 797.018)" fill="#D9D9D9"/>
<circle cx="86.5322" cy="800.498" r="2.5" transform="rotate(-13.4177 86.5322 800.498)" fill="#D9D9D9"/>
<circle cx="71.9416" cy="803.98" r="2.5" transform="rotate(-13.4177 71.9416 803.98)" fill="#D9D9D9"/>
<circle cx="57.3511" cy="807.46" r="2.5" transform="rotate(-13.4177 57.3511 807.46)" fill="#D9D9D9"/>
<circle cx="42.7605" cy="810.94" r="2.5" transform="rotate(-13.4177 42.7605 810.94)" fill="#D9D9D9"/>
<circle cx="108.084" cy="826.199" r="2.5" transform="rotate(-13.4177 108.084 826.199)" fill="#D9D9D9"/>
<circle cx="93.4936" cy="829.68" r="2.5" transform="rotate(-13.4177 93.4936 829.68)" fill="#D9D9D9"/>
<circle cx="78.9031" cy="833.16" r="2.5" transform="rotate(-13.4177 78.9031 833.16)" fill="#D9D9D9"/>
<circle cx="64.3125" cy="836.641" r="2.5" transform="rotate(-13.4177 64.3125 836.641)" fill="#D9D9D9"/>
<circle cx="97.642" cy="782.427" r="2.5" transform="rotate(-13.4177 97.642 782.427)" fill="#D9D9D9"/>
<circle cx="83.0515" cy="785.908" r="2.5" transform="rotate(-13.4177 83.0515 785.908)" fill="#D9D9D9"/>
<circle cx="68.4609" cy="789.389" r="2.5" transform="rotate(-13.4177 68.4609 789.389)" fill="#D9D9D9"/>
<circle cx="53.8703" cy="792.869" r="2.5" transform="rotate(-13.4177 53.8703 792.869)" fill="#D9D9D9"/>
<circle cx="39.2798" cy="796.35" r="2.5" transform="rotate(-13.4177 39.2798 796.35)" fill="#D9D9D9"/>
<circle cx="94.1613" cy="767.837" r="2.5" transform="rotate(-13.4177 94.1613 767.837)" fill="#D9D9D9"/>
<circle cx="79.5708" cy="771.317" r="2.5" transform="rotate(-13.4177 79.5708 771.317)" fill="#D9D9D9"/>
<circle cx="64.9802" cy="774.798" r="2.5" transform="rotate(-13.4177 64.9802 774.798)" fill="#D9D9D9"/>
<circle cx="50.3896" cy="778.278" r="2.5" transform="rotate(-13.4177 50.3896 778.278)" fill="#D9D9D9"/>
<circle cx="35.799" cy="781.76" r="2.5" transform="rotate(-13.4177 35.799 781.76)" fill="#D9D9D9"/>
<circle cx="212.221" cy="616.305" r="2.5" transform="rotate(-13.4177 212.221 616.305)" fill="#D9D9D9"/>
<circle cx="197.631" cy="619.785" r="2.5" transform="rotate(-13.4177 197.631 619.785)" fill="#D9D9D9"/>
<circle cx="183.04" cy="623.266" r="2.5" transform="rotate(-13.4177 183.04 623.266)" fill="#D9D9D9"/>
<circle cx="168.45" cy="626.747" r="2.5" transform="rotate(-13.4177 168.45 626.747)" fill="#D9D9D9"/>
<circle cx="153.859" cy="630.228" r="2.5" transform="rotate(-13.4177 153.859 630.228)" fill="#D9D9D9"/>
<circle cx="226.144" cy="674.667" r="2.5" transform="rotate(-13.4177 226.144 674.667)" fill="#D9D9D9"/>
<circle cx="211.554" cy="678.148" r="2.5" transform="rotate(-13.4177 211.554 678.148)" fill="#D9D9D9"/>
<circle cx="196.963" cy="681.628" r="2.5" transform="rotate(-13.4177 196.963 681.628)" fill="#D9D9D9"/>
<circle cx="182.372" cy="685.109" r="2.5" transform="rotate(-13.4177 182.372 685.109)" fill="#D9D9D9"/>
<circle cx="167.782" cy="688.59" r="2.5" transform="rotate(-13.4177 167.782 688.59)" fill="#D9D9D9"/>
<circle cx="233.106" cy="703.848" r="2.5" transform="rotate(-13.4177 233.106 703.848)" fill="#D9D9D9"/>
<circle cx="218.515" cy="707.329" r="2.5" transform="rotate(-13.4177 218.515 707.329)" fill="#D9D9D9"/>
<circle cx="203.924" cy="710.81" r="2.5" transform="rotate(-13.4177 203.924 710.81)" fill="#D9D9D9"/>
<circle cx="189.334" cy="714.29" r="2.5" transform="rotate(-13.4177 189.334 714.29)" fill="#D9D9D9"/>
<circle cx="174.743" cy="717.771" r="2.5" transform="rotate(-13.4177 174.743 717.771)" fill="#D9D9D9"/>
<circle cx="222.663" cy="660.076" r="2.5" transform="rotate(-13.4177 222.663 660.076)" fill="#D9D9D9"/>
<circle cx="208.073" cy="663.557" r="2.5" transform="rotate(-13.4177 208.073 663.557)" fill="#D9D9D9"/>
<circle cx="193.482" cy="667.038" r="2.5" transform="rotate(-13.4177 193.482 667.038)" fill="#D9D9D9"/>
<circle cx="178.892" cy="670.519" r="2.5" transform="rotate(-13.4177 178.892 670.519)" fill="#D9D9D9"/>
<circle cx="164.301" cy="673.999" r="2.5" transform="rotate(-13.4177 164.301 673.999)" fill="#D9D9D9"/>
<circle cx="229.625" cy="689.258" r="2.5" transform="rotate(-13.4177 229.625 689.258)" fill="#D9D9D9"/>
<circle cx="215.034" cy="692.738" r="2.5" transform="rotate(-13.4177 215.034 692.738)" fill="#D9D9D9"/>
<circle cx="200.444" cy="696.219" r="2.5" transform="rotate(-13.4177 200.444 696.219)" fill="#D9D9D9"/>
<circle cx="185.853" cy="699.699" r="2.5" transform="rotate(-13.4177 185.853 699.699)" fill="#D9D9D9"/>
<circle cx="171.263" cy="703.181" r="2.5" transform="rotate(-13.4177 171.263 703.181)" fill="#D9D9D9"/>
<circle cx="219.183" cy="645.485" r="2.5" transform="rotate(-13.4177 219.183 645.485)" fill="#D9D9D9"/>
<circle cx="204.592" cy="648.967" r="2.5" transform="rotate(-13.4177 204.592 648.967)" fill="#D9D9D9"/>
<circle cx="190.002" cy="652.447" r="2.5" transform="rotate(-13.4177 190.002 652.447)" fill="#D9D9D9"/>
<circle cx="175.411" cy="655.928" r="2.5" transform="rotate(-13.4177 175.411 655.928)" fill="#D9D9D9"/>
<circle cx="160.82" cy="659.408" r="2.5" transform="rotate(-13.4177 160.82 659.408)" fill="#D9D9D9"/>
<circle cx="215.702" cy="630.896" r="2.5" transform="rotate(-13.4177 215.702 630.896)" fill="#D9D9D9"/>
<circle cx="201.111" cy="634.376" r="2.5" transform="rotate(-13.4177 201.111 634.376)" fill="#D9D9D9"/>
<circle cx="186.521" cy="637.857" r="2.5" transform="rotate(-13.4177 186.521 637.857)" fill="#D9D9D9"/>
<circle cx="171.93" cy="641.337" r="2.5" transform="rotate(-13.4177 171.93 641.337)" fill="#D9D9D9"/>
<circle cx="157.34" cy="644.818" r="2.5" transform="rotate(-13.4177 157.34 644.818)" fill="#D9D9D9"/>
<circle cx="236.586" cy="718.44" r="2.5" transform="rotate(-13.4177 236.586 718.44)" fill="#D9D9D9"/>
<circle cx="221.996" cy="721.92" r="2.5" transform="rotate(-13.4177 221.996 721.92)" fill="#D9D9D9"/>
<circle cx="207.405" cy="725.4" r="2.5" transform="rotate(-13.4177 207.405 725.4)" fill="#D9D9D9"/>
<circle cx="192.815" cy="728.882" r="2.5" transform="rotate(-13.4177 192.815 728.882)" fill="#D9D9D9"/>
<circle cx="178.224" cy="732.362" r="2.5" transform="rotate(-13.4177 178.224 732.362)" fill="#D9D9D9"/>
<circle cx="250.509" cy="776.802" r="2.5" transform="rotate(-13.4177 250.509 776.802)" fill="#D9D9D9"/>
<circle cx="235.919" cy="780.282" r="2.5" transform="rotate(-13.4177 235.919 780.282)" fill="#D9D9D9"/>
<circle cx="221.328" cy="783.763" r="2.5" transform="rotate(-13.4177 221.328 783.763)" fill="#D9D9D9"/>
<circle cx="206.737" cy="787.244" r="2.5" transform="rotate(-13.4177 206.737 787.244)" fill="#D9D9D9"/>
<circle cx="192.147" cy="790.725" r="2.5" transform="rotate(-13.4177 192.147 790.725)" fill="#D9D9D9"/>
<circle cx="257.471" cy="805.982" r="2.5" transform="rotate(-13.4177 257.471 805.982)" fill="#D9D9D9"/>
<circle cx="242.88" cy="809.464" r="2.5" transform="rotate(-13.4177 242.88 809.464)" fill="#D9D9D9"/>
<circle cx="228.289" cy="812.944" r="2.5" transform="rotate(-13.4177 228.289 812.944)" fill="#D9D9D9"/>
<circle cx="213.699" cy="816.425" r="2.5" transform="rotate(-13.4177 213.699 816.425)" fill="#D9D9D9"/>
<circle cx="199.108" cy="819.905" r="2.5" transform="rotate(-13.4177 199.108 819.905)" fill="#D9D9D9"/>
<circle cx="247.028" cy="762.211" r="2.5" transform="rotate(-13.4177 247.028 762.211)" fill="#D9D9D9"/>
<circle cx="232.438" cy="765.691" r="2.5" transform="rotate(-13.4177 232.438 765.691)" fill="#D9D9D9"/>
<circle cx="217.847" cy="769.173" r="2.5" transform="rotate(-13.4177 217.847 769.173)" fill="#D9D9D9"/>
<circle cx="203.257" cy="772.653" r="2.5" transform="rotate(-13.4177 203.257 772.653)" fill="#D9D9D9"/>
<circle cx="188.666" cy="776.134" r="2.5" transform="rotate(-13.4177 188.666 776.134)" fill="#D9D9D9"/>
<circle cx="253.99" cy="791.393" r="2.5" transform="rotate(-13.4177 253.99 791.393)" fill="#D9D9D9"/>
<circle cx="239.399" cy="794.873" r="2.5" transform="rotate(-13.4177 239.399 794.873)" fill="#D9D9D9"/>
<circle cx="224.809" cy="798.354" r="2.5" transform="rotate(-13.4177 224.809 798.354)" fill="#D9D9D9"/>
<circle cx="210.218" cy="801.834" r="2.5" transform="rotate(-13.4177 210.218 801.834)" fill="#D9D9D9"/>
<circle cx="195.628" cy="805.315" r="2.5" transform="rotate(-13.4177 195.628 805.315)" fill="#D9D9D9"/>
<circle cx="243.548" cy="747.62" r="2.5" transform="rotate(-13.4177 243.548 747.62)" fill="#D9D9D9"/>
<circle cx="228.957" cy="751.102" r="2.5" transform="rotate(-13.4177 228.957 751.102)" fill="#D9D9D9"/>
<circle cx="214.367" cy="754.582" r="2.5" transform="rotate(-13.4177 214.367 754.582)" fill="#D9D9D9"/>
<circle cx="199.776" cy="758.063" r="2.5" transform="rotate(-13.4177 199.776 758.063)" fill="#D9D9D9"/>
<circle cx="185.185" cy="761.543" r="2.5" transform="rotate(-13.4177 185.185 761.543)" fill="#D9D9D9"/>
<circle cx="240.067" cy="733.03" r="2.5" transform="rotate(-13.4177 240.067 733.03)" fill="#D9D9D9"/>
<circle cx="225.476" cy="736.511" r="2.5" transform="rotate(-13.4177 225.476 736.511)" fill="#D9D9D9"/>
<circle cx="210.886" cy="739.991" r="2.5" transform="rotate(-13.4177 210.886 739.991)" fill="#D9D9D9"/>
<circle cx="196.295" cy="743.472" r="2.5" transform="rotate(-13.4177 196.295 743.472)" fill="#D9D9D9"/>
<circle cx="181.705" cy="746.953" r="2.5" transform="rotate(-13.4177 181.705 746.953)" fill="#D9D9D9"/>
<circle cx="139.268" cy="633.709" r="2.5" transform="rotate(-13.4177 139.268 633.709)" fill="#D9D9D9"/>
<circle cx="124.678" cy="637.19" r="2.5" transform="rotate(-13.4177 124.678 637.19)" fill="#D9D9D9"/>
<circle cx="110.087" cy="640.67" r="2.5" transform="rotate(-13.4177 110.087 640.67)" fill="#D9D9D9"/>
<circle cx="95.4967" cy="644.151" r="2.5" transform="rotate(-13.4177 95.4967 644.151)" fill="#D9D9D9"/>
<circle cx="80.9062" cy="647.632" r="2.5" transform="rotate(-13.4177 80.9062 647.632)" fill="#D9D9D9"/>
<circle cx="153.191" cy="692.071" r="2.5" transform="rotate(-13.4177 153.191 692.071)" fill="#D9D9D9"/>
<circle cx="138.601" cy="695.552" r="2.5" transform="rotate(-13.4177 138.601 695.552)" fill="#D9D9D9"/>
<circle cx="124.01" cy="699.032" r="2.5" transform="rotate(-13.4177 124.01 699.032)" fill="#D9D9D9"/>
<circle cx="109.42" cy="702.514" r="2.5" transform="rotate(-13.4177 109.42 702.514)" fill="#D9D9D9"/>
<circle cx="94.829" cy="705.994" r="2.5" transform="rotate(-13.4177 94.829 705.994)" fill="#D9D9D9"/>
<circle cx="160.153" cy="721.252" r="2.5" transform="rotate(-13.4177 160.153 721.252)" fill="#D9D9D9"/>
<circle cx="145.562" cy="724.733" r="2.5" transform="rotate(-13.4177 145.562 724.733)" fill="#D9D9D9"/>
<circle cx="130.972" cy="728.214" r="2.5" transform="rotate(-13.4177 130.972 728.214)" fill="#D9D9D9"/>
<circle cx="116.381" cy="731.694" r="2.5" transform="rotate(-13.4177 116.381 731.694)" fill="#D9D9D9"/>
<circle cx="101.79" cy="735.175" r="2.5" transform="rotate(-13.4177 101.79 735.175)" fill="#D9D9D9"/>
<circle cx="149.711" cy="677.481" r="2.5" transform="rotate(-13.4177 149.711 677.481)" fill="#D9D9D9"/>
<circle cx="135.12" cy="680.961" r="2.5" transform="rotate(-13.4177 135.12 680.961)" fill="#D9D9D9"/>
<circle cx="120.529" cy="684.442" r="2.5" transform="rotate(-13.4177 120.529 684.442)" fill="#D9D9D9"/>
<circle cx="105.939" cy="687.923" r="2.5" transform="rotate(-13.4177 105.939 687.923)" fill="#D9D9D9"/>
<circle cx="91.3483" cy="691.403" r="2.5" transform="rotate(-13.4177 91.3483 691.403)" fill="#D9D9D9"/>
<circle cx="156.672" cy="706.662" r="2.5" transform="rotate(-13.4177 156.672 706.662)" fill="#D9D9D9"/>
<circle cx="142.081" cy="710.143" r="2.5" transform="rotate(-13.4177 142.081 710.143)" fill="#D9D9D9"/>
<circle cx="127.491" cy="713.623" r="2.5" transform="rotate(-13.4177 127.491 713.623)" fill="#D9D9D9"/>
<circle cx="112.9" cy="717.104" r="2.5" transform="rotate(-13.4177 112.9 717.104)" fill="#D9D9D9"/>
<circle cx="98.3097" cy="720.585" r="2.5" transform="rotate(-13.4177 98.3097 720.585)" fill="#D9D9D9"/>
<circle cx="146.23" cy="662.89" r="2.5" transform="rotate(-13.4177 146.23 662.89)" fill="#D9D9D9"/>
<circle cx="131.639" cy="666.371" r="2.5" transform="rotate(-13.4177 131.639 666.371)" fill="#D9D9D9"/>
<circle cx="117.049" cy="669.852" r="2.5" transform="rotate(-13.4177 117.049 669.852)" fill="#D9D9D9"/>
<circle cx="102.458" cy="673.332" r="2.5" transform="rotate(-13.4177 102.458 673.332)" fill="#D9D9D9"/>
<circle cx="87.8676" cy="676.813" r="2.5" transform="rotate(-13.4177 87.8676 676.813)" fill="#D9D9D9"/>
<circle cx="142.749" cy="648.3" r="2.5" transform="rotate(-13.4177 142.749 648.3)" fill="#D9D9D9"/>
<circle cx="128.159" cy="651.78" r="2.5" transform="rotate(-13.4177 128.159 651.78)" fill="#D9D9D9"/>
<circle cx="113.568" cy="655.261" r="2.5" transform="rotate(-13.4177 113.568 655.261)" fill="#D9D9D9"/>
<circle cx="98.9775" cy="658.741" r="2.5" transform="rotate(-13.4177 98.9775 658.741)" fill="#D9D9D9"/>
<circle cx="84.3869" cy="662.223" r="2.5" transform="rotate(-13.4177 84.3869 662.223)" fill="#D9D9D9"/>
<circle cx="163.633" cy="735.843" r="2.5" transform="rotate(-13.4177 163.633 735.843)" fill="#D9D9D9"/>
<circle cx="149.043" cy="739.323" r="2.5" transform="rotate(-13.4177 149.043 739.323)" fill="#D9D9D9"/>
<circle cx="134.452" cy="742.804" r="2.5" transform="rotate(-13.4177 134.452 742.804)" fill="#D9D9D9"/>
<circle cx="119.862" cy="746.285" r="2.5" transform="rotate(-13.4177 119.862 746.285)" fill="#D9D9D9"/>
<circle cx="105.271" cy="749.766" r="2.5" transform="rotate(-13.4177 105.271 749.766)" fill="#D9D9D9"/>
<circle cx="177.556" cy="794.205" r="2.5" transform="rotate(-13.4177 177.556 794.205)" fill="#D9D9D9"/>
<circle cx="162.966" cy="797.686" r="2.5" transform="rotate(-13.4177 162.966 797.686)" fill="#D9D9D9"/>
<circle cx="148.375" cy="801.166" r="2.5" transform="rotate(-13.4177 148.375 801.166)" fill="#D9D9D9"/>
<circle cx="133.785" cy="804.648" r="2.5" transform="rotate(-13.4177 133.785 804.648)" fill="#D9D9D9"/>
<circle cx="119.194" cy="808.128" r="2.5" transform="rotate(-13.4177 119.194 808.128)" fill="#D9D9D9"/>
<circle cx="184.518" cy="823.386" r="2.5" transform="rotate(-13.4177 184.518 823.386)" fill="#D9D9D9"/>
<circle cx="169.927" cy="826.867" r="2.5" transform="rotate(-13.4177 169.927 826.867)" fill="#D9D9D9"/>
<circle cx="155.337" cy="830.348" r="2.5" transform="rotate(-13.4177 155.337 830.348)" fill="#D9D9D9"/>
<circle cx="140.746" cy="833.828" r="2.5" transform="rotate(-13.4177 140.746 833.828)" fill="#D9D9D9"/>
<circle cx="126.155" cy="837.309" r="2.5" transform="rotate(-13.4177 126.155 837.309)" fill="#D9D9D9"/>
<circle cx="174.076" cy="779.614" r="2.5" transform="rotate(-13.4177 174.076 779.614)" fill="#D9D9D9"/>
<circle cx="159.485" cy="783.095" r="2.5" transform="rotate(-13.4177 159.485 783.095)" fill="#D9D9D9"/>
<circle cx="144.895" cy="786.576" r="2.5" transform="rotate(-13.4177 144.895 786.576)" fill="#D9D9D9"/>
<circle cx="130.304" cy="790.057" r="2.5" transform="rotate(-13.4177 130.304 790.057)" fill="#D9D9D9"/>
<circle cx="115.713" cy="793.537" r="2.5" transform="rotate(-13.4177 115.713 793.537)" fill="#D9D9D9"/>
<circle cx="181.037" cy="808.796" r="2.5" transform="rotate(-13.4177 181.037 808.796)" fill="#D9D9D9"/>
<circle cx="166.447" cy="812.276" r="2.5" transform="rotate(-13.4177 166.447 812.276)" fill="#D9D9D9"/>
<circle cx="151.856" cy="815.757" r="2.5" transform="rotate(-13.4177 151.856 815.757)" fill="#D9D9D9"/>
<circle cx="137.265" cy="819.237" r="2.5" transform="rotate(-13.4177 137.265 819.237)" fill="#D9D9D9"/>
<circle cx="122.675" cy="822.719" r="2.5" transform="rotate(-13.4177 122.675 822.719)" fill="#D9D9D9"/>
<circle cx="170.595" cy="765.023" r="2.5" transform="rotate(-13.4177 170.595 765.023)" fill="#D9D9D9"/>
<circle cx="156.004" cy="768.505" r="2.5" transform="rotate(-13.4177 156.004 768.505)" fill="#D9D9D9"/>
<circle cx="141.414" cy="771.985" r="2.5" transform="rotate(-13.4177 141.414 771.985)" fill="#D9D9D9"/>
<circle cx="126.823" cy="775.466" r="2.5" transform="rotate(-13.4177 126.823 775.466)" fill="#D9D9D9"/>
<circle cx="112.233" cy="778.946" r="2.5" transform="rotate(-13.4177 112.233 778.946)" fill="#D9D9D9"/>
<circle cx="167.114" cy="750.434" r="2.5" transform="rotate(-13.4177 167.114 750.434)" fill="#D9D9D9"/>
<circle cx="152.524" cy="753.914" r="2.5" transform="rotate(-13.4177 152.524 753.914)" fill="#D9D9D9"/>
<circle cx="137.933" cy="757.395" r="2.5" transform="rotate(-13.4177 137.933 757.395)" fill="#D9D9D9"/>
<circle cx="123.343" cy="760.875" r="2.5" transform="rotate(-13.4177 123.343 760.875)" fill="#D9D9D9"/>
<circle cx="108.752" cy="764.357" r="2.5" transform="rotate(-13.4177 108.752 764.357)" fill="#D9D9D9"/>
<circle cx="285.174" cy="598.901" r="2.5" transform="rotate(-13.4177 285.174 598.901)" fill="#D9D9D9"/>
<circle cx="270.584" cy="602.382" r="2.5" transform="rotate(-13.4177 270.584 602.382)" fill="#D9D9D9"/>
<circle cx="255.993" cy="605.862" r="2.5" transform="rotate(-13.4177 255.993 605.862)" fill="#D9D9D9"/>
<circle cx="241.402" cy="609.344" r="2.5" transform="rotate(-13.4177 241.402 609.344)" fill="#D9D9D9"/>
<circle cx="226.812" cy="612.824" r="2.5" transform="rotate(-13.4177 226.812 612.824)" fill="#D9D9D9"/>
<circle cx="299.097" cy="657.264" r="2.5" transform="rotate(-13.4177 299.097 657.264)" fill="#D9D9D9"/>
<circle cx="284.506" cy="660.744" r="2.5" transform="rotate(-13.4177 284.506 660.744)" fill="#D9D9D9"/>
<circle cx="269.916" cy="664.225" r="2.5" transform="rotate(-13.4177 269.916 664.225)" fill="#D9D9D9"/>
<circle cx="255.325" cy="667.706" r="2.5" transform="rotate(-13.4177 255.325 667.706)" fill="#D9D9D9"/>
<circle cx="240.735" cy="671.187" r="2.5" transform="rotate(-13.4177 240.735 671.187)" fill="#D9D9D9"/>
<circle cx="306.058" cy="686.444" r="2.5" transform="rotate(-13.4177 306.058 686.444)" fill="#D9D9D9"/>
<circle cx="291.468" cy="689.926" r="2.5" transform="rotate(-13.4177 291.468 689.926)" fill="#D9D9D9"/>
<circle cx="276.877" cy="693.406" r="2.5" transform="rotate(-13.4177 276.877 693.406)" fill="#D9D9D9"/>
<circle cx="262.287" cy="696.887" r="2.5" transform="rotate(-13.4177 262.287 696.887)" fill="#D9D9D9"/>
<circle cx="247.696" cy="700.367" r="2.5" transform="rotate(-13.4177 247.696 700.367)" fill="#D9D9D9"/>
<circle cx="295.616" cy="642.673" r="2.5" transform="rotate(-13.4177 295.616 642.673)" fill="#D9D9D9"/>
<circle cx="281.026" cy="646.153" r="2.5" transform="rotate(-13.4177 281.026 646.153)" fill="#D9D9D9"/>
<circle cx="266.435" cy="649.635" r="2.5" transform="rotate(-13.4177 266.435 649.635)" fill="#D9D9D9"/>
<circle cx="251.845" cy="653.115" r="2.5" transform="rotate(-13.4177 251.845 653.115)" fill="#D9D9D9"/>
<circle cx="237.254" cy="656.596" r="2.5" transform="rotate(-13.4177 237.254 656.596)" fill="#D9D9D9"/>
<circle cx="302.578" cy="671.855" r="2.5" transform="rotate(-13.4177 302.578 671.855)" fill="#D9D9D9"/>
<circle cx="287.987" cy="675.335" r="2.5" transform="rotate(-13.4177 287.987 675.335)" fill="#D9D9D9"/>
<circle cx="273.397" cy="678.815" r="2.5" transform="rotate(-13.4177 273.397 678.815)" fill="#D9D9D9"/>
<circle cx="258.806" cy="682.296" r="2.5" transform="rotate(-13.4177 258.806 682.296)" fill="#D9D9D9"/>
<circle cx="244.215" cy="685.777" r="2.5" transform="rotate(-13.4177 244.215 685.777)" fill="#D9D9D9"/>
<circle cx="292.136" cy="628.082" r="2.5" transform="rotate(-13.4177 292.136 628.082)" fill="#D9D9D9"/>
<circle cx="277.545" cy="631.564" r="2.5" transform="rotate(-13.4177 277.545 631.564)" fill="#D9D9D9"/>
<circle cx="262.954" cy="635.044" r="2.5" transform="rotate(-13.4177 262.954 635.044)" fill="#D9D9D9"/>
<circle cx="248.364" cy="638.524" r="2.5" transform="rotate(-13.4177 248.364 638.524)" fill="#D9D9D9"/>
<circle cx="233.773" cy="642.005" r="2.5" transform="rotate(-13.4177 233.773 642.005)" fill="#D9D9D9"/>
<circle cx="288.655" cy="613.492" r="2.5" transform="rotate(-13.4177 288.655 613.492)" fill="#D9D9D9"/>
<circle cx="274.064" cy="616.973" r="2.5" transform="rotate(-13.4177 274.064 616.973)" fill="#D9D9D9"/>
<circle cx="259.474" cy="620.453" r="2.5" transform="rotate(-13.4177 259.474 620.453)" fill="#D9D9D9"/>
<circle cx="244.883" cy="623.934" r="2.5" transform="rotate(-13.4177 244.883 623.934)" fill="#D9D9D9"/>
<circle cx="230.293" cy="627.415" r="2.5" transform="rotate(-13.4177 230.293 627.415)" fill="#D9D9D9"/>
<circle cx="309.539" cy="701.035" r="2.5" transform="rotate(-13.4177 309.539 701.035)" fill="#D9D9D9"/>
<circle cx="294.949" cy="704.516" r="2.5" transform="rotate(-13.4177 294.949 704.516)" fill="#D9D9D9"/>
<circle cx="280.358" cy="707.996" r="2.5" transform="rotate(-13.4177 280.358 707.996)" fill="#D9D9D9"/>
<circle cx="265.767" cy="711.478" r="2.5" transform="rotate(-13.4177 265.767 711.478)" fill="#D9D9D9"/>
<circle cx="251.177" cy="714.958" r="2.5" transform="rotate(-13.4177 251.177 714.958)" fill="#D9D9D9"/>
<circle cx="323.462" cy="759.398" r="2.5" transform="rotate(-13.4177 323.462 759.398)" fill="#D9D9D9"/>
<circle cx="308.871" cy="762.878" r="2.5" transform="rotate(-13.4177 308.871 762.878)" fill="#D9D9D9"/>
<circle cx="294.281" cy="766.358" r="2.5" transform="rotate(-13.4177 294.281 766.358)" fill="#D9D9D9"/>
<circle cx="279.69" cy="769.84" r="2.5" transform="rotate(-13.4177 279.69 769.84)" fill="#D9D9D9"/>
<circle cx="265.1" cy="773.32" r="2.5" transform="rotate(-13.4177 265.1 773.32)" fill="#D9D9D9"/>
<circle cx="330.423" cy="788.578" r="2.5" transform="rotate(-13.4177 330.423 788.578)" fill="#D9D9D9"/>
<circle cx="315.833" cy="792.06" r="2.5" transform="rotate(-13.4177 315.833 792.06)" fill="#D9D9D9"/>
<circle cx="301.242" cy="795.54" r="2.5" transform="rotate(-13.4177 301.242 795.54)" fill="#D9D9D9"/>
<circle cx="286.652" cy="799.021" r="2.5" transform="rotate(-13.4177 286.652 799.021)" fill="#D9D9D9"/>
<circle cx="272.061" cy="802.501" r="2.5" transform="rotate(-13.4177 272.061 802.501)" fill="#D9D9D9"/>
<circle cx="319.981" cy="744.807" r="2.5" transform="rotate(-13.4177 319.981 744.807)" fill="#D9D9D9"/>
<circle cx="305.391" cy="748.287" r="2.5" transform="rotate(-13.4177 305.391 748.287)" fill="#D9D9D9"/>
<circle cx="290.8" cy="751.769" r="2.5" transform="rotate(-13.4177 290.8 751.769)" fill="#D9D9D9"/>
<circle cx="276.21" cy="755.249" r="2.5" transform="rotate(-13.4177 276.21 755.249)" fill="#D9D9D9"/>
<circle cx="261.619" cy="758.73" r="2.5" transform="rotate(-13.4177 261.619 758.73)" fill="#D9D9D9"/>
<circle cx="326.943" cy="773.988" r="2.5" transform="rotate(-13.4177 326.943 773.988)" fill="#D9D9D9"/>
<circle cx="312.352" cy="777.469" r="2.5" transform="rotate(-13.4177 312.352 777.469)" fill="#D9D9D9"/>
<circle cx="297.762" cy="780.949" r="2.5" transform="rotate(-13.4177 297.762 780.949)" fill="#D9D9D9"/>
<circle cx="283.171" cy="784.43" r="2.5" transform="rotate(-13.4177 283.171 784.43)" fill="#D9D9D9"/>
<circle cx="268.58" cy="787.911" r="2.5" transform="rotate(-13.4177 268.58 787.911)" fill="#D9D9D9"/>
<circle cx="316.501" cy="730.216" r="2.5" transform="rotate(-13.4177 316.501 730.216)" fill="#D9D9D9"/>
<circle cx="301.91" cy="733.697" r="2.5" transform="rotate(-13.4177 301.91 733.697)" fill="#D9D9D9"/>
<circle cx="287.319" cy="737.178" r="2.5" transform="rotate(-13.4177 287.319 737.178)" fill="#D9D9D9"/>
<circle cx="272.729" cy="740.658" r="2.5" transform="rotate(-13.4177 272.729 740.658)" fill="#D9D9D9"/>
<circle cx="258.138" cy="744.139" r="2.5" transform="rotate(-13.4177 258.138 744.139)" fill="#D9D9D9"/>
<circle cx="313.02" cy="715.626" r="2.5" transform="rotate(-13.4177 313.02 715.626)" fill="#D9D9D9"/>
<circle cx="298.429" cy="719.107" r="2.5" transform="rotate(-13.4177 298.429 719.107)" fill="#D9D9D9"/>
<circle cx="283.839" cy="722.587" r="2.5" transform="rotate(-13.4177 283.839 722.587)" fill="#D9D9D9"/>
<circle cx="269.248" cy="726.067" r="2.5" transform="rotate(-13.4177 269.248 726.067)" fill="#D9D9D9"/>
<circle cx="254.658" cy="729.549" r="2.5" transform="rotate(-13.4177 254.658 729.549)" fill="#D9D9D9"/>
<path d="M1.32919 489.173C-2.2686 458.677 17.7393 430.387 47.6913 423.619L1055 196V554.664L103.07 780.454C68.1622 788.734 33.8387 764.732 29.6354 729.104L1.32919 489.173Z" fill="#69A8FB"/>
<path d="M1039.79 997.004C1032.64 1043.41 977.358 1063.99 941.6 1033.56L354.272 533.718C341.454 522.81 336.836 505.045 342.719 489.276L510.321 39.9944C523.187 5.50322 563.794 -9.37435 595.898 8.64027L1108.37 296.204C1130.19 308.447 1142.12 332.942 1138.31 357.668L1039.79 997.004Z" fill="#EAE3F5" fill-opacity="0.1"/>
</svg>
