<svg width="738" height="1052" viewBox="0 0 738 1052" fill="none" xmlns="http://www.w3.org/2000/svg">
<circle cx="62.3155" cy="845.114" r="2.5" transform="rotate(-13.4177 62.3155 845.114)" fill="#D9D9D9"/>
<circle cx="47.725" cy="848.595" r="2.5" transform="rotate(-13.4177 47.725 848.595)" fill="#D9D9D9"/>
<circle cx="33.1344" cy="852.075" r="2.5" transform="rotate(-13.4177 33.1344 852.075)" fill="#D9D9D9"/>
<circle cx="18.5438" cy="855.556" r="2.5" transform="rotate(-13.4177 18.5438 855.556)" fill="#D9D9D9"/>
<circle cx="3.95329" cy="859.037" r="2.5" transform="rotate(-13.4177 3.95329 859.037)" fill="#D9D9D9"/>
<circle cx="76.2384" cy="903.476" r="2.5" transform="rotate(-13.4177 76.2384 903.476)" fill="#D9D9D9"/>
<circle cx="61.6479" cy="906.957" r="2.5" transform="rotate(-13.4177 61.6479 906.957)" fill="#D9D9D9"/>
<circle cx="47.0573" cy="910.438" r="2.5" transform="rotate(-13.4177 47.0573 910.438)" fill="#D9D9D9"/>
<circle cx="32.4667" cy="913.918" r="2.5" transform="rotate(-13.4177 32.4667 913.918)" fill="#D9D9D9"/>
<circle cx="17.8762" cy="917.399" r="2.5" transform="rotate(-13.4177 17.8762 917.399)" fill="#D9D9D9"/>
<circle cx="83.1998" cy="932.657" r="2.5" transform="rotate(-13.4177 83.1998 932.657)" fill="#D9D9D9"/>
<circle cx="68.6093" cy="936.138" r="2.5" transform="rotate(-13.4177 68.6093 936.138)" fill="#D9D9D9"/>
<circle cx="54.0187" cy="939.619" r="2.5" transform="rotate(-13.4177 54.0187 939.619)" fill="#D9D9D9"/>
<circle cx="39.4281" cy="943.099" r="2.5" transform="rotate(-13.4177 39.4281 943.099)" fill="#D9D9D9"/>
<circle cx="24.8376" cy="946.58" r="2.5" transform="rotate(-13.4177 24.8376 946.58)" fill="#D9D9D9"/>
<circle cx="72.7577" cy="888.886" r="2.5" transform="rotate(-13.4177 72.7577 888.886)" fill="#D9D9D9"/>
<circle cx="58.1671" cy="892.366" r="2.5" transform="rotate(-13.4177 58.1671 892.366)" fill="#D9D9D9"/>
<circle cx="43.5766" cy="895.847" r="2.5" transform="rotate(-13.4177 43.5766 895.847)" fill="#D9D9D9"/>
<circle cx="28.986" cy="899.328" r="2.5" transform="rotate(-13.4177 28.986 899.328)" fill="#D9D9D9"/>
<circle cx="14.3954" cy="902.808" r="2.5" transform="rotate(-13.4177 14.3954 902.808)" fill="#D9D9D9"/>
<circle cx="79.7191" cy="918.067" r="2.5" transform="rotate(-13.4177 79.7191 918.067)" fill="#D9D9D9"/>
<circle cx="65.1286" cy="921.547" r="2.5" transform="rotate(-13.4177 65.1286 921.547)" fill="#D9D9D9"/>
<circle cx="50.538" cy="925.028" r="2.5" transform="rotate(-13.4177 50.538 925.028)" fill="#D9D9D9"/>
<circle cx="35.9474" cy="928.509" r="2.5" transform="rotate(-13.4177 35.9474 928.509)" fill="#D9D9D9"/>
<circle cx="21.3569" cy="931.99" r="2.5" transform="rotate(-13.4177 21.3569 931.99)" fill="#D9D9D9"/>
<circle cx="69.277" cy="874.295" r="2.5" transform="rotate(-13.4177 69.277 874.295)" fill="#D9D9D9"/>
<circle cx="54.6864" cy="877.776" r="2.5" transform="rotate(-13.4177 54.6864 877.776)" fill="#D9D9D9"/>
<circle cx="40.0958" cy="881.256" r="2.5" transform="rotate(-13.4177 40.0958 881.256)" fill="#D9D9D9"/>
<circle cx="25.5053" cy="884.737" r="2.5" transform="rotate(-13.4177 25.5053 884.737)" fill="#D9D9D9"/>
<circle cx="10.9147" cy="888.218" r="2.5" transform="rotate(-13.4177 10.9147 888.218)" fill="#D9D9D9"/>
<circle cx="65.7963" cy="859.704" r="2.5" transform="rotate(-13.4177 65.7963 859.704)" fill="#D9D9D9"/>
<circle cx="51.2057" cy="863.185" r="2.5" transform="rotate(-13.4177 51.2057 863.185)" fill="#D9D9D9"/>
<circle cx="36.6151" cy="866.666" r="2.5" transform="rotate(-13.4177 36.6151 866.666)" fill="#D9D9D9"/>
<circle cx="22.0246" cy="870.147" r="2.5" transform="rotate(-13.4177 22.0246 870.147)" fill="#D9D9D9"/>
<circle cx="7.434" cy="873.627" r="2.5" transform="rotate(-13.4177 7.434 873.627)" fill="#D9D9D9"/>
<circle cx="86.6806" cy="947.248" r="2.5" transform="rotate(-13.4177 86.6806 947.248)" fill="#D9D9D9"/>
<circle cx="72.09" cy="950.729" r="2.5" transform="rotate(-13.4177 72.09 950.729)" fill="#D9D9D9"/>
<circle cx="57.4994" cy="954.209" r="2.5" transform="rotate(-13.4177 57.4994 954.209)" fill="#D9D9D9"/>
<circle cx="42.9089" cy="957.69" r="2.5" transform="rotate(-13.4177 42.9089 957.69)" fill="#D9D9D9"/>
<circle cx="28.3183" cy="961.171" r="2.5" transform="rotate(-13.4177 28.3183 961.171)" fill="#D9D9D9"/>
<circle cx="100.603" cy="1005.61" r="2.5" transform="rotate(-13.4177 100.603 1005.61)" fill="#D9D9D9"/>
<circle cx="86.0129" cy="1009.09" r="2.5" transform="rotate(-13.4177 86.0129 1009.09)" fill="#D9D9D9"/>
<circle cx="71.4223" cy="1012.57" r="2.5" transform="rotate(-13.4177 71.4223 1012.57)" fill="#D9D9D9"/>
<circle cx="56.8317" cy="1016.05" r="2.5" transform="rotate(-13.4177 56.8317 1016.05)" fill="#D9D9D9"/>
<circle cx="42.2412" cy="1019.53" r="2.5" transform="rotate(-13.4177 42.2412 1019.53)" fill="#D9D9D9"/>
<circle cx="107.565" cy="1034.79" r="2.5" transform="rotate(-13.4177 107.565 1034.79)" fill="#D9D9D9"/>
<circle cx="92.9743" cy="1038.27" r="2.5" transform="rotate(-13.4177 92.9743 1038.27)" fill="#D9D9D9"/>
<circle cx="78.3837" cy="1041.75" r="2.5" transform="rotate(-13.4177 78.3837 1041.75)" fill="#D9D9D9"/>
<circle cx="97.1227" cy="991.02" r="2.5" transform="rotate(-13.4177 97.1227 991.02)" fill="#D9D9D9"/>
<circle cx="82.5321" cy="994.5" r="2.5" transform="rotate(-13.4177 82.5321 994.5)" fill="#D9D9D9"/>
<circle cx="67.9416" cy="997.981" r="2.5" transform="rotate(-13.4177 67.9416 997.981)" fill="#D9D9D9"/>
<circle cx="53.351" cy="1001.46" r="2.5" transform="rotate(-13.4177 53.351 1001.46)" fill="#D9D9D9"/>
<circle cx="38.7604" cy="1004.94" r="2.5" transform="rotate(-13.4177 38.7604 1004.94)" fill="#D9D9D9"/>
<circle cx="104.084" cy="1020.2" r="2.5" transform="rotate(-13.4177 104.084 1020.2)" fill="#D9D9D9"/>
<circle cx="89.4936" cy="1023.68" r="2.5" transform="rotate(-13.4177 89.4936 1023.68)" fill="#D9D9D9"/>
<circle cx="74.903" cy="1027.16" r="2.5" transform="rotate(-13.4177 74.903 1027.16)" fill="#D9D9D9"/>
<circle cx="60.3124" cy="1030.64" r="2.5" transform="rotate(-13.4177 60.3124 1030.64)" fill="#D9D9D9"/>
<circle cx="93.642" cy="976.429" r="2.5" transform="rotate(-13.4177 93.642 976.429)" fill="#D9D9D9"/>
<circle cx="79.0514" cy="979.91" r="2.5" transform="rotate(-13.4177 79.0514 979.91)" fill="#D9D9D9"/>
<circle cx="64.4609" cy="983.39" r="2.5" transform="rotate(-13.4177 64.4609 983.39)" fill="#D9D9D9"/>
<circle cx="49.8703" cy="986.871" r="2.5" transform="rotate(-13.4177 49.8703 986.871)" fill="#D9D9D9"/>
<circle cx="35.2797" cy="990.352" r="2.5" transform="rotate(-13.4177 35.2797 990.352)" fill="#D9D9D9"/>
<circle cx="90.1613" cy="961.838" r="2.5" transform="rotate(-13.4177 90.1613 961.838)" fill="#D9D9D9"/>
<circle cx="75.5707" cy="965.319" r="2.5" transform="rotate(-13.4177 75.5707 965.319)" fill="#D9D9D9"/>
<circle cx="60.9801" cy="968.8" r="2.5" transform="rotate(-13.4177 60.9801 968.8)" fill="#D9D9D9"/>
<circle cx="46.3896" cy="972.281" r="2.5" transform="rotate(-13.4177 46.3896 972.281)" fill="#D9D9D9"/>
<circle cx="31.799" cy="975.761" r="2.5" transform="rotate(-13.4177 31.799 975.761)" fill="#D9D9D9"/>
<circle cx="208.221" cy="810.307" r="2.5" transform="rotate(-13.4177 208.221 810.307)" fill="#D9D9D9"/>
<circle cx="193.631" cy="813.787" r="2.5" transform="rotate(-13.4177 193.631 813.787)" fill="#D9D9D9"/>
<circle cx="179.04" cy="817.268" r="2.5" transform="rotate(-13.4177 179.04 817.268)" fill="#D9D9D9"/>
<circle cx="164.45" cy="820.749" r="2.5" transform="rotate(-13.4177 164.45 820.749)" fill="#D9D9D9"/>
<circle cx="149.859" cy="824.23" r="2.5" transform="rotate(-13.4177 149.859 824.23)" fill="#D9D9D9"/>
<circle cx="222.144" cy="868.669" r="2.5" transform="rotate(-13.4177 222.144 868.669)" fill="#D9D9D9"/>
<circle cx="207.554" cy="872.15" r="2.5" transform="rotate(-13.4177 207.554 872.15)" fill="#D9D9D9"/>
<circle cx="192.963" cy="875.63" r="2.5" transform="rotate(-13.4177 192.963 875.63)" fill="#D9D9D9"/>
<circle cx="178.372" cy="879.111" r="2.5" transform="rotate(-13.4177 178.372 879.111)" fill="#D9D9D9"/>
<circle cx="163.782" cy="882.592" r="2.5" transform="rotate(-13.4177 163.782 882.592)" fill="#D9D9D9"/>
<circle cx="229.106" cy="897.85" r="2.5" transform="rotate(-13.4177 229.106 897.85)" fill="#D9D9D9"/>
<circle cx="214.515" cy="901.331" r="2.5" transform="rotate(-13.4177 214.515 901.331)" fill="#D9D9D9"/>
<circle cx="199.924" cy="904.812" r="2.5" transform="rotate(-13.4177 199.924 904.812)" fill="#D9D9D9"/>
<circle cx="185.334" cy="908.292" r="2.5" transform="rotate(-13.4177 185.334 908.292)" fill="#D9D9D9"/>
<circle cx="170.743" cy="911.773" r="2.5" transform="rotate(-13.4177 170.743 911.773)" fill="#D9D9D9"/>
<circle cx="218.663" cy="854.078" r="2.5" transform="rotate(-13.4177 218.663 854.078)" fill="#D9D9D9"/>
<circle cx="204.073" cy="857.559" r="2.5" transform="rotate(-13.4177 204.073 857.559)" fill="#D9D9D9"/>
<circle cx="189.482" cy="861.04" r="2.5" transform="rotate(-13.4177 189.482 861.04)" fill="#D9D9D9"/>
<circle cx="174.892" cy="864.521" r="2.5" transform="rotate(-13.4177 174.892 864.521)" fill="#D9D9D9"/>
<circle cx="160.301" cy="868.001" r="2.5" transform="rotate(-13.4177 160.301 868.001)" fill="#D9D9D9"/>
<circle cx="225.625" cy="883.26" r="2.5" transform="rotate(-13.4177 225.625 883.26)" fill="#D9D9D9"/>
<circle cx="211.034" cy="886.74" r="2.5" transform="rotate(-13.4177 211.034 886.74)" fill="#D9D9D9"/>
<circle cx="196.444" cy="890.221" r="2.5" transform="rotate(-13.4177 196.444 890.221)" fill="#D9D9D9"/>
<circle cx="181.853" cy="893.702" r="2.5" transform="rotate(-13.4177 181.853 893.702)" fill="#D9D9D9"/>
<circle cx="167.263" cy="897.182" r="2.5" transform="rotate(-13.4177 167.263 897.182)" fill="#D9D9D9"/>
<circle cx="215.183" cy="839.488" r="2.5" transform="rotate(-13.4177 215.183 839.488)" fill="#D9D9D9"/>
<circle cx="200.592" cy="842.969" r="2.5" transform="rotate(-13.4177 200.592 842.969)" fill="#D9D9D9"/>
<circle cx="186.002" cy="846.449" r="2.5" transform="rotate(-13.4177 186.002 846.449)" fill="#D9D9D9"/>
<circle cx="171.411" cy="849.93" r="2.5" transform="rotate(-13.4177 171.411 849.93)" fill="#D9D9D9"/>
<circle cx="156.82" cy="853.411" r="2.5" transform="rotate(-13.4177 156.82 853.411)" fill="#D9D9D9"/>
<circle cx="211.702" cy="824.897" r="2.5" transform="rotate(-13.4177 211.702 824.897)" fill="#D9D9D9"/>
<circle cx="197.111" cy="828.378" r="2.5" transform="rotate(-13.4177 197.111 828.378)" fill="#D9D9D9"/>
<circle cx="182.521" cy="831.859" r="2.5" transform="rotate(-13.4177 182.521 831.859)" fill="#D9D9D9"/>
<circle cx="167.93" cy="835.339" r="2.5" transform="rotate(-13.4177 167.93 835.339)" fill="#D9D9D9"/>
<circle cx="153.34" cy="838.82" r="2.5" transform="rotate(-13.4177 153.34 838.82)" fill="#D9D9D9"/>
<circle cx="232.586" cy="912.441" r="2.5" transform="rotate(-13.4177 232.586 912.441)" fill="#D9D9D9"/>
<circle cx="217.996" cy="915.921" r="2.5" transform="rotate(-13.4177 217.996 915.921)" fill="#D9D9D9"/>
<circle cx="203.405" cy="919.402" r="2.5" transform="rotate(-13.4177 203.405 919.402)" fill="#D9D9D9"/>
<circle cx="188.815" cy="922.883" r="2.5" transform="rotate(-13.4177 188.815 922.883)" fill="#D9D9D9"/>
<circle cx="174.224" cy="926.364" r="2.5" transform="rotate(-13.4177 174.224 926.364)" fill="#D9D9D9"/>
<circle cx="246.509" cy="970.803" r="2.5" transform="rotate(-13.4177 246.509 970.803)" fill="#D9D9D9"/>
<circle cx="231.919" cy="974.284" r="2.5" transform="rotate(-13.4177 231.919 974.284)" fill="#D9D9D9"/>
<circle cx="217.328" cy="977.764" r="2.5" transform="rotate(-13.4177 217.328 977.764)" fill="#D9D9D9"/>
<circle cx="202.737" cy="981.245" r="2.5" transform="rotate(-13.4177 202.737 981.245)" fill="#D9D9D9"/>
<circle cx="188.147" cy="984.726" r="2.5" transform="rotate(-13.4177 188.147 984.726)" fill="#D9D9D9"/>
<circle cx="253.471" cy="999.984" r="2.5" transform="rotate(-13.4177 253.471 999.984)" fill="#D9D9D9"/>
<circle cx="238.88" cy="1003.46" r="2.5" transform="rotate(-13.4177 238.88 1003.46)" fill="#D9D9D9"/>
<circle cx="224.289" cy="1006.95" r="2.5" transform="rotate(-13.4177 224.289 1006.95)" fill="#D9D9D9"/>
<circle cx="209.699" cy="1010.43" r="2.5" transform="rotate(-13.4177 209.699 1010.43)" fill="#D9D9D9"/>
<circle cx="195.108" cy="1013.91" r="2.5" transform="rotate(-13.4177 195.108 1013.91)" fill="#D9D9D9"/>
<circle cx="243.028" cy="956.212" r="2.5" transform="rotate(-13.4177 243.028 956.212)" fill="#D9D9D9"/>
<circle cx="228.438" cy="959.693" r="2.5" transform="rotate(-13.4177 228.438 959.693)" fill="#D9D9D9"/>
<circle cx="213.847" cy="963.174" r="2.5" transform="rotate(-13.4177 213.847 963.174)" fill="#D9D9D9"/>
<circle cx="199.257" cy="966.655" r="2.5" transform="rotate(-13.4177 199.257 966.655)" fill="#D9D9D9"/>
<circle cx="184.666" cy="970.135" r="2.5" transform="rotate(-13.4177 184.666 970.135)" fill="#D9D9D9"/>
<circle cx="249.99" cy="985.394" r="2.5" transform="rotate(-13.4177 249.99 985.394)" fill="#D9D9D9"/>
<circle cx="235.399" cy="988.874" r="2.5" transform="rotate(-13.4177 235.399 988.874)" fill="#D9D9D9"/>
<circle cx="220.809" cy="992.355" r="2.5" transform="rotate(-13.4177 220.809 992.355)" fill="#D9D9D9"/>
<circle cx="206.218" cy="995.836" r="2.5" transform="rotate(-13.4177 206.218 995.836)" fill="#D9D9D9"/>
<circle cx="191.628" cy="999.316" r="2.5" transform="rotate(-13.4177 191.628 999.316)" fill="#D9D9D9"/>
<circle cx="239.548" cy="941.622" r="2.5" transform="rotate(-13.4177 239.548 941.622)" fill="#D9D9D9"/>
<circle cx="224.957" cy="945.103" r="2.5" transform="rotate(-13.4177 224.957 945.103)" fill="#D9D9D9"/>
<circle cx="210.367" cy="948.583" r="2.5" transform="rotate(-13.4177 210.367 948.583)" fill="#D9D9D9"/>
<circle cx="195.776" cy="952.064" r="2.5" transform="rotate(-13.4177 195.776 952.064)" fill="#D9D9D9"/>
<circle cx="181.185" cy="955.545" r="2.5" transform="rotate(-13.4177 181.185 955.545)" fill="#D9D9D9"/>
<circle cx="236.067" cy="927.031" r="2.5" transform="rotate(-13.4177 236.067 927.031)" fill="#D9D9D9"/>
<circle cx="221.476" cy="930.512" r="2.5" transform="rotate(-13.4177 221.476 930.512)" fill="#D9D9D9"/>
<circle cx="206.886" cy="933.993" r="2.5" transform="rotate(-13.4177 206.886 933.993)" fill="#D9D9D9"/>
<circle cx="192.295" cy="937.473" r="2.5" transform="rotate(-13.4177 192.295 937.473)" fill="#D9D9D9"/>
<circle cx="177.705" cy="940.954" r="2.5" transform="rotate(-13.4177 177.705 940.954)" fill="#D9D9D9"/>
<circle cx="135.268" cy="827.71" r="2.5" transform="rotate(-13.4177 135.268 827.71)" fill="#D9D9D9"/>
<circle cx="120.678" cy="831.191" r="2.5" transform="rotate(-13.4177 120.678 831.191)" fill="#D9D9D9"/>
<circle cx="106.087" cy="834.672" r="2.5" transform="rotate(-13.4177 106.087 834.672)" fill="#D9D9D9"/>
<circle cx="91.4967" cy="838.152" r="2.5" transform="rotate(-13.4177 91.4967 838.152)" fill="#D9D9D9"/>
<circle cx="76.9061" cy="841.633" r="2.5" transform="rotate(-13.4177 76.9061 841.633)" fill="#D9D9D9"/>
<circle cx="149.191" cy="886.073" r="2.5" transform="rotate(-13.4177 149.191 886.073)" fill="#D9D9D9"/>
<circle cx="134.601" cy="889.553" r="2.5" transform="rotate(-13.4177 134.601 889.553)" fill="#D9D9D9"/>
<circle cx="120.01" cy="893.034" r="2.5" transform="rotate(-13.4177 120.01 893.034)" fill="#D9D9D9"/>
<circle cx="105.42" cy="896.515" r="2.5" transform="rotate(-13.4177 105.42 896.515)" fill="#D9D9D9"/>
<circle cx="90.829" cy="899.995" r="2.5" transform="rotate(-13.4177 90.829 899.995)" fill="#D9D9D9"/>
<circle cx="156.153" cy="915.254" r="2.5" transform="rotate(-13.4177 156.153 915.254)" fill="#D9D9D9"/>
<circle cx="141.562" cy="918.734" r="2.5" transform="rotate(-13.4177 141.562 918.734)" fill="#D9D9D9"/>
<circle cx="126.972" cy="922.215" r="2.5" transform="rotate(-13.4177 126.972 922.215)" fill="#D9D9D9"/>
<circle cx="112.381" cy="925.696" r="2.5" transform="rotate(-13.4177 112.381 925.696)" fill="#D9D9D9"/>
<circle cx="97.7904" cy="929.177" r="2.5" transform="rotate(-13.4177 97.7904 929.177)" fill="#D9D9D9"/>
<circle cx="145.711" cy="871.482" r="2.5" transform="rotate(-13.4177 145.711 871.482)" fill="#D9D9D9"/>
<circle cx="131.12" cy="874.963" r="2.5" transform="rotate(-13.4177 131.12 874.963)" fill="#D9D9D9"/>
<circle cx="116.529" cy="878.443" r="2.5" transform="rotate(-13.4177 116.529 878.443)" fill="#D9D9D9"/>
<circle cx="101.939" cy="881.924" r="2.5" transform="rotate(-13.4177 101.939 881.924)" fill="#D9D9D9"/>
<circle cx="87.3483" cy="885.405" r="2.5" transform="rotate(-13.4177 87.3483 885.405)" fill="#D9D9D9"/>
<circle cx="152.672" cy="900.663" r="2.5" transform="rotate(-13.4177 152.672 900.663)" fill="#D9D9D9"/>
<circle cx="138.081" cy="904.144" r="2.5" transform="rotate(-13.4177 138.081 904.144)" fill="#D9D9D9"/>
<circle cx="123.491" cy="907.625" r="2.5" transform="rotate(-13.4177 123.491 907.625)" fill="#D9D9D9"/>
<circle cx="108.9" cy="911.105" r="2.5" transform="rotate(-13.4177 108.9 911.105)" fill="#D9D9D9"/>
<circle cx="94.3097" cy="914.586" r="2.5" transform="rotate(-13.4177 94.3097 914.586)" fill="#D9D9D9"/>
<circle cx="142.23" cy="856.891" r="2.5" transform="rotate(-13.4177 142.23 856.891)" fill="#D9D9D9"/>
<circle cx="127.639" cy="860.372" r="2.5" transform="rotate(-13.4177 127.639 860.372)" fill="#D9D9D9"/>
<circle cx="113.049" cy="863.853" r="2.5" transform="rotate(-13.4177 113.049 863.853)" fill="#D9D9D9"/>
<circle cx="98.4581" cy="867.334" r="2.5" transform="rotate(-13.4177 98.4581 867.334)" fill="#D9D9D9"/>
<circle cx="83.8675" cy="870.814" r="2.5" transform="rotate(-13.4177 83.8675 870.814)" fill="#D9D9D9"/>
<circle cx="138.749" cy="842.301" r="2.5" transform="rotate(-13.4177 138.749 842.301)" fill="#D9D9D9"/>
<circle cx="124.159" cy="845.782" r="2.5" transform="rotate(-13.4177 124.159 845.782)" fill="#D9D9D9"/>
<circle cx="109.568" cy="849.262" r="2.5" transform="rotate(-13.4177 109.568 849.262)" fill="#D9D9D9"/>
<circle cx="94.9774" cy="852.743" r="2.5" transform="rotate(-13.4177 94.9774 852.743)" fill="#D9D9D9"/>
<circle cx="80.3868" cy="856.224" r="2.5" transform="rotate(-13.4177 80.3868 856.224)" fill="#D9D9D9"/>
<circle cx="159.633" cy="929.844" r="2.5" transform="rotate(-13.4177 159.633 929.844)" fill="#D9D9D9"/>
<circle cx="145.043" cy="933.325" r="2.5" transform="rotate(-13.4177 145.043 933.325)" fill="#D9D9D9"/>
<circle cx="130.452" cy="936.806" r="2.5" transform="rotate(-13.4177 130.452 936.806)" fill="#D9D9D9"/>
<circle cx="115.862" cy="940.286" r="2.5" transform="rotate(-13.4177 115.862 940.286)" fill="#D9D9D9"/>
<circle cx="101.271" cy="943.767" r="2.5" transform="rotate(-13.4177 101.271 943.767)" fill="#D9D9D9"/>
<circle cx="173.556" cy="988.207" r="2.5" transform="rotate(-13.4177 173.556 988.207)" fill="#D9D9D9"/>
<circle cx="158.966" cy="991.687" r="2.5" transform="rotate(-13.4177 158.966 991.687)" fill="#D9D9D9"/>
<circle cx="144.375" cy="995.168" r="2.5" transform="rotate(-13.4177 144.375 995.168)" fill="#D9D9D9"/>
<circle cx="129.785" cy="998.649" r="2.5" transform="rotate(-13.4177 129.785 998.649)" fill="#D9D9D9"/>
<circle cx="115.194" cy="1002.13" r="2.5" transform="rotate(-13.4177 115.194 1002.13)" fill="#D9D9D9"/>
<circle cx="180.518" cy="1017.39" r="2.5" transform="rotate(-13.4177 180.518 1017.39)" fill="#D9D9D9"/>
<circle cx="165.927" cy="1020.87" r="2.5" transform="rotate(-13.4177 165.927 1020.87)" fill="#D9D9D9"/>
<circle cx="151.337" cy="1024.35" r="2.5" transform="rotate(-13.4177 151.337 1024.35)" fill="#D9D9D9"/>
<circle cx="136.746" cy="1027.83" r="2.5" transform="rotate(-13.4177 136.746 1027.83)" fill="#D9D9D9"/>
<circle cx="122.155" cy="1031.31" r="2.5" transform="rotate(-13.4177 122.155 1031.31)" fill="#D9D9D9"/>
<circle cx="170.076" cy="973.616" r="2.5" transform="rotate(-13.4177 170.076 973.616)" fill="#D9D9D9"/>
<circle cx="155.485" cy="977.097" r="2.5" transform="rotate(-13.4177 155.485 977.097)" fill="#D9D9D9"/>
<circle cx="140.894" cy="980.577" r="2.5" transform="rotate(-13.4177 140.894 980.577)" fill="#D9D9D9"/>
<circle cx="126.304" cy="984.058" r="2.5" transform="rotate(-13.4177 126.304 984.058)" fill="#D9D9D9"/>
<circle cx="111.713" cy="987.539" r="2.5" transform="rotate(-13.4177 111.713 987.539)" fill="#D9D9D9"/>
<circle cx="177.037" cy="1002.8" r="2.5" transform="rotate(-13.4177 177.037 1002.8)" fill="#D9D9D9"/>
<circle cx="162.446" cy="1006.28" r="2.5" transform="rotate(-13.4177 162.446 1006.28)" fill="#D9D9D9"/>
<circle cx="147.856" cy="1009.76" r="2.5" transform="rotate(-13.4177 147.856 1009.76)" fill="#D9D9D9"/>
<circle cx="133.265" cy="1013.24" r="2.5" transform="rotate(-13.4177 133.265 1013.24)" fill="#D9D9D9"/>
<circle cx="118.675" cy="1016.72" r="2.5" transform="rotate(-13.4177 118.675 1016.72)" fill="#D9D9D9"/>
<circle cx="166.595" cy="959.025" r="2.5" transform="rotate(-13.4177 166.595 959.025)" fill="#D9D9D9"/>
<circle cx="152.004" cy="962.506" r="2.5" transform="rotate(-13.4177 152.004 962.506)" fill="#D9D9D9"/>
<circle cx="137.414" cy="965.987" r="2.5" transform="rotate(-13.4177 137.414 965.987)" fill="#D9D9D9"/>
<circle cx="122.823" cy="969.468" r="2.5" transform="rotate(-13.4177 122.823 969.468)" fill="#D9D9D9"/>
<circle cx="108.233" cy="972.948" r="2.5" transform="rotate(-13.4177 108.233 972.948)" fill="#D9D9D9"/>
<circle cx="163.114" cy="944.435" r="2.5" transform="rotate(-13.4177 163.114 944.435)" fill="#D9D9D9"/>
<circle cx="148.524" cy="947.916" r="2.5" transform="rotate(-13.4177 148.524 947.916)" fill="#D9D9D9"/>
<circle cx="133.933" cy="951.396" r="2.5" transform="rotate(-13.4177 133.933 951.396)" fill="#D9D9D9"/>
<circle cx="119.342" cy="954.877" r="2.5" transform="rotate(-13.4177 119.342 954.877)" fill="#D9D9D9"/>
<circle cx="104.752" cy="958.358" r="2.5" transform="rotate(-13.4177 104.752 958.358)" fill="#D9D9D9"/>
<circle cx="281.174" cy="792.903" r="2.5" transform="rotate(-13.4177 281.174 792.903)" fill="#D9D9D9"/>
<circle cx="266.583" cy="796.384" r="2.5" transform="rotate(-13.4177 266.583 796.384)" fill="#D9D9D9"/>
<circle cx="251.993" cy="799.865" r="2.5" transform="rotate(-13.4177 251.993 799.865)" fill="#D9D9D9"/>
<circle cx="237.402" cy="803.345" r="2.5" transform="rotate(-13.4177 237.402 803.345)" fill="#D9D9D9"/>
<circle cx="222.812" cy="806.826" r="2.5" transform="rotate(-13.4177 222.812 806.826)" fill="#D9D9D9"/>
<circle cx="295.097" cy="851.265" r="2.5" transform="rotate(-13.4177 295.097 851.265)" fill="#D9D9D9"/>
<circle cx="280.506" cy="854.746" r="2.5" transform="rotate(-13.4177 280.506 854.746)" fill="#D9D9D9"/>
<circle cx="265.916" cy="858.227" r="2.5" transform="rotate(-13.4177 265.916 858.227)" fill="#D9D9D9"/>
<circle cx="251.325" cy="861.708" r="2.5" transform="rotate(-13.4177 251.325 861.708)" fill="#D9D9D9"/>
<circle cx="236.735" cy="865.188" r="2.5" transform="rotate(-13.4177 236.735 865.188)" fill="#D9D9D9"/>
<circle cx="302.058" cy="880.447" r="2.5" transform="rotate(-13.4177 302.058 880.447)" fill="#D9D9D9"/>
<circle cx="287.468" cy="883.927" r="2.5" transform="rotate(-13.4177 287.468 883.927)" fill="#D9D9D9"/>
<circle cx="272.877" cy="887.408" r="2.5" transform="rotate(-13.4177 272.877 887.408)" fill="#D9D9D9"/>
<circle cx="258.287" cy="890.889" r="2.5" transform="rotate(-13.4177 258.287 890.889)" fill="#D9D9D9"/>
<circle cx="243.696" cy="894.369" r="2.5" transform="rotate(-13.4177 243.696 894.369)" fill="#D9D9D9"/>
<circle cx="291.616" cy="836.675" r="2.5" transform="rotate(-13.4177 291.616 836.675)" fill="#D9D9D9"/>
<circle cx="277.026" cy="840.156" r="2.5" transform="rotate(-13.4177 277.026 840.156)" fill="#D9D9D9"/>
<circle cx="262.435" cy="843.636" r="2.5" transform="rotate(-13.4177 262.435 843.636)" fill="#D9D9D9"/>
<circle cx="247.844" cy="847.117" r="2.5" transform="rotate(-13.4177 247.844 847.117)" fill="#D9D9D9"/>
<circle cx="233.254" cy="850.598" r="2.5" transform="rotate(-13.4177 233.254 850.598)" fill="#D9D9D9"/>
<circle cx="298.578" cy="865.856" r="2.5" transform="rotate(-13.4177 298.578 865.856)" fill="#D9D9D9"/>
<circle cx="283.987" cy="869.337" r="2.5" transform="rotate(-13.4177 283.987 869.337)" fill="#D9D9D9"/>
<circle cx="269.396" cy="872.817" r="2.5" transform="rotate(-13.4177 269.396 872.817)" fill="#D9D9D9"/>
<circle cx="254.806" cy="876.298" r="2.5" transform="rotate(-13.4177 254.806 876.298)" fill="#D9D9D9"/>
<circle cx="240.215" cy="879.779" r="2.5" transform="rotate(-13.4177 240.215 879.779)" fill="#D9D9D9"/>
<circle cx="288.135" cy="822.084" r="2.5" transform="rotate(-13.4177 288.135 822.084)" fill="#D9D9D9"/>
<circle cx="273.545" cy="825.565" r="2.5" transform="rotate(-13.4177 273.545 825.565)" fill="#D9D9D9"/>
<circle cx="258.954" cy="829.046" r="2.5" transform="rotate(-13.4177 258.954 829.046)" fill="#D9D9D9"/>
<circle cx="244.364" cy="832.526" r="2.5" transform="rotate(-13.4177 244.364 832.526)" fill="#D9D9D9"/>
<circle cx="229.773" cy="836.007" r="2.5" transform="rotate(-13.4177 229.773 836.007)" fill="#D9D9D9"/>
<circle cx="284.655" cy="807.494" r="2.5" transform="rotate(-13.4177 284.655 807.494)" fill="#D9D9D9"/>
<circle cx="270.064" cy="810.974" r="2.5" transform="rotate(-13.4177 270.064 810.974)" fill="#D9D9D9"/>
<circle cx="255.474" cy="814.455" r="2.5" transform="rotate(-13.4177 255.474 814.455)" fill="#D9D9D9"/>
<circle cx="240.883" cy="817.936" r="2.5" transform="rotate(-13.4177 240.883 817.936)" fill="#D9D9D9"/>
<circle cx="226.292" cy="821.417" r="2.5" transform="rotate(-13.4177 226.292 821.417)" fill="#D9D9D9"/>
<circle cx="305.539" cy="895.037" r="2.5" transform="rotate(-13.4177 305.539 895.037)" fill="#D9D9D9"/>
<circle cx="290.948" cy="898.518" r="2.5" transform="rotate(-13.4177 290.948 898.518)" fill="#D9D9D9"/>
<circle cx="276.358" cy="901.999" r="2.5" transform="rotate(-13.4177 276.358 901.999)" fill="#D9D9D9"/>
<circle cx="261.767" cy="905.479" r="2.5" transform="rotate(-13.4177 261.767 905.479)" fill="#D9D9D9"/>
<circle cx="247.177" cy="908.96" r="2.5" transform="rotate(-13.4177 247.177 908.96)" fill="#D9D9D9"/>
<circle cx="319.462" cy="953.399" r="2.5" transform="rotate(-13.4177 319.462 953.399)" fill="#D9D9D9"/>
<circle cx="304.871" cy="956.88" r="2.5" transform="rotate(-13.4177 304.871 956.88)" fill="#D9D9D9"/>
<circle cx="290.281" cy="960.361" r="2.5" transform="rotate(-13.4177 290.281 960.361)" fill="#D9D9D9"/>
<circle cx="275.69" cy="963.842" r="2.5" transform="rotate(-13.4177 275.69 963.842)" fill="#D9D9D9"/>
<circle cx="261.1" cy="967.322" r="2.5" transform="rotate(-13.4177 261.1 967.322)" fill="#D9D9D9"/>
<circle cx="326.423" cy="982.581" r="2.5" transform="rotate(-13.4177 326.423 982.581)" fill="#D9D9D9"/>
<circle cx="311.833" cy="986.061" r="2.5" transform="rotate(-13.4177 311.833 986.061)" fill="#D9D9D9"/>
<circle cx="297.242" cy="989.542" r="2.5" transform="rotate(-13.4177 297.242 989.542)" fill="#D9D9D9"/>
<circle cx="282.652" cy="993.023" r="2.5" transform="rotate(-13.4177 282.652 993.023)" fill="#D9D9D9"/>
<circle cx="268.061" cy="996.503" r="2.5" transform="rotate(-13.4177 268.061 996.503)" fill="#D9D9D9"/>
<circle cx="315.981" cy="938.809" r="2.5" transform="rotate(-13.4177 315.981 938.809)" fill="#D9D9D9"/>
<circle cx="301.391" cy="942.29" r="2.5" transform="rotate(-13.4177 301.391 942.29)" fill="#D9D9D9"/>
<circle cx="286.8" cy="945.77" r="2.5" transform="rotate(-13.4177 286.8 945.77)" fill="#D9D9D9"/>
<circle cx="272.21" cy="949.251" r="2.5" transform="rotate(-13.4177 272.21 949.251)" fill="#D9D9D9"/>
<circle cx="257.619" cy="952.732" r="2.5" transform="rotate(-13.4177 257.619 952.732)" fill="#D9D9D9"/>
<circle cx="322.943" cy="967.99" r="2.5" transform="rotate(-13.4177 322.943 967.99)" fill="#D9D9D9"/>
<circle cx="308.352" cy="971.471" r="2.5" transform="rotate(-13.4177 308.352 971.471)" fill="#D9D9D9"/>
<circle cx="293.762" cy="974.951" r="2.5" transform="rotate(-13.4177 293.762 974.951)" fill="#D9D9D9"/>
<circle cx="279.171" cy="978.432" r="2.5" transform="rotate(-13.4177 279.171 978.432)" fill="#D9D9D9"/>
<circle cx="264.58" cy="981.913" r="2.5" transform="rotate(-13.4177 264.58 981.913)" fill="#D9D9D9"/>
<circle cx="312.5" cy="924.218" r="2.5" transform="rotate(-13.4177 312.5 924.218)" fill="#D9D9D9"/>
<circle cx="297.91" cy="927.699" r="2.5" transform="rotate(-13.4177 297.91 927.699)" fill="#D9D9D9"/>
<circle cx="283.319" cy="931.18" r="2.5" transform="rotate(-13.4177 283.319 931.18)" fill="#D9D9D9"/>
<circle cx="268.729" cy="934.66" r="2.5" transform="rotate(-13.4177 268.729 934.66)" fill="#D9D9D9"/>
<circle cx="254.138" cy="938.141" r="2.5" transform="rotate(-13.4177 254.138 938.141)" fill="#D9D9D9"/>
<circle cx="309.02" cy="909.628" r="2.5" transform="rotate(-13.4177 309.02 909.628)" fill="#D9D9D9"/>
<circle cx="294.429" cy="913.108" r="2.5" transform="rotate(-13.4177 294.429 913.108)" fill="#D9D9D9"/>
<circle cx="279.839" cy="916.589" r="2.5" transform="rotate(-13.4177 279.839 916.589)" fill="#D9D9D9"/>
<circle cx="265.248" cy="920.07" r="2.5" transform="rotate(-13.4177 265.248 920.07)" fill="#D9D9D9"/>
<circle cx="250.658" cy="923.551" r="2.5" transform="rotate(-13.4177 250.658 923.551)" fill="#D9D9D9"/>
<path d="M4.77468 487.047C2.60494 457.432 22.425 430.684 51.3897 424.139L1061 196V774.664L112.068 999.743C76.1195 1008.27 41.0801 982.593 38.3806 945.747L4.77468 487.047Z" fill="#69A8FB"/>
<path d="M1045.79 997.004C1038.64 1043.41 983.358 1063.99 947.6 1033.56L360.272 533.718C347.454 522.809 342.836 505.045 348.719 489.275L516.321 39.9939C529.187 5.50273 569.794 -9.37484 601.898 8.63978L1114.37 296.204C1136.19 308.446 1148.12 332.941 1144.31 357.667L1045.79 997.004Z" fill="#EAE3F5" fill-opacity="0.1"/>
</svg>
