<svg width="96" height="85" viewBox="0 0 96 85" fill="none" xmlns="http://www.w3.org/2000/svg">
<g clip-path="url(#clip0_1_375)">
<path d="M0.0942569 75.1341C0.0942569 72.942 1.78824 71.2871 3.97928 71.2871H4.64487C6.83591 71.2871 8.52989 72.9448 8.52989 75.1341V75.5714L6.13032 75.8001V75.1341C6.13032 74.2567 5.48187 73.5707 4.60774 73.5707H4.01641C3.13943 73.5707 2.49383 74.2567 2.49383 75.1341V75.2484C2.49383 77.9351 8.62416 76.0287 8.62416 80.9818V81.1533C8.62416 83.3454 6.93018 85.0003 4.73914 85.0003H3.88215C1.69111 85.0003 -0.00286865 83.3426 -0.00286865 81.1533V80.716L2.3967 80.4873V81.1533C2.3967 82.0307 3.04516 82.7167 3.91929 82.7167H4.69915C5.57614 82.7167 6.22173 82.0307 6.22173 81.1533V80.9818C6.22173 78.1437 0.0914002 80.3902 0.0914002 75.2484V75.1341H0.0942569Z" fill="white"/>
<path d="M11.0066 84.8115V71.4756H13.4062V84.8115H11.0066ZM17.9568 84.8115L13.6918 78.1435L17.9568 71.4756H20.7363L16.3771 78.1435L20.7363 84.8115H17.9568Z" fill="white"/>
<path d="M23.7301 71.4756L25.8811 76.3344L28.0321 71.4756H30.6402L27.0809 79.2096V84.8115H24.6813V79.2096L21.1219 71.4756H23.7301Z" fill="white"/>
<path d="M32.1657 84.8115V74.2079L33.9082 71.4756H40.6756V73.7621H34.5624V77.0003H39.4758V79.2868H34.5624V82.525H40.6756V84.8115H32.1628H32.1657Z" fill="white"/>
<path d="M50.371 84.8115L45.2862 76.2572L45.1719 75.6856V84.8115H42.7723V71.4756H44.8862L49.9711 80.0299L50.0853 80.6015V71.4756H52.4849V84.8115H50.371Z" fill="white"/>
<path d="M55.3416 84.8115V71.4756H63.8515V73.7621H57.7383V77.0003H62.6517V79.2868H57.7383V82.525H63.8515V84.8115H55.3416Z" fill="white"/>
<path d="M81.1284 77.4177H85.4876V84.8087H84.5535L83.8679 83.7598C83.2394 84.5401 82.3253 84.9974 81.2226 84.9974H80.6513C78.4603 84.9974 76.7663 83.3397 76.7663 81.1503V75.1312C76.7663 72.939 78.4603 71.2842 80.6513 71.2842H81.6026C83.7936 71.2842 85.4876 72.9419 85.4876 75.1312V75.8171L83.088 76.0458V75.1312C83.088 74.2537 82.4396 73.5678 81.5654 73.5678H80.6884C79.8115 73.5678 79.1659 74.2537 79.1659 75.1312V81.1503C79.1659 82.0278 79.8143 82.7137 80.6884 82.7137H81.5654C82.4424 82.7137 83.088 82.0278 83.088 81.1503V79.7013H81.1255V77.4148L81.1284 77.4177Z" fill="white"/>
<path d="M74.5924 76.0285C74.5924 77.7063 73.6011 79.0581 72.1557 79.6098L74.8981 84.8115H72.25L69.719 79.8784H68.1564V84.8115H65.7568V71.4756H70.7074C72.8984 71.4756 74.5924 73.1333 74.5924 75.3226V76.0285ZM72.1928 75.3226C72.1928 74.4452 71.5444 73.7592 70.6702 73.7592H68.1564V77.5891H70.6702C71.5472 77.5891 72.1928 76.9031 72.1928 76.0257V75.3197V75.3226Z" fill="white"/>
<path d="M89.0869 71.4756L91.238 76.3344L93.389 71.4756H95.9971L92.4377 79.2096V84.8115H90.0382V79.2096L86.476 71.4756H89.0841H89.0869Z" fill="white"/>
<path d="M77.5262 22.0646C74.8124 22.0646 72.15 22.2818 69.5448 22.6762L76.5178 15.5395L62.0232 22.4447L66.2796 14.8478L59.1466 20.2582L64.8999 4.3729L54.4303 17.726L55.2359 8.40282L50.3767 16.92L48.9056 0L45.3405 16.114L41.8897 7.48251L41.4298 16.92L32.917 2.6466L36.4821 19.1064L30.0404 12.5442L33.7226 21.4072L19.3423 11.8526L30.2718 25.3199L21.0677 22.3275L28.7749 28.5439L11.8636 26.4174L26.9352 33.4084L17.7311 34.8746L26.2439 37.1754L10.9438 42.5857H26.9352L19.4566 47.7646L28.6035 45.521L16.3514 57.7794L25.8725 53.1179C31.2087 42.843 39.8129 34.5945 50.2453 29.6814C37.4105 37.4726 28.1607 50.5856 25.5755 65.9679C34.7452 41.6254 57.6297 24.0138 84.8049 22.5647C82.4253 22.236 79.9972 22.0617 77.529 22.0617L77.5262 22.0646Z" fill="#F19817"/>
<path d="M59.2637 41.8457H52.8305C52.4221 42.2544 52.1907 42.4859 51.7822 42.8946V49.3311C52.1907 49.7398 52.4221 49.9713 52.8305 50.38H59.2637C59.6722 49.9713 59.9036 49.7398 60.3121 49.3311V42.8946C59.9036 42.4859 59.6722 42.2544 59.2637 41.8457Z" fill="#2877BA"/>
<path d="M52.8305 51.9287C52.4221 52.3374 52.1907 52.5689 51.7822 52.9776V59.7771C54.9187 59.2112 57.8154 57.9564 60.3092 56.173V52.9776L59.2608 51.9287H52.8277H52.8305Z" fill="#2877BA"/>
<path d="M61.4319 42.8942V49.3307L62.4803 50.3796H65.8368C67.4651 47.853 68.5735 44.9578 69.0077 41.8481H62.4831L61.4347 42.8971L61.4319 42.8942Z" fill="#2877BA"/>
<path d="M61.4319 52.9777V55.3214C62.6545 54.3182 63.7629 53.1778 64.7342 51.9316H62.4803C62.0718 52.3403 61.8404 52.5719 61.4319 52.9806V52.9777Z" fill="#2877BA"/>
<path d="M49.614 51.9287H43.1808L42.1324 52.9776V59.2969C43.995 59.8314 45.9603 60.12 47.9914 60.12C48.897 60.12 49.7854 60.0572 50.6595 59.9457V52.9776C50.251 52.5689 50.0196 52.3374 49.6111 51.9287H49.614Z" fill="#2877BA"/>
<path d="M89.6897 29.1785C87.3472 28.644 81.5797 27.5322 79.1201 27.315C77.8546 27.2036 76.5949 27.1435 75.3465 27.1235C59.2208 29.7759 44.9005 38.2244 34.7509 50.3771H39.97L41.0184 49.3281V44.7838C41.3869 44.4951 41.7611 44.2093 42.1382 43.9292V49.3281C42.5467 49.7368 42.7781 49.9684 43.1865 50.3771H49.6197L50.6681 49.3281V42.8917L49.6197 41.8428H45.0862C45.8832 41.3112 46.6945 40.7938 47.5144 40.2908H49.6168C50.0253 39.8821 50.2567 39.6506 50.6652 39.2419V38.4731C51.0366 38.2701 51.4108 38.0729 51.785 37.8757V39.2419C52.1935 39.6506 52.4249 39.8821 52.8334 40.2908H59.2665C59.675 39.8821 59.9064 39.6506 60.3149 39.2419V34.0716C60.6863 33.9315 61.0605 33.7943 61.4347 33.66V39.2419C61.8432 39.6506 62.0746 39.8821 62.4831 40.2908H69.1676C69.1991 39.8278 69.219 39.3591 69.219 38.8875C69.219 36.3838 68.782 33.9858 67.985 31.7594H67.5451C74.7609 29.8302 82.2767 28.9213 89.6925 29.1757L89.6897 29.1785Z" fill="#2877BA"/>
<path d="M32.4856 53.375C34.8109 55.8673 37.7276 57.7993 41.0127 58.9454V52.9806C40.6042 52.5719 40.3728 52.3403 39.9643 51.9316H33.4883C33.1484 52.3632 32.8142 52.8005 32.4828 53.2407V53.375H32.4856Z" fill="#2877BA"/>
</g>
<defs>
<clipPath id="clip0_1_375">
<rect width="96" height="85" fill="white"/>
</clipPath>
</defs>
</svg>
