<svg width="14" height="14" viewBox="0 0 14 14" fill="none" xmlns="http://www.w3.org/2000/svg">
<g clip-path="url(#clip0_553_1897)">
<path d="M13.0686 14C13.5806 14 14 13.5877 14 13.0828V3.72752C14 3.22266 13.5806 2.81036 13.0686 2.81036H3.97797L7.6263 14H13.0686Z" fill="#DBDBDB"/>
<path d="M13.0686 3.23108C13.2047 3.23108 13.3337 3.28437 13.4305 3.37973C13.5259 3.47369 13.5792 3.5971 13.5792 3.72752V13.0828C13.5792 13.2132 13.5273 13.3367 13.4305 13.4306C13.3337 13.526 13.2047 13.5793 13.0686 13.5793H7.93208L4.55727 3.23108H13.0686ZM13.0686 2.81036H3.97797L7.6263 14H13.0686C13.5806 14 14 13.5877 14 13.0828V3.72752C14 3.22266 13.5806 2.81036 13.0686 2.81036Z" fill="#DCDCDC"/>
<path d="M6.76508 11.3565L7.62631 14L10.0207 11.3565H6.76508Z" fill="#4352B8"/>
<path d="M13.1304 6.67677V6.12843H10.4863V5.24213H9.6279V6.12843H7.94049V6.67677H11.2985C11.1189 7.30924 10.722 7.90666 10.3348 8.37085C9.64894 7.55887 9.64613 7.29522 9.64613 7.29522H8.93358C8.93358 7.29522 8.96303 7.69069 9.92526 8.81821C9.61247 9.13795 9.37542 9.32727 9.37542 9.32727L9.59423 10.0116C9.59423 10.0116 9.92526 9.72695 10.339 9.288C10.7542 9.73817 11.2901 10.2795 11.983 10.9246L12.4332 10.4744C11.6912 9.80128 11.147 9.26697 10.7472 8.83784C11.283 8.20396 11.8273 7.40601 11.9423 6.67536H13.1289V6.67677H13.1304Z" fill="#607988"/>
<path d="M0.93137 0C0.419397 0 0 0.419313 0 0.932585V10.4267C0 10.9386 0.419397 11.3579 0.93137 11.3579H10.022L6.37371 0H0.93137Z" fill="#4285F4"/>
<path d="M7.49445 2.81036H13.0686C13.5806 2.81036 14 3.22266 14 3.72752V9.33986L7.49445 2.81036Z" fill="url(#paint0_linear_553_1897)"/>
<path d="M5.20952 6.03868C5.17445 6.4636 4.81116 7.09327 3.93169 7.09327C3.17004 7.09327 2.55287 6.4636 2.55287 5.68808C2.55287 4.91257 3.17004 4.2829 3.93169 4.2829C4.36511 4.2829 4.65406 4.47081 4.81957 4.62367L5.39747 4.06833C5.01735 3.71773 4.52221 3.49896 3.93169 3.49896C2.72399 3.49896 1.74353 4.47923 1.74353 5.68668C1.74353 6.89413 2.72399 7.8744 3.93169 7.8744C5.19689 7.8744 6.03288 6.98669 6.03288 5.73436C6.03288 5.55486 6.01044 5.42303 5.98098 5.2884H3.93309V6.03728L5.20952 6.03868Z" fill="#EEEEEE"/>
<path d="M13.0686 2.81038H7.27703L6.37371 0H0.93137C0.419397 0 0 0.419313 0 0.932585V10.4267C0 10.9386 0.419397 11.3579 0.93137 11.3579H6.76505L7.62629 14H13.0686C13.5806 14 14 13.5877 14 13.0828V3.72754C14 3.22268 13.5806 2.81038 13.0686 2.81038Z" fill="url(#paint1_radial_553_1897)"/>
</g>
<defs>
<linearGradient id="paint0_linear_553_1897" x1="7.49445" y1="6.07511" x2="14" y2="6.07511" gradientUnits="userSpaceOnUse">
<stop stop-color="white" stop-opacity="0.2"/>
<stop offset="1" stop-color="white" stop-opacity="0.02"/>
</linearGradient>
<radialGradient id="paint1_radial_553_1897" cx="0" cy="0" r="1" gradientUnits="userSpaceOnUse" gradientTransform="translate(0.91465 0.271586) scale(19.6131 19.6091)">
<stop stop-color="white" stop-opacity="0.1"/>
<stop offset="1" stop-color="white" stop-opacity="0"/>
</radialGradient>
<clipPath id="clip0_553_1897">
<rect width="14" height="14" fill="white"/>
</clipPath>
</defs>
</svg>
