<svg width="20" height="20" viewBox="0 0 20 20" fill="none" xmlns="http://www.w3.org/2000/svg">
<g clip-path="url(#clip0_55_1322)">
<path d="M0.438721 19.4302L1.73068 14.5293C0.933624 13.095 0.514468 11.4678 0.514971 9.8012C0.517061 4.5866 4.60215 0.344177 9.62144 0.344177C12.0575 0.34532 14.344 1.33025 16.0631 3.11787C17.7825 4.90547 18.7289 7.28159 18.7279 9.80859C18.7258 15.0233 14.6405 19.2661 9.6218 19.2661C9.62144 19.2661 9.62206 19.2661 9.6218 19.2661H9.61775C8.09374 19.2656 6.59625 18.8682 5.26624 18.1151L0.438721 19.4302Z" fill="white"/>
<path fill-rule="evenodd" clip-rule="evenodd" d="M7.26532 5.7027C7.08877 5.29491 6.90289 5.28675 6.73493 5.27962C6.59755 5.27349 6.44027 5.27387 6.28324 5.27387C6.12609 5.27387 5.87072 5.33522 5.65476 5.58025C5.43868 5.82527 4.82971 6.41761 4.82971 7.62231C4.82971 8.82715 5.6744 9.99129 5.79214 10.1548C5.91001 10.3181 7.42272 12.8693 9.81842 13.8508C11.8095 14.6665 12.2146 14.5042 12.6468 14.4634C13.079 14.4226 14.0413 13.8712 14.2377 13.2994C14.4342 12.7277 14.4342 12.2377 14.3752 12.1352C14.3163 12.0332 14.1591 11.972 13.9234 11.8495C13.6877 11.7271 12.5289 11.1346 12.3129 11.053C12.0968 10.9714 11.9396 10.9305 11.7825 11.1757C11.6253 11.4206 11.1739 11.972 11.0364 12.1352C10.8988 12.2989 10.7613 12.3193 10.5256 12.1968C10.2899 12.074 9.53076 11.8157 8.63021 10.9815C7.92954 10.3326 7.45648 9.53105 7.31897 9.28591C7.18146 9.04102 7.30423 8.90837 7.42247 8.7863C7.5283 8.6766 7.6582 8.50046 7.77606 8.35747C7.89367 8.21448 7.93296 8.11244 8.01154 7.94918C8.09011 7.78566 8.05083 7.64269 7.99189 7.52024C7.93296 7.39779 7.4749 6.18687 7.26532 5.7027Z" fill="#8BA529"/>
<path d="M16.2956 2.87492C14.5146 1.02328 12.1462 0.00302074 9.62296 0.00186157C4.42332 0.00186157 0.191875 4.39645 0.189785 9.79803C0.189172 11.5247 0.62343 13.2101 1.44884 14.6958L0.110596 19.7723L5.11122 18.41C6.489 19.1906 8.04027 19.602 9.61891 19.6026H9.62291H9.62296C14.8217 19.6026 19.0538 15.2073 19.056 9.80593C19.0569 7.18812 18.0765 4.72668 16.2956 2.87492ZM9.62296 17.9481H9.61989C8.21277 17.9473 6.8329 17.5548 5.62933 16.8129L5.34289 16.6365L2.37542 17.4447L3.16769 14.4401L2.98107 14.132C2.19618 12.8355 1.78181 11.3372 1.78243 9.79868C1.78414 5.30907 5.30115 1.65657 9.62591 1.65657C11.7202 1.65746 13.6885 2.50553 15.169 4.04455C16.6493 5.58357 17.4639 7.62945 17.4633 9.80532C17.4614 14.295 13.9443 17.9481 9.62296 17.9481Z" fill="white"/>
</g>
<defs>
<clipPath id="clip0_55_1322">
<rect width="20" height="20" fill="white"/>
</clipPath>
</defs>
</svg>
