<svg width="168" height="49" viewBox="0 0 168 49" fill="none" xmlns="http://www.w3.org/2000/svg">
<path fill-rule="evenodd" clip-rule="evenodd" d="M71.9205 14.7C74.0298 14.7 75.7484 15.3621 77.0765 16.6957C78.4046 18.0293 79.0588 19.7826 79.0588 21.9743C79.0588 24.1659 78.4046 25.9378 77.1058 27.3087C75.7973 28.6797 74.1176 29.3605 72.0377 29.3605H67.7019V35.525H64.2353V14.7H71.9205ZM71.1393 26.4041C72.4185 26.4041 73.4438 26.0124 74.2153 25.2197C74.9965 24.427 75.3773 23.3638 75.3773 22.0115C75.3773 20.6593 74.977 19.6054 74.186 18.8314C73.3853 18.0573 72.3306 17.675 71.0221 17.675H67.7019V26.4041H71.1393Z" fill="#43AE51"/>
<path fill-rule="evenodd" clip-rule="evenodd" d="M93.0847 35.525L91.2751 31.2492H82.9106L81.101 35.525H77.8235L86.862 14.7H87.3144L96.3529 35.525H93.0847ZM90.0657 28.3624L87.1021 21.1998L84.1108 28.3624H90.0657Z" fill="#43AE51"/>
<path fill-rule="evenodd" clip-rule="evenodd" d="M112.412 14.7L105.425 27.3367V35.525H102.086V27.3087L95.1176 14.7H99.0297L103.751 24.2871L108.641 14.7H112.412Z" fill="#43AE51"/>
<path fill-rule="evenodd" clip-rule="evenodd" d="M130.941 35.525H127.337L123.326 28.5677H122.918H119.261V35.525H116.118V14.7H122.812C124.76 14.7 126.345 15.3341 127.567 16.5931C128.789 17.8615 129.392 19.5308 129.392 21.6012C129.392 23.0094 129.108 24.2405 128.541 25.313C127.975 26.3761 127.187 27.1968 126.168 27.7657L130.941 35.525ZM119.261 25.6021H122.157C123.459 25.6021 124.459 25.257 125.168 24.5576C125.876 23.8674 126.221 22.8882 126.221 21.6292C126.221 20.3702 125.858 19.4003 125.123 18.7008C124.388 18.0107 123.37 17.6563 122.051 17.6563H119.261V25.6021Z" fill="#324003"/>
<path fill-rule="evenodd" clip-rule="evenodd" d="M134.647 35.525V14.7H146.85V17.6656H137.979V23.4291H146.136V26.3668H137.979V32.5593H147V35.525H134.647Z" fill="#324003"/>
<path fill-rule="evenodd" clip-rule="evenodd" d="M168 14.7L161.299 24.884L168 35.525H164.363L159.353 27.402L154.316 35.525H150.706L157.407 24.884L150.706 14.7H154.316L159.353 22.4592L164.363 14.7H168Z" fill="#324003"/>
<path fill-rule="evenodd" clip-rule="evenodd" d="M10.7067 0H38.7051C44.5956 0 49.4118 4.77601 49.4118 10.6174V38.3826C49.4118 44.224 44.5956 49 38.7051 49H10.7067C4.81614 49 0 44.224 0 38.3826V10.6174C0 4.77601 4.81614 0 10.7067 0Z" fill="#324003"/>
<path fill-rule="evenodd" clip-rule="evenodd" d="M10.7067 1.5614H38.7051C43.725 1.5614 47.8373 5.63938 47.8373 10.6174V38.3826C47.8373 42.7361 44.6975 46.4008 40.5482 47.2549C40.5482 47.2641 41.317 46.2997 41.9838 45.3904C42.734 44.3618 42.7618 44.0954 41.8449 42.9198C41.4003 42.3503 40.8631 41.8544 40.6038 41.5421C40.6038 41.5421 42.1876 40.3389 42.7248 39.7327C43.3082 39.0806 42.9563 38.5938 42.4469 38.0336C41.9653 37.51 41.3077 37.0233 40.6964 36.5457C41.0669 36.2609 41.7245 35.7374 42.3728 35.1588C44.0399 33.6525 44.7994 33.2667 43.1323 31.5217C42.4469 30.8053 40.9835 29.6572 40.9835 29.6572C40.9835 29.6572 47.1612 25.12 46.0497 23.1912C44.9383 21.2624 42.0764 19.5357 42.0764 19.5357C42.0764 19.5357 44.4197 16.2476 43.8269 14.8607C43.4472 13.9606 41.0206 13.2075 39.372 12.7942C39.2979 11.3155 38.9552 7.77021 37.5103 6.48436C36.0933 5.23525 32.2033 7.88961 30.4714 9.19383C30.0731 8.68867 27.6836 5.6853 26.3499 5.12503C24.8958 4.50966 21.6263 8.40395 21.6263 8.40395L20.9502 9.19383H12.8369C8.90062 9.19383 5.67751 12.3809 5.67751 16.2935V31.687C5.67751 35.5904 8.90062 38.7867 12.8369 38.7867H23.6269V47.4294H10.7067C5.68677 47.4294 1.57452 43.3515 1.57452 38.3734V10.6083C1.57452 5.63938 5.68677 1.5614 10.7067 1.5614Z" fill="white"/>
<path fill-rule="evenodd" clip-rule="evenodd" d="M12.8554 10.7736H33.1758C36.2508 10.7736 38.7607 13.2626 38.7607 16.3119V29.3081V31.7053V47.4662H25.2199V38.805H29.573C30.0083 38.805 30.3602 38.456 30.3602 38.0244C30.3602 37.5927 30.0083 37.2437 29.573 37.2437H25.2199H20.5983H12.8554C11.0216 37.2437 9.3915 36.3528 8.3727 34.9934C9.05808 35.0761 9.76197 34.672 10.2158 34.0382C10.3455 33.8637 10.4659 33.6617 10.5678 33.4688L10.9382 32.7524H15.7451L16.4305 33.6708C16.625 33.9464 16.838 34.2403 17.0695 34.4791C17.9772 35.4251 19.2183 34.9842 19.8944 34.0382C20.0241 33.8637 20.1445 33.6617 20.2463 33.4688L20.6353 32.7156C21.8116 32.6238 22.9693 32.3942 23.8955 31.8615C24.1734 31.7053 24.4512 31.5492 24.7198 31.4022C25.0162 31.2369 25.3033 31.09 25.5719 30.9246C25.6089 31.2185 25.8034 31.4757 26.1091 31.5767C26.5166 31.7145 26.9612 31.4941 27.1001 31.0808C27.1001 31.0808 27.2298 30.6124 27.0445 29.8317C26.8037 28.8397 25.6552 28.3989 25.6552 28.3989C25.257 28.2243 24.7939 28.3989 24.6179 28.7938C24.4975 29.0693 24.5438 29.3816 24.7291 29.602C24.4883 29.7398 24.2382 29.8776 23.9696 30.0245C23.7103 30.1623 23.4324 30.3093 23.1082 30.5021C22.2562 30.9889 21.0429 31.1451 19.8018 31.191H17.4956H17.4771H17.4585C17.227 31.191 17.0047 31.1818 16.7917 31.191C15.5784 31.191 14.3929 31.1726 13.0684 31.1818C11.4106 31.1726 9.56748 31.1818 7.27981 31.191V21.1614C7.80773 21.6941 8.54868 21.8319 8.96546 21.4645C9.40077 21.0879 9.31741 20.298 8.78022 19.7194C8.33566 19.2326 7.72438 19.0397 7.27981 19.205V16.3119C7.27055 13.2626 9.7805 10.7736 12.8554 10.7736ZM17.8938 19.3428C17.4585 18.9663 16.6805 19.1316 16.1434 19.7102C15.6062 20.298 15.5321 21.0787 15.9581 21.4553C16.3934 21.8319 17.1714 21.6757 17.7086 21.0879C18.2365 20.5001 18.3199 19.7194 17.8938 19.3428ZM32.0274 12.4543C31.944 12.4268 31.8607 12.3992 31.7866 12.3717C31.0364 12.1604 30.0083 12.2155 29.0729 12.5646C28.1096 12.9228 27.2205 13.6116 26.813 14.6587C26.7759 14.7505 26.7389 14.8515 26.7111 14.9617C26.5999 15.3751 26.8408 15.8067 27.2575 15.917C27.6743 16.0272 28.1096 15.7884 28.2208 15.3751C28.23 15.3291 28.2486 15.274 28.2763 15.2189C28.5079 14.6403 29.0358 14.2454 29.6286 14.0249C30.2491 13.7953 30.916 13.7494 31.3698 13.878L31.4717 13.9147C31.8792 14.0708 32.333 13.8688 32.4905 13.4738C32.6294 13.0605 32.4349 12.6105 32.0274 12.4543ZM30.4066 15.4302C28.9802 15.4302 27.8225 16.5507 27.8225 17.9376C27.8225 19.3244 28.9802 20.445 30.4066 20.445C31.8329 20.445 32.9906 19.3244 32.9906 17.9376C32.9906 16.5507 31.8329 15.4302 30.4066 15.4302Z" fill="#43AE51"/>
<path fill-rule="evenodd" clip-rule="evenodd" d="M31.8236 18.5071C32.2311 18.5071 32.5738 18.1764 32.5738 17.7631C32.5738 17.359 32.2404 17.0192 31.8236 17.0192C31.4161 17.0192 31.0734 17.3498 31.0734 17.7631C31.0734 18.1672 31.4068 18.5071 31.8236 18.5071Z" fill="white"/>
<path d="M28.7857 38.7959H25.2199V47.4478H28.7857V38.7959Z" fill="#089C41"/>
<path fill-rule="evenodd" clip-rule="evenodd" d="M18.8292 32.7524C18.8292 32.7524 18.3847 33.5882 18.1994 33.3954C18.0049 33.1933 17.6993 32.7524 17.6993 32.7524H18.8292Z" fill="white"/>
<path fill-rule="evenodd" clip-rule="evenodd" d="M9.15991 32.7524C9.15991 32.7524 8.71534 33.5882 8.53011 33.3954C8.33561 33.1933 8.02997 32.7524 8.02997 32.7524H9.15991Z" fill="white"/>
</svg>
